<svg width="101" height="100" viewBox="0 0 101 100" fill="none" xmlns="http://www.w3.org/2000/svg">
<path d="M64.453 27.4428C64.0944 27.4432 63.7486 27.3098 63.4838 27.0687C63.3438 26.9418 63.2303 26.7886 63.1498 26.618C63.0692 26.4473 63.0232 26.2625 63.0143 26.0741C63.0054 25.8857 63.0338 25.6974 63.0979 25.5199C63.162 25.3424 63.2606 25.1793 63.3879 25.0398C66.5696 21.5547 70.4954 19.315 74.7413 18.5633C78.2603 17.9406 81.9674 18.3459 85.1789 19.7057C85.5305 19.8547 85.8084 20.1367 85.9515 20.4899C86.0945 20.8431 86.0911 21.2384 85.9418 21.5891C85.7923 21.9396 85.5093 22.2166 85.155 22.3592C84.8006 22.5018 84.404 22.4982 84.0523 22.3494C79.0619 20.2365 71.5728 20.3414 65.5188 26.973C65.384 27.1212 65.2194 27.2396 65.0359 27.3205C64.8523 27.4014 64.6537 27.443 64.453 27.4428Z" fill="#D0C9BF"/>
<g filter="url(#filter0_i_24_2067)">
<path d="M67.4912 35.8567L69.7904 33.5647C72.5449 30.8188 72.5449 26.3668 69.7904 23.6209L67.1542 20.993C64.3997 18.2471 59.9337 18.2471 57.1792 20.993L53.2417 24.9182C48.7939 23.0012 43.8903 21.937 38.7365 21.937C18.5304 21.937 2.15015 38.2659 2.15015 58.4086C2.15015 78.5514 18.5304 94.8803 38.7365 94.8803C58.9425 94.8803 75.3228 78.5514 75.3228 58.4086C75.3228 49.895 72.396 42.0627 67.4912 35.8567Z" fill="#384C59"/>
</g>
<path d="M88.9459 20.4419C88.9459 22.822 87.0033 24.7585 84.6155 24.7585C82.2277 24.7585 80.2853 22.822 80.2853 20.4419C80.2853 18.0618 82.2277 16.1253 84.6155 16.1253C87.0033 16.1253 88.9459 18.0618 88.9459 20.4419ZM86.2484 13.1649V7.80303C86.2484 6.904 85.5173 6.17529 84.6155 6.17529C83.7136 6.17529 82.9827 6.904 82.9827 7.80303V13.1649C82.9827 13.5966 83.1547 14.0107 83.4609 14.3159C83.7671 14.6212 84.1824 14.7927 84.6155 14.7927C85.0486 14.7927 85.4639 14.6212 85.7701 14.3159C86.0763 14.0107 86.2484 13.5966 86.2484 13.1649ZM80.6084 16.4472C80.7601 16.296 80.8804 16.1166 80.9624 15.9191C81.0445 15.7216 81.0867 15.51 81.0867 15.2962C81.0867 15.0824 81.0445 14.8708 80.9624 14.6733C80.8804 14.4758 80.7601 14.2964 80.6084 14.1452L76.8051 10.3538C76.4979 10.0535 76.0841 9.88615 75.6538 9.88825C75.2235 9.89035 74.8114 10.0617 74.5072 10.365C74.2029 10.6684 74.031 11.0792 74.029 11.5081C74.0269 11.9371 74.1948 12.3495 74.4961 12.6558L78.2994 16.4472C78.6182 16.7649 79.0361 16.9239 79.454 16.9239C79.8719 16.9239 80.2896 16.7649 80.6084 16.4472ZM76.8051 30.5296L80.6084 26.7382C80.9097 26.4319 81.0776 26.0195 81.0755 25.5906C81.0735 25.1616 80.9016 24.7508 80.5974 24.4475C80.2931 24.1441 79.881 23.9728 79.4507 23.9707C79.0204 23.9686 78.6067 24.1359 78.2994 24.4362L74.4961 28.2276C74.2676 28.4552 74.1121 28.7453 74.049 29.0611C73.9859 29.3768 74.0183 29.7042 74.1419 30.0016C74.2655 30.2991 74.4748 30.5533 74.7434 30.7322C75.012 30.911 75.3277 31.0064 75.6507 31.0064C75.8651 31.0066 76.0775 30.9646 76.2756 30.8828C76.4737 30.801 76.6537 30.681 76.8051 30.5296ZM86.2484 33.0806V27.7187C86.2484 26.8196 85.5173 26.0909 84.6155 26.0909C83.7136 26.0909 82.9827 26.8196 82.9827 27.7187V33.0806C82.9827 33.9796 83.7136 34.7083 84.6155 34.7083C85.5173 34.7083 86.2484 33.9796 86.2484 33.0806ZM94.7351 30.5296C94.8867 30.3785 95.007 30.199 95.0891 30.0015C95.1712 29.804 95.2134 29.5924 95.2134 29.3786C95.2134 29.1649 95.1712 28.9532 95.0891 28.7557C95.007 28.5582 94.8867 28.3788 94.7351 28.2276L90.9318 24.4362C90.6245 24.1359 90.2108 23.9686 89.7805 23.9707C89.3502 23.9728 88.9381 24.1441 88.6338 24.4475C88.3296 24.7508 88.1577 25.1616 88.1557 25.5906C88.1536 26.0195 88.3215 26.4319 88.6228 26.7382L92.4261 30.5296C92.7449 30.8474 93.1628 31.0064 93.5807 31.0064C93.9986 31.0064 94.4163 30.8474 94.7351 30.5296ZM98.9269 20.4419C98.9269 20.0102 98.7549 19.5962 98.4487 19.2909C98.1425 18.9857 97.7271 18.8142 97.2941 18.8142H91.9153C91.0135 18.8142 90.2825 19.5429 90.2825 20.4419C90.2825 21.3409 91.0135 22.0696 91.9153 22.0696H97.2941C97.7271 22.0696 98.1425 21.8981 98.4487 21.5929C98.7549 21.2876 98.9269 20.8736 98.9269 20.4419ZM90.9318 16.4472L94.7351 12.6558C95.0364 12.3495 95.2043 11.9371 95.2022 11.5081C95.2001 11.0792 95.0283 10.6684 94.724 10.365C94.4198 10.0617 94.0077 9.89035 93.5774 9.88825C93.1471 9.88615 92.7333 10.0535 92.4261 10.3538L88.6228 14.1452C88.3943 14.3728 88.2387 14.6629 88.1757 14.9786C88.1126 15.2944 88.1449 15.6218 88.2685 15.9192C88.3921 16.2167 88.6015 16.4709 88.8701 16.6498C89.1386 16.8286 89.4544 16.924 89.7774 16.9239C89.9918 16.9242 90.2042 16.8822 90.4023 16.8004C90.6004 16.7186 90.7804 16.5985 90.9318 16.4472Z" fill="#FFC145"/>
<path d="M24.2965 30.0631C18.6501 32.5371 15.3229 37.3781 16.865 40.8757C18.4072 44.3733 24.2347 45.2031 29.8812 42.7291C35.5276 40.2551 38.8548 35.4141 37.3127 31.9165C35.7705 28.4188 29.943 27.589 24.2965 30.0631Z" fill="#80878C"/>
<defs>
<filter id="filter0_i_24_2067" x="2.15015" y="18.9336" width="73.1726" height="79.9468" filterUnits="userSpaceOnUse" color-interpolation-filters="sRGB">
<feFlood flood-opacity="0" result="BackgroundImageFix"/>
<feBlend mode="normal" in="SourceGraphic" in2="BackgroundImageFix" result="shape"/>
<feColorMatrix in="SourceAlpha" type="matrix" values="0 0 0 0 0 0 0 0 0 0 0 0 0 0 0 0 0 0 127 0" result="hardAlpha"/>
<feOffset dy="4"/>
<feGaussianBlur stdDeviation="2"/>
<feComposite in2="hardAlpha" operator="arithmetic" k2="-1" k3="1"/>
<feColorMatrix type="matrix" values="0 0 0 0 1 0 0 0 0 1 0 0 0 0 1 0 0 0 0.25 0"/>
<feBlend mode="normal" in2="shape" result="effect1_innerShadow_24_2067"/>
</filter>
</defs>
</svg>
