<svg width="170" height="170" viewBox="0 0 170 170" fill="none" xmlns="http://www.w3.org/2000/svg">
<path d="M109.227 46.653C108.619 46.6538 108.033 46.427 107.584 46.0172C107.347 45.8014 107.155 45.541 107.018 45.2509C106.882 44.9607 106.804 44.6465 106.788 44.3263C106.773 44.006 106.822 43.6858 106.93 43.3842C107.039 43.0825 107.206 42.8052 107.422 42.5681C112.814 36.6433 119.466 32.8359 126.662 31.5579C132.626 30.4994 138.908 31.1883 144.35 33.5C144.946 33.7532 145.417 34.2328 145.659 34.8332C145.902 35.4336 145.896 36.1057 145.643 36.7017C145.39 37.2976 144.91 37.7686 144.31 38.0109C143.709 38.2533 143.037 38.2474 142.441 37.9943C133.984 34.4024 121.292 34.5807 111.033 45.8545C110.804 46.1064 110.525 46.3076 110.214 46.4452C109.903 46.5827 109.567 46.6535 109.227 46.653Z" fill="#D0C9BF"/>
<g filter="url(#filter0_i_11_1347)">
<path d="M114.375 60.9565L118.272 57.0601C122.94 52.3921 122.94 44.8238 118.272 40.1558L113.804 35.6883C109.136 31.0202 101.568 31.0202 96.9 35.6883L90.2271 42.3611C82.6897 39.1022 74.3796 37.293 65.6455 37.293C31.4028 37.293 3.64368 65.0521 3.64368 99.2948C3.64368 133.538 31.4028 161.297 65.6455 161.297C99.8882 161.297 127.647 133.538 127.647 99.2948C127.647 84.8216 122.688 71.5068 114.375 60.9565Z" fill="#384C59"/>
</g>
<path d="M150.734 34.7513C150.734 38.7974 147.442 42.0895 143.396 42.0895C139.349 42.0895 136.057 38.7974 136.057 34.7513C136.057 30.7051 139.349 27.413 143.396 27.413C147.442 27.413 150.734 30.7051 150.734 34.7513ZM146.163 22.3804V13.2652C146.163 11.7369 144.924 10.498 143.396 10.498C141.867 10.498 140.629 11.7369 140.629 13.2652V22.3804C140.629 23.1143 140.92 23.8182 141.439 24.3371C141.958 24.8561 142.662 25.1476 143.396 25.1476C144.13 25.1476 144.833 24.8561 145.352 24.3371C145.871 23.8182 146.163 23.1143 146.163 22.3804ZM136.605 27.9602C136.862 27.7033 137.066 27.3983 137.205 27.0625C137.344 26.7268 137.416 26.367 137.416 26.0036C137.416 25.6402 137.344 25.2803 137.205 24.9446C137.066 24.6089 136.862 24.3038 136.605 24.0469L130.16 17.6015C129.639 17.0909 128.938 16.8065 128.209 16.8101C127.479 16.8136 126.781 17.1049 126.265 17.6206C125.75 18.1363 125.458 18.8346 125.455 19.5639C125.451 20.2931 125.736 20.9942 126.247 21.5148L132.692 27.9602C133.232 28.5004 133.94 28.7707 134.649 28.7707C135.357 28.7707 136.065 28.5004 136.605 27.9602ZM130.16 51.9004L136.605 45.455C137.116 44.9343 137.4 44.2332 137.397 43.504C137.393 42.7748 137.102 42.0764 136.586 41.5607C136.071 41.045 135.372 40.7538 134.643 40.7502C133.914 40.7466 133.213 41.031 132.692 41.5416L126.247 47.987C125.859 48.374 125.596 48.867 125.489 49.4039C125.382 49.9407 125.437 50.4971 125.646 51.0028C125.856 51.5085 126.21 51.9407 126.666 52.2448C127.121 52.5488 127.656 52.711 128.203 52.7108C128.567 52.7113 128.927 52.6399 129.262 52.5008C129.598 52.3618 129.903 52.1577 130.16 51.9004ZM146.163 56.237V47.1218C146.163 45.5934 144.924 44.3546 143.396 44.3546C141.867 44.3546 140.629 45.5934 140.629 47.1218V56.237C140.629 57.7654 141.867 59.0042 143.396 59.0042C144.924 59.0042 146.163 57.7654 146.163 56.237ZM160.545 51.9004C160.802 51.6434 161.006 51.3384 161.145 51.0027C161.284 50.6669 161.356 50.3071 161.356 49.9437C161.356 49.5803 161.284 49.2205 161.145 48.8847C161.006 48.549 160.802 48.244 160.545 47.987L154.1 41.5416C153.579 41.031 152.878 40.7466 152.149 40.7502C151.419 40.7538 150.721 41.045 150.205 41.5607C149.69 42.0764 149.399 42.7748 149.395 43.504C149.392 44.2332 149.676 44.9343 150.187 45.455L156.632 51.9004C157.172 52.4406 157.881 52.7108 158.589 52.7108C159.297 52.7108 160.005 52.4406 160.545 51.9004ZM167.649 34.7513C167.649 34.0174 167.357 33.3135 166.838 32.7946C166.319 32.2757 165.616 31.9841 164.882 31.9841H155.767C154.238 31.9841 152.999 33.2229 152.999 34.7513C152.999 36.2796 154.238 37.5184 155.767 37.5184H164.882C165.616 37.5184 166.319 37.2269 166.838 36.7079C167.357 36.189 167.649 35.4852 167.649 34.7513ZM154.1 27.9602L160.545 21.5148C161.056 20.9942 161.34 20.2931 161.337 19.5639C161.333 18.8346 161.042 18.1363 160.526 17.6206C160.011 17.1049 159.312 16.8136 158.583 16.8101C157.854 16.8065 157.153 17.0909 156.632 17.6015L150.187 24.0469C149.8 24.4338 149.536 24.9269 149.429 25.4637C149.322 26.0006 149.377 26.557 149.586 27.0627C149.796 27.5684 150.151 28.0006 150.606 28.3046C151.061 28.6087 151.596 28.7709 152.143 28.7707C152.507 28.7712 152.867 28.6998 153.202 28.5607C153.538 28.4216 153.843 28.2176 154.1 27.9602Z" fill="#FFC145"/>
<path d="M41.1748 51.1074C31.6059 55.3133 25.9674 63.5429 28.5808 69.4889C31.1943 75.4349 41.07 76.8456 50.6389 72.6398C60.2078 68.4339 65.8463 60.2042 63.2329 54.2583C60.6195 48.3123 50.7437 46.9016 41.1748 51.1074Z" fill="#80878C"/>
<defs>
<filter id="filter0_i_11_1347" x="3.64368" y="32.1873" width="124.004" height="133.109" filterUnits="userSpaceOnUse" color-interpolation-filters="sRGB">
<feFlood flood-opacity="0" result="BackgroundImageFix"/>
<feBlend mode="normal" in="SourceGraphic" in2="BackgroundImageFix" result="shape"/>
<feColorMatrix in="SourceAlpha" type="matrix" values="0 0 0 0 0 0 0 0 0 0 0 0 0 0 0 0 0 0 127 0" result="hardAlpha"/>
<feOffset dy="4"/>
<feGaussianBlur stdDeviation="2"/>
<feComposite in2="hardAlpha" operator="arithmetic" k2="-1" k3="1"/>
<feColorMatrix type="matrix" values="0 0 0 0 1 0 0 0 0 1 0 0 0 0 1 0 0 0 0.25 0"/>
<feBlend mode="normal" in2="shape" result="effect1_innerShadow_11_1347"/>
</filter>
</defs>
</svg>
