<svg width="170" height="170" viewBox="0 0 170 170" fill="none" xmlns="http://www.w3.org/2000/svg">
<path d="M53.1793 62.1175C53.1851 63.8168 53.6917 65.4762 54.6351 66.8863C55.5785 68.2964 56.9165 69.3939 58.4801 70.0401C60.0436 70.6864 61.7626 70.8524 63.4199 70.5174C65.0773 70.1823 66.5987 69.361 67.792 68.1574C68.9853 66.9537 69.7971 65.4216 70.1248 63.7546C70.4525 62.0875 70.2814 60.3601 69.6331 58.7907C68.9848 57.2213 67.8884 55.8802 66.4824 54.9368C65.0763 53.9933 63.4237 53.4898 61.7332 53.4897V62.1175H53.1793Z" fill="#8CFFF9"/>
<path opacity="0.2" d="M53.1793 62.1175C53.1851 63.8168 53.6917 65.4762 54.6351 66.8863C55.5785 68.2964 56.9165 69.3939 58.4801 70.0401C60.0436 70.6864 61.7626 70.8524 63.4199 70.5174C65.0773 70.1823 66.5987 69.361 67.792 68.1574C68.9853 66.9537 69.7971 65.4216 70.1248 63.7546C70.4525 62.0875 70.2814 60.3601 69.6331 58.7907C68.9848 57.2213 67.8884 55.8802 66.4824 54.9368C65.0763 53.9933 63.4237 53.4898 61.7332 53.4897V62.1175H53.1793Z" fill="black"/>
<path d="M55.6776 91.3397C43.7139 104.045 21.0211 120.03 5.14784 105.138C2.35533 102.538 -1.87753 106.763 0.914979 109.393C19.5807 126.855 45.4188 110.93 59.881 95.565C62.5265 92.7876 58.3231 88.5327 55.6776 91.3397Z" fill="#8CFFF9"/>
<g opacity="0.6">
<path d="M55.6776 91.3397C43.7139 104.045 21.0211 120.03 5.14784 105.138C2.35533 102.538 -1.87753 106.763 0.914979 109.393C19.5807 126.855 45.4188 110.93 59.881 95.565C62.5265 92.7876 58.3231 88.5327 55.6776 91.3397Z" fill="black"/>
</g>
<path d="M95.0376 60.2265C110.323 45.6893 126.137 19.7174 108.765 0.984483C106.149 -1.97023 101.945 2.40272 104.562 5.2097C119.259 21.1651 103.445 43.9755 90.8341 56.0012C88.0416 58.6605 92.2451 62.8857 95.0376 60.2265Z" fill="#8CFFF9"/>
<g opacity="0.6">
<path d="M95.0376 60.2265C110.323 45.6893 126.137 19.7174 108.765 0.984483C106.149 -1.97023 101.945 2.40272 104.562 5.2097C119.259 21.1651 103.445 43.9755 90.8341 56.0012C88.0416 58.6605 92.2451 62.8857 95.0376 60.2265Z" fill="black"/>
</g>
<path d="M58.2645 112.289C53.0029 132.824 53.238 163.11 77.8415 169.905C78.6211 170.105 79.4477 169.986 80.1395 169.573C80.8313 169.16 81.3317 168.488 81.5305 167.704C81.7293 166.92 81.6102 166.09 81.1996 165.394C80.7889 164.699 80.1202 164.196 79.3406 163.996C58.3527 158.087 59.6461 130.785 64.0259 113.766C64.2247 112.982 64.1057 112.151 63.695 111.456C63.2843 110.76 62.6156 110.258 61.836 110.058C61.0564 109.858 60.2297 109.978 59.5379 110.39C58.8461 110.803 58.3457 111.475 58.1469 112.259L58.2645 112.289Z" fill="#8CFFF9"/>
<g opacity="0.6">
<path d="M58.2645 112.289C53.0029 132.824 53.238 163.11 77.8415 169.905C78.6211 170.105 79.4477 169.986 80.1395 169.573C80.8313 169.16 81.3317 168.488 81.5305 167.704C81.7293 166.92 81.6102 166.09 81.1996 165.394C80.7889 164.699 80.1202 164.196 79.3406 163.996C58.3527 158.087 59.6461 130.785 64.0259 113.766C64.2247 112.982 64.1057 112.151 63.695 111.456C63.2843 110.76 62.6156 110.258 61.836 110.058C61.0564 109.858 60.2297 109.978 59.5379 110.39C58.8461 110.803 58.3457 111.475 58.1469 112.259L58.2645 112.289Z" fill="black"/>
</g>
<path d="M114.056 63.5064C131.075 59.1039 158.354 57.8038 164.027 78.9004C164.226 79.6841 164.726 80.3562 165.418 80.769C166.11 81.1819 166.936 81.3015 167.716 81.1017C168.496 80.9018 169.164 80.3989 169.575 79.7035C169.986 79.0081 170.105 78.1771 169.906 77.3935C163.145 52.6921 133.015 52.4558 112.586 57.7151C111.806 57.915 111.138 58.4179 110.727 59.1133C110.316 59.8087 110.197 60.6397 110.396 61.4233C110.595 62.207 111.095 62.8791 111.787 63.2919C112.479 63.7047 113.306 63.8244 114.085 63.6246L114.056 63.5064Z" fill="#8CFFF9"/>
<g opacity="0.6">
<path d="M114.056 63.5064C131.075 59.1039 158.354 57.8038 164.027 78.9004C164.226 79.6841 164.726 80.3562 165.418 80.769C166.11 81.1819 166.936 81.3015 167.716 81.1017C168.496 80.9018 169.164 80.3989 169.575 79.7035C169.986 79.0081 170.105 78.1771 169.906 77.3935C163.145 52.6921 133.015 52.4558 112.586 57.7151C111.806 57.915 111.138 58.4179 110.727 59.1133C110.316 59.8087 110.197 60.6397 110.396 61.4233C110.595 62.207 111.095 62.8791 111.787 63.2919C112.479 63.7047 113.306 63.8244 114.085 63.6246L114.056 63.5064Z" fill="black"/>
</g>
<path d="M51.7093 113.47C54.851 119.85 59.0116 125.669 64.0257 130.696C85.7191 152.502 118.083 155.339 136.278 137.049C154.474 118.759 151.681 86.228 129.988 64.3927C124.981 59.3591 119.193 55.1777 112.851 52.0125L51.7093 113.47Z" fill="#8CFFF9"/>
<path opacity="0.3" d="M51.7093 113.47C54.851 119.85 59.0116 125.669 64.0257 130.696C85.7191 152.502 118.083 155.339 136.278 137.049C154.474 118.759 151.681 86.228 129.988 64.3927C124.981 59.3591 119.193 55.1777 112.851 52.0125L51.7093 113.47Z" fill="black"/>
<path d="M57.8237 107.325L106.737 58.1582C91.3044 50.5055 73.6969 51.8646 62.6444 63.0039C51.592 74.1432 50.2105 91.8123 57.8237 107.325Z" fill="#8CFFF9"/>
<path opacity="0.5" d="M57.8237 107.325L106.737 58.1582C91.3044 50.5055 73.6969 51.8646 62.6444 63.0039C51.592 74.1432 50.2105 91.8123 57.8237 107.325Z" fill="black"/>
<path opacity="0.2" d="M51.7093 113.47C54.851 119.85 59.0116 125.669 64.0257 130.696C85.7191 152.502 118.083 155.339 136.278 137.049L82.3093 82.7415L51.7093 113.47Z" fill="black"/>
<path d="M12.1734 85.9324C14.3372 80.6046 17.5348 75.7632 21.5797 71.6907C32.1618 61.1423 45.0956 63.2402 56.1186 71.8975C56.8535 72.4885 57.9118 71.4543 57.1769 70.8633C47.0063 62.9743 34.8074 59.2809 23.8137 67.7018C18.0076 72.3805 13.5018 78.487 10.733 85.4301C10.3509 86.3165 11.8207 86.7006 12.1734 85.8142V85.9324Z" fill="#263238"/>
<path d="M85.0723 10.8235C78.1572 13.6067 72.0798 18.1476 67.4354 24.0015C59.0579 35.0521 62.7029 47.2847 70.5513 57.508C71.1392 58.2762 72.1974 57.2125 71.6095 56.4443C63.0262 45.2755 60.8804 32.3338 71.3743 21.756C75.435 17.694 80.2486 14.4717 85.5427 12.2714C86.4245 11.9168 86.0718 10.469 85.1899 10.8235H85.0723Z" fill="#263238"/>
<path d="M82.9264 106.261C84.1691 107.497 85.0184 109.076 85.3663 110.798C85.7141 112.52 85.545 114.307 84.8803 115.932C84.2156 117.557 83.0854 118.947 81.6332 119.926C80.1809 120.904 78.4723 121.426 76.7242 121.426C74.9761 121.426 73.2673 120.904 71.8151 119.926C70.3629 118.947 69.2327 117.557 68.568 115.932C67.9033 114.307 67.7342 112.52 68.0821 110.798C68.43 109.076 69.2791 107.497 70.5218 106.261C72.1728 104.619 74.4016 103.698 76.7242 103.698C79.0467 103.698 81.2754 104.619 82.9264 106.261Z" fill="white"/>
<path d="M118.083 70.9223C119.326 72.1582 120.175 73.7375 120.523 75.4595C120.87 77.1815 120.701 78.9686 120.037 80.5938C119.372 82.219 118.242 83.609 116.79 84.5872C115.337 85.5654 113.629 86.0877 111.88 86.0877C110.132 86.0877 108.424 85.5654 106.972 84.5872C105.519 83.609 104.389 82.219 103.724 80.5938C103.06 78.9686 102.891 77.1815 103.238 75.4595C103.586 73.7375 104.436 72.1582 105.678 70.9223C107.329 69.2804 109.558 68.3594 111.88 68.3594C114.203 68.3594 116.432 69.2804 118.083 70.9223Z" fill="white"/>
<path d="M110.411 125.407C111.654 126.643 112.503 128.223 112.851 129.945C113.199 131.667 113.03 133.454 112.365 135.079C111.7 136.704 110.57 138.094 109.118 139.072C107.666 140.05 105.957 140.573 104.209 140.573C102.461 140.573 100.752 140.05 99.2998 139.072C97.8476 138.094 96.7174 136.704 96.0527 135.079C95.388 133.454 95.2189 131.667 95.5668 129.945C95.9146 128.223 96.7638 126.643 98.0065 125.407C99.6575 123.765 101.886 122.844 104.209 122.844C106.531 122.844 108.76 123.765 110.411 125.407Z" fill="white"/>
<path d="M137.131 98.5492C138.374 99.7851 139.223 101.364 139.571 103.086C139.919 104.808 139.749 106.596 139.085 108.221C138.42 109.846 137.29 111.236 135.838 112.214C134.385 113.192 132.677 113.715 130.929 113.715C129.18 113.715 127.472 113.192 126.02 112.214C124.567 111.236 123.437 109.846 122.772 108.221C122.108 106.596 121.939 104.808 122.286 103.086C122.634 101.364 123.484 99.7851 124.726 98.5492C126.377 96.9073 128.606 95.9863 130.929 95.9863C133.251 95.9863 135.48 96.9073 137.131 98.5492Z" fill="white"/>
</svg>
