<svg width="165" height="165" viewBox="0 0 165 165" fill="none" xmlns="http://www.w3.org/2000/svg">
<path d="M104.143 60.4613C97.2995 53.6176 93.4499 44.3357 93.4499 34.6689V27.868H71.5499V34.6689C71.5499 44.3357 67.7003 53.6176 60.8565 60.4613C53.6706 67.6473 49.6499 77.3996 49.6499 87.5369V141.089C49.6499 148.404 55.5526 154.306 62.8669 154.306H102.133C109.447 154.306 115.35 148.404 115.35 141.089V87.5369C115.35 77.3568 111.329 67.6473 104.143 60.4613Z" fill="#FE8E46"/>
<path d="M71.5499 141.089V87.5369C71.5499 77.3568 75.5706 67.6473 82.7565 60.4613C89.6003 53.6176 93.4499 44.3357 93.4499 34.6689V27.868H71.5499V34.6689C71.5499 44.3357 67.7003 53.6176 60.8565 60.4613C53.6706 67.6473 49.6499 77.3996 49.6499 87.5369V141.089C49.6499 148.404 55.5526 154.306 62.8669 154.306H84.7669C77.4526 154.306 71.5499 148.404 71.5499 141.089Z" fill="#E56823"/>
<path d="M102.133 157.3H62.8669C53.9273 157.3 46.6558 150.029 46.6558 141.089V87.5369C46.6558 76.5014 50.9331 66.1502 58.7606 58.3227C65.0911 51.9922 68.5558 43.6086 68.5558 34.6689V27.868C68.5558 26.1998 69.8817 24.8738 71.5499 24.8738H93.4499C95.1181 24.8738 96.444 26.1998 96.444 27.868V34.6689C96.444 43.6086 99.9087 52.035 106.239 58.3227C114.024 66.1074 118.344 76.5014 118.344 87.5369V141.089C118.344 150.029 111.073 157.3 102.133 157.3ZM74.544 30.8621V34.6689C74.544 45.1912 70.4378 55.1146 62.9952 62.5572C56.3226 69.2299 52.644 78.084 52.644 87.5369V141.089C52.644 146.735 57.2208 151.312 62.8669 151.312H102.133C107.779 151.312 112.356 146.735 112.356 141.089V87.5369C112.356 78.1268 108.677 69.2299 102.005 62.5572C94.562 55.1146 90.4558 45.1912 90.4558 34.6689V30.8621H74.544Z" fill="#463218"/>
<path d="M65.3477 14.6938H99.652V40.315H65.3477V14.6938Z" fill="#FEFE71"/>
<path d="M65.3477 14.6938H78.2225V40.315H65.3477V14.6938Z" fill="#D6CD1E"/>
<path d="M99.652 43.2664H65.3477C63.6795 43.2664 62.3535 41.9404 62.3535 40.2723V14.6938C62.3535 13.0256 63.6795 11.6996 65.3477 11.6996H99.652C101.32 11.6996 102.646 13.0256 102.646 14.6938V40.315C102.646 41.9404 101.277 43.2664 99.652 43.2664ZM68.3418 37.2781H96.6578V17.6879H68.3418V37.2781Z" fill="#463218"/>
<path d="M111.885 71.668H101.534L69.668 108.496H101.192L80.1047 141.645L115.35 110.463V93.568H103.929L114.366 79.025C113.81 76.4586 112.955 74.0205 111.885 71.668Z" fill="#FEFE71"/>
<path d="M80.1046 144.639C79.4202 144.639 78.7358 144.383 78.1798 143.912C77.0249 142.929 76.811 141.303 77.5809 140.02L95.7597 111.447H69.6679C68.513 111.447 67.4436 110.763 66.9304 109.694C66.4599 108.624 66.6309 107.384 67.4009 106.486L99.3098 69.6576C99.8659 69.016 100.721 68.6311 101.577 68.6311H111.928C113.083 68.6311 114.152 69.3154 114.666 70.3848C115.82 72.9084 116.719 75.5604 117.317 78.2979C117.489 79.1533 117.317 80.0088 116.847 80.6932L109.789 90.5311H115.393C117.061 90.5311 118.387 91.857 118.387 93.5252V110.421C118.387 111.276 118.002 112.089 117.36 112.645L82.0722 143.87C81.5161 144.383 80.7889 144.639 80.1046 144.639ZM76.2122 105.502H101.192C102.304 105.502 103.288 106.101 103.801 107.042C104.314 107.983 104.272 109.18 103.716 110.079L94.0487 125.306L112.399 109.095V96.5621H103.972C102.86 96.5621 101.833 95.9205 101.32 94.9367C100.807 93.9529 100.892 92.7553 101.534 91.8143L111.158 78.3834C110.816 77.1002 110.431 75.8598 109.918 74.6621H102.946L76.2122 105.502Z" fill="#463218"/>
<path d="M66.5884 81.7625H60.6001C60.6001 71.5397 71.4646 61.1457 71.9351 60.6752L76.0413 65.0381C73.4321 67.5617 66.5884 75.432 66.5884 81.7625Z" fill="white"/>
</svg>
