<svg width="73" height="147" viewBox="0 0 73 147" fill="none" xmlns="http://www.w3.org/2000/svg">
<path d="M58.1433 49.4613C51.2995 42.6176 47.4499 33.3357 47.4499 23.6689V16.868H25.5499V23.6689C25.5499 33.3357 21.7003 42.6176 14.8565 49.4613C7.6706 56.6473 3.6499 66.3996 3.6499 76.5369V130.089C3.6499 137.404 9.55264 143.306 16.8669 143.306H56.1329C63.4472 143.306 69.3499 137.404 69.3499 130.089V76.5369C69.3499 66.3568 65.3292 56.6473 58.1433 49.4613Z" fill="#FE8E46"/>
<path d="M25.5499 130.089V76.5369C25.5499 66.3568 29.5706 56.6473 36.7565 49.4613C43.6003 42.6176 47.4499 33.3357 47.4499 23.6689V16.868H25.5499V23.6689C25.5499 33.3357 21.7003 42.6176 14.8565 49.4613C7.6706 56.6473 3.6499 66.3996 3.6499 76.5369V130.089C3.6499 137.404 9.55264 143.306 16.8669 143.306H38.7669C31.4526 143.306 25.5499 137.404 25.5499 130.089Z" fill="#E56823"/>
<path d="M56.1329 146.3H16.8669C7.92725 146.3 0.655762 139.029 0.655762 130.089V76.5369C0.655762 65.5014 4.93311 55.1502 12.7606 47.3227C19.0911 40.9922 22.5558 32.6086 22.5558 23.6689V16.868C22.5558 15.1998 23.8817 13.8738 25.5499 13.8738H47.4499C49.1181 13.8738 50.444 15.1998 50.444 16.868V23.6689C50.444 32.6086 53.9087 41.035 60.2392 47.3227C68.0239 55.1074 72.344 65.5014 72.344 76.5369V130.089C72.344 139.029 65.0726 146.3 56.1329 146.3ZM28.544 19.8621V23.6689C28.544 34.1912 24.4378 44.1146 16.9952 51.5572C10.3226 58.2299 6.64404 67.084 6.64404 76.5369V130.089C6.64404 135.735 11.2208 140.312 16.8669 140.312H56.1329C61.779 140.312 66.3558 135.735 66.3558 130.089V76.5369C66.3558 67.1268 62.6773 58.2299 56.0046 51.5572C48.562 44.1146 44.4558 34.1912 44.4558 23.6689V19.8621H28.544Z" fill="#463218"/>
<path d="M19.3477 3.69376H53.652V29.315H19.3477V3.69376Z" fill="#FEFE71"/>
<path d="M19.3477 3.69376H32.2225V29.315H19.3477V3.69376Z" fill="#D6CD1E"/>
<path d="M53.652 32.2664H19.3477C17.6795 32.2664 16.3535 30.9404 16.3535 29.2723V3.69376C16.3535 2.02559 17.6795 0.699615 19.3477 0.699615H53.652C55.3201 0.699615 56.6461 2.02559 56.6461 3.69376V29.315C56.6461 30.9404 55.2773 32.2664 53.652 32.2664ZM22.3418 26.2781H50.6578V6.6879H22.3418V26.2781Z" fill="#463218"/>
<path d="M65.8854 60.668H55.5342L23.668 97.4959H55.192L34.1047 130.645L69.35 99.4635V82.568H57.9295L68.3662 68.025C67.8102 65.4586 66.9547 63.0205 65.8854 60.668Z" fill="#FEFE71"/>
<path d="M34.1046 133.639C33.4202 133.639 32.7358 133.383 32.1798 132.912C31.0249 131.929 30.811 130.303 31.5809 129.02L49.7597 100.447H23.6679C22.513 100.447 21.4436 99.7629 20.9304 98.6936C20.4599 97.6242 20.6309 96.3838 21.4009 95.4855L53.3098 58.6576C53.8659 58.016 54.7214 57.6311 55.5768 57.6311H65.928C67.0829 57.6311 68.1522 58.3154 68.6655 59.3848C69.8204 61.9084 70.7186 64.5604 71.3175 67.2979C71.4886 68.1533 71.3175 69.0088 70.847 69.6932L63.7893 79.5311H69.3927C71.0608 79.5311 72.3868 80.857 72.3868 82.5252V99.4207C72.3868 100.276 72.0018 101.089 71.3602 101.645L36.0722 132.87C35.5161 133.383 34.7889 133.639 34.1046 133.639ZM30.2122 94.5018H55.1919C56.304 94.5018 57.2878 95.1006 57.8011 96.0416C58.3143 96.9826 58.2716 98.1803 57.7155 99.0785L48.0487 114.306L66.3985 98.0947V85.5621H57.9722C56.86 85.5621 55.8335 84.9205 55.3202 83.9367C54.8069 82.9529 54.8925 81.7553 55.5341 80.8143L65.1581 67.3834C64.8159 66.1002 64.4309 64.8598 63.9177 63.6621H56.9456L30.2122 94.5018Z" fill="#463218"/>
<path d="M20.5884 70.7625H14.6001C14.6001 60.5397 25.4646 50.1457 25.9351 49.6752L30.0413 54.0381C27.4321 56.5617 20.5884 64.432 20.5884 70.7625Z" fill="white"/>
</svg>
