<svg width="190" height="214" viewBox="0 0 190 214" fill="none" xmlns="http://www.w3.org/2000/svg">
<path d="M113.32 83.5104C107.407 76.8229 104.08 67.7529 104.08 58.3068V51.6611H85.1566V58.3068C85.1566 67.7529 81.8302 76.8229 75.9165 83.5104C69.7072 90.5322 66.2329 100.062 66.2329 109.968V162.297C66.2329 169.445 71.3334 175.213 77.6537 175.213H111.583C117.904 175.213 123.004 169.445 123.004 162.297V109.968C123.004 100.02 119.53 90.5322 113.32 83.5104Z" fill="#FE8E46"/>
<path d="M85.1566 162.297V109.968C85.1566 100.02 88.6309 90.5322 94.8402 83.5104C100.754 76.8229 104.08 67.7529 104.08 58.3068V51.6611H85.1566V58.3068C85.1566 67.7529 81.8302 76.8229 75.9165 83.5104C69.7072 90.5322 66.2329 100.062 66.2329 109.968V162.297C66.2329 169.445 71.3334 175.213 77.6537 175.213H96.5774C90.2572 175.213 85.1566 169.445 85.1566 162.297Z" fill="#E56823"/>
<path d="M111.583 178.138H77.6537C69.929 178.138 63.6458 171.033 63.6458 162.297V109.968C63.6458 99.1842 67.3418 89.0693 74.1055 81.4205C79.5757 75.2346 82.5695 67.0424 82.5695 58.3068V51.6611C82.5695 50.0311 83.7152 48.7354 85.1567 48.7354H104.08C105.522 48.7354 106.668 50.0311 106.668 51.6611V58.3068C106.668 67.0424 109.661 75.2764 115.132 81.4205C121.858 89.0275 125.591 99.1842 125.591 109.968V162.297C125.591 171.033 119.308 178.138 111.583 178.138ZM87.7439 54.5869V58.3068C87.7439 68.5889 84.1957 78.2857 77.7646 85.5584C71.9988 92.0787 68.8202 100.731 68.8202 109.968V162.297C68.8202 167.815 72.775 172.287 77.6537 172.287H111.583C116.462 172.287 120.417 167.815 120.417 162.297V109.968C120.417 100.772 117.238 92.0787 111.472 85.5584C105.041 78.2857 101.493 68.5889 101.493 58.3068V54.5869H87.7439Z" fill="#463218"/>
<path d="M79.7974 38.7876H109.44V63.8239H79.7974V38.7876Z" fill="#FEFE71"/>
<path d="M79.7974 38.7876H90.9224V63.8239H79.7974V38.7876Z" fill="#D6CD1E"/>
<path d="M109.44 66.7079H79.7974C78.356 66.7079 77.2102 65.4122 77.2102 63.7821V38.7876C77.2102 37.1575 78.356 35.8618 79.7974 35.8618H109.44C110.881 35.8618 112.027 37.1575 112.027 38.7876V63.8239C112.027 65.4122 110.844 66.7079 109.44 66.7079ZM82.3847 60.8563H106.852V41.7134H82.3847V60.8563Z" fill="#463218"/>
<path d="M120.01 94.4609H111.066L83.5305 130.448H110.77L92.5488 162.841L123.004 132.371V115.861H113.136L122.154 101.65C121.674 99.1422 120.934 96.7598 120.01 94.4609Z" fill="#FEFE71"/>
<path d="M92.5487 165.766C91.9573 165.766 91.366 165.515 90.8855 165.056C89.8876 164.094 89.7028 162.506 90.3681 161.252L106.076 133.332H83.5304C82.5325 133.332 81.6084 132.663 81.1649 131.618C80.7584 130.573 80.9062 129.361 81.5715 128.483L109.144 92.4963C109.624 91.8693 110.364 91.4932 111.103 91.4932H120.047C121.045 91.4932 121.969 92.1619 122.413 93.2068C123.411 95.6729 124.187 98.2643 124.704 100.939C124.852 101.775 124.704 102.611 124.298 103.28L118.199 112.893H123.041C124.482 112.893 125.628 114.189 125.628 115.819V132.329C125.628 133.165 125.296 133.959 124.741 134.502L94.2489 165.014C93.7684 165.515 93.1401 165.766 92.5487 165.766ZM89.1853 127.522H110.77C111.731 127.522 112.581 128.107 113.025 129.027C113.468 129.946 113.431 131.117 112.951 131.994L104.598 146.874L120.454 131.033V118.787H113.173C112.212 118.787 111.325 118.16 110.881 117.198C110.438 116.237 110.511 115.067 111.066 114.147L119.382 101.023C119.086 99.7689 118.754 98.5568 118.31 97.3865H112.286L89.1853 127.522Z" fill="#463218"/>
<path d="M80.8693 104.325H75.6948C75.6948 94.3356 85.0828 84.179 85.4893 83.7192L89.0375 87.9825C86.7829 90.4485 80.8693 98.1392 80.8693 104.325Z" fill="white"/>
</svg>
