<svg width="867" height="286" viewBox="0 0 867 286" fill="none" xmlns="http://www.w3.org/2000/svg">
<path d="M264.012 9.57578C251.666 -2.76844 231.623 -2.78091 219.264 9.55083L171.406 57.2552C159.035 69.5869 159.023 89.6073 171.381 101.964C183.727 114.321 203.77 114.333 216.141 101.989L263.999 54.2721C276.32 41.9154 276.332 21.9325 264.012 9.57578Z" fill="#5C7D70" fill-opacity="0.2"/>
<path d="M263.986 219.003L216.128 171.286C203.769 158.954 183.726 158.954 171.381 171.311C159.022 183.655 159.035 203.676 171.393 216.008C171.393 216.008 171.393 216.007 171.406 216.02L219.264 263.724C225.175 269.666 233.234 272.998 241.619 272.973C259.088 272.986 273.258 258.832 273.271 241.382C273.271 232.982 269.934 224.932 263.986 219.003Z" fill="#4C79AF" fill-opacity="0.2"/>
<path d="M168.232 136.625V136.513C168.232 128.163 164.921 120.162 158.998 114.258L54.2589 9.53846C42.0756 -2.95555 22.0575 -3.20517 9.54929 8.96432C-2.9589 21.1338 -3.20881 41.1292 8.97449 53.6232C9.14943 53.8104 9.33686 53.9852 9.52429 54.1724L91.9834 136.625L9.52429 219.066C-2.89642 231.323 -3.00888 251.318 9.26189 263.725C21.5327 276.131 41.5508 276.244 53.9715 263.987C54.0714 263.887 54.1589 263.8 54.2589 263.7L158.998 158.967C164.946 153.051 168.27 145 168.232 136.625Z" fill="#C25700" fill-opacity="0.2"/>
<path d="M371.124 225.394L385.957 264.898L400.851 225.394H409.424V272.412H403.488V233.295H403.363L388.668 272.412H383.332L368.638 233.295H368.513V272.412H362.577V225.394C362.552 225.394 371.124 225.394 371.124 225.394ZM431.903 237.576C440.388 237.576 444.624 240.634 444.624 246.725V266.346C444.624 267.619 445.211 268.255 446.411 268.255C446.998 268.255 447.573 268.143 448.123 267.931V272.274C446.886 272.923 445.499 273.235 444.099 273.198C440.938 273.198 439.351 271.438 439.363 267.931C436.389 271.438 431.966 273.385 427.367 273.198C424.406 273.373 421.482 272.499 419.095 270.727C417.046 268.967 415.934 266.346 416.096 263.65C415.971 260.916 417.058 258.27 419.058 256.41C421.032 254.613 425.63 253.252 432.84 252.329C434.577 252.241 436.289 251.767 437.814 250.918C438.688 250.257 439.163 249.208 439.101 248.123C439.101 244.391 436.577 242.531 431.516 242.531C429.329 242.381 427.142 242.918 425.281 244.079C423.819 245.277 422.981 247.087 423.006 248.984H417.396C417.833 241.37 422.669 237.576 431.903 237.576ZM422.007 263.25C421.944 264.686 422.581 266.059 423.719 266.932C425.156 267.893 426.867 268.355 428.592 268.255C431.266 268.368 433.903 267.581 436.077 266.021C437.876 264.823 438.963 262.838 439.013 260.691V254.825C437.826 255.587 436.464 256.061 435.052 256.211L429.317 257.072C427.317 257.234 425.405 257.921 423.781 259.081C422.581 260.117 421.919 261.653 422.007 263.25ZM469.603 237.576C477.425 237.576 481.336 241.632 481.336 249.758V272.412H475.726V249.171C475.776 247.424 475.138 245.714 473.951 244.428C472.564 243.08 470.665 242.381 468.741 242.518C465.967 242.344 463.255 243.405 461.331 245.414C459.531 247.523 458.607 250.219 458.731 252.99V272.412H453.133V238.375H458.407V243.767H458.532C460.756 239.772 465.042 237.376 469.603 237.576ZM506.79 237.576C511.163 237.376 515.387 239.186 518.261 242.481C521.21 246.15 522.709 250.781 522.485 255.487C522.709 260.142 521.185 264.723 518.236 268.33C515.399 271.575 511.238 273.373 506.927 273.198C504.791 273.198 502.691 272.761 500.73 271.912C498.743 271.089 497.068 269.678 495.919 267.856H495.781V285.442H490.171V238.362H495.781V242.968H495.919C498.118 239.148 502.404 237.014 506.79 237.576ZM495.581 255.349C495.394 258.719 496.381 262.039 498.38 264.76C500.317 267.119 503.266 268.418 506.315 268.255C509.252 268.405 512.063 267.107 513.863 264.798C515.799 261.952 516.737 258.532 516.537 255.087C516.687 251.817 515.662 248.597 513.663 246.001C511.776 243.679 508.902 242.394 505.915 242.506C503.004 242.394 500.205 243.667 498.368 245.938C496.381 248.647 495.381 251.979 495.581 255.349ZM543.44 237.576C547.988 237.351 552.412 239.136 555.536 242.456C561.471 250.007 561.471 260.642 555.536 268.193C552.449 271.575 548.013 273.41 543.44 273.198C538.916 273.398 534.53 271.638 531.406 268.355C528.27 264.798 526.658 260.155 526.896 255.412C526.646 250.669 528.245 246.013 531.344 242.406C534.468 239.111 538.891 237.351 543.44 237.576ZM532.818 255.412C532.669 258.757 533.718 262.052 535.78 264.698C539.341 268.917 545.639 269.454 549.863 265.896C550.287 265.534 550.687 265.147 551.037 264.723C553.137 262.077 554.199 258.769 554.036 255.412C554.186 252.054 553.136 248.759 551.075 246.101C549.213 243.754 546.351 242.431 543.365 242.506C540.416 242.468 537.629 243.804 535.817 246.126C533.743 248.772 532.681 252.067 532.818 255.412ZM568.019 238.362L575.729 266.208H575.854L582.714 238.362H588.849L596.034 266.208H596.109L603.757 238.362H609.555L598.746 272.337L598.683 272.399H592.748L585.763 245.339H585.7L578.853 272.399H572.792L561.858 238.362H568.019ZM627.086 237.576C631.484 237.376 635.708 239.311 638.42 242.78C641.294 246.725 642.731 251.53 642.506 256.41V257.072H617.002V257.471C616.852 260.367 617.877 263.2 619.839 265.335C621.9 267.357 624.724 268.43 627.611 268.268C631.859 268.742 635.733 265.821 636.445 261.615H641.981C641.481 265.023 639.707 268.105 637.033 270.277C634.246 272.312 630.86 273.335 627.411 273.21C622.738 273.522 618.202 271.563 615.215 267.943C612.391 264.286 610.929 259.78 611.067 255.175C610.904 250.556 612.541 246.051 615.615 242.593C618.514 239.298 622.713 237.463 627.086 237.576ZM636.57 252.129C636.47 249.545 635.408 247.087 633.571 245.239C631.747 243.417 629.26 242.431 626.686 242.506C624.224 242.456 621.85 243.392 620.088 245.115C618.227 246.987 617.127 249.483 616.989 252.129H636.57ZM666.048 237.576V243.504C662.599 243.217 659.2 244.428 656.726 246.825C654.489 249.795 653.414 253.49 653.727 257.197V272.399H648.129V238.362H653.402V245.539H653.527C655.401 240.709 660.075 237.538 665.26 237.563H666.048V237.576ZM693.925 224.27C698.824 224.071 703.647 225.469 707.671 228.252C711.344 231.073 713.694 235.279 714.168 239.872H707.908C707.458 236.814 705.821 234.056 703.36 232.196C700.586 230.311 697.287 229.375 693.938 229.525C689.39 229.375 685.041 231.372 682.204 234.93C679.068 239.111 677.506 244.266 677.794 249.483C677.631 254.326 679.218 259.069 682.242 262.851C685.079 266.396 689.415 268.393 693.938 268.255C697.924 268.393 701.81 266.945 704.747 264.236C707.633 261.49 709.195 257.621 709.033 253.639V252.915H694.013V247.648H714.643V272.412H710.682L709.033 266.545C707.321 268.779 705.084 270.564 702.51 271.713C699.823 272.936 696.899 273.547 693.938 273.522C687.853 273.672 682.017 271.176 677.918 266.683C673.657 262.114 671.358 256.061 671.521 249.833C671.246 243.192 673.358 236.677 677.481 231.46C681.542 226.629 687.628 223.971 693.925 224.27ZM741.397 237.576V243.504C737.948 243.217 734.549 244.428 732.075 246.825C729.826 249.795 728.763 253.49 729.076 257.197V272.399H723.465V238.362H728.738V245.539H728.863C730.738 240.709 735.411 237.538 740.597 237.563H741.397V237.576ZM758.791 237.576C763.339 237.351 767.763 239.136 770.886 242.456C776.809 250.02 776.809 260.642 770.886 268.193C767.8 271.575 763.364 273.41 758.791 273.198C754.267 273.398 749.881 271.638 746.757 268.355C743.621 264.798 742.009 260.155 742.246 255.412C741.996 250.669 743.596 246.013 746.695 242.406C749.831 239.111 754.242 237.351 758.791 237.576ZM748.169 255.412C748.019 258.757 749.069 262.052 751.131 264.698C754.68 268.917 760.99 269.453 765.213 265.909C765.638 265.547 766.038 265.16 766.4 264.735C768.5 262.102 769.562 258.782 769.399 255.424C769.549 252.067 768.5 248.772 766.438 246.113C764.576 243.767 761.715 242.443 758.716 242.518C755.767 242.481 752.98 243.816 751.168 246.138C749.094 248.772 748.032 252.067 748.169 255.412ZM786.743 238.362V261.528C786.669 263.325 787.343 265.072 788.58 266.371C789.942 267.669 791.779 268.343 793.666 268.243C796.478 268.43 799.227 267.369 801.176 265.347C802.95 263.238 803.875 260.529 803.738 257.771V238.35H809.348V272.387H804.075V266.982H803.95C801.776 271.026 797.452 273.435 792.866 273.173C785.044 273.173 781.133 269.129 781.133 261.066V238.35H786.743V238.362ZM833.402 237.576C837.776 237.376 841.999 239.186 844.873 242.481C847.822 246.15 849.322 250.781 849.097 255.487C849.322 260.142 847.81 264.723 844.848 268.33C842.012 271.575 837.851 273.373 833.54 273.198C831.403 273.198 829.304 272.761 827.342 271.912C825.355 271.089 823.681 269.666 822.531 267.856H822.406V285.442H816.796V238.362H822.406V242.968H822.531C824.73 239.148 829.029 237.014 833.402 237.576ZM822.206 255.349C822.031 258.719 823.018 262.039 825.005 264.76C826.942 267.119 829.891 268.418 832.94 268.255C835.877 268.405 838.688 267.107 840.487 264.798C842.424 261.94 843.361 258.532 843.149 255.087C843.299 251.817 842.287 248.597 840.288 246.001C838.401 243.679 835.527 242.394 832.54 242.506C829.629 242.394 826.83 243.667 824.993 245.938C823.006 248.647 822.006 251.979 822.206 255.349ZM438.289 51.264V63.6207H376.722V98.6938H434.103V111.051H376.722V149.219H438.751V161.576H362.027V51.2516H438.289V51.264ZM467.216 81.7065L486.247 109.515H486.397L506.353 81.7065H522.135L494.594 118.477L525.533 161.588H508.664L486.384 128.525L464.105 161.588H448.173L478.175 119.563L450.334 81.7065H467.216ZM572.417 79.8467C582.676 79.3849 592.585 83.6161 599.333 91.3547C606.256 99.9794 609.779 110.838 609.23 121.872C609.755 132.806 606.193 143.54 599.258 152.002C592.598 159.629 582.851 163.835 572.73 163.435C567.731 163.423 562.783 162.4 558.185 160.427C553.536 158.493 549.588 155.173 546.901 150.929H546.589V192.18H533.443V81.7065H546.589V92.5155H546.901C551.112 84.078 559.622 79.8467 572.417 79.8467ZM546.114 121.56C545.689 129.461 548.013 137.274 552.687 143.665C557.235 149.207 564.158 152.24 571.318 151.853C578.19 152.202 584.813 149.182 589.037 143.74C593.598 137.05 595.797 129.036 595.297 120.948C595.647 113.272 593.26 105.721 588.562 99.6299C584.138 94.188 577.403 91.155 570.381 91.442C563.533 91.1799 556.973 94.1505 552.674 99.4801C547.976 105.846 545.652 113.659 546.114 121.56ZM655.164 79.8467C665.485 79.3724 675.407 83.9282 681.767 92.0537C688.515 101.315 691.901 112.598 691.364 124.031V125.579H631.497V126.503C631.147 133.293 633.546 139.945 638.145 144.963C642.993 149.718 649.628 152.202 656.401 151.84C667.847 151.84 674.757 146.635 677.131 136.238H690.127C688.94 144.226 684.804 151.466 678.531 156.558C671.983 161.314 664.036 163.735 655.939 163.435C643.355 163.435 633.821 159.317 627.323 151.079C620.713 142.504 617.264 131.92 617.577 121.098C617.214 110.252 621.038 99.6923 628.248 91.5918C635.046 83.9032 644.905 79.5971 655.164 79.8467ZM677.444 113.996C677.206 107.918 674.695 102.151 670.409 97.8451C666.135 93.5764 660.287 91.2548 654.239 91.442C648.466 91.3172 642.893 93.514 638.769 97.5455C634.396 101.939 631.797 107.805 631.497 114.009H677.444V113.996ZM744.733 79.8467V93.7511C734.836 93.7511 727.539 96.3598 722.841 101.552C718.142 106.757 715.805 114.87 715.805 125.891V161.588H702.66V81.694H715.031V98.544H715.343C721.428 86.0875 730.6 79.8467 742.871 79.8467H744.733ZM768.55 51.264V67.3402H755.404V51.264H768.55ZM768.55 81.7065V161.588H755.404V81.694L768.55 81.7065ZM812.947 79.8467C823.781 79.8467 831.803 81.9311 837.001 86.1C842.462 90.8055 845.598 97.6703 845.586 104.872H832.44V104.722C832.215 100.728 830.116 97.0587 826.792 94.837C822.931 92.4281 818.433 91.2423 813.872 91.442C809.561 91.2299 805.275 92.1285 801.413 94.0632C797.252 96.235 795.64 101.365 797.815 105.521C798.527 106.869 799.577 108.005 800.876 108.816C804.65 111.051 808.786 112.586 813.097 113.372L825.48 116.155C831.903 117.304 837.951 119.987 843.112 123.956C847.198 127.551 849.422 132.818 849.147 138.248C849.447 145.574 846.011 152.552 840.025 156.783C832.64 161.588 823.918 163.91 815.121 163.423C806.512 163.885 797.977 161.526 790.83 156.708C784.632 151.803 781.095 144.289 781.245 136.388H794.391C794.391 140.931 796.578 145.187 800.276 147.821C804.937 150.754 810.398 152.165 815.896 151.84C828.791 151.84 835.227 147.871 835.227 139.945C835.264 136.525 833.465 133.33 830.503 131.608C824.143 128.475 817.333 126.34 810.323 125.267C802.763 124.231 795.553 121.423 789.28 117.079C785.007 113.497 782.67 108.117 782.932 102.551C782.782 96.0602 785.806 89.9193 791.054 86.0875C797.452 81.6441 805.162 79.4348 812.947 79.8467ZM843.899 57.2677C844.511 55.8572 845.386 54.5966 846.485 53.5232C847.585 52.4623 848.872 51.6135 850.297 51.0269C856.32 48.4931 863.28 51.2765 865.879 57.2677C866.528 58.7405 866.841 60.3256 866.828 61.9357C866.853 63.5708 866.528 65.1809 865.879 66.6912C865.266 68.1016 864.392 69.3872 863.305 70.4731C862.217 71.534 860.93 72.3828 859.518 72.9694C856.557 74.1552 853.258 74.1552 850.297 72.9694C848.872 72.3953 847.573 71.5465 846.485 70.4731C845.386 69.3872 844.499 68.1141 843.899 66.6912C843.249 65.1934 842.924 63.5708 842.949 61.9482C842.924 60.3256 843.249 58.7405 843.899 57.2677ZM845.848 65.9797C847.298 69.7117 850.909 72.1706 854.92 72.1207C856.245 72.1331 857.557 71.871 858.769 71.3468C861.143 70.3233 863.005 68.3887 863.929 65.9797C864.442 64.6942 864.692 63.3212 864.679 61.9357C864.692 60.5752 864.442 59.2272 863.929 57.9666C862.467 54.2721 858.894 51.8507 854.92 51.8756C852.283 51.8507 849.759 52.8991 847.91 54.7838C847.023 55.7075 846.323 56.7809 845.848 57.9791C845.348 59.2397 845.086 60.5877 845.098 61.9482C845.086 63.3212 845.336 64.6942 845.848 65.9797ZM855.657 55.0459C856.957 54.9461 858.256 55.2956 859.331 56.032C860.168 56.7933 860.606 57.8917 860.531 59.0151C860.618 60.0385 860.231 61.0495 859.481 61.761C858.731 62.3601 857.832 62.7221 856.869 62.797L860.843 68.9254H858.519L854.733 62.9592H852.446V68.9254H850.284V55.0459H855.657ZM854.695 61.1993C855.182 61.1993 855.645 61.1869 856.082 61.1494C856.482 61.1244 856.869 61.0371 857.244 60.8873C857.582 60.75 857.856 60.5128 858.056 60.2133C858.281 59.8264 858.381 59.377 858.356 58.9277C858.369 58.5408 858.281 58.1538 858.081 57.8168C857.906 57.5547 857.669 57.3301 857.382 57.1928C857.069 57.043 856.744 56.9306 856.395 56.8932C856.032 56.8433 855.67 56.8183 855.295 56.8183H852.433V61.2243L854.695 61.1993Z" fill="#386097" fill-opacity="0.2"/>
</svg>
