<svg width="648" height="98" viewBox="0 0 648 98" fill="none" xmlns="http://www.w3.org/2000/svg">
<g style="mix-blend-mode:color-dodge">
<path d="M27.0769 51.2C28.1329 45.1573 30.4502 39.76 34.0289 35.008C37.6076 30.1973 42.0076 26.472 47.2289 23.832C52.4502 21.1333 57.9942 19.784 63.8609 19.784C70.7836 19.784 76.4742 21.4853 80.9329 24.888C85.4502 28.232 88.1782 32.9547 89.1169 39.056H74.9489C74.0102 36.4747 72.4262 34.5093 70.1969 33.16C67.9676 31.8107 65.2102 31.136 61.9249 31.136C58.2876 31.136 54.9142 31.9573 51.8049 33.6C48.6956 35.2427 46.0849 37.5893 43.9729 40.64C41.8609 43.6907 40.4529 47.2107 39.7489 51.2C39.4556 52.608 39.3089 54.2213 39.3089 56.04C39.3089 60.8507 40.7169 64.6347 43.5329 67.392C46.4076 70.0907 50.3382 71.44 55.3249 71.44C59.9596 71.44 64.0076 70.1787 67.4689 67.656C70.9889 65.1333 73.5996 61.6427 75.3009 57.184H54.1809L55.7649 47.856H89.0289L87.0929 58.592C85.5089 62.8747 83.0449 66.8347 79.7009 70.472C76.3569 74.1093 72.3676 77.0427 67.7329 79.272C63.0982 81.4427 58.1409 82.528 52.8609 82.528C47.6396 82.528 43.0342 81.472 39.0449 79.36C35.1142 77.248 32.0342 74.3147 29.8049 70.56C27.6342 66.7467 26.5489 62.3467 26.5489 57.36C26.5489 55.3653 26.7249 53.312 27.0769 51.2ZM140.648 70.296H116.096L110.024 82H97.0878L130.088 20.488H144.432L155.608 82H142.584L140.648 70.296ZM139.064 60.704L134.664 34.656L121.112 60.704H139.064ZM250.544 20.576L239.72 82H227.312L234.352 42.224L210.944 82H201.528L192.112 42.136L185.072 82H172.664L183.576 20.576H197.568L209.096 66.16L236.552 20.576H250.544ZM282.172 30.168L279.356 46.096H300.036L298.364 55.6H277.684L274.78 72.232H298.1L296.34 82H260.612L271.524 20.488H307.164L305.492 30.168H282.172ZM382.563 20.576C388.841 20.576 393.593 22.0133 396.819 24.888C400.046 27.704 401.659 31.4 401.659 35.976C401.659 37.0907 401.571 38.2347 401.395 39.408C400.691 43.3973 398.873 47.0347 395.939 50.32C393.065 53.5467 389.193 55.8053 384.323 57.096L394.619 82H380.275L371.123 58.064H365.227L361.003 82H348.595L359.507 20.576H382.563ZM388.723 39.672C388.841 38.616 388.899 37.912 388.899 37.56C388.899 35.3307 388.195 33.6 386.787 32.368C385.379 31.136 383.238 30.52 380.363 30.52H370.067L366.811 48.912H377.107C380.393 48.912 383.003 48.0907 384.939 46.448C386.934 44.8053 388.195 42.5467 388.723 39.672ZM436.826 20.576L430.138 58.504C429.904 60.1467 429.786 61.2907 429.786 61.936C429.786 64.9867 430.696 67.3333 432.514 68.976C434.333 70.56 436.914 71.352 440.258 71.352C444.248 71.352 447.504 70.2667 450.026 68.096C452.608 65.8667 454.28 62.6693 455.042 58.504L461.73 20.576H474.138L467.45 58.504C466.512 63.784 464.605 68.2427 461.73 71.88C458.856 75.4587 455.365 78.1573 451.258 79.976C447.21 81.736 442.84 82.616 438.146 82.616C431.928 82.616 426.882 81.0027 423.01 77.776C419.197 74.5493 417.29 69.9147 417.29 63.872C417.29 62.2293 417.466 60.44 417.818 58.504L424.506 20.576H436.826ZM498.01 72.584H518.25L516.578 82H483.93L494.842 20.576H507.162L498.01 72.584ZM554.68 30.168L551.864 46.096H572.544L570.872 55.6H550.192L547.288 72.232H570.608L568.848 82H533.12L544.032 20.488H579.672L578 30.168H554.68ZM612.076 82.616C605.916 82.616 600.841 81.2373 596.852 78.48C592.921 75.664 590.956 71.7333 590.956 66.688C590.956 66.16 591.015 65.368 591.132 64.312H603.716C603.481 66.776 604.127 68.8 605.652 70.384C607.236 71.968 609.524 72.76 612.516 72.76C615.508 72.76 617.855 72.144 619.556 70.912C621.316 69.6213 622.196 67.8027 622.196 65.456C622.196 63.2853 621.287 61.5547 619.468 60.264C617.708 58.9733 614.921 57.536 611.108 55.952C607.588 54.4853 604.713 53.136 602.484 51.904C600.313 50.672 598.436 48.9707 596.852 46.8C595.327 44.5707 594.564 41.784 594.564 38.44C594.564 34.6267 595.532 31.312 597.468 28.496C599.463 25.68 602.161 23.5093 605.564 21.984C609.025 20.4587 612.956 19.696 617.356 19.696C621.697 19.696 625.452 20.4293 628.62 21.896C631.847 23.304 634.252 25.328 635.836 27.968C637.479 30.608 638.183 33.688 637.948 37.208H624.836L624.924 36.24C624.924 34.304 624.191 32.72 622.724 31.488C621.316 30.256 619.321 29.64 616.74 29.64C613.983 29.64 611.753 30.2853 610.052 31.576C608.351 32.8667 607.5 34.6267 607.5 36.856C607.5 38.3227 607.969 39.6133 608.908 40.728C609.905 41.784 611.108 42.7227 612.516 43.544C613.924 44.3067 615.948 45.304 618.588 46.536C622.049 48.0613 624.895 49.4987 627.124 50.848C629.353 52.1973 631.26 53.9867 632.844 56.216C634.428 58.4453 635.22 61.1733 635.22 64.4C635.22 67.92 634.252 71.0587 632.316 73.816C630.439 76.5733 627.74 78.744 624.22 80.328C620.759 81.8533 616.711 82.616 612.076 82.616Z" fill="#FF5ABD"/>
</g>
<g style="mix-blend-mode:color-dodge" filter="url(#filter0_d_49_2232)">
<path d="M21.0769 48.2C22.1329 42.1573 24.4502 36.76 28.0289 32.008C31.6076 27.1973 36.0076 23.472 41.2289 20.832C46.4502 18.1333 51.9942 16.784 57.8609 16.784C64.7836 16.784 70.4742 18.4853 74.9329 21.888C79.4502 25.232 82.1782 29.9547 83.1169 36.056H68.9489C68.0102 33.4747 66.4262 31.5093 64.1969 30.16C61.9676 28.8107 59.2102 28.136 55.9249 28.136C52.2876 28.136 48.9142 28.9573 45.8049 30.6C42.6956 32.2427 40.0849 34.5893 37.9729 37.64C35.8609 40.6907 34.4529 44.2107 33.7489 48.2C33.4556 49.608 33.3089 51.2213 33.3089 53.04C33.3089 57.8507 34.7169 61.6347 37.5329 64.392C40.4076 67.0907 44.3382 68.44 49.3249 68.44C53.9596 68.44 58.0076 67.1787 61.4689 64.656C64.9889 62.1333 67.5996 58.6427 69.3009 54.184H48.1809L49.7649 44.856H83.0289L81.0929 55.592C79.5089 59.8747 77.0449 63.8347 73.7009 67.472C70.3569 71.1093 66.3676 74.0427 61.7329 76.272C57.0982 78.4427 52.1409 79.528 46.8609 79.528C41.6396 79.528 37.0342 78.472 33.0449 76.36C29.1142 74.248 26.0342 71.3147 23.8049 67.56C21.6342 63.7467 20.5489 59.3467 20.5489 54.36C20.5489 52.3653 20.7249 50.312 21.0769 48.2ZM134.648 67.296H110.096L104.024 79H91.0878L124.088 17.488H138.432L149.608 79H136.584L134.648 67.296ZM133.064 57.704L128.664 31.656L115.112 57.704H133.064ZM244.544 17.576L233.72 79H221.312L228.352 39.224L204.944 79H195.528L186.112 39.136L179.072 79H166.664L177.576 17.576H191.568L203.096 63.16L230.552 17.576H244.544ZM276.172 27.168L273.356 43.096H294.036L292.364 52.6H271.684L268.78 69.232H292.1L290.34 79H254.612L265.524 17.488H301.164L299.492 27.168H276.172ZM376.563 17.576C382.841 17.576 387.593 19.0133 390.819 21.888C394.046 24.704 395.659 28.4 395.659 32.976C395.659 34.0907 395.571 35.2347 395.395 36.408C394.691 40.3973 392.873 44.0347 389.939 47.32C387.065 50.5467 383.193 52.8053 378.323 54.096L388.619 79H374.275L365.123 55.064H359.227L355.003 79H342.595L353.507 17.576H376.563ZM382.723 36.672C382.841 35.616 382.899 34.912 382.899 34.56C382.899 32.3307 382.195 30.6 380.787 29.368C379.379 28.136 377.238 27.52 374.363 27.52H364.067L360.811 45.912H371.107C374.393 45.912 377.003 45.0907 378.939 43.448C380.934 41.8053 382.195 39.5467 382.723 36.672ZM430.826 17.576L424.138 55.504C423.904 57.1467 423.786 58.2907 423.786 58.936C423.786 61.9867 424.696 64.3333 426.514 65.976C428.333 67.56 430.914 68.352 434.258 68.352C438.248 68.352 441.504 67.2667 444.026 65.096C446.608 62.8667 448.28 59.6693 449.042 55.504L455.73 17.576H468.138L461.45 55.504C460.512 60.784 458.605 65.2427 455.73 68.88C452.856 72.4587 449.365 75.1573 445.258 76.976C441.21 78.736 436.84 79.616 432.146 79.616C425.928 79.616 420.882 78.0027 417.01 74.776C413.197 71.5493 411.29 66.9147 411.29 60.872C411.29 59.2293 411.466 57.44 411.818 55.504L418.506 17.576H430.826ZM492.01 69.584H512.25L510.578 79H477.93L488.842 17.576H501.162L492.01 69.584ZM548.68 27.168L545.864 43.096H566.544L564.872 52.6H544.192L541.288 69.232H564.608L562.848 79H527.12L538.032 17.488H573.672L572 27.168H548.68ZM606.076 79.616C599.916 79.616 594.841 78.2373 590.852 75.48C586.921 72.664 584.956 68.7333 584.956 63.688C584.956 63.16 585.015 62.368 585.132 61.312H597.716C597.481 63.776 598.127 65.8 599.652 67.384C601.236 68.968 603.524 69.76 606.516 69.76C609.508 69.76 611.855 69.144 613.556 67.912C615.316 66.6213 616.196 64.8027 616.196 62.456C616.196 60.2853 615.287 58.5547 613.468 57.264C611.708 55.9733 608.921 54.536 605.108 52.952C601.588 51.4853 598.713 50.136 596.484 48.904C594.313 47.672 592.436 45.9707 590.852 43.8C589.327 41.5707 588.564 38.784 588.564 35.44C588.564 31.6267 589.532 28.312 591.468 25.496C593.463 22.68 596.161 20.5093 599.564 18.984C603.025 17.4587 606.956 16.696 611.356 16.696C615.697 16.696 619.452 17.4293 622.62 18.896C625.847 20.304 628.252 22.328 629.836 24.968C631.479 27.608 632.183 30.688 631.948 34.208H618.836L618.924 33.24C618.924 31.304 618.191 29.72 616.724 28.488C615.316 27.256 613.321 26.64 610.74 26.64C607.983 26.64 605.753 27.2853 604.052 28.576C602.351 29.8667 601.5 31.6267 601.5 33.856C601.5 35.3227 601.969 36.6133 602.908 37.728C603.905 38.784 605.108 39.7227 606.516 40.544C607.924 41.3067 609.948 42.304 612.588 43.536C616.049 45.0613 618.895 46.4987 621.124 47.848C623.353 49.1973 625.26 50.9867 626.844 53.216C628.428 55.4453 629.22 58.1733 629.22 61.4C629.22 64.92 628.252 68.0587 626.316 70.816C624.439 73.5733 621.74 75.744 618.22 77.328C614.759 78.8533 610.711 79.616 606.076 79.616Z" fill="#3965FF"/>
</g>
<g style="mix-blend-mode:color-dodge" filter="url(#filter1_d_49_2232)">
<path d="M26.0769 51.2C27.1329 45.1573 29.4502 39.76 33.0289 35.008C36.6076 30.1973 41.0076 26.472 46.2289 23.832C51.4502 21.1333 56.9942 19.784 62.8609 19.784C69.7836 19.784 75.4742 21.4853 79.9329 24.888C84.4502 28.232 87.1782 32.9547 88.1169 39.056H73.9489C73.0102 36.4747 71.4262 34.5093 69.1969 33.16C66.9676 31.8107 64.2102 31.136 60.9249 31.136C57.2876 31.136 53.9142 31.9573 50.8049 33.6C47.6956 35.2427 45.0849 37.5893 42.9729 40.64C40.8609 43.6907 39.4529 47.2107 38.7489 51.2C38.4556 52.608 38.3089 54.2213 38.3089 56.04C38.3089 60.8507 39.7169 64.6347 42.5329 67.392C45.4076 70.0907 49.3382 71.44 54.3249 71.44C58.9596 71.44 63.0076 70.1787 66.4689 67.656C69.9889 65.1333 72.5996 61.6427 74.3009 57.184H53.1809L54.7649 47.856H88.0289L86.0929 58.592C84.5089 62.8747 82.0449 66.8347 78.7009 70.472C75.3569 74.1093 71.3676 77.0427 66.7329 79.272C62.0982 81.4427 57.1409 82.528 51.8609 82.528C46.6396 82.528 42.0342 81.472 38.0449 79.36C34.1142 77.248 31.0342 74.3147 28.8049 70.56C26.6342 66.7467 25.5489 62.3467 25.5489 57.36C25.5489 55.3653 25.7249 53.312 26.0769 51.2ZM139.648 70.296H115.096L109.024 82H96.0878L129.088 20.488H143.432L154.608 82H141.584L139.648 70.296ZM138.064 60.704L133.664 34.656L120.112 60.704H138.064ZM249.544 20.576L238.72 82H226.312L233.352 42.224L209.944 82H200.528L191.112 42.136L184.072 82H171.664L182.576 20.576H196.568L208.096 66.16L235.552 20.576H249.544ZM281.172 30.168L278.356 46.096H299.036L297.364 55.6H276.684L273.78 72.232H297.1L295.34 82H259.612L270.524 20.488H306.164L304.492 30.168H281.172ZM381.563 20.576C387.841 20.576 392.593 22.0133 395.819 24.888C399.046 27.704 400.659 31.4 400.659 35.976C400.659 37.0907 400.571 38.2347 400.395 39.408C399.691 43.3973 397.873 47.0347 394.939 50.32C392.065 53.5467 388.193 55.8053 383.323 57.096L393.619 82H379.275L370.123 58.064H364.227L360.003 82H347.595L358.507 20.576H381.563ZM387.723 39.672C387.841 38.616 387.899 37.912 387.899 37.56C387.899 35.3307 387.195 33.6 385.787 32.368C384.379 31.136 382.238 30.52 379.363 30.52H369.067L365.811 48.912H376.107C379.393 48.912 382.003 48.0907 383.939 46.448C385.934 44.8053 387.195 42.5467 387.723 39.672ZM435.826 20.576L429.138 58.504C428.904 60.1467 428.786 61.2907 428.786 61.936C428.786 64.9867 429.696 67.3333 431.514 68.976C433.333 70.56 435.914 71.352 439.258 71.352C443.248 71.352 446.504 70.2667 449.026 68.096C451.608 65.8667 453.28 62.6693 454.042 58.504L460.73 20.576H473.138L466.45 58.504C465.512 63.784 463.605 68.2427 460.73 71.88C457.856 75.4587 454.365 78.1573 450.258 79.976C446.21 81.736 441.84 82.616 437.146 82.616C430.928 82.616 425.882 81.0027 422.01 77.776C418.197 74.5493 416.29 69.9147 416.29 63.872C416.29 62.2293 416.466 60.44 416.818 58.504L423.506 20.576H435.826ZM497.01 72.584H517.25L515.578 82H482.93L493.842 20.576H506.162L497.01 72.584ZM553.68 30.168L550.864 46.096H571.544L569.872 55.6H549.192L546.288 72.232H569.608L567.848 82H532.12L543.032 20.488H578.672L577 30.168H553.68ZM611.076 82.616C604.916 82.616 599.841 81.2373 595.852 78.48C591.921 75.664 589.956 71.7333 589.956 66.688C589.956 66.16 590.015 65.368 590.132 64.312H602.716C602.481 66.776 603.127 68.8 604.652 70.384C606.236 71.968 608.524 72.76 611.516 72.76C614.508 72.76 616.855 72.144 618.556 70.912C620.316 69.6213 621.196 67.8027 621.196 65.456C621.196 63.2853 620.287 61.5547 618.468 60.264C616.708 58.9733 613.921 57.536 610.108 55.952C606.588 54.4853 603.713 53.136 601.484 51.904C599.313 50.672 597.436 48.9707 595.852 46.8C594.327 44.5707 593.564 41.784 593.564 38.44C593.564 34.6267 594.532 31.312 596.468 28.496C598.463 25.68 601.161 23.5093 604.564 21.984C608.025 20.4587 611.956 19.696 616.356 19.696C620.697 19.696 624.452 20.4293 627.62 21.896C630.847 23.304 633.252 25.328 634.836 27.968C636.479 30.608 637.183 33.688 636.948 37.208H623.836L623.924 36.24C623.924 34.304 623.191 32.72 621.724 31.488C620.316 30.256 618.321 29.64 615.74 29.64C612.983 29.64 610.753 30.2853 609.052 31.576C607.351 32.8667 606.5 34.6267 606.5 36.856C606.5 38.3227 606.969 39.6133 607.908 40.728C608.905 41.784 610.108 42.7227 611.516 43.544C612.924 44.3067 614.948 45.304 617.588 46.536C621.049 48.0613 623.895 49.4987 626.124 50.848C628.353 52.1973 630.26 53.9867 631.844 56.216C633.428 58.4453 634.22 61.1733 634.22 64.4C634.22 67.92 633.252 71.0587 631.316 73.816C629.439 76.5733 626.74 78.744 623.22 80.328C619.759 81.8533 615.711 82.616 611.076 82.616Z" fill="#EDFF1F"/>
</g>
<g style="mix-blend-mode:color-dodge" filter="url(#filter2_d_49_2232)">
<path d="M24.0769 54.2C25.1329 48.1573 27.4502 42.76 31.0289 38.008C34.6076 33.1973 39.0076 29.472 44.2289 26.832C49.4502 24.1333 54.9942 22.784 60.8609 22.784C67.7836 22.784 73.4742 24.4853 77.9329 27.888C82.4502 31.232 85.1782 35.9547 86.1169 42.056H71.9489C71.0102 39.4747 69.4262 37.5093 67.1969 36.16C64.9676 34.8107 62.2102 34.136 58.9249 34.136C55.2876 34.136 51.9142 34.9573 48.8049 36.6C45.6956 38.2427 43.0849 40.5893 40.9729 43.64C38.8609 46.6907 37.4529 50.2107 36.7489 54.2C36.4556 55.608 36.3089 57.2213 36.3089 59.04C36.3089 63.8507 37.7169 67.6347 40.5329 70.392C43.4076 73.0907 47.3382 74.44 52.3249 74.44C56.9596 74.44 61.0076 73.1787 64.4689 70.656C67.9889 68.1333 70.5996 64.6427 72.3009 60.184H51.1809L52.7649 50.856H86.0289L84.0929 61.592C82.5089 65.8747 80.0449 69.8347 76.7009 73.472C73.3569 77.1093 69.3676 80.0427 64.7329 82.272C60.0982 84.4427 55.1409 85.528 49.8609 85.528C44.6396 85.528 40.0342 84.472 36.0449 82.36C32.1142 80.248 29.0342 77.3147 26.8049 73.56C24.6342 69.7467 23.5489 65.3467 23.5489 60.36C23.5489 58.3653 23.7249 56.312 24.0769 54.2ZM137.648 73.296H113.096L107.024 85H94.0878L127.088 23.488H141.432L152.608 85H139.584L137.648 73.296ZM136.064 63.704L131.664 37.656L118.112 63.704H136.064ZM247.544 23.576L236.72 85H224.312L231.352 45.224L207.944 85H198.528L189.112 45.136L182.072 85H169.664L180.576 23.576H194.568L206.096 69.16L233.552 23.576H247.544ZM279.172 33.168L276.356 49.096H297.036L295.364 58.6H274.684L271.78 75.232H295.1L293.34 85H257.612L268.524 23.488H304.164L302.492 33.168H279.172ZM379.563 23.576C385.841 23.576 390.593 25.0133 393.819 27.888C397.046 30.704 398.659 34.4 398.659 38.976C398.659 40.0907 398.571 41.2347 398.395 42.408C397.691 46.3973 395.873 50.0347 392.939 53.32C390.065 56.5467 386.193 58.8053 381.323 60.096L391.619 85H377.275L368.123 61.064H362.227L358.003 85H345.595L356.507 23.576H379.563ZM385.723 42.672C385.841 41.616 385.899 40.912 385.899 40.56C385.899 38.3307 385.195 36.6 383.787 35.368C382.379 34.136 380.238 33.52 377.363 33.52H367.067L363.811 51.912H374.107C377.393 51.912 380.003 51.0907 381.939 49.448C383.934 47.8053 385.195 45.5467 385.723 42.672ZM433.826 23.576L427.138 61.504C426.904 63.1467 426.786 64.2907 426.786 64.936C426.786 67.9867 427.696 70.3333 429.514 71.976C431.333 73.56 433.914 74.352 437.258 74.352C441.248 74.352 444.504 73.2667 447.026 71.096C449.608 68.8667 451.28 65.6693 452.042 61.504L458.73 23.576H471.138L464.45 61.504C463.512 66.784 461.605 71.2427 458.73 74.88C455.856 78.4587 452.365 81.1573 448.258 82.976C444.21 84.736 439.84 85.616 435.146 85.616C428.928 85.616 423.882 84.0027 420.01 80.776C416.197 77.5493 414.29 72.9147 414.29 66.872C414.29 65.2293 414.466 63.44 414.818 61.504L421.506 23.576H433.826ZM495.01 75.584H515.25L513.578 85H480.93L491.842 23.576H504.162L495.01 75.584ZM551.68 33.168L548.864 49.096H569.544L567.872 58.6H547.192L544.288 75.232H567.608L565.848 85H530.12L541.032 23.488H576.672L575 33.168H551.68ZM609.076 85.616C602.916 85.616 597.841 84.2373 593.852 81.48C589.921 78.664 587.956 74.7333 587.956 69.688C587.956 69.16 588.015 68.368 588.132 67.312H600.716C600.481 69.776 601.127 71.8 602.652 73.384C604.236 74.968 606.524 75.76 609.516 75.76C612.508 75.76 614.855 75.144 616.556 73.912C618.316 72.6213 619.196 70.8027 619.196 68.456C619.196 66.2853 618.287 64.5547 616.468 63.264C614.708 61.9733 611.921 60.536 608.108 58.952C604.588 57.4853 601.713 56.136 599.484 54.904C597.313 53.672 595.436 51.9707 593.852 49.8C592.327 47.5707 591.564 44.784 591.564 41.44C591.564 37.6267 592.532 34.312 594.468 31.496C596.463 28.68 599.161 26.5093 602.564 24.984C606.025 23.4587 609.956 22.696 614.356 22.696C618.697 22.696 622.452 23.4293 625.62 24.896C628.847 26.304 631.252 28.328 632.836 30.968C634.479 33.608 635.183 36.688 634.948 40.208H621.836L621.924 39.24C621.924 37.304 621.191 35.72 619.724 34.488C618.316 33.256 616.321 32.64 613.74 32.64C610.983 32.64 608.753 33.2853 607.052 34.576C605.351 35.8667 604.5 37.6267 604.5 39.856C604.5 41.3227 604.969 42.6133 605.908 43.728C606.905 44.784 608.108 45.7227 609.516 46.544C610.924 47.3067 612.948 48.304 615.588 49.536C619.049 51.0613 621.895 52.4987 624.124 53.848C626.353 55.1973 628.26 56.9867 629.844 59.216C631.428 61.4453 632.22 64.1733 632.22 67.4C632.22 70.92 631.252 74.0587 629.316 76.816C627.439 79.5733 624.74 81.744 621.22 83.328C617.759 84.8533 613.711 85.616 609.076 85.616Z" fill="#5AFFBA"/>
</g>
<g style="mix-blend-mode:color-dodge" opacity="0.9">
<g style="mix-blend-mode:color-dodge">
<mask id="path-5-outside-1_49_2232" maskUnits="userSpaceOnUse" x="20" y="17" width="614" height="66" fill="black">
<rect fill="white" x="20" y="17" width="614" height="66"/>
<path d="M22.0769 50.2C23.1329 44.1573 25.4502 38.76 29.0289 34.008C32.6076 29.1973 37.0076 25.472 42.2289 22.832C47.4502 20.1333 52.9942 18.784 58.8609 18.784C65.7836 18.784 71.4742 20.4853 75.9329 23.888C80.4502 27.232 83.1782 31.9547 84.1169 38.056H69.9489C69.0102 35.4747 67.4262 33.5093 65.1969 32.16C62.9676 30.8107 60.2102 30.136 56.9249 30.136C53.2876 30.136 49.9142 30.9573 46.8049 32.6C43.6956 34.2427 41.0849 36.5893 38.9729 39.64C36.8609 42.6907 35.4529 46.2107 34.7489 50.2C34.4556 51.608 34.3089 53.2213 34.3089 55.04C34.3089 59.8507 35.7169 63.6347 38.5329 66.392C41.4076 69.0907 45.3382 70.44 50.3249 70.44C54.9596 70.44 59.0076 69.1787 62.4689 66.656C65.9889 64.1333 68.5996 60.6427 70.3009 56.184H49.1809L50.7649 46.856H84.0289L82.0929 57.592C80.5089 61.8747 78.0449 65.8347 74.7009 69.472C71.3569 73.1093 67.3676 76.0427 62.7329 78.272C58.0982 80.4427 53.1409 81.528 47.8609 81.528C42.6396 81.528 38.0342 80.472 34.0449 78.36C30.1142 76.248 27.0342 73.3147 24.8049 69.56C22.6342 65.7467 21.5489 61.3467 21.5489 56.36C21.5489 54.3653 21.7249 52.312 22.0769 50.2ZM135.648 69.296H111.096L105.024 81H92.0878L125.088 19.488H139.432L150.608 81H137.584L135.648 69.296ZM134.064 59.704L129.664 33.656L116.112 59.704H134.064ZM245.544 19.576L234.72 81H222.312L229.352 41.224L205.944 81H196.528L187.112 41.136L180.072 81H167.664L178.576 19.576H192.568L204.096 65.16L231.552 19.576H245.544ZM277.172 29.168L274.356 45.096H295.036L293.364 54.6H272.684L269.78 71.232H293.1L291.34 81H255.612L266.524 19.488H302.164L300.492 29.168H277.172ZM377.563 19.576C383.841 19.576 388.593 21.0133 391.819 23.888C395.046 26.704 396.659 30.4 396.659 34.976C396.659 36.0907 396.571 37.2347 396.395 38.408C395.691 42.3973 393.873 46.0347 390.939 49.32C388.065 52.5467 384.193 54.8053 379.323 56.096L389.619 81H375.275L366.123 57.064H360.227L356.003 81H343.595L354.507 19.576H377.563ZM383.723 38.672C383.841 37.616 383.899 36.912 383.899 36.56C383.899 34.3307 383.195 32.6 381.787 31.368C380.379 30.136 378.238 29.52 375.363 29.52H365.067L361.811 47.912H372.107C375.393 47.912 378.003 47.0907 379.939 45.448C381.934 43.8053 383.195 41.5467 383.723 38.672ZM431.826 19.576L425.138 57.504C424.904 59.1467 424.786 60.2907 424.786 60.936C424.786 63.9867 425.696 66.3333 427.514 67.976C429.333 69.56 431.914 70.352 435.258 70.352C439.248 70.352 442.504 69.2667 445.026 67.096C447.608 64.8667 449.28 61.6693 450.042 57.504L456.73 19.576H469.138L462.45 57.504C461.512 62.784 459.605 67.2427 456.73 70.88C453.856 74.4587 450.365 77.1573 446.258 78.976C442.21 80.736 437.84 81.616 433.146 81.616C426.928 81.616 421.882 80.0027 418.01 76.776C414.197 73.5493 412.29 68.9147 412.29 62.872C412.29 61.2293 412.466 59.44 412.818 57.504L419.506 19.576H431.826ZM493.01 71.584H513.25L511.578 81H478.93L489.842 19.576H502.162L493.01 71.584ZM549.68 29.168L546.864 45.096H567.544L565.872 54.6H545.192L542.288 71.232H565.608L563.848 81H528.12L539.032 19.488H574.672L573 29.168H549.68ZM607.076 81.616C600.916 81.616 595.841 80.2373 591.852 77.48C587.921 74.664 585.956 70.7333 585.956 65.688C585.956 65.16 586.015 64.368 586.132 63.312H598.716C598.481 65.776 599.127 67.8 600.652 69.384C602.236 70.968 604.524 71.76 607.516 71.76C610.508 71.76 612.855 71.144 614.556 69.912C616.316 68.6213 617.196 66.8027 617.196 64.456C617.196 62.2853 616.287 60.5547 614.468 59.264C612.708 57.9733 609.921 56.536 606.108 54.952C602.588 53.4853 599.713 52.136 597.484 50.904C595.313 49.672 593.436 47.9707 591.852 45.8C590.327 43.5707 589.564 40.784 589.564 37.44C589.564 33.6267 590.532 30.312 592.468 27.496C594.463 24.68 597.161 22.5093 600.564 20.984C604.025 19.4587 607.956 18.696 612.356 18.696C616.697 18.696 620.452 19.4293 623.62 20.896C626.847 22.304 629.252 24.328 630.836 26.968C632.479 29.608 633.183 32.688 632.948 36.208H619.836L619.924 35.24C619.924 33.304 619.191 31.72 617.724 30.488C616.316 29.256 614.321 28.64 611.74 28.64C608.983 28.64 606.753 29.2853 605.052 30.576C603.351 31.8667 602.5 33.6267 602.5 35.856C602.5 37.3227 602.969 38.6133 603.908 39.728C604.905 40.784 606.108 41.7227 607.516 42.544C608.924 43.3067 610.948 44.304 613.588 45.536C617.049 47.0613 619.895 48.4987 622.124 49.848C624.353 51.1973 626.26 52.9867 627.844 55.216C629.428 57.4453 630.22 60.1733 630.22 63.4C630.22 66.92 629.252 70.0587 627.316 72.816C625.439 75.5733 622.74 77.744 619.22 79.328C615.759 80.8533 611.711 81.616 607.076 81.616Z"/>
</mask>
<path d="M22.0769 50.2L21.0918 50.0278L21.0905 50.0356L22.0769 50.2ZM29.0289 34.008L29.8277 34.6096L29.8312 34.6049L29.0289 34.008ZM42.2289 22.832L42.6801 23.7244L42.6881 23.7204L42.2289 22.832ZM75.9329 23.888L75.3262 24.6829L75.332 24.6874L75.3379 24.6917L75.9329 23.888ZM84.1169 38.056V39.056H85.2825L85.1053 37.9039L84.1169 38.056ZM69.9489 38.056L69.0091 38.3977L69.2485 39.056H69.9489V38.056ZM38.9729 39.64L38.1507 39.0708L38.1507 39.0708L38.9729 39.64ZM34.7489 50.2L35.7279 50.404L35.731 50.3889L35.7337 50.3738L34.7489 50.2ZM38.5329 66.392L37.8333 67.1065L37.8408 67.1139L37.8485 67.1211L38.5329 66.392ZM62.4689 66.656L61.8864 65.8432L61.8799 65.8479L62.4689 66.656ZM70.3009 56.184L71.2352 56.5405L71.7528 55.184H70.3009V56.184ZM49.1809 56.184L48.195 56.0166L47.9968 57.184H49.1809V56.184ZM50.7649 46.856V45.856H49.9204L49.779 46.6886L50.7649 46.856ZM84.0289 46.856L85.013 47.0335L85.2254 45.856H84.0289V46.856ZM82.0929 57.592L83.0308 57.9389L83.0614 57.8562L83.077 57.7695L82.0929 57.592ZM74.7009 69.472L75.4371 70.1488L75.4371 70.1488L74.7009 69.472ZM62.7329 78.272L63.1571 79.1776L63.1664 79.1732L62.7329 78.272ZM34.0449 78.36L33.5716 79.2409L33.577 79.2438L34.0449 78.36ZM24.8049 69.56L23.9358 70.0547L23.9404 70.0627L23.945 70.0705L24.8049 69.56ZM23.062 50.3721C24.0916 44.4803 26.3473 39.2312 29.8277 34.6096L28.2301 33.4064C24.5532 38.2888 22.1742 43.8344 21.0918 50.0278L23.062 50.3721ZM29.8312 34.6049C33.3197 29.9154 37.6007 26.2927 42.6801 23.7244L41.7777 21.9396C36.4145 24.6513 31.8954 28.4793 28.2266 33.4111L29.8312 34.6049ZM42.6881 23.7204C47.7677 21.0949 53.1543 19.784 58.8609 19.784V17.784C52.8342 17.784 47.1327 19.1718 41.7697 21.9436L42.6881 23.7204ZM58.8609 19.784C65.6168 19.784 71.0794 21.4419 75.3262 24.6829L76.5396 23.093C71.8691 19.5287 65.9503 17.784 58.8609 17.784V19.784ZM75.3379 24.6917C79.6215 27.8627 82.2256 32.3392 83.1285 38.2081L85.1053 37.9039C84.1308 31.5701 81.279 26.6013 76.5279 23.0843L75.3379 24.6917ZM84.1169 37.056H69.9489V39.056H84.1169V37.056ZM70.8887 37.7143C69.8766 34.931 68.1502 32.7786 65.7147 31.3045L64.6791 33.0155C66.7022 34.24 68.1439 36.0183 69.0091 38.3977L70.8887 37.7143ZM65.7147 31.3045C63.2933 29.8389 60.3457 29.136 56.9249 29.136V31.136C60.0748 31.136 62.6418 31.7824 64.6791 33.0155L65.7147 31.3045ZM56.9249 29.136C53.1306 29.136 49.5961 29.9944 46.3378 31.7158L47.272 33.4842C50.2324 31.9202 53.4446 31.136 56.9249 31.136V29.136ZM46.3378 31.7158C43.0787 33.4376 40.3489 35.8956 38.1507 39.0708L39.7951 40.2092C41.8209 37.283 44.3125 35.0477 47.272 33.4842L46.3378 31.7158ZM38.1507 39.0708C35.9493 42.2505 34.4908 45.9081 33.7641 50.0262L35.7337 50.3738C36.415 46.5132 37.7725 43.1308 39.7951 40.2092L38.1507 39.0708ZM33.7699 49.996C33.4595 51.486 33.3089 53.1699 33.3089 55.04H35.3089C35.3089 53.2728 35.4516 51.73 35.7279 50.404L33.7699 49.996ZM33.3089 55.04C33.3089 60.0562 34.7842 64.1209 37.8333 67.1065L39.2325 65.6775C36.6496 63.1484 35.3089 59.6452 35.3089 55.04H33.3089ZM37.8485 67.1211C40.954 70.0365 45.1541 71.44 50.3249 71.44V69.44C45.5224 69.44 41.8611 68.1448 39.2173 65.6629L37.8485 67.1211ZM50.3249 71.44C55.1529 71.44 59.4112 70.1219 63.0579 67.4641L61.8799 65.8479C58.6039 68.2354 54.7662 69.44 50.3249 69.44V71.44ZM63.0514 67.4688C66.747 64.8203 69.4713 61.163 71.2352 56.5405L69.3666 55.8275C67.7278 60.1223 65.2308 63.4464 61.8864 65.8432L63.0514 67.4688ZM70.3009 55.184H49.1809V57.184H70.3009V55.184ZM50.1668 56.3514L51.7508 47.0234L49.779 46.6886L48.195 56.0166L50.1668 56.3514ZM50.7649 47.856H84.0289V45.856H50.7649V47.856ZM83.0448 46.6785L81.1088 57.4145L83.077 57.7695L85.013 47.0335L83.0448 46.6785ZM81.155 57.2451C79.6197 61.396 77.228 65.2457 73.9647 68.7952L75.4371 70.1488C78.8619 66.4236 81.3981 62.3533 83.0308 57.9389L81.155 57.2451ZM73.9647 68.7952C70.71 72.3354 66.8246 75.1941 62.2994 77.3708L63.1664 79.1732C67.9105 76.8912 72.0038 73.8832 75.4371 70.1488L73.9647 68.7952ZM62.3088 77.3664C57.8111 79.4729 52.9991 80.528 47.8609 80.528V82.528C53.2827 82.528 58.3854 81.4124 63.157 79.1776L62.3088 77.3664ZM47.8609 80.528C42.777 80.528 38.3369 79.5007 34.5128 77.4762L33.577 79.2438C37.7316 81.4433 42.5022 82.528 47.8609 82.528V80.528ZM34.5182 77.4791C30.744 75.4512 27.7992 72.6443 25.6648 69.0495L23.945 70.0705C26.2693 73.985 29.4845 77.0448 33.5716 79.2409L34.5182 77.4791ZM25.674 69.0653C23.6003 65.4223 22.5489 61.1973 22.5489 56.36H20.5489C20.5489 61.4961 21.6682 66.071 23.9358 70.0547L25.674 69.0653ZM22.5489 56.36C22.5489 54.4243 22.7197 52.426 23.0633 50.3644L21.0905 50.0356C20.7301 52.198 20.5489 54.3064 20.5489 56.36H22.5489ZM135.648 69.296L136.634 69.1328L136.496 68.296H135.648V69.296ZM111.096 69.296V68.296H110.488L110.208 68.8355L111.096 69.296ZM105.024 81V82H105.632L105.911 81.4605L105.024 81ZM92.0878 81L91.2066 80.5273L90.4165 82H92.0878V81ZM125.088 19.488V18.488H124.489L124.207 19.0152L125.088 19.488ZM139.432 19.488L140.416 19.3092L140.266 18.488H139.432V19.488ZM150.608 81V82H151.806L151.592 80.8212L150.608 81ZM137.584 81L136.597 81.1632L136.736 82H137.584V81ZM134.064 59.704V60.704H135.247L135.05 59.5374L134.064 59.704ZM129.664 33.656L130.65 33.4894L130.153 30.5488L128.777 33.1945L129.664 33.656ZM116.112 59.704L115.225 59.2425L114.464 60.704H116.112V59.704ZM135.648 68.296H111.096V70.296H135.648V68.296ZM110.208 68.8355L104.136 80.5395L105.911 81.4605L111.983 69.7565L110.208 68.8355ZM105.024 80H92.0878V82H105.024V80ZM92.969 81.4727L125.969 19.9607L124.207 19.0152L91.2066 80.5273L92.969 81.4727ZM125.088 20.488H139.432V18.488H125.088V20.488ZM138.448 19.6668L149.624 81.1788L151.592 80.8212L140.416 19.3092L138.448 19.6668ZM150.608 80H137.584V82H150.608V80ZM138.57 80.8368L136.634 69.1328L134.661 69.4592L136.597 81.1632L138.57 80.8368ZM135.05 59.5374L130.65 33.4894L128.678 33.8226L133.078 59.8706L135.05 59.5374ZM128.777 33.1945L115.225 59.2425L116.999 60.1655L130.551 34.1175L128.777 33.1945ZM116.112 60.704H134.064V58.704H116.112V60.704ZM245.544 19.576L246.529 19.7495L246.736 18.576H245.544V19.576ZM234.72 81V82H235.559L235.705 81.1735L234.72 81ZM222.312 81L221.327 80.8257L221.119 82H222.312V81ZM229.352 41.224L230.337 41.3983L228.49 40.7168L229.352 41.224ZM205.944 81V82H206.516L206.806 81.5072L205.944 81ZM196.528 81L195.555 81.2299L195.737 82H196.528V81ZM187.112 41.136L188.085 40.9061L186.127 40.9621L187.112 41.136ZM180.072 81V82H180.911L181.057 81.1739L180.072 81ZM167.664 81L166.679 80.8251L166.471 82H167.664V81ZM178.576 19.576V18.576H177.738L177.591 19.4011L178.576 19.576ZM192.568 19.576L193.537 19.3308L193.347 18.576H192.568V19.576ZM204.096 65.16L203.126 65.4052L203.715 67.7311L204.953 65.676L204.096 65.16ZM231.552 19.576V18.576H230.987L230.695 19.06L231.552 19.576ZM244.559 19.4025L233.735 80.8265L235.705 81.1735L246.529 19.7495L244.559 19.4025ZM234.72 80H222.312V82H234.72V80ZM223.297 81.1743L230.337 41.3983L228.367 41.0497L221.327 80.8257L223.297 81.1743ZM228.49 40.7168L205.082 80.4928L206.806 81.5072L230.214 41.7312L228.49 40.7168ZM205.944 80H196.528V82H205.944V80ZM197.501 80.7701L188.085 40.9061L186.139 41.3659L195.555 81.2299L197.501 80.7701ZM186.127 40.9621L179.087 80.8261L181.057 81.1739L188.097 41.3099L186.127 40.9621ZM180.072 80H167.664V82H180.072V80ZM168.649 81.1749L179.561 19.7509L177.591 19.4011L166.679 80.8251L168.649 81.1749ZM178.576 20.576H192.568V18.576H178.576V20.576ZM191.598 19.8212L203.126 65.4052L205.065 64.9148L193.537 19.3308L191.598 19.8212ZM204.953 65.676L232.409 20.092L230.695 19.06L203.239 64.644L204.953 65.676ZM231.552 20.576H245.544V18.576H231.552V20.576ZM277.172 29.168V28.168H276.334L276.188 28.9939L277.172 29.168ZM274.356 45.096L273.372 44.9219L273.164 46.096H274.356V45.096ZM295.036 45.096L296.021 45.2693L296.228 44.096H295.036V45.096ZM293.364 54.6V55.6H294.204L294.349 54.7733L293.364 54.6ZM272.684 54.6V53.6H271.844L271.699 54.428L272.684 54.6ZM269.78 71.232L268.795 71.06L268.591 72.232H269.78V71.232ZM293.1 71.232L294.085 71.4093L294.297 70.232H293.1V71.232ZM291.34 81V82H292.176L292.325 81.1773L291.34 81ZM255.612 81L254.628 80.8253L254.419 82H255.612V81ZM266.524 19.488V18.488H265.686L265.54 19.3133L266.524 19.488ZM302.164 19.488L303.15 19.6582L303.352 18.488H302.164V19.488ZM300.492 29.168V30.168H301.334L301.478 29.3382L300.492 29.168ZM276.188 28.9939L273.372 44.9219L275.341 45.2701L278.157 29.3421L276.188 28.9939ZM274.356 46.096H295.036V44.096H274.356V46.096ZM294.052 44.9227L292.38 54.4267L294.349 54.7733L296.021 45.2693L294.052 44.9227ZM293.364 53.6H272.684V55.6H293.364V53.6ZM271.699 54.428L268.795 71.06L270.765 71.404L273.669 54.772L271.699 54.428ZM269.78 72.232H293.1V70.232H269.78V72.232ZM292.116 71.0547L290.356 80.8227L292.325 81.1773L294.085 71.4093L292.116 71.0547ZM291.34 80H255.612V82H291.34V80ZM256.597 81.1747L267.509 19.6627L265.54 19.3133L254.628 80.8253L256.597 81.1747ZM266.524 20.488H302.164V18.488H266.524V20.488ZM301.179 19.3178L299.507 28.9978L301.478 29.3382L303.15 19.6582L301.179 19.3178ZM300.492 28.168H277.172V30.168H300.492V28.168ZM391.819 23.888L391.154 24.6347L391.162 24.6414L391.819 23.888ZM396.395 38.408L397.38 38.5818L397.382 38.5691L397.384 38.5563L396.395 38.408ZM390.939 49.32L390.193 48.654L390.193 48.6548L390.939 49.32ZM379.323 56.096L379.067 55.1294L377.963 55.4221L378.399 56.4781L379.323 56.096ZM389.619 81V82H391.115L390.543 80.6179L389.619 81ZM375.275 81L374.341 81.3571L374.587 82H375.275V81ZM366.123 57.064L367.057 56.7069L366.811 56.064H366.123V57.064ZM360.227 57.064V56.064H359.388L359.242 56.8902L360.227 57.064ZM356.003 81V82H356.842L356.988 81.1738L356.003 81ZM343.595 81L342.611 80.8251L342.402 82H343.595V81ZM354.507 19.576V18.576H353.669L353.523 19.4011L354.507 19.576ZM383.723 38.672L384.707 38.8526L384.713 38.8177L384.717 38.7824L383.723 38.672ZM381.787 31.368L381.129 32.1206L381.129 32.1206L381.787 31.368ZM365.067 29.52V28.52H364.229L364.083 29.3457L365.067 29.52ZM361.811 47.912L360.827 47.7377L360.619 48.912H361.811V47.912ZM379.939 45.448L379.304 44.6761L379.298 44.6807L379.292 44.6855L379.939 45.448ZM377.563 20.576C383.704 20.576 388.178 21.9836 391.154 24.6347L392.484 23.1413C389.007 20.0431 383.977 18.576 377.563 18.576V20.576ZM391.162 24.6414C394.154 27.2533 395.659 30.6664 395.659 34.976H397.659C397.659 30.1336 395.937 26.1547 392.477 23.1346L391.162 24.6414ZM395.659 34.976C395.659 36.038 395.575 37.1323 395.406 38.2597L397.384 38.5563C397.567 37.337 397.659 36.1434 397.659 34.976H395.659ZM395.41 38.2342C394.742 42.0246 393.014 45.4948 390.193 48.654L391.685 49.986C394.731 46.5745 396.641 42.7701 397.38 38.5818L395.41 38.2342ZM390.193 48.6548C387.469 51.7121 383.779 53.8804 379.067 55.1294L379.579 57.0626C384.606 55.7302 388.66 53.3812 391.686 49.9852L390.193 48.6548ZM378.399 56.4781L388.695 81.3821L390.543 80.6179L380.247 55.7139L378.399 56.4781ZM389.619 80H375.275V82H389.619V80ZM376.209 80.6429L367.057 56.7069L365.189 57.4211L374.341 81.3571L376.209 80.6429ZM366.123 56.064H360.227V58.064H366.123V56.064ZM359.242 56.8902L355.018 80.8262L356.988 81.1738L361.212 57.2378L359.242 56.8902ZM356.003 80H343.595V82H356.003V80ZM344.58 81.1749L355.492 19.7509L353.523 19.4011L342.611 80.8251L344.58 81.1749ZM354.507 20.576H377.563V18.576H354.507V20.576ZM384.717 38.7824C384.833 37.7359 384.899 36.9767 384.899 36.56H382.899C382.899 36.8473 382.848 37.4961 382.729 38.5616L384.717 38.7824ZM384.899 36.56C384.899 34.1029 384.113 32.0739 382.446 30.6154L381.129 32.1206C382.278 33.1261 382.899 34.5585 382.899 36.56H384.899ZM382.446 30.6154C380.779 29.1575 378.355 28.52 375.363 28.52V30.52C378.12 30.52 379.979 31.1145 381.129 32.1206L382.446 30.6154ZM375.363 28.52H365.067V30.52H375.363V28.52ZM364.083 29.3457L360.827 47.7377L362.796 48.0863L366.052 29.6943L364.083 29.3457ZM361.811 48.912H372.107V46.912H361.811V48.912ZM372.107 48.912C375.559 48.912 378.422 48.0469 380.586 46.2105L379.292 44.6855C377.585 46.1344 375.227 46.912 372.107 46.912V48.912ZM380.575 46.2199C382.775 44.4077 384.142 41.9269 384.707 38.8526L382.74 38.4913C382.248 41.1664 381.092 43.203 379.304 44.6761L380.575 46.2199ZM431.826 19.576L432.811 19.7497L433.018 18.576H431.826V19.576ZM425.138 57.504L424.153 57.3303L424.151 57.3464L424.148 57.3626L425.138 57.504ZM427.514 67.976L426.844 68.7181L426.851 68.7242L426.857 68.7301L427.514 67.976ZM445.026 67.096L445.678 67.854L445.68 67.8528L445.026 67.096ZM450.042 57.504L451.026 57.6841L451.027 57.6777L450.042 57.504ZM456.73 19.576V18.576H455.891L455.745 19.4023L456.73 19.576ZM469.138 19.576L470.123 19.7497L470.33 18.576H469.138V19.576ZM462.45 57.504L463.435 57.679L463.435 57.6777L462.45 57.504ZM456.73 70.88L457.51 71.5063L457.515 71.5001L456.73 70.88ZM446.258 78.976L446.657 79.8931L446.663 79.8903L446.258 78.976ZM418.01 76.776L417.364 77.5394L417.37 77.5442L418.01 76.776ZM412.818 57.504L413.802 57.6829L413.803 57.6777L412.818 57.504ZM419.506 19.576V18.576H418.667L418.521 19.4023L419.506 19.576ZM430.841 19.4023L424.153 57.3303L426.123 57.6777L432.811 19.7497L430.841 19.4023ZM424.148 57.3626C423.914 59.0016 423.786 60.2108 423.786 60.936H425.786C425.786 60.3706 425.893 59.2917 426.128 57.6454L424.148 57.3626ZM423.786 60.936C423.786 64.1951 424.766 66.8411 426.844 68.7181L428.184 67.2339C426.625 65.8256 425.786 63.7783 425.786 60.936H423.786ZM426.857 68.7301C428.918 70.5247 431.766 71.352 435.258 71.352V69.352C432.062 69.352 429.748 68.5953 428.171 67.2219L426.857 68.7301ZM435.258 71.352C439.437 71.352 442.94 70.2105 445.678 67.854L444.374 66.338C442.067 68.3228 439.058 69.352 435.258 69.352V71.352ZM445.68 67.8528C448.472 65.4413 450.232 62.0181 451.026 57.6841L449.059 57.3239C448.327 61.3206 446.743 64.292 444.373 66.3392L445.68 67.8528ZM451.027 57.6777L457.715 19.7497L455.745 19.4023L449.057 57.3303L451.027 57.6777ZM456.73 20.576H469.138V18.576H456.73V20.576ZM468.153 19.4023L461.465 57.3303L463.435 57.6777L470.123 19.7497L468.153 19.4023ZM461.466 57.329C460.551 62.472 458.703 66.7712 455.946 70.2599L457.515 71.5001C460.507 67.7142 462.472 63.096 463.435 57.679L461.466 57.329ZM455.951 70.2537C453.174 73.7107 449.811 76.3092 445.853 78.0617L446.663 79.8903C450.919 78.0055 454.537 75.2067 457.51 71.5063L455.951 70.2537ZM445.859 78.0589C441.945 79.7608 437.711 80.616 433.146 80.616V82.616C437.968 82.616 442.475 81.7112 446.657 79.8931L445.859 78.0589ZM433.146 80.616C427.105 80.616 422.304 79.0521 418.65 76.0078L417.37 77.5442C421.461 80.9532 426.75 82.616 433.146 82.616V80.616ZM418.656 76.0126C415.114 73.0157 413.29 68.6882 413.29 62.872H411.29C411.29 69.1411 413.279 74.083 417.364 77.5394L418.656 76.0126ZM413.29 62.872C413.29 61.2997 413.459 59.571 413.802 57.6829L411.834 57.3251C411.474 59.309 411.29 61.159 411.29 62.872H413.29ZM413.803 57.6777L420.491 19.7497L418.521 19.4023L411.833 57.3303L413.803 57.6777ZM419.506 20.576H431.826V18.576H419.506V20.576ZM493.01 71.584L492.025 71.4107L491.818 72.584H493.01V71.584ZM513.25 71.584L514.234 71.7588L514.443 70.584H513.25V71.584ZM511.578 81V82H512.416L512.562 81.1748L511.578 81ZM478.93 81L477.945 80.8251L477.736 82H478.93V81ZM489.842 19.576V18.576H489.004L488.857 19.4011L489.842 19.576ZM502.162 19.576L503.146 19.7493L503.353 18.576H502.162V19.576ZM493.01 72.584H513.25V70.584H493.01V72.584ZM512.265 71.4092L510.593 80.8252L512.562 81.1748L514.234 71.7588L512.265 71.4092ZM511.578 80H478.93V82H511.578V80ZM479.914 81.1749L490.826 19.7509L488.857 19.4011L477.945 80.8251L479.914 81.1749ZM489.842 20.576H502.162V18.576H489.842V20.576ZM501.177 19.4027L492.025 71.4107L493.994 71.7573L503.146 19.7493L501.177 19.4027ZM549.68 29.168V28.168H548.841L548.695 28.9939L549.68 29.168ZM546.864 45.096L545.879 44.9219L545.672 46.096H546.864V45.096ZM567.544 45.096L568.529 45.2693L568.735 44.096H567.544V45.096ZM565.872 54.6V55.6H566.712L566.857 54.7733L565.872 54.6ZM545.192 54.6V53.6H544.352L544.207 54.428L545.192 54.6ZM542.288 71.232L541.303 71.06L541.098 72.232H542.288V71.232ZM565.608 71.232L566.592 71.4093L566.804 70.232H565.608V71.232ZM563.848 81V82H564.684L564.832 81.1773L563.848 81ZM528.12 81L527.136 80.8253L526.927 82H528.12V81ZM539.032 19.488V18.488H538.194L538.048 19.3133L539.032 19.488ZM574.672 19.488L575.658 19.6582L575.86 18.488H574.672V19.488ZM573 29.168V30.168H573.842L573.986 29.3382L573 29.168ZM548.695 28.9939L545.879 44.9219L547.849 45.2701L550.665 29.3421L548.695 28.9939ZM546.864 46.096H567.544V44.096H546.864V46.096ZM566.559 44.9227L564.887 54.4267L566.857 54.7733L568.529 45.2693L566.559 44.9227ZM565.872 53.6H545.192V55.6H565.872V53.6ZM544.207 54.428L541.303 71.06L543.273 71.404L546.177 54.772L544.207 54.428ZM542.288 72.232H565.608V70.232H542.288V72.232ZM564.624 71.0547L562.864 80.8227L564.832 81.1773L566.592 71.4093L564.624 71.0547ZM563.848 80H528.12V82H563.848V80ZM529.105 81.1747L540.017 19.6627L538.048 19.3133L527.136 80.8253L529.105 81.1747ZM539.032 20.488H574.672V18.488H539.032V20.488ZM573.687 19.3178L572.015 28.9978L573.986 29.3382L575.658 19.6582L573.687 19.3178ZM573 28.168H549.68V30.168H573V28.168ZM591.852 77.48L591.27 78.2929L591.277 78.2978L591.284 78.3026L591.852 77.48ZM586.132 63.312V62.312H585.237L585.138 63.2016L586.132 63.312ZM598.716 63.312L599.712 63.4068L599.816 62.312H598.716V63.312ZM600.652 69.384L599.932 70.0776L599.938 70.0844L599.945 70.0911L600.652 69.384ZM614.556 69.912L615.143 70.722L615.147 70.7184L614.556 69.912ZM614.468 59.264L613.877 60.0704L613.883 60.075L613.889 60.0795L614.468 59.264ZM606.108 54.952L605.724 55.8751L605.725 55.8755L606.108 54.952ZM597.484 50.904L596.99 51.7737L597 51.7792L597.484 50.904ZM591.852 45.8L591.027 46.3647L591.035 46.3772L591.044 46.3895L591.852 45.8ZM592.468 27.496L591.652 26.9179L591.644 26.9295L592.468 27.496ZM600.564 20.984L600.161 20.0689L600.155 20.0715L600.564 20.984ZM623.62 20.896L623.2 21.8035L623.21 21.8081L623.22 21.8125L623.62 20.896ZM630.836 26.968L629.979 27.4825L629.983 27.4894L629.987 27.4963L630.836 26.968ZM632.948 36.208V37.208H633.884L633.946 36.2745L632.948 36.208ZM619.836 36.208L618.84 36.1175L618.741 37.208H619.836V36.208ZM619.924 35.24L620.92 35.3305L620.924 35.2854V35.24H619.924ZM617.724 30.488L617.066 31.2406L617.073 31.2472L617.081 31.2537L617.724 30.488ZM605.052 30.576L604.448 29.7793L604.448 29.7793L605.052 30.576ZM603.908 39.728L603.143 40.3721L603.162 40.3939L603.181 40.4146L603.908 39.728ZM607.516 42.544L607.012 43.4078L607.026 43.4158L607.04 43.4233L607.516 42.544ZM613.588 45.536L613.165 46.4422L613.175 46.4467L613.185 46.4511L613.588 45.536ZM622.124 49.848L621.606 50.7035L621.606 50.7035L622.124 49.848ZM627.844 55.216L627.029 55.7952L627.029 55.7952L627.844 55.216ZM627.316 72.816L626.498 72.2414L626.494 72.2473L626.49 72.2532L627.316 72.816ZM619.22 79.328L619.623 80.2431L619.63 80.2399L619.22 79.328ZM607.076 80.616C601.064 80.616 596.203 79.2715 592.421 76.6574L591.284 78.3026C595.48 81.2032 600.768 82.616 607.076 82.616V80.616ZM592.435 76.6671C588.779 74.0483 586.956 70.4274 586.956 65.688H584.956C584.956 71.0392 587.064 75.2797 591.27 78.2929L592.435 76.6671ZM586.956 65.688C586.956 65.2176 587.01 64.4706 587.126 63.4224L585.138 63.2016C585.02 64.2654 584.956 65.1024 584.956 65.688H586.956ZM586.132 64.312H598.716V62.312H586.132V64.312ZM597.721 63.2172C597.462 65.9308 598.177 68.2557 599.932 70.0776L601.372 68.6904C600.076 67.3443 599.501 65.6212 599.712 63.4068L597.721 63.2172ZM599.945 70.0911C601.773 71.9189 604.351 72.76 607.516 72.76V70.76C604.697 70.76 602.699 70.0171 601.359 68.6769L599.945 70.0911ZM607.516 72.76C610.632 72.76 613.212 72.12 615.143 70.7219L613.97 69.1021C612.498 70.168 610.384 70.76 607.516 70.76V72.76ZM615.147 70.7184C617.186 69.2234 618.196 67.0933 618.196 64.456H616.196C616.196 66.5121 615.446 68.0192 613.965 69.1056L615.147 70.7184ZM618.196 64.456C618.196 61.9509 617.121 59.9206 615.047 58.4485L613.889 60.0795C615.452 61.1887 616.196 62.6198 616.196 64.456H618.196ZM615.059 58.4576C613.201 57.0949 610.326 55.6211 606.492 54.0285L605.725 55.8755C609.517 57.4509 612.215 58.8518 613.877 60.0704L615.059 58.4576ZM606.493 54.0289C602.992 52.5702 600.153 51.2366 597.968 50.0288L597 51.7792C599.273 53.0354 602.185 54.4005 605.724 55.8751L606.493 54.0289ZM597.978 50.0343C595.94 48.8776 594.167 47.2755 592.66 45.2105L591.044 46.3895C592.705 48.6659 594.687 50.4664 596.991 51.7737L597.978 50.0343ZM592.677 45.2353C591.29 43.2082 590.564 40.6308 590.564 37.44H588.564C588.564 40.9372 589.363 43.9332 591.027 46.3647L592.677 45.2353ZM590.564 37.44C590.564 33.8046 591.484 30.6928 593.292 28.0625L591.644 26.9295C589.58 29.9312 588.564 33.4488 588.564 37.44H590.564ZM593.284 28.074C595.167 25.4156 597.72 23.3548 600.973 21.8965L600.155 20.0715C596.603 21.6638 593.758 23.9444 591.652 26.918L593.284 28.074ZM600.967 21.8991C604.283 20.4381 608.073 19.696 612.356 19.696V17.696C607.84 17.696 603.768 18.4792 600.161 20.0689L600.967 21.8991ZM612.356 19.696C616.587 19.696 620.192 20.4107 623.2 21.8035L624.04 19.9885C620.713 18.4479 616.808 17.696 612.356 17.696V19.696ZM623.22 21.8125C626.285 23.1497 628.517 25.0456 629.979 27.4825L631.694 26.4535C629.988 23.6103 627.409 21.4583 624.02 19.9795L623.22 21.8125ZM629.987 27.4963C631.505 29.9351 632.173 32.8012 631.95 36.1415L633.946 36.2745C634.193 32.5748 633.453 29.2809 631.685 26.4397L629.987 27.4963ZM632.948 35.208H619.836V37.208H632.948V35.208ZM620.832 36.2985L620.92 35.3305L618.928 35.1495L618.84 36.1175L620.832 36.2985ZM620.924 35.24C620.924 33.0123 620.063 31.1466 618.367 29.7223L617.081 31.2537C618.319 32.2934 618.924 33.5957 618.924 35.24H620.924ZM618.383 29.7354C616.733 28.2923 614.472 27.64 611.74 27.64V29.64C614.171 29.64 615.899 30.2197 617.066 31.2406L618.383 29.7354ZM611.74 27.64C608.828 27.64 606.368 28.3227 604.448 29.7793L605.657 31.3727C607.139 30.2479 609.137 29.64 611.74 29.64V27.64ZM604.448 29.7793C602.485 31.2685 601.5 33.3299 601.5 35.856H603.5C603.5 33.9234 604.217 32.4648 605.657 31.3727L604.448 29.7793ZM601.5 35.856C601.5 37.5567 602.052 39.0759 603.143 40.3721L604.673 39.0839C603.887 38.1508 603.5 37.0886 603.5 35.856H601.5ZM603.181 40.4146C604.251 41.5479 605.532 42.5441 607.012 43.4078L608.02 41.6802C606.685 40.9012 605.559 40.0201 604.635 39.0414L603.181 40.4146ZM607.04 43.4233C608.474 44.2002 610.519 45.2074 613.165 46.4422L614.011 44.6298C611.377 43.4006 609.374 42.4132 607.992 41.6647L607.04 43.4233ZM613.185 46.4511C616.623 47.9661 619.426 49.384 621.606 50.7035L622.642 48.9925C620.363 47.6134 617.476 46.1566 613.991 44.6209L613.185 46.4511ZM621.606 50.7035C623.713 51.9785 625.52 53.6717 627.029 55.7952L628.659 54.6368C627 52.3016 624.994 50.4161 622.642 48.9925L621.606 50.7035ZM627.029 55.7952C628.472 57.8265 629.22 60.3425 629.22 63.4H631.22C631.22 60.0041 630.384 57.0641 628.659 54.6368L627.029 55.7952ZM629.22 63.4C629.22 66.7241 628.31 69.6602 626.498 72.2414L628.135 73.3906C630.194 70.4571 631.22 67.1159 631.22 63.4H629.22ZM626.49 72.2532C624.732 74.8353 622.188 76.8957 618.81 78.4161L619.63 80.2399C623.292 78.5923 626.146 76.3114 628.143 73.3788L626.49 72.2532ZM618.817 78.4129C615.508 79.8711 611.602 80.616 607.076 80.616V82.616C611.819 82.616 616.01 81.8355 619.623 80.2431L618.817 78.4129Z" fill="white" mask="url(#path-5-outside-1_49_2232)"/>
</g>
</g>
<defs>
<filter id="filter0_d_49_2232" x="0.548828" y="-11" width="643.751" height="119" filterUnits="userSpaceOnUse" color-interpolation-filters="sRGB">
<feFlood flood-opacity="0" result="BackgroundImageFix"/>
<feColorMatrix in="SourceAlpha" type="matrix" values="0 0 0 0 0 0 0 0 0 0 0 0 0 0 0 0 0 0 127 0" result="hardAlpha"/>
<feOffset dx="-4"/>
<feGaussianBlur stdDeviation="8"/>
<feColorMatrix type="matrix" values="0 0 0 0 0.00833333 0 0 0 0 0.167 0 0 0 0 1 0 0 0 1 0"/>
<feBlend mode="normal" in2="BackgroundImageFix" result="effect1_dropShadow_49_2232"/>
<feBlend mode="normal" in="SourceGraphic" in2="effect1_dropShadow_49_2232" result="shape"/>
</filter>
<filter id="filter1_d_49_2232" x="19.5488" y="0" width="627.751" height="103" filterUnits="userSpaceOnUse" color-interpolation-filters="sRGB">
<feFlood flood-opacity="0" result="BackgroundImageFix"/>
<feColorMatrix in="SourceAlpha" type="matrix" values="0 0 0 0 0 0 0 0 0 0 0 0 0 0 0 0 0 0 127 0" result="hardAlpha"/>
<feOffset dx="2"/>
<feGaussianBlur stdDeviation="4"/>
<feColorMatrix type="matrix" values="0 0 0 0 1 0 0 0 0 1 0 0 0 0 0.180392 0 0 0 0.6 0"/>
<feBlend mode="normal" in2="BackgroundImageFix" result="effect1_dropShadow_49_2232"/>
<feBlend mode="normal" in="SourceGraphic" in2="effect1_dropShadow_49_2232" result="shape"/>
</filter>
<filter id="filter2_d_49_2232" x="19.5488" y="9" width="619.751" height="95" filterUnits="userSpaceOnUse" color-interpolation-filters="sRGB">
<feFlood flood-opacity="0" result="BackgroundImageFix"/>
<feColorMatrix in="SourceAlpha" type="matrix" values="0 0 0 0 0 0 0 0 0 0 0 0 0 0 0 0 0 0 127 0" result="hardAlpha"/>
<feOffset dy="2"/>
<feGaussianBlur stdDeviation="2"/>
<feColorMatrix type="matrix" values="0 0 0 0 0.352941 0 0 0 0 1 0 0 0 0 0.960784 0 0 0 0.25 0"/>
<feBlend mode="normal" in2="BackgroundImageFix" result="effect1_dropShadow_49_2232"/>
<feBlend mode="normal" in="SourceGraphic" in2="effect1_dropShadow_49_2232" result="shape"/>
</filter>
</defs>
</svg>
