<svg width="827" height="118" viewBox="0 0 827 118" fill="none" xmlns="http://www.w3.org/2000/svg">
<g style="mix-blend-mode:color-dodge">
<path d="M26.9263 62C28.3663 53.76 31.5263 46.4 36.4062 39.92C41.2863 33.36 47.2863 28.28 54.4063 24.68C61.5263 21 69.0863 19.16 77.0863 19.16C86.5263 19.16 94.2863 21.48 100.366 26.12C106.526 30.68 110.246 37.12 111.526 45.44H92.2063C90.9263 41.92 88.7663 39.24 85.7263 37.4C82.6863 35.56 78.9263 34.64 74.4463 34.64C69.4863 34.64 64.8863 35.76 60.6463 38C56.4063 40.24 52.8463 43.44 49.9663 47.6C47.0863 51.76 45.1663 56.56 44.2063 62C43.8063 63.92 43.6063 66.12 43.6063 68.6C43.6063 75.16 45.5263 80.32 49.3663 84.08C53.2863 87.76 58.6463 89.6 65.4463 89.6C71.7663 89.6 77.2863 87.88 82.0062 84.44C86.8062 81 90.3663 76.24 92.6863 70.16H63.8863L66.0463 57.44H111.406L108.766 72.08C106.606 77.92 103.246 83.32 98.6863 88.28C94.1263 93.24 88.6863 97.24 82.3663 100.28C76.0463 103.24 69.2863 104.72 62.0863 104.72C54.9663 104.72 48.6863 103.28 43.2463 100.4C37.8863 97.52 33.6863 93.52 30.6463 88.4C27.6863 83.2 26.2063 77.2 26.2063 70.4C26.2063 67.68 26.4463 64.88 26.9263 62ZM181.796 88.04H148.316L140.036 104H122.396L167.396 20.12H186.956L202.196 104H184.436L181.796 88.04ZM179.636 74.96L173.636 39.44L155.156 74.96H179.636ZM331.654 20.24L316.894 104H299.974L309.574 49.76L277.654 104H264.814L251.974 49.64L242.374 104H225.454L240.334 20.24H259.414L275.134 82.4L312.574 20.24H331.654ZM374.784 33.32L370.944 55.04H399.144L396.864 68H368.664L364.704 90.68H396.504L394.104 104H345.384L360.264 20.12H408.864L406.584 33.32H374.784ZM504.6 104.84C497.56 104.84 491.32 103.36 485.88 100.4C480.52 97.36 476.36 93.2 473.4 87.92C470.44 82.56 468.96 76.44 468.96 69.56C468.96 59.96 471.08 51.32 475.32 43.64C479.64 35.96 485.56 29.96 493.08 25.64C500.68 21.24 509.2 19.04 518.64 19.04C525.76 19.04 532 20.52 537.36 23.48C542.8 26.44 547 30.6 549.96 35.96C552.92 41.24 554.4 47.28 554.4 54.08C554.4 63.84 552.28 72.56 548.04 80.24C543.8 87.92 537.88 93.96 530.28 98.36C522.68 102.68 514.12 104.84 504.6 104.84ZM507 89.36C513 89.36 518.28 87.84 522.84 84.8C527.48 81.76 531.04 77.68 533.52 72.56C536.08 67.36 537.36 61.72 537.36 55.64C537.36 49.08 535.52 43.92 531.84 40.16C528.16 36.4 523 34.52 516.36 34.52C510.44 34.52 505.16 36.04 500.52 39.08C495.96 42.12 492.4 46.2 489.84 51.32C487.36 56.44 486.12 62.04 486.12 68.12C486.12 74.68 487.92 79.88 491.52 83.72C495.2 87.48 500.36 89.36 507 89.36ZM597.859 20.24L609.019 86.84L643.819 20.24H661.699L616.219 104H595.819L579.859 20.24H597.859ZM698.292 33.32L694.452 55.04H722.652L720.372 68H692.172L688.212 90.68H720.012L717.612 104H668.892L683.772 20.12H732.372L730.092 33.32H698.292ZM791.079 20.24C799.639 20.24 806.119 22.2 810.519 26.12C814.919 29.96 817.119 35 817.119 41.24C817.119 42.76 816.999 44.32 816.759 45.92C815.799 51.36 813.319 56.32 809.319 60.8C805.399 65.2 800.119 68.28 793.479 70.04L807.519 104H787.959L775.479 71.36H767.439L761.679 104H744.759L759.639 20.24H791.079ZM799.479 46.28C799.639 44.84 799.719 43.88 799.719 43.4C799.719 40.36 798.759 38 796.839 36.32C794.919 34.64 791.999 33.8 788.079 33.8H774.039L769.599 58.88H783.639C788.119 58.88 791.679 57.76 794.319 55.52C797.039 53.28 798.759 50.2 799.479 46.28Z" fill="#FF5ABD"/>
</g>
<g style="mix-blend-mode:color-dodge" filter="url(#filter0_d_72_1279)">
<path d="M20.9263 59C22.3663 50.76 25.5263 43.4 30.4062 36.92C35.2863 30.36 41.2863 25.28 48.4063 21.68C55.5263 18 63.0863 16.16 71.0863 16.16C80.5263 16.16 88.2863 18.48 94.3663 23.12C100.526 27.68 104.246 34.12 105.526 42.44H86.2063C84.9263 38.92 82.7663 36.24 79.7263 34.4C76.6863 32.56 72.9263 31.64 68.4463 31.64C63.4863 31.64 58.8863 32.76 54.6463 35C50.4063 37.24 46.8463 40.44 43.9663 44.6C41.0863 48.76 39.1663 53.56 38.2063 59C37.8063 60.92 37.6063 63.12 37.6063 65.6C37.6063 72.16 39.5263 77.32 43.3663 81.08C47.2863 84.76 52.6463 86.6 59.4463 86.6C65.7663 86.6 71.2863 84.88 76.0062 81.44C80.8062 78 84.3663 73.24 86.6863 67.16H57.8863L60.0463 54.44H105.406L102.766 69.08C100.606 74.92 97.2463 80.32 92.6863 85.28C88.1263 90.24 82.6863 94.24 76.3663 97.28C70.0463 100.24 63.2863 101.72 56.0863 101.72C48.9663 101.72 42.6863 100.28 37.2463 97.4C31.8863 94.52 27.6863 90.52 24.6463 85.4C21.6863 80.2 20.2063 74.2 20.2063 67.4C20.2063 64.68 20.4463 61.88 20.9263 59ZM175.796 85.04H142.316L134.036 101H116.396L161.396 17.12H180.956L196.196 101H178.436L175.796 85.04ZM173.636 71.96L167.636 36.44L149.156 71.96H173.636ZM325.654 17.24L310.894 101H293.974L303.574 46.76L271.654 101H258.814L245.974 46.64L236.374 101H219.454L234.334 17.24H253.414L269.134 79.4L306.574 17.24H325.654ZM368.784 30.32L364.944 52.04H393.144L390.864 65H362.664L358.704 87.68H390.504L388.104 101H339.384L354.264 17.12H402.864L400.584 30.32H368.784ZM498.6 101.84C491.56 101.84 485.32 100.36 479.88 97.4C474.52 94.36 470.36 90.2 467.4 84.92C464.44 79.56 462.96 73.44 462.96 66.56C462.96 56.96 465.08 48.32 469.32 40.64C473.64 32.96 479.56 26.96 487.08 22.64C494.68 18.24 503.2 16.04 512.64 16.04C519.76 16.04 526 17.52 531.36 20.48C536.8 23.44 541 27.6 543.96 32.96C546.92 38.24 548.4 44.28 548.4 51.08C548.4 60.84 546.28 69.56 542.04 77.24C537.8 84.92 531.88 90.96 524.28 95.36C516.68 99.68 508.12 101.84 498.6 101.84ZM501 86.36C507 86.36 512.28 84.84 516.84 81.8C521.48 78.76 525.04 74.68 527.52 69.56C530.08 64.36 531.36 58.72 531.36 52.64C531.36 46.08 529.52 40.92 525.84 37.16C522.16 33.4 517 31.52 510.36 31.52C504.44 31.52 499.16 33.04 494.52 36.08C489.96 39.12 486.4 43.2 483.84 48.32C481.36 53.44 480.12 59.04 480.12 65.12C480.12 71.68 481.92 76.88 485.52 80.72C489.2 84.48 494.36 86.36 501 86.36ZM591.859 17.24L603.019 83.84L637.819 17.24H655.699L610.219 101H589.819L573.859 17.24H591.859ZM692.292 30.32L688.452 52.04H716.652L714.372 65H686.172L682.212 87.68H714.012L711.612 101H662.892L677.772 17.12H726.372L724.092 30.32H692.292ZM785.079 17.24C793.639 17.24 800.119 19.2 804.519 23.12C808.919 26.96 811.119 32 811.119 38.24C811.119 39.76 810.999 41.32 810.759 42.92C809.799 48.36 807.319 53.32 803.319 57.8C799.399 62.2 794.119 65.28 787.479 67.04L801.519 101H781.959L769.479 68.36H761.439L755.679 101H738.759L753.639 17.24H785.079ZM793.479 43.28C793.639 41.84 793.719 40.88 793.719 40.4C793.719 37.36 792.759 35 790.839 33.32C788.919 31.64 785.999 30.8 782.079 30.8H768.039L763.599 55.88H777.639C782.119 55.88 785.679 54.76 788.319 52.52C791.039 50.28 792.759 47.2 793.479 43.28Z" fill="#3965FF"/>
</g>
<g style="mix-blend-mode:color-dodge" filter="url(#filter1_d_72_1279)">
<path d="M25.9263 62C27.3663 53.76 30.5263 46.4 35.4062 39.92C40.2863 33.36 46.2863 28.28 53.4063 24.68C60.5263 21 68.0863 19.16 76.0863 19.16C85.5263 19.16 93.2863 21.48 99.3663 26.12C105.526 30.68 109.246 37.12 110.526 45.44H91.2063C89.9263 41.92 87.7663 39.24 84.7263 37.4C81.6863 35.56 77.9263 34.64 73.4463 34.64C68.4863 34.64 63.8863 35.76 59.6463 38C55.4063 40.24 51.8463 43.44 48.9663 47.6C46.0863 51.76 44.1663 56.56 43.2063 62C42.8063 63.92 42.6063 66.12 42.6063 68.6C42.6063 75.16 44.5263 80.32 48.3663 84.08C52.2863 87.76 57.6463 89.6 64.4463 89.6C70.7663 89.6 76.2863 87.88 81.0062 84.44C85.8062 81 89.3663 76.24 91.6863 70.16H62.8863L65.0463 57.44H110.406L107.766 72.08C105.606 77.92 102.246 83.32 97.6863 88.28C93.1263 93.24 87.6863 97.24 81.3663 100.28C75.0463 103.24 68.2863 104.72 61.0863 104.72C53.9663 104.72 47.6863 103.28 42.2463 100.4C36.8863 97.52 32.6863 93.52 29.6463 88.4C26.6863 83.2 25.2063 77.2 25.2063 70.4C25.2063 67.68 25.4463 64.88 25.9263 62ZM180.796 88.04H147.316L139.036 104H121.396L166.396 20.12H185.956L201.196 104H183.436L180.796 88.04ZM178.636 74.96L172.636 39.44L154.156 74.96H178.636ZM330.654 20.24L315.894 104H298.974L308.574 49.76L276.654 104H263.814L250.974 49.64L241.374 104H224.454L239.334 20.24H258.414L274.134 82.4L311.574 20.24H330.654ZM373.784 33.32L369.944 55.04H398.144L395.864 68H367.664L363.704 90.68H395.504L393.104 104H344.384L359.264 20.12H407.864L405.584 33.32H373.784ZM503.6 104.84C496.56 104.84 490.32 103.36 484.88 100.4C479.52 97.36 475.36 93.2 472.4 87.92C469.44 82.56 467.96 76.44 467.96 69.56C467.96 59.96 470.08 51.32 474.32 43.64C478.64 35.96 484.56 29.96 492.08 25.64C499.68 21.24 508.2 19.04 517.64 19.04C524.76 19.04 531 20.52 536.36 23.48C541.8 26.44 546 30.6 548.96 35.96C551.92 41.24 553.4 47.28 553.4 54.08C553.4 63.84 551.28 72.56 547.04 80.24C542.8 87.92 536.88 93.96 529.28 98.36C521.68 102.68 513.12 104.84 503.6 104.84ZM506 89.36C512 89.36 517.28 87.84 521.84 84.8C526.48 81.76 530.04 77.68 532.52 72.56C535.08 67.36 536.36 61.72 536.36 55.64C536.36 49.08 534.52 43.92 530.84 40.16C527.16 36.4 522 34.52 515.36 34.52C509.44 34.52 504.16 36.04 499.52 39.08C494.96 42.12 491.4 46.2 488.84 51.32C486.36 56.44 485.12 62.04 485.12 68.12C485.12 74.68 486.92 79.88 490.52 83.72C494.2 87.48 499.36 89.36 506 89.36ZM596.859 20.24L608.019 86.84L642.819 20.24H660.699L615.219 104H594.819L578.859 20.24H596.859ZM697.292 33.32L693.452 55.04H721.652L719.372 68H691.172L687.212 90.68H719.012L716.612 104H667.892L682.772 20.12H731.372L729.092 33.32H697.292ZM790.079 20.24C798.639 20.24 805.119 22.2 809.519 26.12C813.919 29.96 816.119 35 816.119 41.24C816.119 42.76 815.999 44.32 815.759 45.92C814.799 51.36 812.319 56.32 808.319 60.8C804.399 65.2 799.119 68.28 792.479 70.04L806.519 104H786.959L774.479 71.36H766.439L760.679 104H743.759L758.639 20.24H790.079ZM798.479 46.28C798.639 44.84 798.719 43.88 798.719 43.4C798.719 40.36 797.759 38 795.839 36.32C793.919 34.64 790.999 33.8 787.079 33.8H773.039L768.599 58.88H782.639C787.119 58.88 790.679 57.76 793.319 55.52C796.039 53.28 797.759 50.2 798.479 46.28Z" fill="#EDFF1F"/>
</g>
<g style="mix-blend-mode:color-dodge" filter="url(#filter2_d_72_1279)">
<path d="M23.9263 65C25.3663 56.76 28.5263 49.4 33.4062 42.92C38.2863 36.36 44.2863 31.28 51.4063 27.68C58.5263 24 66.0863 22.16 74.0863 22.16C83.5263 22.16 91.2863 24.48 97.3663 29.12C103.526 33.68 107.246 40.12 108.526 48.44H89.2063C87.9263 44.92 85.7663 42.24 82.7263 40.4C79.6863 38.56 75.9263 37.64 71.4463 37.64C66.4863 37.64 61.8863 38.76 57.6463 41C53.4063 43.24 49.8463 46.44 46.9663 50.6C44.0863 54.76 42.1663 59.56 41.2063 65C40.8063 66.92 40.6063 69.12 40.6063 71.6C40.6063 78.16 42.5263 83.32 46.3663 87.08C50.2863 90.76 55.6463 92.6 62.4463 92.6C68.7663 92.6 74.2863 90.88 79.0062 87.44C83.8062 84 87.3663 79.24 89.6863 73.16H60.8863L63.0463 60.44H108.406L105.766 75.08C103.606 80.92 100.246 86.32 95.6863 91.28C91.1263 96.24 85.6863 100.24 79.3663 103.28C73.0463 106.24 66.2863 107.72 59.0863 107.72C51.9663 107.72 45.6863 106.28 40.2463 103.4C34.8863 100.52 30.6863 96.52 27.6463 91.4C24.6863 86.2 23.2063 80.2 23.2063 73.4C23.2063 70.68 23.4463 67.88 23.9263 65ZM178.796 91.04H145.316L137.036 107H119.396L164.396 23.12H183.956L199.196 107H181.436L178.796 91.04ZM176.636 77.96L170.636 42.44L152.156 77.96H176.636ZM328.654 23.24L313.894 107H296.974L306.574 52.76L274.654 107H261.814L248.974 52.64L239.374 107H222.454L237.334 23.24H256.414L272.134 85.4L309.574 23.24H328.654ZM371.784 36.32L367.944 58.04H396.144L393.864 71H365.664L361.704 93.68H393.504L391.104 107H342.384L357.264 23.12H405.864L403.584 36.32H371.784ZM501.6 107.84C494.56 107.84 488.32 106.36 482.88 103.4C477.52 100.36 473.36 96.2 470.4 90.92C467.44 85.56 465.96 79.44 465.96 72.56C465.96 62.96 468.08 54.32 472.32 46.64C476.64 38.96 482.56 32.96 490.08 28.64C497.68 24.24 506.2 22.04 515.64 22.04C522.76 22.04 529 23.52 534.36 26.48C539.8 29.44 544 33.6 546.96 38.96C549.92 44.24 551.4 50.28 551.4 57.08C551.4 66.84 549.28 75.56 545.04 83.24C540.8 90.92 534.88 96.96 527.28 101.36C519.68 105.68 511.12 107.84 501.6 107.84ZM504 92.36C510 92.36 515.28 90.84 519.84 87.8C524.48 84.76 528.04 80.68 530.52 75.56C533.08 70.36 534.36 64.72 534.36 58.64C534.36 52.08 532.52 46.92 528.84 43.16C525.16 39.4 520 37.52 513.36 37.52C507.44 37.52 502.16 39.04 497.52 42.08C492.96 45.12 489.4 49.2 486.84 54.32C484.36 59.44 483.12 65.04 483.12 71.12C483.12 77.68 484.92 82.88 488.52 86.72C492.2 90.48 497.36 92.36 504 92.36ZM594.859 23.24L606.019 89.84L640.819 23.24H658.699L613.219 107H592.819L576.859 23.24H594.859ZM695.292 36.32L691.452 58.04H719.652L717.372 71H689.172L685.212 93.68H717.012L714.612 107H665.892L680.772 23.12H729.372L727.092 36.32H695.292ZM788.079 23.24C796.639 23.24 803.119 25.2 807.519 29.12C811.919 32.96 814.119 38 814.119 44.24C814.119 45.76 813.999 47.32 813.759 48.92C812.799 54.36 810.319 59.32 806.319 63.8C802.399 68.2 797.119 71.28 790.479 73.04L804.519 107H784.959L772.479 74.36H764.439L758.679 107H741.759L756.639 23.24H788.079ZM796.479 49.28C796.639 47.84 796.719 46.88 796.719 46.4C796.719 43.36 795.759 41 793.839 39.32C791.919 37.64 788.999 36.8 785.079 36.8H771.039L766.599 61.88H780.639C785.119 61.88 788.679 60.76 791.319 58.52C794.039 56.28 795.759 53.2 796.479 49.28Z" fill="#5AFFBA"/>
</g>
<g style="mix-blend-mode:color-dodge" opacity="0.9">
<g style="mix-blend-mode:color-dodge">
<mask id="path-5-outside-1_72_1279" maskUnits="userSpaceOnUse" x="20" y="17" width="794" height="88" fill="black">
<rect fill="white" x="20" y="17" width="794" height="88"/>
<path d="M21.9263 61C23.3663 52.76 26.5263 45.4 31.4062 38.92C36.2863 32.36 42.2863 27.28 49.4063 23.68C56.5263 20 64.0863 18.16 72.0863 18.16C81.5263 18.16 89.2863 20.48 95.3663 25.12C101.526 29.68 105.246 36.12 106.526 44.44H87.2063C85.9263 40.92 83.7663 38.24 80.7263 36.4C77.6863 34.56 73.9263 33.64 69.4463 33.64C64.4863 33.64 59.8863 34.76 55.6463 37C51.4063 39.24 47.8463 42.44 44.9663 46.6C42.0863 50.76 40.1663 55.56 39.2063 61C38.8063 62.92 38.6063 65.12 38.6063 67.6C38.6063 74.16 40.5263 79.32 44.3663 83.08C48.2863 86.76 53.6463 88.6 60.4463 88.6C66.7663 88.6 72.2863 86.88 77.0062 83.44C81.8062 80 85.3663 75.24 87.6863 69.16H58.8863L61.0463 56.44H106.406L103.766 71.08C101.606 76.92 98.2463 82.32 93.6863 87.28C89.1263 92.24 83.6863 96.24 77.3663 99.28C71.0463 102.24 64.2863 103.72 57.0863 103.72C49.9663 103.72 43.6863 102.28 38.2463 99.4C32.8863 96.52 28.6863 92.52 25.6463 87.4C22.6863 82.2 21.2063 76.2 21.2063 69.4C21.2063 66.68 21.4463 63.88 21.9263 61ZM176.796 87.04H143.316L135.036 103H117.396L162.396 19.12H181.956L197.196 103H179.436L176.796 87.04ZM174.636 73.96L168.636 38.44L150.156 73.96H174.636ZM326.654 19.24L311.894 103H294.974L304.574 48.76L272.654 103H259.814L246.974 48.64L237.374 103H220.454L235.334 19.24H254.414L270.134 81.4L307.574 19.24H326.654ZM369.784 32.32L365.944 54.04H394.144L391.864 67H363.664L359.704 89.68H391.504L389.104 103H340.384L355.264 19.12H403.864L401.584 32.32H369.784ZM499.6 103.84C492.56 103.84 486.32 102.36 480.88 99.4C475.52 96.36 471.36 92.2 468.4 86.92C465.44 81.56 463.96 75.44 463.96 68.56C463.96 58.96 466.08 50.32 470.32 42.64C474.64 34.96 480.56 28.96 488.08 24.64C495.68 20.24 504.2 18.04 513.64 18.04C520.76 18.04 527 19.52 532.36 22.48C537.8 25.44 542 29.6 544.96 34.96C547.92 40.24 549.4 46.28 549.4 53.08C549.4 62.84 547.28 71.56 543.04 79.24C538.8 86.92 532.88 92.96 525.28 97.36C517.68 101.68 509.12 103.84 499.6 103.84ZM502 88.36C508 88.36 513.28 86.84 517.84 83.8C522.48 80.76 526.04 76.68 528.52 71.56C531.08 66.36 532.36 60.72 532.36 54.64C532.36 48.08 530.52 42.92 526.84 39.16C523.16 35.4 518 33.52 511.36 33.52C505.44 33.52 500.16 35.04 495.52 38.08C490.96 41.12 487.4 45.2 484.84 50.32C482.36 55.44 481.12 61.04 481.12 67.12C481.12 73.68 482.92 78.88 486.52 82.72C490.2 86.48 495.36 88.36 502 88.36ZM592.859 19.24L604.019 85.84L638.819 19.24H656.699L611.219 103H590.819L574.859 19.24H592.859ZM693.292 32.32L689.452 54.04H717.652L715.372 67H687.172L683.212 89.68H715.012L712.612 103H663.892L678.772 19.12H727.372L725.092 32.32H693.292ZM786.079 19.24C794.639 19.24 801.119 21.2 805.519 25.12C809.919 28.96 812.119 34 812.119 40.24C812.119 41.76 811.999 43.32 811.759 44.92C810.799 50.36 808.319 55.32 804.319 59.8C800.399 64.2 795.119 67.28 788.479 69.04L802.519 103H782.959L770.479 70.36H762.439L756.679 103H739.759L754.639 19.24H786.079ZM794.479 45.28C794.639 43.84 794.719 42.88 794.719 42.4C794.719 39.36 793.759 37 791.839 35.32C789.919 33.64 786.999 32.8 783.079 32.8H769.039L764.599 57.88H778.639C783.119 57.88 786.679 56.76 789.319 54.52C792.039 52.28 793.759 49.2 794.479 45.28Z"/>
</mask>
<path d="M21.9263 61L20.9411 60.8278L20.9399 60.8356L21.9263 61ZM31.4062 38.92L32.2051 39.5216L32.2086 39.5169L31.4062 38.92ZM49.4063 23.68L49.8575 24.5724L49.8654 24.5684L49.4063 23.68ZM95.3663 25.12L94.7596 25.9149L94.7654 25.9194L94.7713 25.9237L95.3663 25.12ZM106.526 44.44V45.44H107.692L107.515 44.2879L106.526 44.44ZM87.2063 44.44L86.2665 44.7817L86.5058 45.44H87.2063V44.44ZM80.7263 36.4L80.2084 37.2555L80.7263 36.4ZM55.6463 37L56.1134 37.8842L55.6463 37ZM44.9663 46.6L44.1441 46.0308L44.1441 46.0308L44.9663 46.6ZM39.2063 61L40.1852 61.204L40.1884 61.1889L40.191 61.1738L39.2063 61ZM44.3663 83.08L43.6666 83.7945L43.6741 83.8019L43.6818 83.8091L44.3663 83.08ZM77.0062 83.44L76.4237 82.6272L76.4173 82.6319L77.0062 83.44ZM87.6863 69.16L88.6205 69.5165L89.1382 68.16H87.6863V69.16ZM58.8863 69.16L57.9004 68.9926L57.7021 70.16H58.8863V69.16ZM61.0463 56.44V55.44H60.2017L60.0604 56.2726L61.0463 56.44ZM106.406 56.44L107.39 56.6175L107.603 55.44H106.406V56.44ZM103.766 71.08L104.704 71.4269L104.735 71.3442L104.75 71.2575L103.766 71.08ZM93.6863 87.28L94.4224 87.9568L94.4224 87.9568L93.6863 87.28ZM77.3663 99.28L77.7904 100.186L77.7997 100.181L77.3663 99.28ZM38.2463 99.4L37.7729 100.281L37.7784 100.284L38.2463 99.4ZM25.6463 87.4L24.7772 87.8947L24.7817 87.9027L24.7864 87.9105L25.6463 87.4ZM22.9113 61.1721C24.325 53.083 27.4233 45.8712 32.2051 39.5216L30.6074 38.3184C25.6292 44.9288 22.4075 52.437 20.9412 60.8278L22.9113 61.1721ZM32.2086 39.5169C36.9984 33.0781 42.8793 28.1007 49.8575 24.5724L48.955 22.7876C41.6932 26.4593 35.5741 31.6419 30.6039 38.3231L32.2086 39.5169ZM49.8654 24.5684C56.8437 20.9616 64.2463 19.16 72.0863 19.16V17.16C63.9262 17.16 56.2088 19.0384 48.9471 22.7916L49.8654 24.5684ZM72.0863 19.16C81.3595 19.16 88.8914 21.4366 94.7596 25.9149L95.9729 24.325C89.6811 19.5234 81.693 17.16 72.0863 17.16V19.16ZM94.7713 25.9237C100.698 30.3107 104.294 36.5045 105.538 44.5921L107.515 44.2879C106.199 35.7355 102.355 29.0493 95.9612 24.3163L94.7713 25.9237ZM106.526 43.44H87.2063V45.44H106.526V43.44ZM88.146 44.0983C86.7926 40.3764 84.4903 37.5093 81.2441 35.5445L80.2084 37.2555C83.0422 38.9707 85.0599 41.4636 86.2665 44.7817L88.146 44.0983ZM81.2441 35.5445C78.012 33.5882 74.0617 32.64 69.4463 32.64V34.64C73.7908 34.64 77.3605 35.5318 80.2084 37.2555L81.2441 35.5445ZM69.4463 32.64C64.3292 32.64 59.5681 33.7971 55.1791 36.1158L56.1134 37.8842C60.2044 35.7229 64.6433 34.64 69.4463 34.64V32.64ZM55.1791 36.1158C50.7894 38.4349 47.1102 41.7463 44.1441 46.0308L45.7884 47.1692C48.5823 43.1337 52.0231 40.0451 56.1134 37.8842L55.1791 36.1158ZM44.1441 46.0308C41.1747 50.3199 39.2042 55.2574 38.2215 60.8262L40.191 61.1738C41.1283 55.8626 42.9978 51.2001 45.7884 47.1692L44.1441 46.0308ZM38.2273 60.796C37.8102 62.798 37.6063 65.0686 37.6063 67.6H39.6063C39.6063 65.1714 39.8023 63.042 40.1852 61.204L38.2273 60.796ZM37.6063 67.6C37.6063 74.3655 39.5935 79.8063 43.6666 83.7945L45.0659 82.3655C41.459 78.8337 39.6063 73.9545 39.6063 67.6H37.6063ZM43.6818 83.8091C47.8327 87.7058 53.4621 89.6 60.4463 89.6V87.6C53.8304 87.6 48.7398 85.8142 45.0507 82.3509L43.6818 83.8091ZM60.4463 89.6C66.9596 89.6 72.6899 87.8232 77.5952 84.2481L76.4173 82.6319C71.8826 85.9368 66.5729 87.6 60.4463 87.6V89.6ZM77.5888 84.2528C82.5644 80.687 86.238 75.7604 88.6205 69.5165L86.752 68.8035C84.4945 74.7196 81.0481 79.313 76.4237 82.6272L77.5888 84.2528ZM87.6863 68.16H58.8863V70.16H87.6863V68.16ZM59.8721 69.3274L62.0321 56.6074L60.0604 56.2726L57.9004 68.9926L59.8721 69.3274ZM61.0463 57.44H106.406V55.44H61.0463V57.44ZM105.422 56.2625L102.782 70.9025L104.75 71.2575L107.39 56.6175L105.422 56.2625ZM102.828 70.7331C100.717 76.4414 97.4293 81.7311 92.9501 86.6032L94.4224 87.9568C99.0632 82.9089 102.495 77.3986 104.704 71.4269L102.828 70.7331ZM92.9501 86.6032C88.4794 91.4661 83.1433 95.3915 76.9328 98.3788L77.7997 100.181C84.2292 97.0885 89.7732 93.0139 94.4224 87.9568L92.9501 86.6032ZM76.9421 98.3744C70.7591 101.27 64.1444 102.72 57.0863 102.72V104.72C64.4281 104.72 71.3334 103.21 77.7904 100.186L76.9421 98.3744ZM57.0863 102.72C50.1037 102.72 43.9889 101.309 38.7141 98.5162L37.7784 100.284C43.3836 103.251 49.8288 104.72 57.0863 104.72V102.72ZM38.7196 98.5191C33.516 95.7232 29.4512 91.8496 26.5061 86.8895L24.7864 87.9105C27.9213 93.1904 32.2565 97.3168 37.7729 100.281L38.7196 98.5191ZM26.5153 86.9053C23.6523 81.8757 22.2063 76.0506 22.2063 69.4H20.2063C20.2063 76.3494 21.7202 82.5243 24.7772 87.8947L26.5153 86.9053ZM22.2063 69.4C22.2063 66.7389 22.441 63.994 22.9126 61.1644L20.9399 60.8356C20.4515 63.766 20.2063 66.6211 20.2063 69.4H22.2063ZM176.796 87.04L177.782 86.8768L177.644 86.04H176.796V87.04ZM143.316 87.04V86.04H142.708L142.428 86.5795L143.316 87.04ZM135.036 103V104H135.643L135.923 103.461L135.036 103ZM117.396 103L116.514 102.527L115.724 104H117.396V103ZM162.396 19.12V18.12H161.797L161.514 18.6472L162.396 19.12ZM181.956 19.12L182.94 18.9412L182.79 18.12H181.956V19.12ZM197.196 103V104H198.394L198.18 102.821L197.196 103ZM179.436 103L178.449 103.163L178.587 104H179.436V103ZM174.636 73.96V74.96H175.819L175.622 73.7934L174.636 73.96ZM168.636 38.44L169.622 38.2734L169.125 35.3328L167.749 37.9785L168.636 38.44ZM150.156 73.96L149.269 73.4985L148.508 74.96H150.156V73.96ZM176.796 86.04H143.316V88.04H176.796V86.04ZM142.428 86.5795L134.148 102.539L135.923 103.461L144.203 87.5005L142.428 86.5795ZM135.036 102H117.396V104H135.036V102ZM118.277 103.473L163.277 19.5927L161.514 18.6472L116.514 102.527L118.277 103.473ZM162.396 20.12H181.956V18.12H162.396V20.12ZM180.972 19.2988L196.212 103.179L198.18 102.821L182.94 18.9412L180.972 19.2988ZM197.196 102H179.436V104H197.196V102ZM180.422 102.837L177.782 86.8768L175.809 87.2032L178.449 103.163L180.422 102.837ZM175.622 73.7934L169.622 38.2734L167.65 38.6066L173.65 74.1266L175.622 73.7934ZM167.749 37.9785L149.269 73.4985L151.043 74.4215L169.523 38.9015L167.749 37.9785ZM150.156 74.96H174.636V72.96H150.156V74.96ZM326.654 19.24L327.639 19.4135L327.846 18.24H326.654V19.24ZM311.894 103V104H312.733L312.879 103.174L311.894 103ZM294.974 103L293.989 102.826L293.782 104H294.974V103ZM304.574 48.76L305.559 48.9343L303.712 48.2528L304.574 48.76ZM272.654 103V104H273.226L273.516 103.507L272.654 103ZM259.814 103L258.841 103.23L259.023 104H259.814V103ZM246.974 48.64L247.947 48.4101L245.989 48.4661L246.974 48.64ZM237.374 103V104H238.213L238.359 103.174L237.374 103ZM220.454 103L219.469 102.825L219.261 104H220.454V103ZM235.334 19.24V18.24H234.496L234.349 19.0651L235.334 19.24ZM254.414 19.24L255.384 18.9948L255.193 18.24H254.414V19.24ZM270.134 81.4L269.165 81.6452L269.753 83.9711L270.991 81.916L270.134 81.4ZM307.574 19.24V18.24H307.009L306.717 18.724L307.574 19.24ZM325.669 19.0665L310.909 102.826L312.879 103.174L327.639 19.4135L325.669 19.0665ZM311.894 102H294.974V104H311.894V102ZM295.959 103.174L305.559 48.9343L303.589 48.5857L293.989 102.826L295.959 103.174ZM303.712 48.2528L271.792 102.493L273.516 103.507L305.436 49.2672L303.712 48.2528ZM272.654 102H259.814V104H272.654V102ZM260.787 102.77L247.947 48.4101L246.001 48.8699L258.841 103.23L260.787 102.77ZM245.989 48.4661L236.389 102.826L238.359 103.174L247.959 48.8139L245.989 48.4661ZM237.374 102H220.454V104H237.374V102ZM221.439 103.175L236.319 19.4149L234.349 19.0651L219.469 102.825L221.439 103.175ZM235.334 20.24H254.414V18.24H235.334V20.24ZM253.445 19.4852L269.165 81.6452L271.104 81.1548L255.384 18.9948L253.445 19.4852ZM270.991 81.916L308.431 19.756L306.717 18.724L269.277 80.884L270.991 81.916ZM307.574 20.24H326.654V18.24H307.574V20.24ZM369.784 32.32V31.32H368.945L368.799 32.1459L369.784 32.32ZM365.944 54.04L364.959 53.8659L364.751 55.04H365.944V54.04ZM394.144 54.04L395.129 54.2133L395.335 53.04H394.144V54.04ZM391.864 67V68H392.703L392.849 67.1733L391.864 67ZM363.664 67V66H362.823L362.679 66.828L363.664 67ZM359.704 89.68L358.719 89.508L358.514 90.68H359.704V89.68ZM391.504 89.68L392.488 89.8573L392.7 88.68H391.504V89.68ZM389.104 103V104H389.94L390.088 103.177L389.104 103ZM340.384 103L339.399 102.825L339.191 104H340.384V103ZM355.264 19.12V18.12H354.426L354.279 18.9453L355.264 19.12ZM403.864 19.12L404.849 19.2902L405.051 18.12H403.864V19.12ZM401.584 32.32V33.32H402.426L402.569 32.4902L401.584 32.32ZM368.799 32.1459L364.959 53.8659L366.928 54.2141L370.768 32.4941L368.799 32.1459ZM365.944 55.04H394.144V53.04H365.944V55.04ZM393.159 53.8667L390.879 66.8267L392.849 67.1733L395.129 54.2133L393.159 53.8667ZM391.864 66H363.664V68H391.864V66ZM362.679 66.828L358.719 89.508L360.689 89.852L364.649 67.172L362.679 66.828ZM359.704 90.68H391.504V88.68H359.704V90.68ZM390.52 89.5027L388.12 102.823L390.088 103.177L392.488 89.8573L390.52 89.5027ZM389.104 102H340.384V104H389.104V102ZM341.368 103.175L356.248 19.2947L354.279 18.9453L339.399 102.825L341.368 103.175ZM355.264 20.12H403.864V18.12H355.264V20.12ZM402.878 18.9498L400.598 32.1498L402.569 32.4902L404.849 19.2902L402.878 18.9498ZM401.584 31.32H369.784V33.32H401.584V31.32ZM480.88 99.4L480.387 100.27L480.395 100.274L480.402 100.278L480.88 99.4ZM468.4 86.92L467.525 87.4034L467.528 87.409L468.4 86.92ZM470.32 42.64L469.449 42.1497L469.445 42.1567L470.32 42.64ZM488.08 24.64L488.578 25.5071L488.581 25.5054L488.08 24.64ZM532.36 22.48L531.877 23.3554L531.882 23.3584L532.36 22.48ZM544.96 34.96L544.085 35.4434L544.088 35.449L544.96 34.96ZM543.04 79.24L542.165 78.7567L542.165 78.7567L543.04 79.24ZM525.28 97.36L525.774 98.2294L525.781 98.2254L525.28 97.36ZM517.84 83.8L517.292 82.9635L517.286 82.9679L517.84 83.8ZM528.52 71.56L527.623 71.1183L527.62 71.1241L528.52 71.56ZM526.84 39.16L526.126 39.8595L526.126 39.8595L526.84 39.16ZM495.52 38.08L494.972 37.2435L494.966 37.2479L495.52 38.08ZM484.84 50.32L483.946 49.8727L483.94 49.8841L484.84 50.32ZM486.52 82.72L485.791 83.4039L485.798 83.4118L485.806 83.4195L486.52 82.72ZM499.6 102.84C492.704 102.84 486.633 101.391 481.358 98.5216L480.402 100.278C486.008 103.329 492.416 104.84 499.6 104.84V102.84ZM481.374 98.5302C476.169 95.5785 472.142 91.5489 469.273 86.431L467.528 87.409C470.579 92.8511 474.871 97.1415 480.387 100.27L481.374 98.5302ZM469.276 86.4366C466.407 81.2422 464.96 75.2922 464.96 68.56H462.96C462.96 75.5878 464.473 81.8778 467.525 87.4034L469.276 86.4366ZM464.96 68.56C464.96 59.1127 467.045 50.6417 471.196 43.1233L469.445 42.1567C465.116 49.9983 462.96 58.8073 462.96 68.56H464.96ZM471.192 43.1303C475.425 35.6046 481.217 29.7359 488.578 25.5071L487.582 23.7729C479.903 28.1841 473.856 34.3154 469.449 42.1497L471.192 43.1303ZM488.581 25.5054C496.018 21.2002 504.363 19.04 513.64 19.04V17.04C504.038 17.04 495.343 19.2798 487.579 23.7746L488.581 25.5054ZM513.64 19.04C520.619 19.04 526.687 20.4896 531.877 23.3554L532.844 21.6046C527.313 18.5504 520.902 17.04 513.64 17.04V19.04ZM531.882 23.3584C537.157 26.2284 541.218 30.2523 544.085 35.4434L545.836 34.4766C542.782 28.9477 538.444 24.6516 532.838 21.6016L531.882 23.3584ZM544.088 35.449C546.954 40.5619 548.4 46.4297 548.4 53.08H550.4C550.4 46.1303 548.886 39.9181 545.833 34.471L544.088 35.449ZM548.4 53.08C548.4 62.6904 546.314 71.2408 542.165 78.7567L543.916 79.7233C548.246 71.8792 550.4 62.9896 550.4 53.08H548.4ZM542.165 78.7567C538.013 86.2775 532.222 92.1855 524.779 96.4946L525.781 98.2254C533.538 93.7345 539.588 87.5625 543.916 79.7233L542.165 78.7567ZM524.786 96.4906C517.35 100.718 508.963 102.84 499.6 102.84V104.84C509.278 104.84 518.011 102.642 525.774 98.2294L524.786 96.4906ZM502 89.36C508.178 89.36 513.655 87.7919 518.395 84.632L517.286 82.9679C512.905 85.8881 507.822 87.36 502 87.36V89.36ZM518.388 84.6365C523.184 81.4946 526.864 77.2745 529.42 71.9959L527.62 71.1241C525.217 76.0855 521.777 80.0254 517.292 82.9635L518.388 84.6365ZM529.417 72.0017C532.048 66.6575 533.36 60.8654 533.36 54.64H531.36C531.36 60.5745 530.112 66.0625 527.623 71.1183L529.417 72.0017ZM533.36 54.64C533.36 47.8865 531.461 42.451 527.555 38.4605L526.126 39.8595C529.58 43.389 531.36 48.2735 531.36 54.64H533.36ZM527.555 38.4605C523.64 34.4609 518.195 32.52 511.36 32.52V34.52C517.806 34.52 522.68 36.3391 526.126 39.8595L527.555 38.4605ZM511.36 32.52C505.259 32.52 499.786 34.0896 494.972 37.2435L496.068 38.9165C500.534 35.9904 505.621 34.52 511.36 34.52V32.52ZM494.966 37.2479C490.254 40.3889 486.58 44.6043 483.946 49.8728L485.735 50.7672C488.221 45.7957 491.666 41.8511 496.075 38.912L494.966 37.2479ZM483.94 49.8841C481.39 55.1492 480.12 60.8996 480.12 67.12H482.12C482.12 61.1804 483.331 55.7308 485.74 50.7559L483.94 49.8841ZM480.12 67.12C480.12 73.8685 481.977 79.3358 485.791 83.4039L487.25 82.0361C483.864 78.4242 482.12 73.4915 482.12 67.12H480.12ZM485.806 83.4195C489.72 87.4191 495.166 89.36 502 89.36V87.36C495.555 87.36 490.68 85.5409 487.235 82.0205L485.806 83.4195ZM592.859 19.24L593.845 19.0747L593.705 18.24H592.859V19.24ZM604.019 85.84L603.033 86.0053L603.525 88.9443L604.905 86.3031L604.019 85.84ZM638.819 19.24V18.24H638.213L637.933 18.7769L638.819 19.24ZM656.699 19.24L657.578 19.7172L658.38 18.24H656.699V19.24ZM611.219 103V104H611.814L612.098 103.477L611.219 103ZM590.819 103L589.837 103.187L589.992 104H590.819V103ZM574.859 19.24V18.24H573.651L573.877 19.4272L574.859 19.24ZM591.873 19.4053L603.033 86.0053L605.005 85.6747L593.845 19.0747L591.873 19.4053ZM604.905 86.3031L639.705 19.7031L637.933 18.7769L603.133 85.3769L604.905 86.3031ZM638.819 20.24H656.699V18.24H638.819V20.24ZM655.82 18.7628L610.34 102.523L612.098 103.477L657.578 19.7172L655.82 18.7628ZM611.219 102H590.819V104H611.219V102ZM591.801 102.813L575.841 19.0528L573.877 19.4272L589.837 103.187L591.801 102.813ZM574.859 20.24H592.859V18.24H574.859V20.24ZM693.292 32.32V31.32H692.453L692.307 32.1459L693.292 32.32ZM689.452 54.04L688.467 53.8659L688.259 55.04H689.452V54.04ZM717.652 54.04L718.636 54.2133L718.843 53.04H717.652V54.04ZM715.372 67V68H716.211L716.356 67.1733L715.372 67ZM687.172 67V66H686.331L686.186 66.828L687.172 67ZM683.212 89.68L682.226 89.508L682.022 90.68H683.212V89.68ZM715.012 89.68L715.996 89.8573L716.208 88.68H715.012V89.68ZM712.612 103V104H713.447L713.596 103.177L712.612 103ZM663.892 103L662.907 102.825L662.699 104H663.892V103ZM678.772 19.12V18.12H677.933L677.787 18.9453L678.772 19.12ZM727.372 19.12L728.357 19.2902L728.559 18.12H727.372V19.12ZM725.092 32.32V33.32H725.934L726.077 32.4902L725.092 32.32ZM692.307 32.1459L688.467 53.8659L690.436 54.2141L694.276 32.4941L692.307 32.1459ZM689.452 55.04H717.652V53.04H689.452V55.04ZM716.667 53.8667L714.387 66.8267L716.356 67.1733L718.636 54.2133L716.667 53.8667ZM715.372 66H687.172V68H715.372V66ZM686.186 66.828L682.226 89.508L684.197 89.852L688.157 67.172L686.186 66.828ZM683.212 90.68H715.012V88.68H683.212V90.68ZM714.027 89.5027L711.627 102.823L713.596 103.177L715.996 89.8573L714.027 89.5027ZM712.612 102H663.892V104H712.612V102ZM664.876 103.175L679.756 19.2947L677.787 18.9453L662.907 102.825L664.876 103.175ZM678.772 20.12H727.372V18.12H678.772V20.12ZM726.386 18.9498L724.106 32.1498L726.077 32.4902L728.357 19.2902L726.386 18.9498ZM725.092 31.32H693.292V33.32H725.092V31.32ZM805.519 25.12L804.854 25.8667L804.861 25.8734L805.519 25.12ZM811.759 44.92L812.744 45.0938L812.746 45.0811L812.748 45.0683L811.759 44.92ZM804.319 59.8L803.573 59.134L803.572 59.1348L804.319 59.8ZM788.479 69.04L788.223 68.0734L787.118 68.3661L787.555 69.4221L788.479 69.04ZM802.519 103V104H804.014L803.443 102.618L802.519 103ZM782.959 103L782.025 103.357L782.27 104H782.959V103ZM770.479 70.36L771.413 70.0029L771.167 69.36H770.479V70.36ZM762.439 70.36V69.36H761.6L761.454 70.1862L762.439 70.36ZM756.679 103V104H757.518L757.664 103.174L756.679 103ZM739.759 103L738.774 102.825L738.565 104H739.759V103ZM754.639 19.24V18.24H753.801L753.654 19.0651L754.639 19.24ZM794.479 45.28L795.462 45.4606L795.469 45.4257L795.473 45.3904L794.479 45.28ZM791.839 35.32L791.18 36.0726L791.18 36.0726L791.839 35.32ZM769.039 32.8V31.8H768.2L768.054 32.6257L769.039 32.8ZM764.599 57.88L763.614 57.7057L763.406 58.88H764.599V57.88ZM789.319 54.52L788.683 53.7481L788.677 53.7527L788.672 53.7575L789.319 54.52ZM786.079 20.24C794.503 20.24 800.705 22.1702 804.854 25.8667L806.184 24.3733C801.533 20.2298 794.775 18.24 786.079 18.24V20.24ZM804.861 25.8734C809.027 29.5093 811.119 34.2664 811.119 40.24H813.119C813.119 33.7336 810.81 28.4107 806.176 24.3666L804.861 25.8734ZM811.119 40.24C811.119 41.7073 811.003 43.2176 810.77 44.7717L812.748 45.0683C812.995 43.4224 813.119 41.8127 813.119 40.24H811.119ZM810.774 44.7462C809.849 49.9872 807.46 54.7801 803.573 59.134L805.065 60.466C809.177 55.8599 811.748 50.7328 812.744 45.0938L810.774 44.7462ZM803.572 59.1348C799.803 63.3654 794.705 66.3551 788.223 68.0734L788.735 70.0066C795.532 68.2049 800.995 65.0346 805.065 60.4652L803.572 59.1348ZM787.555 69.4221L801.595 103.382L803.443 102.618L789.403 68.6579L787.555 69.4221ZM802.519 102H782.959V104H802.519V102ZM783.893 102.643L771.413 70.0029L769.545 70.7171L782.025 103.357L783.893 102.643ZM770.479 69.36H762.439V71.36H770.479V69.36ZM761.454 70.1862L755.694 102.826L757.664 103.174L763.424 70.5338L761.454 70.1862ZM756.679 102H739.759V104H756.679V102ZM740.743 103.175L755.623 19.4149L753.654 19.0651L738.774 102.825L740.743 103.175ZM754.639 20.24H786.079V18.24H754.639V20.24ZM795.473 45.3904C795.632 43.9599 795.719 42.9447 795.719 42.4H793.719C793.719 42.8153 793.646 43.7201 793.485 45.1696L795.473 45.3904ZM795.719 42.4C795.719 39.1322 794.676 36.4739 792.497 34.5674L791.18 36.0726C792.841 37.5261 793.719 39.5878 793.719 42.4H795.719ZM792.497 34.5674C790.319 32.6615 787.116 31.8 783.079 31.8V33.8C786.881 33.8 789.518 34.6185 791.18 36.0726L792.497 34.5674ZM783.079 31.8H769.039V33.8H783.079V31.8ZM768.054 32.6257L763.614 57.7057L765.583 58.0543L770.023 32.9743L768.054 32.6257ZM764.599 58.88H778.639V56.88H764.599V58.88ZM778.639 58.88C783.285 58.88 787.097 57.7162 789.966 55.2825L788.672 53.7575C786.26 55.8038 782.953 56.88 778.639 56.88V58.88ZM789.954 55.2919C792.88 52.8824 794.706 49.5803 795.462 45.4606L793.495 45.0993C792.812 48.8197 791.197 51.6776 788.683 53.7481L789.954 55.2919Z" fill="white" mask="url(#path-5-outside-1_72_1279)"/>
</g>
</g>
<defs>
<filter id="filter0_d_72_1279" x="0.206299" y="0" width="822.912" height="119" filterUnits="userSpaceOnUse" color-interpolation-filters="sRGB">
<feFlood flood-opacity="0" result="BackgroundImageFix"/>
<feColorMatrix in="SourceAlpha" type="matrix" values="0 0 0 0 0 0 0 0 0 0 0 0 0 0 0 0 0 0 127 0" result="hardAlpha"/>
<feOffset dx="-4"/>
<feGaussianBlur stdDeviation="8"/>
<feColorMatrix type="matrix" values="0 0 0 0 0.00833333 0 0 0 0 0.167 0 0 0 0 1 0 0 0 1 0"/>
<feBlend mode="normal" in2="BackgroundImageFix" result="effect1_dropShadow_72_1279"/>
<feBlend mode="normal" in="SourceGraphic" in2="effect1_dropShadow_72_1279" result="shape"/>
</filter>
<filter id="filter1_d_72_1279" x="19.2063" y="11" width="806.912" height="103" filterUnits="userSpaceOnUse" color-interpolation-filters="sRGB">
<feFlood flood-opacity="0" result="BackgroundImageFix"/>
<feColorMatrix in="SourceAlpha" type="matrix" values="0 0 0 0 0 0 0 0 0 0 0 0 0 0 0 0 0 0 127 0" result="hardAlpha"/>
<feOffset dx="2"/>
<feGaussianBlur stdDeviation="4"/>
<feColorMatrix type="matrix" values="0 0 0 0 1 0 0 0 0 1 0 0 0 0 0.180392 0 0 0 0.6 0"/>
<feBlend mode="normal" in2="BackgroundImageFix" result="effect1_dropShadow_72_1279"/>
<feBlend mode="normal" in="SourceGraphic" in2="effect1_dropShadow_72_1279" result="shape"/>
</filter>
<filter id="filter2_d_72_1279" x="19.2063" y="20" width="798.912" height="95" filterUnits="userSpaceOnUse" color-interpolation-filters="sRGB">
<feFlood flood-opacity="0" result="BackgroundImageFix"/>
<feColorMatrix in="SourceAlpha" type="matrix" values="0 0 0 0 0 0 0 0 0 0 0 0 0 0 0 0 0 0 127 0" result="hardAlpha"/>
<feOffset dy="2"/>
<feGaussianBlur stdDeviation="2"/>
<feColorMatrix type="matrix" values="0 0 0 0 0.352941 0 0 0 0 1 0 0 0 0 0.960784 0 0 0 0.25 0"/>
<feBlend mode="normal" in2="BackgroundImageFix" result="effect1_dropShadow_72_1279"/>
<feBlend mode="normal" in="SourceGraphic" in2="effect1_dropShadow_72_1279" result="shape"/>
</filter>
</defs>
</svg>
