<svg width="709" height="98" viewBox="0 0 709 98" fill="none" xmlns="http://www.w3.org/2000/svg">
<g style="mix-blend-mode:color-dodge">
<path d="M88.8522 20.576L78.0282 82H65.6202L70.2842 55.688H44.0602L39.3962 82H26.9882L37.9002 20.576H50.2202L45.7322 46.008H72.0442L76.5322 20.576H88.8522ZM122.098 20.576L111.274 82H98.8663L109.778 20.576H122.098ZM134.71 51.2C135.766 45.1573 138.084 39.76 141.662 35.008C145.241 30.1973 149.641 26.472 154.862 23.832C160.084 21.1333 165.628 19.784 171.494 19.784C178.417 19.784 184.108 21.4853 188.567 24.888C193.084 28.232 195.812 32.9547 196.751 39.056H182.583C181.644 36.4747 180.06 34.5093 177.83 33.16C175.601 31.8107 172.844 31.136 169.559 31.136C165.921 31.136 162.548 31.9573 159.439 33.6C156.329 35.2427 153.718 37.5893 151.606 40.64C149.494 43.6907 148.086 47.2107 147.382 51.2C147.089 52.608 146.942 54.2213 146.942 56.04C146.942 60.8507 148.35 64.6347 151.166 67.392C154.041 70.0907 157.972 71.44 162.958 71.44C167.593 71.44 171.641 70.1787 175.102 67.656C178.622 65.1333 181.233 61.6427 182.935 57.184H161.814L163.398 47.856H196.663L194.727 58.592C193.143 62.8747 190.679 66.8347 187.335 70.472C183.991 74.1093 180.001 77.0427 175.366 79.272C170.732 81.4427 165.775 82.528 160.494 82.528C155.273 82.528 150.668 81.472 146.678 79.36C142.748 77.248 139.668 74.3147 137.438 70.56C135.268 66.7467 134.182 62.3467 134.182 57.36C134.182 55.3653 134.358 53.312 134.71 51.2ZM270.369 20.576L259.545 82H247.137L251.801 55.688H225.577L220.913 82H208.505L219.417 20.576H231.737L227.249 46.008H253.561L258.049 20.576H270.369ZM336.05 82.616C329.89 82.616 324.816 81.2373 320.826 78.48C316.896 75.664 314.93 71.7333 314.93 66.688C314.93 66.16 314.989 65.368 315.106 64.312H327.69C327.456 66.776 328.101 68.8 329.626 70.384C331.21 71.968 333.498 72.76 336.49 72.76C339.482 72.76 341.829 72.144 343.53 70.912C345.29 69.6213 346.17 67.8027 346.17 65.456C346.17 63.2853 345.261 61.5547 343.442 60.264C341.682 58.9733 338.896 57.536 335.082 55.952C331.562 54.4853 328.688 53.136 326.458 51.904C324.288 50.672 322.41 48.9707 320.826 46.8C319.301 44.5707 318.538 41.784 318.538 38.44C318.538 34.6267 319.506 31.312 321.442 28.496C323.437 25.68 326.136 23.5093 329.538 21.984C333 20.4587 336.93 19.696 341.33 19.696C345.672 19.696 349.426 20.4293 352.594 21.896C355.821 23.304 358.226 25.328 359.81 27.968C361.453 30.608 362.157 33.688 361.922 37.208H348.81L348.898 36.24C348.898 34.304 348.165 32.72 346.698 31.488C345.29 30.256 343.296 29.64 340.714 29.64C337.957 29.64 335.728 30.2853 334.026 31.576C332.325 32.8667 331.474 34.6267 331.474 36.856C331.474 38.3227 331.944 39.6133 332.882 40.728C333.88 41.784 335.082 42.7227 336.49 43.544C337.898 44.3067 339.922 45.304 342.562 46.536C346.024 48.0613 348.869 49.4987 351.098 50.848C353.328 52.1973 355.234 53.9867 356.818 56.216C358.402 58.4453 359.194 61.1733 359.194 64.4C359.194 67.92 358.226 71.0587 356.29 73.816C354.413 76.5733 351.714 78.744 348.194 80.328C344.733 81.8533 340.685 82.616 336.05 82.616ZM377.793 51.2C378.849 45.1573 381.137 39.76 384.657 35.008C388.236 30.1973 392.607 26.472 397.769 23.832C402.991 21.1333 408.535 19.784 414.401 19.784C421.265 19.784 426.985 21.544 431.561 25.064C436.137 28.584 438.895 33.4533 439.833 39.672H425.665C424.727 36.856 423.113 34.744 420.825 33.336C418.537 31.8693 415.721 31.136 412.377 31.136C408.799 31.136 405.455 31.9573 402.345 33.6C399.295 35.2427 396.713 37.5893 394.601 40.64C392.548 43.6907 391.169 47.2107 390.465 51.2C390.172 53.0773 390.025 54.632 390.025 55.864C390.025 60.616 391.375 64.3707 394.073 67.128C396.831 69.8853 400.556 71.264 405.249 71.264C408.593 71.264 411.673 70.5307 414.489 69.064C417.305 67.5973 419.681 65.456 421.617 62.64H435.785C432.617 68.9173 428.129 73.816 422.321 77.336C416.572 80.7973 410.265 82.528 403.401 82.528C398.239 82.528 393.663 81.5013 389.673 79.448C385.743 77.336 382.692 74.3733 380.521 70.56C378.351 66.7467 377.265 62.376 377.265 57.448C377.265 55.3947 377.441 53.312 377.793 51.2ZM480.364 82.616C475.202 82.616 470.626 81.5307 466.636 79.36C462.706 77.1307 459.655 74.08 457.484 70.208C455.314 66.2773 454.228 61.7893 454.228 56.744C454.228 49.704 455.783 43.368 458.892 37.736C462.06 32.104 466.402 27.704 471.916 24.536C477.49 21.3093 483.738 19.696 490.66 19.696C495.882 19.696 500.458 20.7813 504.388 22.952C508.378 25.1227 511.458 28.1733 513.628 32.104C515.799 35.976 516.884 40.4053 516.884 45.392C516.884 52.5493 515.33 58.944 512.22 64.576C509.111 70.208 504.77 74.6373 499.196 77.864C493.623 81.032 487.346 82.616 480.364 82.616ZM482.124 71.264C486.524 71.264 490.396 70.1493 493.74 67.92C497.143 65.6907 499.754 62.6987 501.572 58.944C503.45 55.1307 504.388 50.9947 504.388 46.536C504.388 41.7253 503.039 37.9413 500.34 35.184C497.642 32.4267 493.858 31.048 488.988 31.048C484.647 31.048 480.775 32.1627 477.372 34.392C474.028 36.6213 471.418 39.6133 469.54 43.368C467.722 47.1227 466.812 51.2293 466.812 55.688C466.812 60.4987 468.132 64.312 470.772 67.128C473.471 69.8853 477.255 71.264 482.124 71.264ZM563.45 20.576C569.727 20.576 574.479 22.0133 577.706 24.888C580.933 27.704 582.546 31.4 582.546 35.976C582.546 37.0907 582.458 38.2347 582.282 39.408C581.578 43.3973 579.759 47.0347 576.826 50.32C573.951 53.5467 570.079 55.8053 565.21 57.096L575.506 82H561.162L552.01 58.064H546.114L541.89 82H529.482L540.394 20.576H563.45ZM569.61 39.672C569.727 38.616 569.786 37.912 569.786 37.56C569.786 35.3307 569.082 33.6 567.674 32.368C566.266 31.136 564.125 30.52 561.25 30.52H550.954L547.698 48.912H557.994C561.279 48.912 563.89 48.0907 565.826 46.448C567.821 44.8053 569.082 42.5467 569.61 39.672ZM616.217 30.168L613.401 46.096H634.081L632.409 55.6H611.729L608.825 72.232H632.145L630.385 82H594.657L605.569 20.488H641.209L639.537 30.168H616.217ZM673.613 82.616C667.453 82.616 662.378 81.2373 658.389 78.48C654.458 75.664 652.493 71.7333 652.493 66.688C652.493 66.16 652.552 65.368 652.669 64.312H665.253C665.018 66.776 665.664 68.8 667.189 70.384C668.773 71.968 671.061 72.76 674.053 72.76C677.045 72.76 679.392 72.144 681.093 70.912C682.853 69.6213 683.733 67.8027 683.733 65.456C683.733 63.2853 682.824 61.5547 681.005 60.264C679.245 58.9733 676.458 57.536 672.645 55.952C669.125 54.4853 666.25 53.136 664.021 51.904C661.85 50.672 659.973 48.9707 658.389 46.8C656.864 44.5707 656.101 41.784 656.101 38.44C656.101 34.6267 657.069 31.312 659.005 28.496C661 25.68 663.698 23.5093 667.101 21.984C670.562 20.4587 674.493 19.696 678.893 19.696C683.234 19.696 686.989 20.4293 690.157 21.896C693.384 23.304 695.789 25.328 697.373 27.968C699.016 30.608 699.72 33.688 699.485 37.208H686.373L686.461 36.24C686.461 34.304 685.728 32.72 684.261 31.488C682.853 30.256 680.858 29.64 678.277 29.64C675.52 29.64 673.29 30.2853 671.589 31.576C669.888 32.8667 669.037 34.6267 669.037 36.856C669.037 38.3227 669.506 39.6133 670.445 40.728C671.442 41.784 672.645 42.7227 674.053 43.544C675.461 44.3067 677.485 45.304 680.125 46.536C683.586 48.0613 686.432 49.4987 688.661 50.848C690.89 52.1973 692.797 53.9867 694.381 56.216C695.965 58.4453 696.757 61.1733 696.757 64.4C696.757 67.92 695.789 71.0587 693.853 73.816C691.976 76.5733 689.277 78.744 685.757 80.328C682.296 81.8533 678.248 82.616 673.613 82.616Z" fill="#FF5ABD"/>
</g>
<g style="mix-blend-mode:color-dodge" filter="url(#filter0_d_49_2217)">
<path d="M82.8522 17.576L72.0282 79H59.6202L64.2842 52.688H38.0602L33.3962 79H20.9882L31.9002 17.576H44.2202L39.7322 43.008H66.0442L70.5322 17.576H82.8522ZM116.098 17.576L105.274 79H92.8663L103.778 17.576H116.098ZM128.71 48.2C129.766 42.1573 132.084 36.76 135.662 32.008C139.241 27.1973 143.641 23.472 148.862 20.832C154.084 18.1333 159.628 16.784 165.494 16.784C172.417 16.784 178.108 18.4853 182.567 21.888C187.084 25.232 189.812 29.9547 190.751 36.056H176.583C175.644 33.4747 174.06 31.5093 171.83 30.16C169.601 28.8107 166.844 28.136 163.559 28.136C159.921 28.136 156.548 28.9573 153.439 30.6C150.329 32.2427 147.718 34.5893 145.606 37.64C143.494 40.6907 142.086 44.2107 141.382 48.2C141.089 49.608 140.942 51.2213 140.942 53.04C140.942 57.8507 142.35 61.6347 145.166 64.392C148.041 67.0907 151.972 68.44 156.958 68.44C161.593 68.44 165.641 67.1787 169.102 64.656C172.622 62.1333 175.233 58.6427 176.935 54.184H155.814L157.398 44.856H190.663L188.727 55.592C187.143 59.8747 184.679 63.8347 181.335 67.472C177.991 71.1093 174.001 74.0427 169.366 76.272C164.732 78.4427 159.775 79.528 154.494 79.528C149.273 79.528 144.668 78.472 140.678 76.36C136.748 74.248 133.668 71.3147 131.438 67.56C129.268 63.7467 128.182 59.3467 128.182 54.36C128.182 52.3653 128.358 50.312 128.71 48.2ZM264.369 17.576L253.545 79H241.137L245.801 52.688H219.577L214.913 79H202.505L213.417 17.576H225.737L221.249 43.008H247.561L252.049 17.576H264.369ZM330.05 79.616C323.89 79.616 318.816 78.2373 314.826 75.48C310.896 72.664 308.93 68.7333 308.93 63.688C308.93 63.16 308.989 62.368 309.106 61.312H321.69C321.456 63.776 322.101 65.8 323.626 67.384C325.21 68.968 327.498 69.76 330.49 69.76C333.482 69.76 335.829 69.144 337.53 67.912C339.29 66.6213 340.17 64.8027 340.17 62.456C340.17 60.2853 339.261 58.5547 337.442 57.264C335.682 55.9733 332.896 54.536 329.082 52.952C325.562 51.4853 322.688 50.136 320.458 48.904C318.288 47.672 316.41 45.9707 314.826 43.8C313.301 41.5707 312.538 38.784 312.538 35.44C312.538 31.6267 313.506 28.312 315.442 25.496C317.437 22.68 320.136 20.5093 323.538 18.984C327 17.4587 330.93 16.696 335.33 16.696C339.672 16.696 343.426 17.4293 346.594 18.896C349.821 20.304 352.226 22.328 353.81 24.968C355.453 27.608 356.157 30.688 355.922 34.208H342.81L342.898 33.24C342.898 31.304 342.165 29.72 340.698 28.488C339.29 27.256 337.296 26.64 334.714 26.64C331.957 26.64 329.728 27.2853 328.026 28.576C326.325 29.8667 325.474 31.6267 325.474 33.856C325.474 35.3227 325.944 36.6133 326.882 37.728C327.88 38.784 329.082 39.7227 330.49 40.544C331.898 41.3067 333.922 42.304 336.562 43.536C340.024 45.0613 342.869 46.4987 345.098 47.848C347.328 49.1973 349.234 50.9867 350.818 53.216C352.402 55.4453 353.194 58.1733 353.194 61.4C353.194 64.92 352.226 68.0587 350.29 70.816C348.413 73.5733 345.714 75.744 342.194 77.328C338.733 78.8533 334.685 79.616 330.05 79.616ZM371.793 48.2C372.849 42.1573 375.137 36.76 378.657 32.008C382.236 27.1973 386.607 23.472 391.769 20.832C396.991 18.1333 402.535 16.784 408.401 16.784C415.265 16.784 420.985 18.544 425.561 22.064C430.137 25.584 432.895 30.4533 433.833 36.672H419.665C418.727 33.856 417.113 31.744 414.825 30.336C412.537 28.8693 409.721 28.136 406.377 28.136C402.799 28.136 399.455 28.9573 396.345 30.6C393.295 32.2427 390.713 34.5893 388.601 37.64C386.548 40.6907 385.169 44.2107 384.465 48.2C384.172 50.0773 384.025 51.632 384.025 52.864C384.025 57.616 385.375 61.3707 388.073 64.128C390.831 66.8853 394.556 68.264 399.249 68.264C402.593 68.264 405.673 67.5307 408.489 66.064C411.305 64.5973 413.681 62.456 415.617 59.64H429.785C426.617 65.9173 422.129 70.816 416.321 74.336C410.572 77.7973 404.265 79.528 397.401 79.528C392.239 79.528 387.663 78.5013 383.673 76.448C379.743 74.336 376.692 71.3733 374.521 67.56C372.351 63.7467 371.265 59.376 371.265 54.448C371.265 52.3947 371.441 50.312 371.793 48.2ZM474.364 79.616C469.202 79.616 464.626 78.5307 460.636 76.36C456.706 74.1307 453.655 71.08 451.484 67.208C449.314 63.2773 448.228 58.7893 448.228 53.744C448.228 46.704 449.783 40.368 452.892 34.736C456.06 29.104 460.402 24.704 465.916 21.536C471.49 18.3093 477.738 16.696 484.66 16.696C489.882 16.696 494.458 17.7813 498.388 19.952C502.378 22.1227 505.458 25.1733 507.628 29.104C509.799 32.976 510.884 37.4053 510.884 42.392C510.884 49.5493 509.33 55.944 506.22 61.576C503.111 67.208 498.77 71.6373 493.196 74.864C487.623 78.032 481.346 79.616 474.364 79.616ZM476.124 68.264C480.524 68.264 484.396 67.1493 487.74 64.92C491.143 62.6907 493.754 59.6987 495.572 55.944C497.45 52.1307 498.388 47.9947 498.388 43.536C498.388 38.7253 497.039 34.9413 494.34 32.184C491.642 29.4267 487.858 28.048 482.988 28.048C478.647 28.048 474.775 29.1627 471.372 31.392C468.028 33.6213 465.418 36.6133 463.54 40.368C461.722 44.1227 460.812 48.2293 460.812 52.688C460.812 57.4987 462.132 61.312 464.772 64.128C467.471 66.8853 471.255 68.264 476.124 68.264ZM557.45 17.576C563.727 17.576 568.479 19.0133 571.706 21.888C574.933 24.704 576.546 28.4 576.546 32.976C576.546 34.0907 576.458 35.2347 576.282 36.408C575.578 40.3973 573.759 44.0347 570.826 47.32C567.951 50.5467 564.079 52.8053 559.21 54.096L569.506 79H555.162L546.01 55.064H540.114L535.89 79H523.482L534.394 17.576H557.45ZM563.61 36.672C563.727 35.616 563.786 34.912 563.786 34.56C563.786 32.3307 563.082 30.6 561.674 29.368C560.266 28.136 558.125 27.52 555.25 27.52H544.954L541.698 45.912H551.994C555.279 45.912 557.89 45.0907 559.826 43.448C561.821 41.8053 563.082 39.5467 563.61 36.672ZM610.217 27.168L607.401 43.096H628.081L626.409 52.6H605.729L602.825 69.232H626.145L624.385 79H588.657L599.569 17.488H635.209L633.537 27.168H610.217ZM667.613 79.616C661.453 79.616 656.378 78.2373 652.389 75.48C648.458 72.664 646.493 68.7333 646.493 63.688C646.493 63.16 646.552 62.368 646.669 61.312H659.253C659.018 63.776 659.664 65.8 661.189 67.384C662.773 68.968 665.061 69.76 668.053 69.76C671.045 69.76 673.392 69.144 675.093 67.912C676.853 66.6213 677.733 64.8027 677.733 62.456C677.733 60.2853 676.824 58.5547 675.005 57.264C673.245 55.9733 670.458 54.536 666.645 52.952C663.125 51.4853 660.25 50.136 658.021 48.904C655.85 47.672 653.973 45.9707 652.389 43.8C650.864 41.5707 650.101 38.784 650.101 35.44C650.101 31.6267 651.069 28.312 653.005 25.496C655 22.68 657.698 20.5093 661.101 18.984C664.562 17.4587 668.493 16.696 672.893 16.696C677.234 16.696 680.989 17.4293 684.157 18.896C687.384 20.304 689.789 22.328 691.373 24.968C693.016 27.608 693.72 30.688 693.485 34.208H680.373L680.461 33.24C680.461 31.304 679.728 29.72 678.261 28.488C676.853 27.256 674.858 26.64 672.277 26.64C669.52 26.64 667.29 27.2853 665.589 28.576C663.888 29.8667 663.037 31.6267 663.037 33.856C663.037 35.3227 663.506 36.6133 664.445 37.728C665.442 38.784 666.645 39.7227 668.053 40.544C669.461 41.3067 671.485 42.304 674.125 43.536C677.586 45.0613 680.432 46.4987 682.661 47.848C684.89 49.1973 686.797 50.9867 688.381 53.216C689.965 55.4453 690.757 58.1733 690.757 61.4C690.757 64.92 689.789 68.0587 687.853 70.816C685.976 73.5733 683.277 75.744 679.757 77.328C676.296 78.8533 672.248 79.616 667.613 79.616Z" fill="#3965FF"/>
</g>
<g style="mix-blend-mode:color-dodge" filter="url(#filter1_d_49_2217)">
<path d="M87.8522 20.576L77.0282 82H64.6202L69.2842 55.688H43.0602L38.3962 82H25.9882L36.9002 20.576H49.2202L44.7322 46.008H71.0442L75.5322 20.576H87.8522ZM121.098 20.576L110.274 82H97.8663L108.778 20.576H121.098ZM133.71 51.2C134.766 45.1573 137.084 39.76 140.662 35.008C144.241 30.1973 148.641 26.472 153.862 23.832C159.084 21.1333 164.628 19.784 170.494 19.784C177.417 19.784 183.108 21.4853 187.567 24.888C192.084 28.232 194.812 32.9547 195.751 39.056H181.583C180.644 36.4747 179.06 34.5093 176.83 33.16C174.601 31.8107 171.844 31.136 168.559 31.136C164.921 31.136 161.548 31.9573 158.439 33.6C155.329 35.2427 152.718 37.5893 150.606 40.64C148.494 43.6907 147.086 47.2107 146.382 51.2C146.089 52.608 145.942 54.2213 145.942 56.04C145.942 60.8507 147.35 64.6347 150.166 67.392C153.041 70.0907 156.972 71.44 161.958 71.44C166.593 71.44 170.641 70.1787 174.102 67.656C177.622 65.1333 180.233 61.6427 181.935 57.184H160.814L162.398 47.856H195.663L193.727 58.592C192.143 62.8747 189.679 66.8347 186.335 70.472C182.991 74.1093 179.001 77.0427 174.366 79.272C169.732 81.4427 164.775 82.528 159.494 82.528C154.273 82.528 149.668 81.472 145.678 79.36C141.748 77.248 138.668 74.3147 136.438 70.56C134.268 66.7467 133.182 62.3467 133.182 57.36C133.182 55.3653 133.358 53.312 133.71 51.2ZM269.369 20.576L258.545 82H246.137L250.801 55.688H224.577L219.913 82H207.505L218.417 20.576H230.737L226.249 46.008H252.561L257.049 20.576H269.369ZM335.05 82.616C328.89 82.616 323.816 81.2373 319.826 78.48C315.896 75.664 313.93 71.7333 313.93 66.688C313.93 66.16 313.989 65.368 314.106 64.312H326.69C326.456 66.776 327.101 68.8 328.626 70.384C330.21 71.968 332.498 72.76 335.49 72.76C338.482 72.76 340.829 72.144 342.53 70.912C344.29 69.6213 345.17 67.8027 345.17 65.456C345.17 63.2853 344.261 61.5547 342.442 60.264C340.682 58.9733 337.896 57.536 334.082 55.952C330.562 54.4853 327.688 53.136 325.458 51.904C323.288 50.672 321.41 48.9707 319.826 46.8C318.301 44.5707 317.538 41.784 317.538 38.44C317.538 34.6267 318.506 31.312 320.442 28.496C322.437 25.68 325.136 23.5093 328.538 21.984C332 20.4587 335.93 19.696 340.33 19.696C344.672 19.696 348.426 20.4293 351.594 21.896C354.821 23.304 357.226 25.328 358.81 27.968C360.453 30.608 361.157 33.688 360.922 37.208H347.81L347.898 36.24C347.898 34.304 347.165 32.72 345.698 31.488C344.29 30.256 342.296 29.64 339.714 29.64C336.957 29.64 334.728 30.2853 333.026 31.576C331.325 32.8667 330.474 34.6267 330.474 36.856C330.474 38.3227 330.944 39.6133 331.882 40.728C332.88 41.784 334.082 42.7227 335.49 43.544C336.898 44.3067 338.922 45.304 341.562 46.536C345.024 48.0613 347.869 49.4987 350.098 50.848C352.328 52.1973 354.234 53.9867 355.818 56.216C357.402 58.4453 358.194 61.1733 358.194 64.4C358.194 67.92 357.226 71.0587 355.29 73.816C353.413 76.5733 350.714 78.744 347.194 80.328C343.733 81.8533 339.685 82.616 335.05 82.616ZM376.793 51.2C377.849 45.1573 380.137 39.76 383.657 35.008C387.236 30.1973 391.607 26.472 396.769 23.832C401.991 21.1333 407.535 19.784 413.401 19.784C420.265 19.784 425.985 21.544 430.561 25.064C435.137 28.584 437.895 33.4533 438.833 39.672H424.665C423.727 36.856 422.113 34.744 419.825 33.336C417.537 31.8693 414.721 31.136 411.377 31.136C407.799 31.136 404.455 31.9573 401.345 33.6C398.295 35.2427 395.713 37.5893 393.601 40.64C391.548 43.6907 390.169 47.2107 389.465 51.2C389.172 53.0773 389.025 54.632 389.025 55.864C389.025 60.616 390.375 64.3707 393.073 67.128C395.831 69.8853 399.556 71.264 404.249 71.264C407.593 71.264 410.673 70.5307 413.489 69.064C416.305 67.5973 418.681 65.456 420.617 62.64H434.785C431.617 68.9173 427.129 73.816 421.321 77.336C415.572 80.7973 409.265 82.528 402.401 82.528C397.239 82.528 392.663 81.5013 388.673 79.448C384.743 77.336 381.692 74.3733 379.521 70.56C377.351 66.7467 376.265 62.376 376.265 57.448C376.265 55.3947 376.441 53.312 376.793 51.2ZM479.364 82.616C474.202 82.616 469.626 81.5307 465.636 79.36C461.706 77.1307 458.655 74.08 456.484 70.208C454.314 66.2773 453.228 61.7893 453.228 56.744C453.228 49.704 454.783 43.368 457.892 37.736C461.06 32.104 465.402 27.704 470.916 24.536C476.49 21.3093 482.738 19.696 489.66 19.696C494.882 19.696 499.458 20.7813 503.388 22.952C507.378 25.1227 510.458 28.1733 512.628 32.104C514.799 35.976 515.884 40.4053 515.884 45.392C515.884 52.5493 514.33 58.944 511.22 64.576C508.111 70.208 503.77 74.6373 498.196 77.864C492.623 81.032 486.346 82.616 479.364 82.616ZM481.124 71.264C485.524 71.264 489.396 70.1493 492.74 67.92C496.143 65.6907 498.754 62.6987 500.572 58.944C502.45 55.1307 503.388 50.9947 503.388 46.536C503.388 41.7253 502.039 37.9413 499.34 35.184C496.642 32.4267 492.858 31.048 487.988 31.048C483.647 31.048 479.775 32.1627 476.372 34.392C473.028 36.6213 470.418 39.6133 468.54 43.368C466.722 47.1227 465.812 51.2293 465.812 55.688C465.812 60.4987 467.132 64.312 469.772 67.128C472.471 69.8853 476.255 71.264 481.124 71.264ZM562.45 20.576C568.727 20.576 573.479 22.0133 576.706 24.888C579.933 27.704 581.546 31.4 581.546 35.976C581.546 37.0907 581.458 38.2347 581.282 39.408C580.578 43.3973 578.759 47.0347 575.826 50.32C572.951 53.5467 569.079 55.8053 564.21 57.096L574.506 82H560.162L551.01 58.064H545.114L540.89 82H528.482L539.394 20.576H562.45ZM568.61 39.672C568.727 38.616 568.786 37.912 568.786 37.56C568.786 35.3307 568.082 33.6 566.674 32.368C565.266 31.136 563.125 30.52 560.25 30.52H549.954L546.698 48.912H556.994C560.279 48.912 562.89 48.0907 564.826 46.448C566.821 44.8053 568.082 42.5467 568.61 39.672ZM615.217 30.168L612.401 46.096H633.081L631.409 55.6H610.729L607.825 72.232H631.145L629.385 82H593.657L604.569 20.488H640.209L638.537 30.168H615.217ZM672.613 82.616C666.453 82.616 661.378 81.2373 657.389 78.48C653.458 75.664 651.493 71.7333 651.493 66.688C651.493 66.16 651.552 65.368 651.669 64.312H664.253C664.018 66.776 664.664 68.8 666.189 70.384C667.773 71.968 670.061 72.76 673.053 72.76C676.045 72.76 678.392 72.144 680.093 70.912C681.853 69.6213 682.733 67.8027 682.733 65.456C682.733 63.2853 681.824 61.5547 680.005 60.264C678.245 58.9733 675.458 57.536 671.645 55.952C668.125 54.4853 665.25 53.136 663.021 51.904C660.85 50.672 658.973 48.9707 657.389 46.8C655.864 44.5707 655.101 41.784 655.101 38.44C655.101 34.6267 656.069 31.312 658.005 28.496C660 25.68 662.698 23.5093 666.101 21.984C669.562 20.4587 673.493 19.696 677.893 19.696C682.234 19.696 685.989 20.4293 689.157 21.896C692.384 23.304 694.789 25.328 696.373 27.968C698.016 30.608 698.72 33.688 698.485 37.208H685.373L685.461 36.24C685.461 34.304 684.728 32.72 683.261 31.488C681.853 30.256 679.858 29.64 677.277 29.64C674.52 29.64 672.29 30.2853 670.589 31.576C668.888 32.8667 668.037 34.6267 668.037 36.856C668.037 38.3227 668.506 39.6133 669.445 40.728C670.442 41.784 671.645 42.7227 673.053 43.544C674.461 44.3067 676.485 45.304 679.125 46.536C682.586 48.0613 685.432 49.4987 687.661 50.848C689.89 52.1973 691.797 53.9867 693.381 56.216C694.965 58.4453 695.757 61.1733 695.757 64.4C695.757 67.92 694.789 71.0587 692.853 73.816C690.976 76.5733 688.277 78.744 684.757 80.328C681.296 81.8533 677.248 82.616 672.613 82.616Z" fill="#EDFF1F"/>
</g>
<g style="mix-blend-mode:color-dodge" filter="url(#filter2_d_49_2217)">
<path d="M85.8522 23.576L75.0282 85H62.6202L67.2842 58.688H41.0602L36.3962 85H23.9882L34.9002 23.576H47.2202L42.7322 49.008H69.0442L73.5322 23.576H85.8522ZM119.098 23.576L108.274 85H95.8663L106.778 23.576H119.098ZM131.71 54.2C132.766 48.1573 135.084 42.76 138.662 38.008C142.241 33.1973 146.641 29.472 151.862 26.832C157.084 24.1333 162.628 22.784 168.494 22.784C175.417 22.784 181.108 24.4853 185.567 27.888C190.084 31.232 192.812 35.9547 193.751 42.056H179.583C178.644 39.4747 177.06 37.5093 174.83 36.16C172.601 34.8107 169.844 34.136 166.559 34.136C162.921 34.136 159.548 34.9573 156.439 36.6C153.329 38.2427 150.718 40.5893 148.606 43.64C146.494 46.6907 145.086 50.2107 144.382 54.2C144.089 55.608 143.942 57.2213 143.942 59.04C143.942 63.8507 145.35 67.6347 148.166 70.392C151.041 73.0907 154.972 74.44 159.958 74.44C164.593 74.44 168.641 73.1787 172.102 70.656C175.622 68.1333 178.233 64.6427 179.935 60.184H158.814L160.398 50.856H193.663L191.727 61.592C190.143 65.8747 187.679 69.8347 184.335 73.472C180.991 77.1093 177.001 80.0427 172.366 82.272C167.732 84.4427 162.775 85.528 157.494 85.528C152.273 85.528 147.668 84.472 143.678 82.36C139.748 80.248 136.668 77.3147 134.438 73.56C132.268 69.7467 131.182 65.3467 131.182 60.36C131.182 58.3653 131.358 56.312 131.71 54.2ZM267.369 23.576L256.545 85H244.137L248.801 58.688H222.577L217.913 85H205.505L216.417 23.576H228.737L224.249 49.008H250.561L255.049 23.576H267.369ZM333.05 85.616C326.89 85.616 321.816 84.2373 317.826 81.48C313.896 78.664 311.93 74.7333 311.93 69.688C311.93 69.16 311.989 68.368 312.106 67.312H324.69C324.456 69.776 325.101 71.8 326.626 73.384C328.21 74.968 330.498 75.76 333.49 75.76C336.482 75.76 338.829 75.144 340.53 73.912C342.29 72.6213 343.17 70.8027 343.17 68.456C343.17 66.2853 342.261 64.5547 340.442 63.264C338.682 61.9733 335.896 60.536 332.082 58.952C328.562 57.4853 325.688 56.136 323.458 54.904C321.288 53.672 319.41 51.9707 317.826 49.8C316.301 47.5707 315.538 44.784 315.538 41.44C315.538 37.6267 316.506 34.312 318.442 31.496C320.437 28.68 323.136 26.5093 326.538 24.984C330 23.4587 333.93 22.696 338.33 22.696C342.672 22.696 346.426 23.4293 349.594 24.896C352.821 26.304 355.226 28.328 356.81 30.968C358.453 33.608 359.157 36.688 358.922 40.208H345.81L345.898 39.24C345.898 37.304 345.165 35.72 343.698 34.488C342.29 33.256 340.296 32.64 337.714 32.64C334.957 32.64 332.728 33.2853 331.026 34.576C329.325 35.8667 328.474 37.6267 328.474 39.856C328.474 41.3227 328.944 42.6133 329.882 43.728C330.88 44.784 332.082 45.7227 333.49 46.544C334.898 47.3067 336.922 48.304 339.562 49.536C343.024 51.0613 345.869 52.4987 348.098 53.848C350.328 55.1973 352.234 56.9867 353.818 59.216C355.402 61.4453 356.194 64.1733 356.194 67.4C356.194 70.92 355.226 74.0587 353.29 76.816C351.413 79.5733 348.714 81.744 345.194 83.328C341.733 84.8533 337.685 85.616 333.05 85.616ZM374.793 54.2C375.849 48.1573 378.137 42.76 381.657 38.008C385.236 33.1973 389.607 29.472 394.769 26.832C399.991 24.1333 405.535 22.784 411.401 22.784C418.265 22.784 423.985 24.544 428.561 28.064C433.137 31.584 435.895 36.4533 436.833 42.672H422.665C421.727 39.856 420.113 37.744 417.825 36.336C415.537 34.8693 412.721 34.136 409.377 34.136C405.799 34.136 402.455 34.9573 399.345 36.6C396.295 38.2427 393.713 40.5893 391.601 43.64C389.548 46.6907 388.169 50.2107 387.465 54.2C387.172 56.0773 387.025 57.632 387.025 58.864C387.025 63.616 388.375 67.3707 391.073 70.128C393.831 72.8853 397.556 74.264 402.249 74.264C405.593 74.264 408.673 73.5307 411.489 72.064C414.305 70.5973 416.681 68.456 418.617 65.64H432.785C429.617 71.9173 425.129 76.816 419.321 80.336C413.572 83.7973 407.265 85.528 400.401 85.528C395.239 85.528 390.663 84.5013 386.673 82.448C382.743 80.336 379.692 77.3733 377.521 73.56C375.351 69.7467 374.265 65.376 374.265 60.448C374.265 58.3947 374.441 56.312 374.793 54.2ZM477.364 85.616C472.202 85.616 467.626 84.5307 463.636 82.36C459.706 80.1307 456.655 77.08 454.484 73.208C452.314 69.2773 451.228 64.7893 451.228 59.744C451.228 52.704 452.783 46.368 455.892 40.736C459.06 35.104 463.402 30.704 468.916 27.536C474.49 24.3093 480.738 22.696 487.66 22.696C492.882 22.696 497.458 23.7813 501.388 25.952C505.378 28.1227 508.458 31.1733 510.628 35.104C512.799 38.976 513.884 43.4053 513.884 48.392C513.884 55.5493 512.33 61.944 509.22 67.576C506.111 73.208 501.77 77.6373 496.196 80.864C490.623 84.032 484.346 85.616 477.364 85.616ZM479.124 74.264C483.524 74.264 487.396 73.1493 490.74 70.92C494.143 68.6907 496.754 65.6987 498.572 61.944C500.45 58.1307 501.388 53.9947 501.388 49.536C501.388 44.7253 500.039 40.9413 497.34 38.184C494.642 35.4267 490.858 34.048 485.988 34.048C481.647 34.048 477.775 35.1627 474.372 37.392C471.028 39.6213 468.418 42.6133 466.54 46.368C464.722 50.1227 463.812 54.2293 463.812 58.688C463.812 63.4987 465.132 67.312 467.772 70.128C470.471 72.8853 474.255 74.264 479.124 74.264ZM560.45 23.576C566.727 23.576 571.479 25.0133 574.706 27.888C577.933 30.704 579.546 34.4 579.546 38.976C579.546 40.0907 579.458 41.2347 579.282 42.408C578.578 46.3973 576.759 50.0347 573.826 53.32C570.951 56.5467 567.079 58.8053 562.21 60.096L572.506 85H558.162L549.01 61.064H543.114L538.89 85H526.482L537.394 23.576H560.45ZM566.61 42.672C566.727 41.616 566.786 40.912 566.786 40.56C566.786 38.3307 566.082 36.6 564.674 35.368C563.266 34.136 561.125 33.52 558.25 33.52H547.954L544.698 51.912H554.994C558.279 51.912 560.89 51.0907 562.826 49.448C564.821 47.8053 566.082 45.5467 566.61 42.672ZM613.217 33.168L610.401 49.096H631.081L629.409 58.6H608.729L605.825 75.232H629.145L627.385 85H591.657L602.569 23.488H638.209L636.537 33.168H613.217ZM670.613 85.616C664.453 85.616 659.378 84.2373 655.389 81.48C651.458 78.664 649.493 74.7333 649.493 69.688C649.493 69.16 649.552 68.368 649.669 67.312H662.253C662.018 69.776 662.664 71.8 664.189 73.384C665.773 74.968 668.061 75.76 671.053 75.76C674.045 75.76 676.392 75.144 678.093 73.912C679.853 72.6213 680.733 70.8027 680.733 68.456C680.733 66.2853 679.824 64.5547 678.005 63.264C676.245 61.9733 673.458 60.536 669.645 58.952C666.125 57.4853 663.25 56.136 661.021 54.904C658.85 53.672 656.973 51.9707 655.389 49.8C653.864 47.5707 653.101 44.784 653.101 41.44C653.101 37.6267 654.069 34.312 656.005 31.496C658 28.68 660.698 26.5093 664.101 24.984C667.562 23.4587 671.493 22.696 675.893 22.696C680.234 22.696 683.989 23.4293 687.157 24.896C690.384 26.304 692.789 28.328 694.373 30.968C696.016 33.608 696.72 36.688 696.485 40.208H683.373L683.461 39.24C683.461 37.304 682.728 35.72 681.261 34.488C679.853 33.256 677.858 32.64 675.277 32.64C672.52 32.64 670.29 33.2853 668.589 34.576C666.888 35.8667 666.037 37.6267 666.037 39.856C666.037 41.3227 666.506 42.6133 667.445 43.728C668.442 44.784 669.645 45.7227 671.053 46.544C672.461 47.3067 674.485 48.304 677.125 49.536C680.586 51.0613 683.432 52.4987 685.661 53.848C687.89 55.1973 689.797 56.9867 691.381 59.216C692.965 61.4453 693.757 64.1733 693.757 67.4C693.757 70.92 692.789 74.0587 690.853 76.816C688.976 79.5733 686.277 81.744 682.757 83.328C679.296 84.8533 675.248 85.616 670.613 85.616Z" fill="#5AFFBA"/>
</g>
<g style="mix-blend-mode:color-dodge" opacity="0.9">
<g style="mix-blend-mode:color-dodge">
<mask id="path-5-outside-1_49_2217" maskUnits="userSpaceOnUse" x="20" y="17" width="676" height="66" fill="black">
<rect fill="white" x="20" y="17" width="676" height="66"/>
<path d="M83.8522 19.576L73.0282 81H60.6202L65.2842 54.688H39.0602L34.3962 81H21.9882L32.9002 19.576H45.2202L40.7322 45.008H67.0442L71.5322 19.576H83.8522ZM117.098 19.576L106.274 81H93.8663L104.778 19.576H117.098ZM129.71 50.2C130.766 44.1573 133.084 38.76 136.662 34.008C140.241 29.1973 144.641 25.472 149.862 22.832C155.084 20.1333 160.628 18.784 166.494 18.784C173.417 18.784 179.108 20.4853 183.567 23.888C188.084 27.232 190.812 31.9547 191.751 38.056H177.583C176.644 35.4747 175.06 33.5093 172.83 32.16C170.601 30.8107 167.844 30.136 164.559 30.136C160.921 30.136 157.548 30.9573 154.439 32.6C151.329 34.2427 148.718 36.5893 146.606 39.64C144.494 42.6907 143.086 46.2107 142.382 50.2C142.089 51.608 141.942 53.2213 141.942 55.04C141.942 59.8507 143.35 63.6347 146.166 66.392C149.041 69.0907 152.972 70.44 157.958 70.44C162.593 70.44 166.641 69.1787 170.102 66.656C173.622 64.1333 176.233 60.6427 177.935 56.184H156.814L158.398 46.856H191.663L189.727 57.592C188.143 61.8747 185.679 65.8347 182.335 69.472C178.991 73.1093 175.001 76.0427 170.366 78.272C165.732 80.4427 160.775 81.528 155.494 81.528C150.273 81.528 145.668 80.472 141.678 78.36C137.748 76.248 134.668 73.3147 132.438 69.56C130.268 65.7467 129.182 61.3467 129.182 56.36C129.182 54.3653 129.358 52.312 129.71 50.2ZM265.369 19.576L254.545 81H242.137L246.801 54.688H220.577L215.913 81H203.505L214.417 19.576H226.737L222.249 45.008H248.561L253.049 19.576H265.369ZM331.05 81.616C324.89 81.616 319.816 80.2373 315.826 77.48C311.896 74.664 309.93 70.7333 309.93 65.688C309.93 65.16 309.989 64.368 310.106 63.312H322.69C322.456 65.776 323.101 67.8 324.626 69.384C326.21 70.968 328.498 71.76 331.49 71.76C334.482 71.76 336.829 71.144 338.53 69.912C340.29 68.6213 341.17 66.8027 341.17 64.456C341.17 62.2853 340.261 60.5547 338.442 59.264C336.682 57.9733 333.896 56.536 330.082 54.952C326.562 53.4853 323.688 52.136 321.458 50.904C319.288 49.672 317.41 47.9707 315.826 45.8C314.301 43.5707 313.538 40.784 313.538 37.44C313.538 33.6267 314.506 30.312 316.442 27.496C318.437 24.68 321.136 22.5093 324.538 20.984C328 19.4587 331.93 18.696 336.33 18.696C340.672 18.696 344.426 19.4293 347.594 20.896C350.821 22.304 353.226 24.328 354.81 26.968C356.453 29.608 357.157 32.688 356.922 36.208H343.81L343.898 35.24C343.898 33.304 343.165 31.72 341.698 30.488C340.29 29.256 338.296 28.64 335.714 28.64C332.957 28.64 330.728 29.2853 329.026 30.576C327.325 31.8667 326.474 33.6267 326.474 35.856C326.474 37.3227 326.944 38.6133 327.882 39.728C328.88 40.784 330.082 41.7227 331.49 42.544C332.898 43.3067 334.922 44.304 337.562 45.536C341.024 47.0613 343.869 48.4987 346.098 49.848C348.328 51.1973 350.234 52.9867 351.818 55.216C353.402 57.4453 354.194 60.1733 354.194 63.4C354.194 66.92 353.226 70.0587 351.29 72.816C349.413 75.5733 346.714 77.744 343.194 79.328C339.733 80.8533 335.685 81.616 331.05 81.616ZM372.793 50.2C373.849 44.1573 376.137 38.76 379.657 34.008C383.236 29.1973 387.607 25.472 392.769 22.832C397.991 20.1333 403.535 18.784 409.401 18.784C416.265 18.784 421.985 20.544 426.561 24.064C431.137 27.584 433.895 32.4533 434.833 38.672H420.665C419.727 35.856 418.113 33.744 415.825 32.336C413.537 30.8693 410.721 30.136 407.377 30.136C403.799 30.136 400.455 30.9573 397.345 32.6C394.295 34.2427 391.713 36.5893 389.601 39.64C387.548 42.6907 386.169 46.2107 385.465 50.2C385.172 52.0773 385.025 53.632 385.025 54.864C385.025 59.616 386.375 63.3707 389.073 66.128C391.831 68.8853 395.556 70.264 400.249 70.264C403.593 70.264 406.673 69.5307 409.489 68.064C412.305 66.5973 414.681 64.456 416.617 61.64H430.785C427.617 67.9173 423.129 72.816 417.321 76.336C411.572 79.7973 405.265 81.528 398.401 81.528C393.239 81.528 388.663 80.5013 384.673 78.448C380.743 76.336 377.692 73.3733 375.521 69.56C373.351 65.7467 372.265 61.376 372.265 56.448C372.265 54.3947 372.441 52.312 372.793 50.2ZM475.364 81.616C470.202 81.616 465.626 80.5307 461.636 78.36C457.706 76.1307 454.655 73.08 452.484 69.208C450.314 65.2773 449.228 60.7893 449.228 55.744C449.228 48.704 450.783 42.368 453.892 36.736C457.06 31.104 461.402 26.704 466.916 23.536C472.49 20.3093 478.738 18.696 485.66 18.696C490.882 18.696 495.458 19.7813 499.388 21.952C503.378 24.1227 506.458 27.1733 508.628 31.104C510.799 34.976 511.884 39.4053 511.884 44.392C511.884 51.5493 510.33 57.944 507.22 63.576C504.111 69.208 499.77 73.6373 494.196 76.864C488.623 80.032 482.346 81.616 475.364 81.616ZM477.124 70.264C481.524 70.264 485.396 69.1493 488.74 66.92C492.143 64.6907 494.754 61.6987 496.572 57.944C498.45 54.1307 499.388 49.9947 499.388 45.536C499.388 40.7253 498.039 36.9413 495.34 34.184C492.642 31.4267 488.858 30.048 483.988 30.048C479.647 30.048 475.775 31.1627 472.372 33.392C469.028 35.6213 466.418 38.6133 464.54 42.368C462.722 46.1227 461.812 50.2293 461.812 54.688C461.812 59.4987 463.132 63.312 465.772 66.128C468.471 68.8853 472.255 70.264 477.124 70.264ZM558.45 19.576C564.727 19.576 569.479 21.0133 572.706 23.888C575.933 26.704 577.546 30.4 577.546 34.976C577.546 36.0907 577.458 37.2347 577.282 38.408C576.578 42.3973 574.759 46.0347 571.826 49.32C568.951 52.5467 565.079 54.8053 560.21 56.096L570.506 81H556.162L547.01 57.064H541.114L536.89 81H524.482L535.394 19.576H558.45ZM564.61 38.672C564.727 37.616 564.786 36.912 564.786 36.56C564.786 34.3307 564.082 32.6 562.674 31.368C561.266 30.136 559.125 29.52 556.25 29.52H545.954L542.698 47.912H552.994C556.279 47.912 558.89 47.0907 560.826 45.448C562.821 43.8053 564.082 41.5467 564.61 38.672ZM611.217 29.168L608.401 45.096H629.081L627.409 54.6H606.729L603.825 71.232H627.145L625.385 81H589.657L600.569 19.488H636.209L634.537 29.168H611.217ZM668.613 81.616C662.453 81.616 657.378 80.2373 653.389 77.48C649.458 74.664 647.493 70.7333 647.493 65.688C647.493 65.16 647.552 64.368 647.669 63.312H660.253C660.018 65.776 660.664 67.8 662.189 69.384C663.773 70.968 666.061 71.76 669.053 71.76C672.045 71.76 674.392 71.144 676.093 69.912C677.853 68.6213 678.733 66.8027 678.733 64.456C678.733 62.2853 677.824 60.5547 676.005 59.264C674.245 57.9733 671.458 56.536 667.645 54.952C664.125 53.4853 661.25 52.136 659.021 50.904C656.85 49.672 654.973 47.9707 653.389 45.8C651.864 43.5707 651.101 40.784 651.101 37.44C651.101 33.6267 652.069 30.312 654.005 27.496C656 24.68 658.698 22.5093 662.101 20.984C665.562 19.4587 669.493 18.696 673.893 18.696C678.234 18.696 681.989 19.4293 685.157 20.896C688.384 22.304 690.789 24.328 692.373 26.968C694.016 29.608 694.72 32.688 694.485 36.208H681.373L681.461 35.24C681.461 33.304 680.728 31.72 679.261 30.488C677.853 29.256 675.858 28.64 673.277 28.64C670.52 28.64 668.29 29.2853 666.589 30.576C664.888 31.8667 664.037 33.6267 664.037 35.856C664.037 37.3227 664.506 38.6133 665.445 39.728C666.442 40.784 667.645 41.7227 669.053 42.544C670.461 43.3067 672.485 44.304 675.125 45.536C678.586 47.0613 681.432 48.4987 683.661 49.848C685.89 51.1973 687.797 52.9867 689.381 55.216C690.965 57.4453 691.757 60.1733 691.757 63.4C691.757 66.92 690.789 70.0587 688.853 72.816C686.976 75.5733 684.277 77.744 680.757 79.328C677.296 80.8533 673.248 81.616 668.613 81.616Z"/>
</mask>
<path d="M83.8522 19.576L84.837 19.7495L85.0438 18.576H83.8522V19.576ZM73.0282 81V82H73.8674L74.013 81.1735L73.0282 81ZM60.6202 81L59.6355 80.8255L59.4273 82H60.6202V81ZM65.2842 54.688L66.2688 54.8625L66.477 53.688H65.2842V54.688ZM39.0602 54.688V53.688H38.2219L38.0755 54.5135L39.0602 54.688ZM34.3962 81V82H35.2345L35.3808 81.1745L34.3962 81ZM21.9882 81L21.0036 80.8251L20.7949 82H21.9882V81ZM32.9002 19.576V18.576H32.0622L31.9156 19.4011L32.9002 19.576ZM45.2202 19.576L46.205 19.7498L46.4121 18.576H45.2202V19.576ZM40.7322 45.008L39.7474 44.8342L39.5403 46.008H40.7322V45.008ZM67.0442 45.008V46.008H67.8832L68.029 45.1818L67.0442 45.008ZM71.5322 19.576V18.576H70.6932L70.5474 19.4022L71.5322 19.576ZM82.8674 19.4025L72.0434 80.8265L74.013 81.1735L84.837 19.7495L82.8674 19.4025ZM73.0282 80H60.6202V82H73.0282V80ZM61.6048 81.1745L66.2688 54.8625L64.2995 54.5135L59.6355 80.8255L61.6048 81.1745ZM65.2842 53.688H39.0602V55.688H65.2842V53.688ZM38.0755 54.5135L33.4115 80.8255L35.3808 81.1745L40.0448 54.8625L38.0755 54.5135ZM34.3962 80H21.9882V82H34.3962V80ZM22.9728 81.1749L33.8848 19.7509L31.9156 19.4011L21.0036 80.8251L22.9728 81.1749ZM32.9002 20.576H45.2202V18.576H32.9002V20.576ZM44.2354 19.4022L39.7474 44.8342L41.717 45.1818L46.205 19.7498L44.2354 19.4022ZM40.7322 46.008H67.0442V44.008H40.7322V46.008ZM68.029 45.1818L72.517 19.7498L70.5474 19.4022L66.0594 44.8342L68.029 45.1818ZM71.5322 20.576H83.8522V18.576H71.5322V20.576ZM117.098 19.576L118.083 19.7495L118.29 18.576H117.098V19.576ZM106.274 81V82H107.114L107.259 81.1735L106.274 81ZM93.8663 81L92.8817 80.8251L92.673 82H93.8663V81ZM104.778 19.576V18.576H103.94L103.794 19.4011L104.778 19.576ZM116.113 19.4025L105.289 80.8265L107.259 81.1735L118.083 19.7495L116.113 19.4025ZM106.274 80H93.8663V82H106.274V80ZM94.8509 81.1749L105.763 19.7509L103.794 19.4011L92.8817 80.8251L94.8509 81.1749ZM104.778 20.576H117.098V18.576H104.778V20.576ZM129.71 50.2L128.725 50.0278L128.724 50.0356L129.71 50.2ZM136.662 34.008L137.461 34.6096L137.465 34.6049L136.662 34.008ZM149.862 22.832L150.314 23.7244L150.322 23.7204L149.862 22.832ZM183.567 23.888L182.96 24.6829L182.966 24.6874L182.972 24.6917L183.567 23.888ZM191.751 38.056V39.056H192.916L192.739 37.9039L191.751 38.056ZM177.583 38.056L176.643 38.3977L176.882 39.056H177.583V38.056ZM146.606 39.64L145.784 39.0708L145.784 39.0708L146.606 39.64ZM142.382 50.2L143.361 50.404L143.365 50.3889L143.367 50.3738L142.382 50.2ZM146.166 66.392L145.467 67.1065L145.474 67.1139L145.482 67.1211L146.166 66.392ZM170.102 66.656L169.52 65.8432L169.514 65.8479L170.102 66.656ZM177.935 56.184L178.869 56.5405L179.386 55.184H177.935V56.184ZM156.814 56.184L155.829 56.0166L155.63 57.184H156.814V56.184ZM158.398 46.856V45.856H157.554L157.413 46.6886L158.398 46.856ZM191.663 46.856L192.647 47.0335L192.859 45.856H191.663V46.856ZM189.727 57.592L190.664 57.9389L190.695 57.8562L190.711 57.7695L189.727 57.592ZM182.335 69.472L183.071 70.1488L183.071 70.1488L182.335 69.472ZM170.366 78.272L170.791 79.1776L170.8 79.1732L170.366 78.272ZM141.678 78.36L141.205 79.2409L141.211 79.2438L141.678 78.36ZM132.438 69.56L131.569 70.0547L131.574 70.0627L131.579 70.0705L132.438 69.56ZM130.696 50.3721C131.725 44.4803 133.981 39.2312 137.461 34.6096L135.864 33.4064C132.187 38.2888 129.808 43.8344 128.725 50.0278L130.696 50.3721ZM137.465 34.6049C140.953 29.9154 145.234 26.2927 150.314 23.7244L149.411 21.9396C144.048 24.6513 139.529 28.4793 135.86 33.4111L137.465 34.6049ZM150.322 23.7204C155.401 21.0949 160.788 19.784 166.494 19.784V17.784C160.468 17.784 154.766 19.1718 149.403 21.9436L150.322 23.7204ZM166.494 19.784C173.25 19.784 178.713 21.4419 182.96 24.6829L184.173 23.093C179.503 19.5287 173.584 17.784 166.494 17.784V19.784ZM182.972 24.6917C187.255 27.8627 189.859 32.3392 190.762 38.2081L192.739 37.9039C191.764 31.5701 188.913 26.6013 184.161 23.0843L182.972 24.6917ZM191.751 37.056H177.583V39.056H191.751V37.056ZM178.522 37.7143C177.51 34.931 175.784 32.7786 173.348 31.3045L172.313 33.0155C174.336 34.24 175.777 36.0183 176.643 38.3977L178.522 37.7143ZM173.348 31.3045C170.927 29.8389 167.979 29.136 164.559 29.136V31.136C167.708 31.136 170.275 31.7824 172.313 33.0155L173.348 31.3045ZM164.559 29.136C160.764 29.136 157.23 29.9944 153.971 31.7158L154.906 33.4842C157.866 31.9202 161.078 31.136 164.559 31.136V29.136ZM153.971 31.7158C150.712 33.4376 147.982 35.8956 145.784 39.0708L147.429 40.2092C149.455 37.283 151.946 35.0477 154.906 33.4842L153.971 31.7158ZM145.784 39.0708C143.583 42.2505 142.124 45.9081 141.398 50.0262L143.367 50.3738C144.049 46.5132 145.406 43.1308 147.429 40.2092L145.784 39.0708ZM141.404 49.996C141.093 51.486 140.942 53.1699 140.942 55.04H142.942C142.942 53.2728 143.085 51.73 143.361 50.404L141.404 49.996ZM140.942 55.04C140.942 60.0562 142.418 64.1209 145.467 67.1065L146.866 65.6775C144.283 63.1484 142.942 59.6452 142.942 55.04H140.942ZM145.482 67.1211C148.588 70.0365 152.788 71.44 157.958 71.44V69.44C153.156 69.44 149.495 68.1448 146.851 65.6629L145.482 67.1211ZM157.958 71.44C162.786 71.44 167.045 70.1219 170.691 67.4641L169.514 65.8479C166.238 68.2354 162.4 69.44 157.958 69.44V71.44ZM170.685 67.4688C174.381 64.8203 177.105 61.163 178.869 56.5405L177 55.8275C175.361 60.1223 172.864 63.4464 169.52 65.8432L170.685 67.4688ZM177.935 55.184H156.814V57.184H177.935V55.184ZM157.8 56.3514L159.384 47.0234L157.413 46.6886L155.829 56.0166L157.8 56.3514ZM158.398 47.856H191.663V45.856H158.398V47.856ZM190.678 46.6785L188.742 57.4145L190.711 57.7695L192.647 47.0335L190.678 46.6785ZM188.789 57.2451C187.253 61.396 184.862 65.2457 181.598 68.7952L183.071 70.1488C186.495 66.4236 189.032 62.3533 190.664 57.9389L188.789 57.2451ZM181.598 68.7952C178.344 72.3354 174.458 75.1941 169.933 77.3708L170.8 79.1732C175.544 76.8912 179.637 73.8832 183.071 70.1488L181.598 68.7952ZM169.942 77.3664C165.445 79.4729 160.633 80.528 155.494 80.528V82.528C160.916 82.528 166.019 81.4124 170.791 79.1776L169.942 77.3664ZM155.494 80.528C150.411 80.528 145.97 79.5007 142.146 77.4762L141.211 79.2438C145.365 81.4433 150.136 82.528 155.494 82.528V80.528ZM142.152 77.4791C138.378 75.4512 135.433 72.6443 133.298 69.0495L131.579 70.0705C133.903 73.985 137.118 77.0448 141.205 79.2409L142.152 77.4791ZM133.308 69.0653C131.234 65.4223 130.182 61.1973 130.182 56.36H128.182C128.182 61.4961 129.302 66.071 131.569 70.0547L133.308 69.0653ZM130.182 56.36C130.182 54.4243 130.353 52.426 130.697 50.3644L128.724 50.0356C128.364 52.198 128.182 54.3064 128.182 56.36H130.182ZM265.369 19.576L266.354 19.7495L266.561 18.576H265.369V19.576ZM254.545 81V82H255.385L255.53 81.1735L254.545 81ZM242.137 81L241.153 80.8255L240.945 82H242.137V81ZM246.801 54.688L247.786 54.8625L247.994 53.688H246.801V54.688ZM220.577 54.688V53.688H219.739L219.593 54.5135L220.577 54.688ZM215.913 81V82H216.752L216.898 81.1745L215.913 81ZM203.505 81L202.521 80.8251L202.312 82H203.505V81ZM214.417 19.576V18.576H213.579L213.433 19.4011L214.417 19.576ZM226.737 19.576L227.722 19.7498L227.929 18.576H226.737V19.576ZM222.249 45.008L221.265 44.8342L221.057 46.008H222.249V45.008ZM248.561 45.008V46.008H249.4L249.546 45.1818L248.561 45.008ZM253.049 19.576V18.576H252.21L252.065 19.4022L253.049 19.576ZM264.385 19.4025L253.561 80.8265L255.53 81.1735L266.354 19.7495L264.385 19.4025ZM254.545 80H242.137V82H254.545V80ZM243.122 81.1745L247.786 54.8625L245.817 54.5135L241.153 80.8255L243.122 81.1745ZM246.801 53.688H220.577V55.688H246.801V53.688ZM219.593 54.5135L214.929 80.8255L216.898 81.1745L221.562 54.8625L219.593 54.5135ZM215.913 80H203.505V82H215.913V80ZM204.49 81.1749L215.402 19.7509L213.433 19.4011L202.521 80.8251L204.49 81.1749ZM214.417 20.576H226.737V18.576H214.417V20.576ZM225.753 19.4022L221.265 44.8342L223.234 45.1818L227.722 19.7498L225.753 19.4022ZM222.249 46.008H248.561V44.008H222.249V46.008ZM249.546 45.1818L254.034 19.7498L252.065 19.4022L247.577 44.8342L249.546 45.1818ZM253.049 20.576H265.369V18.576H253.049V20.576ZM315.826 77.48L315.244 78.2929L315.251 78.2978L315.258 78.3026L315.826 77.48ZM310.106 63.312V62.312H309.211L309.112 63.2016L310.106 63.312ZM322.69 63.312L323.686 63.4068L323.79 62.312H322.69V63.312ZM324.626 69.384L323.906 70.0776L323.913 70.0844L323.919 70.0911L324.626 69.384ZM338.53 69.912L339.117 70.722L339.122 70.7184L338.53 69.912ZM338.442 59.264L337.851 60.0704L337.857 60.075L337.864 60.0795L338.442 59.264ZM330.082 54.952L329.698 55.8751L329.699 55.8755L330.082 54.952ZM321.458 50.904L320.965 51.7737L320.975 51.7792L321.458 50.904ZM315.826 45.8L315.001 46.3647L315.01 46.3772L315.019 46.3895L315.826 45.8ZM316.442 27.496L315.626 26.9179L315.618 26.9295L316.442 27.496ZM324.538 20.984L324.135 20.0689L324.129 20.0715L324.538 20.984ZM347.594 20.896L347.174 21.8035L347.184 21.8081L347.194 21.8125L347.594 20.896ZM354.81 26.968L353.953 27.4825L353.957 27.4894L353.961 27.4963L354.81 26.968ZM356.922 36.208V37.208H357.858L357.92 36.2745L356.922 36.208ZM343.81 36.208L342.814 36.1175L342.715 37.208H343.81V36.208ZM343.898 35.24L344.894 35.3305L344.898 35.2854V35.24H343.898ZM341.698 30.488L341.04 31.2406L341.047 31.2472L341.055 31.2537L341.698 30.488ZM329.026 30.576L328.422 29.7793L328.422 29.7793L329.026 30.576ZM327.882 39.728L327.117 40.3721L327.136 40.3939L327.155 40.4146L327.882 39.728ZM331.49 42.544L330.987 43.4078L331 43.4158L331.014 43.4233L331.49 42.544ZM337.562 45.536L337.139 46.4422L337.149 46.4467L337.159 46.4511L337.562 45.536ZM346.098 49.848L345.581 50.7035L345.581 50.7035L346.098 49.848ZM351.818 55.216L351.003 55.7952L351.003 55.7952L351.818 55.216ZM351.29 72.816L350.472 72.2414L350.468 72.2473L350.464 72.2532L351.29 72.816ZM343.194 79.328L343.598 80.2431L343.605 80.2399L343.194 79.328ZM331.05 80.616C325.039 80.616 320.177 79.2715 316.395 76.6574L315.258 78.3026C319.454 81.2032 324.742 82.616 331.05 82.616V80.616ZM316.409 76.6671C312.753 74.0483 310.93 70.4274 310.93 65.688H308.93C308.93 71.0392 311.038 75.2797 315.244 78.2929L316.409 76.6671ZM310.93 65.688C310.93 65.2176 310.984 64.4706 311.1 63.4224L309.112 63.2016C308.994 64.2654 308.93 65.1024 308.93 65.688H310.93ZM310.106 64.312H322.69V62.312H310.106V64.312ZM321.695 63.2172C321.436 65.9308 322.152 68.2557 323.906 70.0776L325.347 68.6904C324.05 67.3443 323.475 65.6212 323.686 63.4068L321.695 63.2172ZM323.919 70.0911C325.747 71.9189 328.325 72.76 331.49 72.76V70.76C328.672 70.76 326.674 70.0171 325.333 68.6769L323.919 70.0911ZM331.49 72.76C334.607 72.76 337.186 72.12 339.117 70.7219L337.944 69.1021C336.472 70.168 334.358 70.76 331.49 70.76V72.76ZM339.122 70.7184C341.16 69.2234 342.17 67.0933 342.17 64.456H340.17C340.17 66.5121 339.42 68.0192 337.939 69.1056L339.122 70.7184ZM342.17 64.456C342.17 61.9509 341.095 59.9206 339.021 58.4485L337.864 60.0795C339.427 61.1887 340.17 62.6198 340.17 64.456H342.17ZM339.034 58.4576C337.176 57.0949 334.3 55.6211 330.466 54.0285L329.699 55.8755C333.491 57.4509 336.189 58.8518 337.851 60.0704L339.034 58.4576ZM330.467 54.0289C326.966 52.5702 324.128 51.2366 321.942 50.0288L320.975 51.7792C323.248 53.0354 326.159 54.4005 329.698 55.8751L330.467 54.0289ZM321.952 50.0343C319.914 48.8776 318.141 47.2755 316.634 45.2105L315.019 46.3895C316.68 48.6659 318.661 50.4664 320.965 51.7737L321.952 50.0343ZM316.652 45.2353C315.265 43.2082 314.538 40.6308 314.538 37.44H312.538C312.538 40.9372 313.337 43.9332 315.001 46.3647L316.652 45.2353ZM314.538 37.44C314.538 33.8046 315.458 30.6928 317.266 28.0625L315.618 26.9295C313.555 29.9312 312.538 33.4488 312.538 37.44H314.538ZM317.258 28.074C319.141 25.4156 321.694 23.3548 324.947 21.8965L324.129 20.0715C320.577 21.6638 317.733 23.9444 315.626 26.918L317.258 28.074ZM324.942 21.8991C328.257 20.4381 332.047 19.696 336.33 19.696V17.696C331.814 17.696 327.743 18.4792 324.135 20.0689L324.942 21.8991ZM336.33 19.696C340.561 19.696 344.166 20.4107 347.174 21.8035L348.015 19.9885C344.687 18.4479 340.782 17.696 336.33 17.696V19.696ZM347.194 21.8125C350.259 23.1497 352.491 25.0456 353.953 27.4825L355.668 26.4535C353.962 23.6103 351.383 21.4583 347.994 19.9795L347.194 21.8125ZM353.961 27.4963C355.479 29.9351 356.147 32.8012 355.925 36.1415L357.92 36.2745C358.167 32.5748 357.427 29.2809 355.659 26.4397L353.961 27.4963ZM356.922 35.208H343.81V37.208H356.922V35.208ZM344.806 36.2985L344.894 35.3305L342.902 35.1495L342.814 36.1175L344.806 36.2985ZM344.898 35.24C344.898 33.0123 344.037 31.1466 342.342 29.7223L341.055 31.2537C342.293 32.2934 342.898 33.5957 342.898 35.24H344.898ZM342.357 29.7354C340.708 28.2923 338.446 27.64 335.714 27.64V29.64C338.146 29.64 339.873 30.2197 341.04 31.2406L342.357 29.7354ZM335.714 27.64C332.803 27.64 330.342 28.3227 328.422 29.7793L329.631 31.3727C331.113 30.2479 333.111 29.64 335.714 29.64V27.64ZM328.422 29.7793C326.459 31.2685 325.474 33.3299 325.474 35.856H327.474C327.474 33.9234 328.191 32.4648 329.631 31.3727L328.422 29.7793ZM325.474 35.856C325.474 37.5567 326.026 39.0759 327.117 40.3721L328.647 39.0839C327.862 38.1508 327.474 37.0886 327.474 35.856H325.474ZM327.155 40.4146C328.226 41.5479 329.506 42.5441 330.987 43.4078L331.994 41.6802C330.659 40.9012 329.534 40.0201 328.609 39.0414L327.155 40.4146ZM331.014 43.4233C332.448 44.2002 334.493 45.2074 337.139 46.4422L337.985 44.6298C335.351 43.4006 333.348 42.4132 331.967 41.6647L331.014 43.4233ZM337.159 46.4511C340.597 47.9661 343.4 49.384 345.581 50.7035L346.616 48.9925C344.338 47.6134 341.45 46.1566 337.966 44.6209L337.159 46.4511ZM345.581 50.7035C347.687 51.9785 349.494 53.6717 351.003 55.7952L352.634 54.6368C350.974 52.3016 348.968 50.4161 346.616 48.9925L345.581 50.7035ZM351.003 55.7952C352.447 57.8265 353.194 60.3425 353.194 63.4H355.194C355.194 60.0041 354.358 57.0641 352.634 54.6368L351.003 55.7952ZM353.194 63.4C353.194 66.7241 352.284 69.6602 350.472 72.2414L352.109 73.3906C354.168 70.4571 355.194 67.1159 355.194 63.4H353.194ZM350.464 72.2532C348.706 74.8353 346.163 76.8957 342.784 78.4161L343.605 80.2399C347.266 78.5923 350.12 76.3114 352.117 73.3788L350.464 72.2532ZM342.791 78.4129C339.482 79.8711 335.577 80.616 331.05 80.616V82.616C335.793 82.616 339.984 81.8355 343.598 80.2431L342.791 78.4129ZM372.793 50.2L371.808 50.0278L371.807 50.0356L372.793 50.2ZM379.657 34.008L378.855 33.4111L378.854 33.4128L379.657 34.008ZM392.769 22.832L393.225 23.7224L393.228 23.7204L392.769 22.832ZM426.561 24.064L425.952 24.8566L425.952 24.8566L426.561 24.064ZM434.833 38.672V39.672H435.996L435.822 38.5227L434.833 38.672ZM420.665 38.672L419.717 38.9882L419.945 39.672H420.665V38.672ZM415.825 32.336L415.286 33.1779L415.293 33.1828L415.301 33.1877L415.825 32.336ZM397.345 32.6L396.878 31.7158L396.871 31.7195L397.345 32.6ZM389.601 39.64L388.779 39.0707L388.772 39.0816L389.601 39.64ZM385.465 50.2L384.481 50.0262L384.479 50.0359L384.477 50.0456L385.465 50.2ZM389.073 66.128L388.359 66.8275L388.366 66.8351L389.073 66.128ZM409.489 68.064L409.951 68.9509L409.951 68.9509L409.489 68.064ZM416.617 61.64V60.64H416.091L415.793 61.0735L416.617 61.64ZM430.785 61.64L431.678 62.0905L432.41 60.64H430.785V61.64ZM417.321 76.336L417.837 77.1927L417.84 77.1912L417.321 76.336ZM384.673 78.448L384.2 79.3289L384.208 79.3331L384.216 79.3371L384.673 78.448ZM375.521 69.56L376.39 69.0653L376.39 69.0653L375.521 69.56ZM373.778 50.3721C374.809 44.4768 377.037 39.2255 380.461 34.6032L378.854 33.4128C375.238 38.2945 372.89 43.8379 371.808 50.0278L373.778 50.3721ZM380.46 34.6049C383.95 29.913 388.203 26.29 393.225 23.7223L392.314 21.9417C387.01 24.654 382.522 28.4816 378.855 33.4111L380.46 34.6049ZM393.228 23.7204C398.308 21.0949 403.695 19.784 409.401 19.784V17.784C403.375 17.784 397.673 19.1718 392.31 21.9436L393.228 23.7204ZM409.401 19.784C416.088 19.784 421.582 21.4952 425.952 24.8566L427.171 23.2714C422.389 19.5928 416.443 17.784 409.401 17.784V19.784ZM425.952 24.8566C430.304 28.2044 432.941 32.833 433.845 38.8212L435.822 38.5227C434.849 32.0737 431.971 26.9636 427.171 23.2714L425.952 24.8566ZM434.833 37.672H420.665V39.672H434.833V37.672ZM421.614 38.3558C420.609 35.342 418.859 33.0286 416.349 31.4843L415.301 33.1877C417.368 34.4594 418.844 36.37 419.717 38.9882L421.614 38.3558ZM416.365 31.4941C413.882 29.9027 410.868 29.136 407.377 29.136V31.136C410.574 31.136 413.192 31.836 415.286 33.1779L416.365 31.4941ZM407.377 29.136C403.639 29.136 400.134 29.9957 396.878 31.7158L397.812 33.4842C400.775 31.919 403.958 31.136 407.377 31.136V29.136ZM396.871 31.7195C393.672 33.4423 390.974 35.8998 388.779 39.0708L390.423 40.2092C392.452 37.2789 394.917 35.0431 397.819 33.4805L396.871 31.7195ZM388.772 39.0816C386.633 42.2595 385.206 45.9133 384.481 50.0262L386.45 50.3738C387.132 46.508 388.463 43.1218 390.431 40.1984L388.772 39.0816ZM384.477 50.0456C384.18 51.9498 384.025 53.5605 384.025 54.864H386.025C386.025 53.7035 386.164 52.2049 386.453 50.3544L384.477 50.0456ZM384.025 54.864C384.025 59.8134 385.437 63.842 388.359 66.8275L389.788 65.4285C387.313 62.8994 386.025 59.4186 386.025 54.864H384.025ZM388.366 66.8351C391.348 69.8172 395.348 71.264 400.249 71.264V69.264C395.763 69.264 392.313 67.9535 389.78 65.4209L388.366 66.8351ZM400.249 71.264C403.745 71.264 406.985 70.4958 409.951 68.9509L409.027 67.1771C406.362 68.5655 403.441 69.264 400.249 69.264V71.264ZM409.951 68.9509C412.923 67.403 415.42 65.1468 417.441 62.2065L415.793 61.0735C413.943 63.7652 411.687 65.7917 409.027 67.1771L409.951 68.9509ZM416.617 62.64H430.785V60.64H416.617V62.64ZM429.893 61.1895C426.806 67.3057 422.445 72.0615 416.803 75.4808L417.84 77.1912C423.814 73.5705 428.429 68.529 431.678 62.0905L429.893 61.1895ZM416.806 75.4793C411.216 78.8446 405.088 80.528 398.401 80.528V82.528C405.443 82.528 411.928 80.75 417.837 77.1927L416.806 75.4793ZM398.401 80.528C393.374 80.528 388.959 79.5291 385.131 77.5589L384.216 79.3371C388.367 81.4736 393.104 82.528 398.401 82.528V80.528ZM385.147 77.5671C381.379 75.5425 378.466 72.7124 376.39 69.0653L374.652 70.0547C376.918 74.0343 380.107 77.1295 384.2 79.3289L385.147 77.5671ZM376.39 69.0653C374.316 65.4206 373.265 61.2243 373.265 56.448H371.265C371.265 61.5277 372.386 66.0728 374.652 70.0547L376.39 69.0653ZM373.265 56.448C373.265 54.452 373.436 52.4244 373.78 50.3644L371.807 50.0356C371.446 52.1996 371.265 54.3373 371.265 56.448H373.265ZM461.636 78.36L461.143 79.2298L461.151 79.2342L461.158 79.2384L461.636 78.36ZM452.484 69.208L451.609 69.6914L451.612 69.697L452.484 69.208ZM453.892 36.736L453.021 36.2457L453.017 36.2527L453.892 36.736ZM466.916 23.536L467.414 24.4031L467.417 24.4014L466.916 23.536ZM499.388 21.952L498.905 22.8274L498.91 22.8304L499.388 21.952ZM508.628 31.104L507.753 31.5874L507.756 31.593L508.628 31.104ZM507.22 63.576L506.345 63.0927L506.345 63.0927L507.22 63.576ZM494.196 76.864L494.69 77.7334L494.697 77.7294L494.196 76.864ZM488.74 66.92L488.192 66.0835L488.185 66.0879L488.74 66.92ZM496.572 57.944L495.675 57.5023L495.672 57.5081L496.572 57.944ZM495.34 34.184L494.626 34.8835L494.626 34.8835L495.34 34.184ZM472.372 33.392L471.824 32.5555L471.817 32.5599L472.372 33.392ZM464.54 42.368L463.646 41.9208L463.64 41.9321L464.54 42.368ZM465.772 66.128L465.043 66.8119L465.05 66.8198L465.058 66.8275L465.772 66.128ZM475.364 80.616C470.345 80.616 465.938 79.5621 462.114 77.4816L461.158 79.2384C465.313 81.4992 470.058 82.616 475.364 82.616V80.616ZM462.13 77.4902C458.355 75.3491 455.436 72.4289 453.356 68.719L451.612 69.697C453.873 73.7311 457.057 76.9122 461.143 79.2298L462.13 77.4902ZM453.36 68.7246C451.28 64.9595 450.228 60.6415 450.228 55.744H448.228C448.228 60.9372 449.347 65.5952 451.609 69.6914L453.36 68.7246ZM450.228 55.744C450.228 48.8567 451.748 42.6897 454.768 37.2193L453.017 36.2527C449.818 42.0463 448.228 48.5513 448.228 55.744H450.228ZM454.764 37.2263C457.845 31.7486 462.058 27.4799 467.414 24.4031L466.418 22.6689C460.745 25.9281 456.275 30.4594 453.021 36.2457L454.764 37.2263ZM467.417 24.4014C472.827 21.2695 478.9 19.696 485.66 19.696V17.696C478.575 17.696 472.152 19.3492 466.415 22.6706L467.417 24.4014ZM485.66 19.696C490.74 19.696 495.145 20.7509 498.905 22.8274L499.872 21.0766C495.77 18.8118 491.023 17.696 485.66 17.696V19.696ZM498.91 22.8304C502.734 24.9111 505.675 27.8256 507.753 31.5874L509.504 30.6206C507.24 26.5211 504.021 23.3343 499.866 21.0736L498.91 22.8304ZM507.756 31.593C509.833 35.2979 510.884 39.5551 510.884 44.392H512.884C512.884 39.2556 511.765 34.6541 509.5 30.615L507.756 31.593ZM510.884 44.392C510.884 51.3997 509.363 57.6248 506.345 63.0927L508.096 64.0593C511.296 58.2632 512.884 51.699 512.884 44.392H510.884ZM506.345 63.0927C503.323 68.5655 499.111 72.8628 493.695 75.9986L494.697 77.7294C500.428 74.4119 504.898 69.8505 508.096 64.0593L506.345 63.0927ZM493.702 75.9946C488.293 79.0695 482.188 80.616 475.364 80.616V82.616C482.503 82.616 488.953 80.9945 494.69 77.7334L493.702 75.9946ZM477.124 71.264C481.702 71.264 485.771 70.1012 489.295 67.752L488.185 66.0879C485.021 68.1974 481.346 69.264 477.124 69.264V71.264ZM489.288 67.7565C492.846 65.4253 495.577 62.2931 497.472 58.3799L495.672 57.5081C493.93 61.1042 491.439 63.956 488.192 66.0835L489.288 67.7565ZM497.469 58.3857C499.418 54.4282 500.388 50.1401 500.388 45.536H498.388C498.388 49.8492 497.481 53.8331 495.675 57.5023L497.469 58.3857ZM500.388 45.536C500.388 40.5319 498.979 36.4723 496.055 33.4845L494.626 34.8835C497.099 37.4104 498.388 40.9188 498.388 45.536H500.388ZM496.055 33.4845C493.122 30.4876 489.052 29.048 483.988 29.048V31.048C488.663 31.048 492.161 32.3657 494.626 34.8835L496.055 33.4845ZM483.988 29.048C479.466 29.048 475.401 30.2122 471.824 32.5555L472.92 34.2285C476.149 32.1131 479.828 31.048 483.988 31.048V29.048ZM471.817 32.5599C468.322 34.8902 465.597 38.0177 463.646 41.9208L465.435 42.8152C467.238 39.209 469.734 36.3525 472.927 34.224L471.817 32.5599ZM463.64 41.9321C461.751 45.8319 460.812 50.0889 460.812 54.688H462.812C462.812 50.3697 463.692 46.4135 465.44 42.8039L463.64 41.9321ZM460.812 54.688C460.812 59.6872 462.189 63.7678 465.043 66.8119L466.502 65.4441C464.076 62.8562 462.812 59.3101 462.812 54.688H460.812ZM465.058 66.8275C467.991 69.8244 472.06 71.264 477.124 71.264V69.264C472.449 69.264 468.951 67.9463 466.487 65.4285L465.058 66.8275ZM572.706 23.888L572.041 24.6347L572.048 24.6414L572.706 23.888ZM577.282 38.408L578.267 38.5818L578.269 38.5691L578.271 38.5563L577.282 38.408ZM571.826 49.32L571.08 48.654L571.079 48.6548L571.826 49.32ZM560.21 56.096L559.954 55.1294L558.849 55.4221L559.286 56.4781L560.21 56.096ZM570.506 81V82H572.001L571.43 80.6179L570.506 81ZM556.162 81L555.228 81.3571L555.474 82H556.162V81ZM547.01 57.064L547.944 56.7069L547.698 56.064H547.01V57.064ZM541.114 57.064V56.064H540.275L540.129 56.8902L541.114 57.064ZM536.89 81V82H537.729L537.875 81.1738L536.89 81ZM524.482 81L523.497 80.8251L523.289 82H524.482V81ZM535.394 19.576V18.576H534.556L534.409 19.4011L535.394 19.576ZM564.61 38.672L565.593 38.8526L565.6 38.8177L565.604 38.7824L564.61 38.672ZM562.674 31.368L562.015 32.1206L562.015 32.1206L562.674 31.368ZM545.954 29.52V28.52H545.115L544.969 29.3457L545.954 29.52ZM542.698 47.912L541.713 47.7377L541.505 48.912H542.698V47.912ZM560.826 45.448L560.19 44.6761L560.185 44.6807L560.179 44.6855L560.826 45.448ZM558.45 20.576C564.591 20.576 569.065 21.9836 572.041 24.6347L573.371 23.1413C569.894 20.0431 564.863 18.576 558.45 18.576V20.576ZM572.048 24.6414C575.041 27.2533 576.546 30.6664 576.546 34.976H578.546C578.546 30.1336 576.824 26.1547 573.363 23.1346L572.048 24.6414ZM576.546 34.976C576.546 36.038 576.462 37.1323 576.293 38.2597L578.271 38.5563C578.454 37.337 578.546 36.1434 578.546 34.976H576.546ZM576.297 38.2342C575.628 42.0246 573.901 45.4948 571.08 48.654L572.572 49.986C575.618 46.5745 577.528 42.7701 578.267 38.5818L576.297 38.2342ZM571.079 48.6548C568.355 51.7121 564.666 53.8804 559.954 55.1294L560.466 57.0626C565.493 55.7302 569.547 53.3812 572.573 49.9852L571.079 48.6548ZM559.286 56.4781L569.582 81.3821L571.43 80.6179L561.134 55.7139L559.286 56.4781ZM570.506 80H556.162V82H570.506V80ZM557.096 80.6429L547.944 56.7069L546.076 57.4211L555.228 81.3571L557.096 80.6429ZM547.01 56.064H541.114V58.064H547.01V56.064ZM540.129 56.8902L535.905 80.8262L537.875 81.1738L542.099 57.2378L540.129 56.8902ZM536.89 80H524.482V82H536.89V80ZM525.467 81.1749L536.379 19.7509L534.409 19.4011L523.497 80.8251L525.467 81.1749ZM535.394 20.576H558.45V18.576H535.394V20.576ZM565.604 38.7824C565.72 37.7359 565.786 36.9767 565.786 36.56H563.786C563.786 36.8473 563.734 37.4961 563.616 38.5616L565.604 38.7824ZM565.786 36.56C565.786 34.1029 564.999 32.0739 563.332 30.6154L562.015 32.1206C563.165 33.1261 563.786 34.5585 563.786 36.56H565.786ZM563.332 30.6154C561.666 29.1575 559.242 28.52 556.25 28.52V30.52C559.007 30.52 560.866 31.1145 562.015 32.1206L563.332 30.6154ZM556.25 28.52H545.954V30.52H556.25V28.52ZM544.969 29.3457L541.713 47.7377L543.683 48.0863L546.939 29.6943L544.969 29.3457ZM542.698 48.912H552.994V46.912H542.698V48.912ZM552.994 48.912C556.445 48.912 559.309 48.0469 561.473 46.2105L560.179 44.6855C558.471 46.1344 556.113 46.912 552.994 46.912V48.912ZM561.462 46.2199C563.662 44.4077 565.029 41.9269 565.593 38.8526L563.626 38.4913C563.135 41.1664 561.979 43.203 560.19 44.6761L561.462 46.2199ZM611.217 29.168V28.168H610.378L610.232 28.9939L611.217 29.168ZM608.401 45.096L607.416 44.9219L607.209 46.096H608.401V45.096ZM629.081 45.096L630.066 45.2693L630.272 44.096H629.081V45.096ZM627.409 54.6V55.6H628.248L628.394 54.7733L627.409 54.6ZM606.729 54.6V53.6H605.888L605.744 54.428L606.729 54.6ZM603.825 71.232L602.84 71.06L602.635 72.232H603.825V71.232ZM627.145 71.232L628.129 71.4093L628.341 70.232H627.145V71.232ZM625.385 81V82H626.221L626.369 81.1773L625.385 81ZM589.657 81L588.672 80.8253L588.464 82H589.657V81ZM600.569 19.488V18.488H599.731L599.584 19.3133L600.569 19.488ZM636.209 19.488L637.194 19.6582L637.396 18.488H636.209V19.488ZM634.537 29.168V30.168H635.379L635.522 29.3382L634.537 29.168ZM610.232 28.9939L607.416 44.9219L609.386 45.2701L612.202 29.3421L610.232 28.9939ZM608.401 46.096H629.081V44.096H608.401V46.096ZM628.096 44.9227L626.424 54.4267L628.394 54.7733L630.066 45.2693L628.096 44.9227ZM627.409 53.6H606.729V55.6H627.409V53.6ZM605.744 54.428L602.84 71.06L604.81 71.404L607.714 54.772L605.744 54.428ZM603.825 72.232H627.145V70.232H603.825V72.232ZM626.161 71.0547L624.401 80.8227L626.369 81.1773L628.129 71.4093L626.161 71.0547ZM625.385 80H589.657V82H625.385V80ZM590.642 81.1747L601.554 19.6627L599.584 19.3133L588.672 80.8253L590.642 81.1747ZM600.569 20.488H636.209V18.488H600.569V20.488ZM635.224 19.3178L633.552 28.9978L635.522 29.3382L637.194 19.6582L635.224 19.3178ZM634.537 28.168H611.217V30.168H634.537V28.168ZM653.389 77.48L652.806 78.2929L652.813 78.2978L652.82 78.3026L653.389 77.48ZM647.669 63.312V62.312H646.774L646.675 63.2016L647.669 63.312ZM660.253 63.312L661.248 63.4068L661.353 62.312H660.253V63.312ZM662.189 69.384L661.469 70.0776L661.475 70.0844L661.482 70.0911L662.189 69.384ZM676.093 69.912L676.679 70.722L676.684 70.7184L676.093 69.912ZM676.005 59.264L675.414 60.0704L675.42 60.075L675.426 60.0795L676.005 59.264ZM667.645 54.952L667.26 55.8751L667.261 55.8755L667.645 54.952ZM659.021 50.904L658.527 51.7737L658.537 51.7792L659.021 50.904ZM653.389 45.8L652.564 46.3647L652.572 46.3772L652.581 46.3895L653.389 45.8ZM654.005 27.496L653.189 26.9179L653.181 26.9295L654.005 27.496ZM662.101 20.984L661.698 20.0689L661.692 20.0715L662.101 20.984ZM685.157 20.896L684.737 21.8035L684.747 21.8081L684.757 21.8125L685.157 20.896ZM692.373 26.968L691.515 27.4825L691.52 27.4894L691.524 27.4963L692.373 26.968ZM694.485 36.208V37.208H695.42L695.483 36.2745L694.485 36.208ZM681.373 36.208L680.377 36.1175L680.278 37.208H681.373V36.208ZM681.461 35.24L682.457 35.3305L682.461 35.2854V35.24H681.461ZM679.261 30.488L678.602 31.2406L678.61 31.2472L678.618 31.2537L679.261 30.488ZM666.589 30.576L665.984 29.7793L665.984 29.7793L666.589 30.576ZM665.445 39.728L664.68 40.3721L664.698 40.3939L664.718 40.4146L665.445 39.728ZM669.053 42.544L668.549 43.4078L668.563 43.4158L668.577 43.4233L669.053 42.544ZM675.125 45.536L674.702 46.4422L674.712 46.4467L674.722 46.4511L675.125 45.536ZM683.661 49.848L683.143 50.7035L683.143 50.7035L683.661 49.848ZM689.381 55.216L688.566 55.7952L688.566 55.7952L689.381 55.216ZM688.853 72.816L688.034 72.2414L688.03 72.2473L688.026 72.2532L688.853 72.816ZM680.757 79.328L681.16 80.2431L681.167 80.2399L680.757 79.328ZM668.613 80.616C662.601 80.616 657.74 79.2715 653.957 76.6574L652.82 78.3026C657.017 81.2032 662.305 82.616 668.613 82.616V80.616ZM653.971 76.6671C650.316 74.0483 648.493 70.4274 648.493 65.688H646.493C646.493 71.0392 648.601 75.2797 652.806 78.2929L653.971 76.6671ZM648.493 65.688C648.493 65.2176 648.546 64.4706 648.663 63.4224L646.675 63.2016C646.557 64.2654 646.493 65.1024 646.493 65.688H648.493ZM647.669 64.312H660.253V62.312H647.669V64.312ZM659.257 63.2172C658.999 65.9308 659.714 68.2557 661.469 70.0776L662.909 68.6904C661.613 67.3443 661.037 65.6212 661.248 63.4068L659.257 63.2172ZM661.482 70.0911C663.31 71.9189 665.888 72.76 669.053 72.76V70.76C666.234 70.76 664.236 70.0171 662.896 68.6769L661.482 70.0911ZM669.053 72.76C672.169 72.76 674.749 72.12 676.679 70.7219L675.506 69.1021C674.034 70.168 671.921 70.76 669.053 70.76V72.76ZM676.684 70.7184C678.723 69.2234 679.733 67.0933 679.733 64.456H677.733C677.733 66.5121 676.983 68.0192 675.502 69.1056L676.684 70.7184ZM679.733 64.456C679.733 61.9509 678.658 59.9206 676.584 58.4485L675.426 60.0795C676.989 61.1887 677.733 62.6198 677.733 64.456H679.733ZM676.596 58.4576C674.738 57.0949 671.863 55.6211 668.028 54.0285L667.261 55.8755C671.054 57.4509 673.752 58.8518 675.414 60.0704L676.596 58.4576ZM668.029 54.0289C664.529 52.5702 661.69 51.2366 659.505 50.0288L658.537 51.7792C660.81 53.0354 663.721 54.4005 667.26 55.8751L668.029 54.0289ZM659.514 50.0343C657.476 48.8776 655.704 47.2755 654.197 45.2105L652.581 46.3895C654.242 48.6659 656.224 50.4664 658.527 51.7737L659.514 50.0343ZM654.214 45.2353C652.827 43.2082 652.101 40.6308 652.101 37.44H650.101C650.101 40.9372 650.9 43.9332 652.564 46.3647L654.214 45.2353ZM652.101 37.44C652.101 33.8046 653.021 30.6928 654.829 28.0625L653.181 26.9295C651.117 29.9312 650.101 33.4488 650.101 37.44H652.101ZM654.821 28.074C656.704 25.4156 659.257 23.3548 662.51 21.8965L661.692 20.0715C658.14 21.6638 655.295 23.9444 653.189 26.918L654.821 28.074ZM662.504 21.8991C665.819 20.4381 669.609 19.696 673.893 19.696V17.696C669.376 17.696 665.305 18.4792 661.698 20.0689L662.504 21.8991ZM673.893 19.696C678.124 19.696 681.728 20.4107 684.737 21.8035L685.577 19.9885C682.249 18.4479 678.345 17.696 673.893 17.696V19.696ZM684.757 21.8125C687.821 23.1497 690.053 25.0456 691.515 27.4825L693.23 26.4535C691.524 23.6103 688.946 21.4583 685.557 19.9795L684.757 21.8125ZM691.524 27.4963C693.041 29.9351 693.71 32.8012 693.487 36.1415L695.483 36.2745C695.729 32.5748 694.99 29.2809 693.222 26.4397L691.524 27.4963ZM694.485 35.208H681.373V37.208H694.485V35.208ZM682.369 36.2985L682.457 35.3305L680.465 35.1495L680.377 36.1175L682.369 36.2985ZM682.461 35.24C682.461 33.0123 681.6 31.1466 679.904 29.7223L678.618 31.2537C679.855 32.2934 680.461 33.5957 680.461 35.24H682.461ZM679.919 29.7354C678.27 28.2923 676.008 27.64 673.277 27.64V29.64C675.708 29.64 677.436 30.2197 678.602 31.2406L679.919 29.7354ZM673.277 27.64C670.365 27.64 667.905 28.3227 665.984 29.7793L667.193 31.3727C668.676 30.2479 670.674 29.64 673.277 29.64V27.64ZM665.984 29.7793C664.021 31.2685 663.037 33.3299 663.037 35.856H665.037C665.037 33.9234 665.754 32.4648 667.193 31.3727L665.984 29.7793ZM663.037 35.856C663.037 37.5567 663.588 39.0759 664.68 40.3721L666.21 39.0839C665.424 38.1508 665.037 37.0886 665.037 35.856H663.037ZM664.718 40.4146C665.788 41.5479 667.068 42.5441 668.549 43.4078L669.557 41.6802C668.221 40.9012 667.096 40.0201 666.172 39.0414L664.718 40.4146ZM668.577 43.4233C670.011 44.2002 672.056 45.2074 674.702 46.4422L675.548 44.6298C672.914 43.4006 670.911 42.4132 669.529 41.6647L668.577 43.4233ZM674.722 46.4511C678.159 47.9661 680.963 49.384 683.143 50.7035L684.179 48.9925C681.9 47.6134 679.013 46.1566 675.528 44.6209L674.722 46.4511ZM683.143 50.7035C685.25 51.9785 687.057 53.6717 688.566 55.7952L690.196 54.6368C688.537 52.3016 686.531 50.4161 684.179 48.9925L683.143 50.7035ZM688.566 55.7952C690.009 57.8265 690.757 60.3425 690.757 63.4H692.757C692.757 60.0041 691.921 57.0641 690.196 54.6368L688.566 55.7952ZM690.757 63.4C690.757 66.7241 689.847 69.6602 688.034 72.2414L689.671 73.3906C691.731 70.4571 692.757 67.1159 692.757 63.4H690.757ZM688.026 72.2532C686.268 74.8353 683.725 76.8957 680.347 78.4161L681.167 80.2399C684.829 78.5923 687.683 76.3114 689.679 73.3788L688.026 72.2532ZM680.354 78.4129C677.045 79.8711 673.139 80.616 668.613 80.616V82.616C673.356 82.616 677.547 81.8355 681.16 80.2431L680.354 78.4129Z" fill="white" mask="url(#path-5-outside-1_49_2217)"/>
</g>
</g>
<defs>
<filter id="filter0_d_49_2217" x="0.988281" y="-11" width="704.849" height="119" filterUnits="userSpaceOnUse" color-interpolation-filters="sRGB">
<feFlood flood-opacity="0" result="BackgroundImageFix"/>
<feColorMatrix in="SourceAlpha" type="matrix" values="0 0 0 0 0 0 0 0 0 0 0 0 0 0 0 0 0 0 127 0" result="hardAlpha"/>
<feOffset dx="-4"/>
<feGaussianBlur stdDeviation="8"/>
<feColorMatrix type="matrix" values="0 0 0 0 0.00833333 0 0 0 0 0.167 0 0 0 0 1 0 0 0 1 0"/>
<feBlend mode="normal" in2="BackgroundImageFix" result="effect1_dropShadow_49_2217"/>
<feBlend mode="normal" in="SourceGraphic" in2="effect1_dropShadow_49_2217" result="shape"/>
</filter>
<filter id="filter1_d_49_2217" x="19.9883" y="0" width="688.849" height="103" filterUnits="userSpaceOnUse" color-interpolation-filters="sRGB">
<feFlood flood-opacity="0" result="BackgroundImageFix"/>
<feColorMatrix in="SourceAlpha" type="matrix" values="0 0 0 0 0 0 0 0 0 0 0 0 0 0 0 0 0 0 127 0" result="hardAlpha"/>
<feOffset dx="2"/>
<feGaussianBlur stdDeviation="4"/>
<feColorMatrix type="matrix" values="0 0 0 0 1 0 0 0 0 1 0 0 0 0 0.180392 0 0 0 0.6 0"/>
<feBlend mode="normal" in2="BackgroundImageFix" result="effect1_dropShadow_49_2217"/>
<feBlend mode="normal" in="SourceGraphic" in2="effect1_dropShadow_49_2217" result="shape"/>
</filter>
<filter id="filter2_d_49_2217" x="19.9883" y="9" width="680.849" height="95" filterUnits="userSpaceOnUse" color-interpolation-filters="sRGB">
<feFlood flood-opacity="0" result="BackgroundImageFix"/>
<feColorMatrix in="SourceAlpha" type="matrix" values="0 0 0 0 0 0 0 0 0 0 0 0 0 0 0 0 0 0 127 0" result="hardAlpha"/>
<feOffset dy="2"/>
<feGaussianBlur stdDeviation="2"/>
<feColorMatrix type="matrix" values="0 0 0 0 0.352941 0 0 0 0 1 0 0 0 0 0.960784 0 0 0 0.25 0"/>
<feBlend mode="normal" in2="BackgroundImageFix" result="effect1_dropShadow_49_2217"/>
<feBlend mode="normal" in="SourceGraphic" in2="effect1_dropShadow_49_2217" result="shape"/>
</filter>
</defs>
</svg>
