<svg width="712" height="98" viewBox="0 0 712 98" fill="none" xmlns="http://www.w3.org/2000/svg">
<g style="mix-blend-mode:color-dodge">
<path d="M80.1479 36.416C79.5613 39.9947 78.0946 42.9867 75.7479 45.392C73.4599 47.7387 70.6439 49.44 67.2999 50.496C70.1159 51.0827 72.3746 52.4907 74.0759 54.72C75.8359 56.9493 76.7159 59.5893 76.7159 62.64C76.7159 63.4613 76.6279 64.3707 76.4519 65.368C75.6306 70.3547 73.1079 74.3733 68.8839 77.424C64.7186 80.4747 59.4973 82 53.2199 82H26.7319L37.6439 20.576H62.9879C68.5613 20.576 72.8439 21.7493 75.8359 24.096C78.8866 26.4427 80.4119 29.5813 80.4119 33.512C80.4119 34.4507 80.3239 35.4187 80.1479 36.416ZM67.2999 38.264C67.3586 37.912 67.3879 37.384 67.3879 36.68C67.3879 34.6267 66.7133 33.0427 65.3639 31.928C64.0146 30.8133 62.0493 30.256 59.4679 30.256H48.2919L45.4759 46.096H56.7399C59.6146 46.096 61.9906 45.4213 63.8679 44.072C65.7453 42.664 66.8893 40.728 67.2999 38.264ZM64.2199 63.872C64.3373 63.0507 64.3959 62.464 64.3959 62.112C64.3959 60 63.6333 58.3573 62.1079 57.184C60.6413 55.952 58.5879 55.336 55.9479 55.336H43.8039L40.8999 72.232H53.3079C56.2999 72.232 58.7639 71.4987 60.6999 70.032C62.6359 68.5653 63.8093 66.512 64.2199 63.872ZM120.855 82.616C115.692 82.616 111.116 81.5307 107.127 79.36C103.196 77.1307 100.145 74.08 97.9748 70.208C95.8041 66.2773 94.7188 61.7893 94.7188 56.744C94.7188 49.704 96.2735 43.368 99.3828 37.736C102.551 32.104 106.892 27.704 112.407 24.536C117.98 21.3093 124.228 19.696 131.151 19.696C136.372 19.696 140.948 20.7813 144.879 22.952C148.868 25.1227 151.948 28.1733 154.119 32.104C156.289 35.976 157.375 40.4053 157.375 45.392C157.375 52.5493 155.82 58.944 152.711 64.576C149.601 70.208 145.26 74.6373 139.687 77.864C134.113 81.032 127.836 82.616 120.855 82.616ZM122.615 71.264C127.015 71.264 130.887 70.1493 134.231 67.92C137.633 65.6907 140.244 62.6987 142.063 58.944C143.94 55.1307 144.879 50.9947 144.879 46.536C144.879 41.7253 143.529 37.9413 140.831 35.184C138.132 32.4267 134.348 31.048 129.479 31.048C125.137 31.048 121.265 32.1627 117.863 34.392C114.519 36.6213 111.908 39.6133 110.031 43.368C108.212 47.1227 107.303 51.2293 107.303 55.688C107.303 60.4987 108.623 64.312 111.263 67.128C113.961 69.8853 117.745 71.264 122.615 71.264ZM198.749 82.616C193.586 82.616 189.01 81.5307 185.021 79.36C181.09 77.1307 178.039 74.08 175.869 70.208C173.698 66.2773 172.613 61.7893 172.613 56.744C172.613 49.704 174.167 43.368 177.277 37.736C180.445 32.104 184.786 27.704 190.301 24.536C195.874 21.3093 202.122 19.696 209.045 19.696C214.266 19.696 218.842 20.7813 222.773 22.952C226.762 25.1227 229.842 28.1733 232.013 32.104C234.183 35.976 235.269 40.4053 235.269 45.392C235.269 52.5493 233.714 58.944 230.605 64.576C227.495 70.208 223.154 74.6373 217.581 77.864C212.007 81.032 205.73 82.616 198.749 82.616ZM200.509 71.264C204.909 71.264 208.781 70.1493 212.125 67.92C215.527 65.6907 218.138 62.6987 219.957 58.944C221.834 55.1307 222.773 50.9947 222.773 46.536C222.773 41.7253 221.423 37.9413 218.725 35.184C216.026 32.4267 212.242 31.048 207.373 31.048C203.031 31.048 199.159 32.1627 195.757 34.392C192.413 36.6213 189.802 39.6133 187.925 43.368C186.106 47.1227 185.197 51.2293 185.197 55.688C185.197 60.4987 186.517 64.312 189.157 67.128C191.855 69.8853 195.639 71.264 200.509 71.264ZM300.138 39.584C299.552 42.8693 298.232 45.9493 296.178 48.824C294.125 51.6987 291.28 54.016 287.642 55.776C284.064 57.536 279.752 58.416 274.706 58.416H264.41L260.274 82H247.866L258.778 20.576H281.394C287.672 20.576 292.424 21.984 295.65 24.8C298.877 27.5573 300.49 31.2533 300.49 35.888C300.49 37.2373 300.373 38.4693 300.138 39.584ZM275.938 48.736C279.282 48.736 281.922 47.9147 283.858 46.272C285.794 44.6293 287.026 42.4 287.554 39.584C287.672 39.056 287.73 38.2933 287.73 37.296C287.73 32.6613 284.856 30.344 279.106 30.344H269.426L266.17 48.736H275.938ZM354.293 45.392L352.445 55.776H315.045L316.893 45.392H354.293ZM410.086 70.296H385.534L379.462 82H366.526L399.526 20.488H413.87L425.046 82H412.022L410.086 70.296ZM408.502 60.704L404.102 34.656L390.55 60.704H408.502ZM486.19 45.392L484.342 55.776H446.942L448.79 45.392H486.19ZM555.623 36.416C555.036 39.9947 553.57 42.9867 551.223 45.392C548.935 47.7387 546.119 49.44 542.775 50.496C545.591 51.0827 547.85 52.4907 549.551 54.72C551.311 56.9493 552.191 59.5893 552.191 62.64C552.191 63.4613 552.103 64.3707 551.927 65.368C551.106 70.3547 548.583 74.3733 544.359 77.424C540.194 80.4747 534.972 82 528.695 82H502.207L513.119 20.576H538.463C544.036 20.576 548.319 21.7493 551.311 24.096C554.362 26.4427 555.887 29.5813 555.887 33.512C555.887 34.4507 555.799 35.4187 555.623 36.416ZM542.775 38.264C542.834 37.912 542.863 37.384 542.863 36.68C542.863 34.6267 542.188 33.0427 540.839 31.928C539.49 30.8133 537.524 30.256 534.943 30.256H523.767L520.951 46.096H532.215C535.09 46.096 537.466 45.4213 539.343 44.072C541.22 42.664 542.364 40.728 542.775 38.264ZM539.695 63.872C539.812 63.0507 539.871 62.464 539.871 62.112C539.871 60 539.108 58.3573 537.583 57.184C536.116 55.952 534.063 55.336 531.423 55.336H519.279L516.375 72.232H528.783C531.775 72.232 534.239 71.4987 536.175 70.032C538.111 68.5653 539.284 66.512 539.695 63.872ZM590.61 20.576L583.922 58.504C583.687 60.1467 583.57 61.2907 583.57 61.936C583.57 64.9867 584.479 67.3333 586.298 68.976C588.117 70.56 590.698 71.352 594.042 71.352C598.031 71.352 601.287 70.2667 603.81 68.096C606.391 65.8667 608.063 62.6693 608.826 58.504L615.514 20.576H627.922L621.234 58.504C620.295 63.784 618.389 68.2427 615.514 71.88C612.639 75.4587 609.149 78.1573 605.042 79.976C600.994 81.736 596.623 82.616 591.93 82.616C585.711 82.616 580.666 81.0027 576.794 77.776C572.981 74.5493 571.074 69.9147 571.074 63.872C571.074 62.2293 571.25 60.44 571.602 58.504L578.29 20.576H590.61ZM640.265 51.2C641.321 45.1573 643.638 39.76 647.217 35.008C650.796 30.1973 655.196 26.472 660.417 23.832C665.638 21.1333 671.182 19.784 677.049 19.784C683.972 19.784 689.662 21.4853 694.121 24.888C698.638 28.232 701.366 32.9547 702.305 39.056H688.137C687.198 36.4747 685.614 34.5093 683.385 33.16C681.156 31.8107 678.398 31.136 675.113 31.136C671.476 31.136 668.102 31.9573 664.993 33.6C661.884 35.2427 659.273 37.5893 657.161 40.64C655.049 43.6907 653.641 47.2107 652.937 51.2C652.644 52.608 652.497 54.2213 652.497 56.04C652.497 60.8507 653.905 64.6347 656.721 67.392C659.596 70.0907 663.526 71.44 668.513 71.44C673.148 71.44 677.196 70.1787 680.657 67.656C684.177 65.1333 686.788 61.6427 688.489 57.184H667.369L668.953 47.856H702.217L700.281 58.592C698.697 62.8747 696.233 66.8347 692.889 70.472C689.545 74.1093 685.556 77.0427 680.921 79.272C676.286 81.4427 671.329 82.528 666.049 82.528C660.828 82.528 656.222 81.472 652.233 79.36C648.302 77.248 645.222 74.3147 642.993 70.56C640.822 66.7467 639.737 62.3467 639.737 57.36C639.737 55.3653 639.913 53.312 640.265 51.2Z" fill="#FF5ABD"/>
</g>
<g style="mix-blend-mode:color-dodge" filter="url(#filter0_d_49_2206)">
<path d="M74.1479 33.416C73.5613 36.9947 72.0946 39.9867 69.7479 42.392C67.4599 44.7387 64.6439 46.44 61.2999 47.496C64.1159 48.0827 66.3746 49.4907 68.0759 51.72C69.8359 53.9493 70.7159 56.5893 70.7159 59.64C70.7159 60.4613 70.6279 61.3707 70.4519 62.368C69.6306 67.3547 67.1079 71.3733 62.8839 74.424C58.7186 77.4747 53.4973 79 47.2199 79H20.7319L31.6439 17.576H56.9879C62.5613 17.576 66.8439 18.7493 69.8359 21.096C72.8866 23.4427 74.4119 26.5813 74.4119 30.512C74.4119 31.4507 74.3239 32.4187 74.1479 33.416ZM61.2999 35.264C61.3586 34.912 61.3879 34.384 61.3879 33.68C61.3879 31.6267 60.7133 30.0427 59.3639 28.928C58.0146 27.8133 56.0493 27.256 53.4679 27.256H42.2919L39.4759 43.096H50.7399C53.6146 43.096 55.9906 42.4213 57.8679 41.072C59.7453 39.664 60.8893 37.728 61.2999 35.264ZM58.2199 60.872C58.3373 60.0507 58.3959 59.464 58.3959 59.112C58.3959 57 57.6333 55.3573 56.1079 54.184C54.6413 52.952 52.5879 52.336 49.9479 52.336H37.8039L34.8999 69.232H47.3079C50.2999 69.232 52.7639 68.4987 54.6999 67.032C56.6359 65.5653 57.8093 63.512 58.2199 60.872ZM114.855 79.616C109.692 79.616 105.116 78.5307 101.127 76.36C97.1961 74.1307 94.1455 71.08 91.9748 67.208C89.8041 63.2773 88.7188 58.7893 88.7188 53.744C88.7188 46.704 90.2735 40.368 93.3828 34.736C96.5508 29.104 100.892 24.704 106.407 21.536C111.98 18.3093 118.228 16.696 125.151 16.696C130.372 16.696 134.948 17.7813 138.879 19.952C142.868 22.1227 145.948 25.1733 148.119 29.104C150.289 32.976 151.375 37.4053 151.375 42.392C151.375 49.5493 149.82 55.944 146.711 61.576C143.601 67.208 139.26 71.6373 133.687 74.864C128.113 78.032 121.836 79.616 114.855 79.616ZM116.615 68.264C121.015 68.264 124.887 67.1493 128.231 64.92C131.633 62.6907 134.244 59.6987 136.063 55.944C137.94 52.1307 138.879 47.9947 138.879 43.536C138.879 38.7253 137.529 34.9413 134.831 32.184C132.132 29.4267 128.348 28.048 123.479 28.048C119.137 28.048 115.265 29.1627 111.863 31.392C108.519 33.6213 105.908 36.6133 104.031 40.368C102.212 44.1227 101.303 48.2293 101.303 52.688C101.303 57.4987 102.623 61.312 105.263 64.128C107.961 66.8853 111.745 68.264 116.615 68.264ZM192.749 79.616C187.586 79.616 183.01 78.5307 179.021 76.36C175.09 74.1307 172.039 71.08 169.869 67.208C167.698 63.2773 166.613 58.7893 166.613 53.744C166.613 46.704 168.167 40.368 171.277 34.736C174.445 29.104 178.786 24.704 184.301 21.536C189.874 18.3093 196.122 16.696 203.045 16.696C208.266 16.696 212.842 17.7813 216.773 19.952C220.762 22.1227 223.842 25.1733 226.013 29.104C228.183 32.976 229.269 37.4053 229.269 42.392C229.269 49.5493 227.714 55.944 224.605 61.576C221.495 67.208 217.154 71.6373 211.581 74.864C206.007 78.032 199.73 79.616 192.749 79.616ZM194.509 68.264C198.909 68.264 202.781 67.1493 206.125 64.92C209.527 62.6907 212.138 59.6987 213.957 55.944C215.834 52.1307 216.773 47.9947 216.773 43.536C216.773 38.7253 215.423 34.9413 212.725 32.184C210.026 29.4267 206.242 28.048 201.373 28.048C197.031 28.048 193.159 29.1627 189.757 31.392C186.413 33.6213 183.802 36.6133 181.925 40.368C180.106 44.1227 179.197 48.2293 179.197 52.688C179.197 57.4987 180.517 61.312 183.157 64.128C185.855 66.8853 189.639 68.264 194.509 68.264ZM294.138 36.584C293.552 39.8693 292.232 42.9493 290.178 45.824C288.125 48.6987 285.28 51.016 281.642 52.776C278.064 54.536 273.752 55.416 268.706 55.416H258.41L254.274 79H241.866L252.778 17.576H275.394C281.672 17.576 286.424 18.984 289.65 21.8C292.877 24.5573 294.49 28.2533 294.49 32.888C294.49 34.2373 294.373 35.4693 294.138 36.584ZM269.938 45.736C273.282 45.736 275.922 44.9147 277.858 43.272C279.794 41.6293 281.026 39.4 281.554 36.584C281.672 36.056 281.73 35.2933 281.73 34.296C281.73 29.6613 278.856 27.344 273.106 27.344H263.426L260.17 45.736H269.938ZM348.293 42.392L346.445 52.776H309.045L310.893 42.392H348.293ZM404.086 67.296H379.534L373.462 79H360.526L393.526 17.488H407.87L419.046 79H406.022L404.086 67.296ZM402.502 57.704L398.102 31.656L384.55 57.704H402.502ZM480.19 42.392L478.342 52.776H440.942L442.79 42.392H480.19ZM549.623 33.416C549.036 36.9947 547.57 39.9867 545.223 42.392C542.935 44.7387 540.119 46.44 536.775 47.496C539.591 48.0827 541.85 49.4907 543.551 51.72C545.311 53.9493 546.191 56.5893 546.191 59.64C546.191 60.4613 546.103 61.3707 545.927 62.368C545.106 67.3547 542.583 71.3733 538.359 74.424C534.194 77.4747 528.972 79 522.695 79H496.207L507.119 17.576H532.463C538.036 17.576 542.319 18.7493 545.311 21.096C548.362 23.4427 549.887 26.5813 549.887 30.512C549.887 31.4507 549.799 32.4187 549.623 33.416ZM536.775 35.264C536.834 34.912 536.863 34.384 536.863 33.68C536.863 31.6267 536.188 30.0427 534.839 28.928C533.49 27.8133 531.524 27.256 528.943 27.256H517.767L514.951 43.096H526.215C529.09 43.096 531.466 42.4213 533.343 41.072C535.22 39.664 536.364 37.728 536.775 35.264ZM533.695 60.872C533.812 60.0507 533.871 59.464 533.871 59.112C533.871 57 533.108 55.3573 531.583 54.184C530.116 52.952 528.063 52.336 525.423 52.336H513.279L510.375 69.232H522.783C525.775 69.232 528.239 68.4987 530.175 67.032C532.111 65.5653 533.284 63.512 533.695 60.872ZM584.61 17.576L577.922 55.504C577.687 57.1467 577.57 58.2907 577.57 58.936C577.57 61.9867 578.479 64.3333 580.298 65.976C582.117 67.56 584.698 68.352 588.042 68.352C592.031 68.352 595.287 67.2667 597.81 65.096C600.391 62.8667 602.063 59.6693 602.826 55.504L609.514 17.576H621.922L615.234 55.504C614.295 60.784 612.389 65.2427 609.514 68.88C606.639 72.4587 603.149 75.1573 599.042 76.976C594.994 78.736 590.623 79.616 585.93 79.616C579.711 79.616 574.666 78.0027 570.794 74.776C566.981 71.5493 565.074 66.9147 565.074 60.872C565.074 59.2293 565.25 57.44 565.602 55.504L572.29 17.576H584.61ZM634.265 48.2C635.321 42.1573 637.638 36.76 641.217 32.008C644.796 27.1973 649.196 23.472 654.417 20.832C659.638 18.1333 665.182 16.784 671.049 16.784C677.972 16.784 683.662 18.4853 688.121 21.888C692.638 25.232 695.366 29.9547 696.305 36.056H682.137C681.198 33.4747 679.614 31.5093 677.385 30.16C675.156 28.8107 672.398 28.136 669.113 28.136C665.476 28.136 662.102 28.9573 658.993 30.6C655.884 32.2427 653.273 34.5893 651.161 37.64C649.049 40.6907 647.641 44.2107 646.937 48.2C646.644 49.608 646.497 51.2213 646.497 53.04C646.497 57.8507 647.905 61.6347 650.721 64.392C653.596 67.0907 657.526 68.44 662.513 68.44C667.148 68.44 671.196 67.1787 674.657 64.656C678.177 62.1333 680.788 58.6427 682.489 54.184H661.369L662.953 44.856H696.217L694.281 55.592C692.697 59.8747 690.233 63.8347 686.889 67.472C683.545 71.1093 679.556 74.0427 674.921 76.272C670.286 78.4427 665.329 79.528 660.049 79.528C654.828 79.528 650.222 78.472 646.233 76.36C642.302 74.248 639.222 71.3147 636.993 67.56C634.822 63.7467 633.737 59.3467 633.737 54.36C633.737 52.3653 633.913 50.312 634.265 48.2Z" fill="#3965FF"/>
</g>
<g style="mix-blend-mode:color-dodge" filter="url(#filter1_d_49_2206)">
<path d="M79.1479 36.416C78.5613 39.9947 77.0946 42.9867 74.7479 45.392C72.4599 47.7387 69.6439 49.44 66.2999 50.496C69.1159 51.0827 71.3746 52.4907 73.0759 54.72C74.8359 56.9493 75.7159 59.5893 75.7159 62.64C75.7159 63.4613 75.6279 64.3707 75.4519 65.368C74.6306 70.3547 72.1079 74.3733 67.8839 77.424C63.7186 80.4747 58.4973 82 52.2199 82H25.7319L36.6439 20.576H61.9879C67.5613 20.576 71.8439 21.7493 74.8359 24.096C77.8866 26.4427 79.4119 29.5813 79.4119 33.512C79.4119 34.4507 79.3239 35.4187 79.1479 36.416ZM66.2999 38.264C66.3586 37.912 66.3879 37.384 66.3879 36.68C66.3879 34.6267 65.7133 33.0427 64.3639 31.928C63.0146 30.8133 61.0493 30.256 58.4679 30.256H47.2919L44.4759 46.096H55.7399C58.6146 46.096 60.9906 45.4213 62.8679 44.072C64.7453 42.664 65.8893 40.728 66.2999 38.264ZM63.2199 63.872C63.3373 63.0507 63.3959 62.464 63.3959 62.112C63.3959 60 62.6333 58.3573 61.1079 57.184C59.6413 55.952 57.5879 55.336 54.9479 55.336H42.8039L39.8999 72.232H52.3079C55.2999 72.232 57.7639 71.4987 59.6999 70.032C61.6359 68.5653 62.8093 66.512 63.2199 63.872ZM119.855 82.616C114.692 82.616 110.116 81.5307 106.127 79.36C102.196 77.1307 99.1455 74.08 96.9748 70.208C94.8041 66.2773 93.7188 61.7893 93.7188 56.744C93.7188 49.704 95.2735 43.368 98.3828 37.736C101.551 32.104 105.892 27.704 111.407 24.536C116.98 21.3093 123.228 19.696 130.151 19.696C135.372 19.696 139.948 20.7813 143.879 22.952C147.868 25.1227 150.948 28.1733 153.119 32.104C155.289 35.976 156.375 40.4053 156.375 45.392C156.375 52.5493 154.82 58.944 151.711 64.576C148.601 70.208 144.26 74.6373 138.687 77.864C133.113 81.032 126.836 82.616 119.855 82.616ZM121.615 71.264C126.015 71.264 129.887 70.1493 133.231 67.92C136.633 65.6907 139.244 62.6987 141.063 58.944C142.94 55.1307 143.879 50.9947 143.879 46.536C143.879 41.7253 142.529 37.9413 139.831 35.184C137.132 32.4267 133.348 31.048 128.479 31.048C124.137 31.048 120.265 32.1627 116.863 34.392C113.519 36.6213 110.908 39.6133 109.031 43.368C107.212 47.1227 106.303 51.2293 106.303 55.688C106.303 60.4987 107.623 64.312 110.263 67.128C112.961 69.8853 116.745 71.264 121.615 71.264ZM197.749 82.616C192.586 82.616 188.01 81.5307 184.021 79.36C180.09 77.1307 177.039 74.08 174.869 70.208C172.698 66.2773 171.613 61.7893 171.613 56.744C171.613 49.704 173.167 43.368 176.277 37.736C179.445 32.104 183.786 27.704 189.301 24.536C194.874 21.3093 201.122 19.696 208.045 19.696C213.266 19.696 217.842 20.7813 221.773 22.952C225.762 25.1227 228.842 28.1733 231.013 32.104C233.183 35.976 234.269 40.4053 234.269 45.392C234.269 52.5493 232.714 58.944 229.605 64.576C226.495 70.208 222.154 74.6373 216.581 77.864C211.007 81.032 204.73 82.616 197.749 82.616ZM199.509 71.264C203.909 71.264 207.781 70.1493 211.125 67.92C214.527 65.6907 217.138 62.6987 218.957 58.944C220.834 55.1307 221.773 50.9947 221.773 46.536C221.773 41.7253 220.423 37.9413 217.725 35.184C215.026 32.4267 211.242 31.048 206.373 31.048C202.031 31.048 198.159 32.1627 194.757 34.392C191.413 36.6213 188.802 39.6133 186.925 43.368C185.106 47.1227 184.197 51.2293 184.197 55.688C184.197 60.4987 185.517 64.312 188.157 67.128C190.855 69.8853 194.639 71.264 199.509 71.264ZM299.138 39.584C298.552 42.8693 297.232 45.9493 295.178 48.824C293.125 51.6987 290.28 54.016 286.642 55.776C283.064 57.536 278.752 58.416 273.706 58.416H263.41L259.274 82H246.866L257.778 20.576H280.394C286.672 20.576 291.424 21.984 294.65 24.8C297.877 27.5573 299.49 31.2533 299.49 35.888C299.49 37.2373 299.373 38.4693 299.138 39.584ZM274.938 48.736C278.282 48.736 280.922 47.9147 282.858 46.272C284.794 44.6293 286.026 42.4 286.554 39.584C286.672 39.056 286.73 38.2933 286.73 37.296C286.73 32.6613 283.856 30.344 278.106 30.344H268.426L265.17 48.736H274.938ZM353.293 45.392L351.445 55.776H314.045L315.893 45.392H353.293ZM409.086 70.296H384.534L378.462 82H365.526L398.526 20.488H412.87L424.046 82H411.022L409.086 70.296ZM407.502 60.704L403.102 34.656L389.55 60.704H407.502ZM485.19 45.392L483.342 55.776H445.942L447.79 45.392H485.19ZM554.623 36.416C554.036 39.9947 552.57 42.9867 550.223 45.392C547.935 47.7387 545.119 49.44 541.775 50.496C544.591 51.0827 546.85 52.4907 548.551 54.72C550.311 56.9493 551.191 59.5893 551.191 62.64C551.191 63.4613 551.103 64.3707 550.927 65.368C550.106 70.3547 547.583 74.3733 543.359 77.424C539.194 80.4747 533.972 82 527.695 82H501.207L512.119 20.576H537.463C543.036 20.576 547.319 21.7493 550.311 24.096C553.362 26.4427 554.887 29.5813 554.887 33.512C554.887 34.4507 554.799 35.4187 554.623 36.416ZM541.775 38.264C541.834 37.912 541.863 37.384 541.863 36.68C541.863 34.6267 541.188 33.0427 539.839 31.928C538.49 30.8133 536.524 30.256 533.943 30.256H522.767L519.951 46.096H531.215C534.09 46.096 536.466 45.4213 538.343 44.072C540.22 42.664 541.364 40.728 541.775 38.264ZM538.695 63.872C538.812 63.0507 538.871 62.464 538.871 62.112C538.871 60 538.108 58.3573 536.583 57.184C535.116 55.952 533.063 55.336 530.423 55.336H518.279L515.375 72.232H527.783C530.775 72.232 533.239 71.4987 535.175 70.032C537.111 68.5653 538.284 66.512 538.695 63.872ZM589.61 20.576L582.922 58.504C582.687 60.1467 582.57 61.2907 582.57 61.936C582.57 64.9867 583.479 67.3333 585.298 68.976C587.117 70.56 589.698 71.352 593.042 71.352C597.031 71.352 600.287 70.2667 602.81 68.096C605.391 65.8667 607.063 62.6693 607.826 58.504L614.514 20.576H626.922L620.234 58.504C619.295 63.784 617.389 68.2427 614.514 71.88C611.639 75.4587 608.149 78.1573 604.042 79.976C599.994 81.736 595.623 82.616 590.93 82.616C584.711 82.616 579.666 81.0027 575.794 77.776C571.981 74.5493 570.074 69.9147 570.074 63.872C570.074 62.2293 570.25 60.44 570.602 58.504L577.29 20.576H589.61ZM639.265 51.2C640.321 45.1573 642.638 39.76 646.217 35.008C649.796 30.1973 654.196 26.472 659.417 23.832C664.638 21.1333 670.182 19.784 676.049 19.784C682.972 19.784 688.662 21.4853 693.121 24.888C697.638 28.232 700.366 32.9547 701.305 39.056H687.137C686.198 36.4747 684.614 34.5093 682.385 33.16C680.156 31.8107 677.398 31.136 674.113 31.136C670.476 31.136 667.102 31.9573 663.993 33.6C660.884 35.2427 658.273 37.5893 656.161 40.64C654.049 43.6907 652.641 47.2107 651.937 51.2C651.644 52.608 651.497 54.2213 651.497 56.04C651.497 60.8507 652.905 64.6347 655.721 67.392C658.596 70.0907 662.526 71.44 667.513 71.44C672.148 71.44 676.196 70.1787 679.657 67.656C683.177 65.1333 685.788 61.6427 687.489 57.184H666.369L667.953 47.856H701.217L699.281 58.592C697.697 62.8747 695.233 66.8347 691.889 70.472C688.545 74.1093 684.556 77.0427 679.921 79.272C675.286 81.4427 670.329 82.528 665.049 82.528C659.828 82.528 655.222 81.472 651.233 79.36C647.302 77.248 644.222 74.3147 641.993 70.56C639.822 66.7467 638.737 62.3467 638.737 57.36C638.737 55.3653 638.913 53.312 639.265 51.2Z" fill="#EDFF1F"/>
</g>
<g style="mix-blend-mode:color-dodge" filter="url(#filter2_d_49_2206)">
<path d="M77.1479 39.416C76.5613 42.9947 75.0946 45.9867 72.7479 48.392C70.4599 50.7387 67.6439 52.44 64.2999 53.496C67.1159 54.0827 69.3746 55.4907 71.0759 57.72C72.8359 59.9493 73.7159 62.5893 73.7159 65.64C73.7159 66.4613 73.6279 67.3707 73.4519 68.368C72.6306 73.3547 70.1079 77.3733 65.8839 80.424C61.7186 83.4747 56.4973 85 50.2199 85H23.7319L34.6439 23.576H59.9879C65.5613 23.576 69.8439 24.7493 72.8359 27.096C75.8866 29.4427 77.4119 32.5813 77.4119 36.512C77.4119 37.4507 77.3239 38.4187 77.1479 39.416ZM64.2999 41.264C64.3586 40.912 64.3879 40.384 64.3879 39.68C64.3879 37.6267 63.7133 36.0427 62.3639 34.928C61.0146 33.8133 59.0493 33.256 56.4679 33.256H45.2919L42.4759 49.096H53.7399C56.6146 49.096 58.9906 48.4213 60.8679 47.072C62.7453 45.664 63.8893 43.728 64.2999 41.264ZM61.2199 66.872C61.3373 66.0507 61.3959 65.464 61.3959 65.112C61.3959 63 60.6333 61.3573 59.1079 60.184C57.6413 58.952 55.5879 58.336 52.9479 58.336H40.8039L37.8999 75.232H50.3079C53.2999 75.232 55.7639 74.4987 57.6999 73.032C59.6359 71.5653 60.8093 69.512 61.2199 66.872ZM117.855 85.616C112.692 85.616 108.116 84.5307 104.127 82.36C100.196 80.1307 97.1455 77.08 94.9748 73.208C92.8041 69.2773 91.7188 64.7893 91.7188 59.744C91.7188 52.704 93.2735 46.368 96.3828 40.736C99.5508 35.104 103.892 30.704 109.407 27.536C114.98 24.3093 121.228 22.696 128.151 22.696C133.372 22.696 137.948 23.7813 141.879 25.952C145.868 28.1227 148.948 31.1733 151.119 35.104C153.289 38.976 154.375 43.4053 154.375 48.392C154.375 55.5493 152.82 61.944 149.711 67.576C146.601 73.208 142.26 77.6373 136.687 80.864C131.113 84.032 124.836 85.616 117.855 85.616ZM119.615 74.264C124.015 74.264 127.887 73.1493 131.231 70.92C134.633 68.6907 137.244 65.6987 139.063 61.944C140.94 58.1307 141.879 53.9947 141.879 49.536C141.879 44.7253 140.529 40.9413 137.831 38.184C135.132 35.4267 131.348 34.048 126.479 34.048C122.137 34.048 118.265 35.1627 114.863 37.392C111.519 39.6213 108.908 42.6133 107.031 46.368C105.212 50.1227 104.303 54.2293 104.303 58.688C104.303 63.4987 105.623 67.312 108.263 70.128C110.961 72.8853 114.745 74.264 119.615 74.264ZM195.749 85.616C190.586 85.616 186.01 84.5307 182.021 82.36C178.09 80.1307 175.039 77.08 172.869 73.208C170.698 69.2773 169.613 64.7893 169.613 59.744C169.613 52.704 171.167 46.368 174.277 40.736C177.445 35.104 181.786 30.704 187.301 27.536C192.874 24.3093 199.122 22.696 206.045 22.696C211.266 22.696 215.842 23.7813 219.773 25.952C223.762 28.1227 226.842 31.1733 229.013 35.104C231.183 38.976 232.269 43.4053 232.269 48.392C232.269 55.5493 230.714 61.944 227.605 67.576C224.495 73.208 220.154 77.6373 214.581 80.864C209.007 84.032 202.73 85.616 195.749 85.616ZM197.509 74.264C201.909 74.264 205.781 73.1493 209.125 70.92C212.527 68.6907 215.138 65.6987 216.957 61.944C218.834 58.1307 219.773 53.9947 219.773 49.536C219.773 44.7253 218.423 40.9413 215.725 38.184C213.026 35.4267 209.242 34.048 204.373 34.048C200.031 34.048 196.159 35.1627 192.757 37.392C189.413 39.6213 186.802 42.6133 184.925 46.368C183.106 50.1227 182.197 54.2293 182.197 58.688C182.197 63.4987 183.517 67.312 186.157 70.128C188.855 72.8853 192.639 74.264 197.509 74.264ZM297.138 42.584C296.552 45.8693 295.232 48.9493 293.178 51.824C291.125 54.6987 288.28 57.016 284.642 58.776C281.064 60.536 276.752 61.416 271.706 61.416H261.41L257.274 85H244.866L255.778 23.576H278.394C284.672 23.576 289.424 24.984 292.65 27.8C295.877 30.5573 297.49 34.2533 297.49 38.888C297.49 40.2373 297.373 41.4693 297.138 42.584ZM272.938 51.736C276.282 51.736 278.922 50.9147 280.858 49.272C282.794 47.6293 284.026 45.4 284.554 42.584C284.672 42.056 284.73 41.2933 284.73 40.296C284.73 35.6613 281.856 33.344 276.106 33.344H266.426L263.17 51.736H272.938ZM351.293 48.392L349.445 58.776H312.045L313.893 48.392H351.293ZM407.086 73.296H382.534L376.462 85H363.526L396.526 23.488H410.87L422.046 85H409.022L407.086 73.296ZM405.502 63.704L401.102 37.656L387.55 63.704H405.502ZM483.19 48.392L481.342 58.776H443.942L445.79 48.392H483.19ZM552.623 39.416C552.036 42.9947 550.57 45.9867 548.223 48.392C545.935 50.7387 543.119 52.44 539.775 53.496C542.591 54.0827 544.85 55.4907 546.551 57.72C548.311 59.9493 549.191 62.5893 549.191 65.64C549.191 66.4613 549.103 67.3707 548.927 68.368C548.106 73.3547 545.583 77.3733 541.359 80.424C537.194 83.4747 531.972 85 525.695 85H499.207L510.119 23.576H535.463C541.036 23.576 545.319 24.7493 548.311 27.096C551.362 29.4427 552.887 32.5813 552.887 36.512C552.887 37.4507 552.799 38.4187 552.623 39.416ZM539.775 41.264C539.834 40.912 539.863 40.384 539.863 39.68C539.863 37.6267 539.188 36.0427 537.839 34.928C536.49 33.8133 534.524 33.256 531.943 33.256H520.767L517.951 49.096H529.215C532.09 49.096 534.466 48.4213 536.343 47.072C538.22 45.664 539.364 43.728 539.775 41.264ZM536.695 66.872C536.812 66.0507 536.871 65.464 536.871 65.112C536.871 63 536.108 61.3573 534.583 60.184C533.116 58.952 531.063 58.336 528.423 58.336H516.279L513.375 75.232H525.783C528.775 75.232 531.239 74.4987 533.175 73.032C535.111 71.5653 536.284 69.512 536.695 66.872ZM587.61 23.576L580.922 61.504C580.687 63.1467 580.57 64.2907 580.57 64.936C580.57 67.9867 581.479 70.3333 583.298 71.976C585.117 73.56 587.698 74.352 591.042 74.352C595.031 74.352 598.287 73.2667 600.81 71.096C603.391 68.8667 605.063 65.6693 605.826 61.504L612.514 23.576H624.922L618.234 61.504C617.295 66.784 615.389 71.2427 612.514 74.88C609.639 78.4587 606.149 81.1573 602.042 82.976C597.994 84.736 593.623 85.616 588.93 85.616C582.711 85.616 577.666 84.0027 573.794 80.776C569.981 77.5493 568.074 72.9147 568.074 66.872C568.074 65.2293 568.25 63.44 568.602 61.504L575.29 23.576H587.61ZM637.265 54.2C638.321 48.1573 640.638 42.76 644.217 38.008C647.796 33.1973 652.196 29.472 657.417 26.832C662.638 24.1333 668.182 22.784 674.049 22.784C680.972 22.784 686.662 24.4853 691.121 27.888C695.638 31.232 698.366 35.9547 699.305 42.056H685.137C684.198 39.4747 682.614 37.5093 680.385 36.16C678.156 34.8107 675.398 34.136 672.113 34.136C668.476 34.136 665.102 34.9573 661.993 36.6C658.884 38.2427 656.273 40.5893 654.161 43.64C652.049 46.6907 650.641 50.2107 649.937 54.2C649.644 55.608 649.497 57.2213 649.497 59.04C649.497 63.8507 650.905 67.6347 653.721 70.392C656.596 73.0907 660.526 74.44 665.513 74.44C670.148 74.44 674.196 73.1787 677.657 70.656C681.177 68.1333 683.788 64.6427 685.489 60.184H664.369L665.953 50.856H699.217L697.281 61.592C695.697 65.8747 693.233 69.8347 689.889 73.472C686.545 77.1093 682.556 80.0427 677.921 82.272C673.286 84.4427 668.329 85.528 663.049 85.528C657.828 85.528 653.222 84.472 649.233 82.36C645.302 80.248 642.222 77.3147 639.993 73.56C637.822 69.7467 636.737 65.3467 636.737 60.36C636.737 58.3653 636.913 56.312 637.265 54.2Z" fill="#5AFFBA"/>
</g>
<g style="mix-blend-mode:color-dodge" opacity="0.9">
<g style="mix-blend-mode:color-dodge">
<mask id="path-5-outside-1_49_2206" maskUnits="userSpaceOnUse" x="20" y="17" width="679" height="66" fill="black">
<rect fill="white" x="20" y="17" width="679" height="66"/>
<path d="M75.1479 35.416C74.5613 38.9947 73.0946 41.9867 70.7479 44.392C68.4599 46.7387 65.6439 48.44 62.2999 49.496C65.1159 50.0827 67.3746 51.4907 69.0759 53.72C70.8359 55.9493 71.7159 58.5893 71.7159 61.64C71.7159 62.4613 71.6279 63.3707 71.4519 64.368C70.6306 69.3547 68.1079 73.3733 63.8839 76.424C59.7186 79.4747 54.4973 81 48.2199 81H21.7319L32.6439 19.576H57.9879C63.5613 19.576 67.8439 20.7493 70.8359 23.096C73.8866 25.4427 75.4119 28.5813 75.4119 32.512C75.4119 33.4507 75.3239 34.4187 75.1479 35.416ZM62.2999 37.264C62.3586 36.912 62.3879 36.384 62.3879 35.68C62.3879 33.6267 61.7133 32.0427 60.3639 30.928C59.0146 29.8133 57.0493 29.256 54.4679 29.256H43.2919L40.4759 45.096H51.7399C54.6146 45.096 56.9906 44.4213 58.8679 43.072C60.7453 41.664 61.8893 39.728 62.2999 37.264ZM59.2199 62.872C59.3373 62.0507 59.3959 61.464 59.3959 61.112C59.3959 59 58.6333 57.3573 57.1079 56.184C55.6413 54.952 53.5879 54.336 50.9479 54.336H38.8039L35.8999 71.232H48.3079C51.2999 71.232 53.7639 70.4987 55.6999 69.032C57.6359 67.5653 58.8093 65.512 59.2199 62.872ZM115.855 81.616C110.692 81.616 106.116 80.5307 102.127 78.36C98.1961 76.1307 95.1455 73.08 92.9748 69.208C90.8041 65.2773 89.7188 60.7893 89.7188 55.744C89.7188 48.704 91.2735 42.368 94.3828 36.736C97.5508 31.104 101.892 26.704 107.407 23.536C112.98 20.3093 119.228 18.696 126.151 18.696C131.372 18.696 135.948 19.7813 139.879 21.952C143.868 24.1227 146.948 27.1733 149.119 31.104C151.289 34.976 152.375 39.4053 152.375 44.392C152.375 51.5493 150.82 57.944 147.711 63.576C144.601 69.208 140.26 73.6373 134.687 76.864C129.113 80.032 122.836 81.616 115.855 81.616ZM117.615 70.264C122.015 70.264 125.887 69.1493 129.231 66.92C132.633 64.6907 135.244 61.6987 137.063 57.944C138.94 54.1307 139.879 49.9947 139.879 45.536C139.879 40.7253 138.529 36.9413 135.831 34.184C133.132 31.4267 129.348 30.048 124.479 30.048C120.137 30.048 116.265 31.1627 112.863 33.392C109.519 35.6213 106.908 38.6133 105.031 42.368C103.212 46.1227 102.303 50.2293 102.303 54.688C102.303 59.4987 103.623 63.312 106.263 66.128C108.961 68.8853 112.745 70.264 117.615 70.264ZM193.749 81.616C188.586 81.616 184.01 80.5307 180.021 78.36C176.09 76.1307 173.039 73.08 170.869 69.208C168.698 65.2773 167.613 60.7893 167.613 55.744C167.613 48.704 169.167 42.368 172.277 36.736C175.445 31.104 179.786 26.704 185.301 23.536C190.874 20.3093 197.122 18.696 204.045 18.696C209.266 18.696 213.842 19.7813 217.773 21.952C221.762 24.1227 224.842 27.1733 227.013 31.104C229.183 34.976 230.269 39.4053 230.269 44.392C230.269 51.5493 228.714 57.944 225.605 63.576C222.495 69.208 218.154 73.6373 212.581 76.864C207.007 80.032 200.73 81.616 193.749 81.616ZM195.509 70.264C199.909 70.264 203.781 69.1493 207.125 66.92C210.527 64.6907 213.138 61.6987 214.957 57.944C216.834 54.1307 217.773 49.9947 217.773 45.536C217.773 40.7253 216.423 36.9413 213.725 34.184C211.026 31.4267 207.242 30.048 202.373 30.048C198.031 30.048 194.159 31.1627 190.757 33.392C187.413 35.6213 184.802 38.6133 182.925 42.368C181.106 46.1227 180.197 50.2293 180.197 54.688C180.197 59.4987 181.517 63.312 184.157 66.128C186.855 68.8853 190.639 70.264 195.509 70.264ZM295.138 38.584C294.552 41.8693 293.232 44.9493 291.178 47.824C289.125 50.6987 286.28 53.016 282.642 54.776C279.064 56.536 274.752 57.416 269.706 57.416H259.41L255.274 81H242.866L253.778 19.576H276.394C282.672 19.576 287.424 20.984 290.65 23.8C293.877 26.5573 295.49 30.2533 295.49 34.888C295.49 36.2373 295.373 37.4693 295.138 38.584ZM270.938 47.736C274.282 47.736 276.922 46.9147 278.858 45.272C280.794 43.6293 282.026 41.4 282.554 38.584C282.672 38.056 282.73 37.2933 282.73 36.296C282.73 31.6613 279.856 29.344 274.106 29.344H264.426L261.17 47.736H270.938ZM349.293 44.392L347.445 54.776H310.045L311.893 44.392H349.293ZM405.086 69.296H380.534L374.462 81H361.526L394.526 19.488H408.87L420.046 81H407.022L405.086 69.296ZM403.502 59.704L399.102 33.656L385.55 59.704H403.502ZM481.19 44.392L479.342 54.776H441.942L443.79 44.392H481.19ZM550.623 35.416C550.036 38.9947 548.57 41.9867 546.223 44.392C543.935 46.7387 541.119 48.44 537.775 49.496C540.591 50.0827 542.85 51.4907 544.551 53.72C546.311 55.9493 547.191 58.5893 547.191 61.64C547.191 62.4613 547.103 63.3707 546.927 64.368C546.106 69.3547 543.583 73.3733 539.359 76.424C535.194 79.4747 529.972 81 523.695 81H497.207L508.119 19.576H533.463C539.036 19.576 543.319 20.7493 546.311 23.096C549.362 25.4427 550.887 28.5813 550.887 32.512C550.887 33.4507 550.799 34.4187 550.623 35.416ZM537.775 37.264C537.834 36.912 537.863 36.384 537.863 35.68C537.863 33.6267 537.188 32.0427 535.839 30.928C534.49 29.8133 532.524 29.256 529.943 29.256H518.767L515.951 45.096H527.215C530.09 45.096 532.466 44.4213 534.343 43.072C536.22 41.664 537.364 39.728 537.775 37.264ZM534.695 62.872C534.812 62.0507 534.871 61.464 534.871 61.112C534.871 59 534.108 57.3573 532.583 56.184C531.116 54.952 529.063 54.336 526.423 54.336H514.279L511.375 71.232H523.783C526.775 71.232 529.239 70.4987 531.175 69.032C533.111 67.5653 534.284 65.512 534.695 62.872ZM585.61 19.576L578.922 57.504C578.687 59.1467 578.57 60.2907 578.57 60.936C578.57 63.9867 579.479 66.3333 581.298 67.976C583.117 69.56 585.698 70.352 589.042 70.352C593.031 70.352 596.287 69.2667 598.81 67.096C601.391 64.8667 603.063 61.6693 603.826 57.504L610.514 19.576H622.922L616.234 57.504C615.295 62.784 613.389 67.2427 610.514 70.88C607.639 74.4587 604.149 77.1573 600.042 78.976C595.994 80.736 591.623 81.616 586.93 81.616C580.711 81.616 575.666 80.0027 571.794 76.776C567.981 73.5493 566.074 68.9147 566.074 62.872C566.074 61.2293 566.25 59.44 566.602 57.504L573.29 19.576H585.61ZM635.265 50.2C636.321 44.1573 638.638 38.76 642.217 34.008C645.796 29.1973 650.196 25.472 655.417 22.832C660.638 20.1333 666.182 18.784 672.049 18.784C678.972 18.784 684.662 20.4853 689.121 23.888C693.638 27.232 696.366 31.9547 697.305 38.056H683.137C682.198 35.4747 680.614 33.5093 678.385 32.16C676.156 30.8107 673.398 30.136 670.113 30.136C666.476 30.136 663.102 30.9573 659.993 32.6C656.884 34.2427 654.273 36.5893 652.161 39.64C650.049 42.6907 648.641 46.2107 647.937 50.2C647.644 51.608 647.497 53.2213 647.497 55.04C647.497 59.8507 648.905 63.6347 651.721 66.392C654.596 69.0907 658.526 70.44 663.513 70.44C668.148 70.44 672.196 69.1787 675.657 66.656C679.177 64.1333 681.788 60.6427 683.489 56.184H662.369L663.953 46.856H697.217L695.281 57.592C693.697 61.8747 691.233 65.8347 687.889 69.472C684.545 73.1093 680.556 76.0427 675.921 78.272C671.286 80.4427 666.329 81.528 661.049 81.528C655.828 81.528 651.222 80.472 647.233 78.36C643.302 76.248 640.222 73.3147 637.993 69.56C635.822 65.7467 634.737 61.3467 634.737 56.36C634.737 54.3653 634.913 52.312 635.265 50.2Z"/>
</mask>
<path d="M75.1479 35.416L74.1631 35.2422L74.1611 35.2542L75.1479 35.416ZM70.7479 44.392L70.0321 43.6937L70.0319 43.6939L70.7479 44.392ZM62.2999 49.496L61.9988 48.5424L58.3502 49.6946L62.096 50.475L62.2999 49.496ZM69.0759 53.72L68.281 54.3267L68.286 54.3332L68.291 54.3396L69.0759 53.72ZM71.4519 64.368L70.4671 64.1942L70.4652 64.2055L71.4519 64.368ZM63.8839 76.424L63.2984 75.6133L63.2931 75.6172L63.8839 76.424ZM21.7319 81L20.7473 80.8251L20.5386 82H21.7319V81ZM32.6439 19.576V18.576H31.8059L31.6593 19.4011L32.6439 19.576ZM70.8359 23.096L70.2188 23.8829L70.2262 23.8886L70.8359 23.096ZM62.2999 37.264L61.3135 37.0996L61.3135 37.0996L62.2999 37.264ZM43.2919 29.256V28.256H42.454L42.3074 29.081L43.2919 29.256ZM40.4759 45.096L39.4914 44.921L39.2825 46.096H40.4759V45.096ZM58.8679 43.072L59.4516 43.884L59.4598 43.8781L59.4679 43.872L58.8679 43.072ZM59.2199 62.872L60.2081 63.0257L60.2099 63.0134L59.2199 62.872ZM57.1079 56.184L56.4647 56.9497L56.4812 56.9635L56.4982 56.9766L57.1079 56.184ZM38.8039 54.336V53.336H37.9611L37.8184 54.1666L38.8039 54.336ZM35.8999 71.232L34.9144 71.0626L34.7134 72.232H35.8999V71.232ZM55.6999 69.032L56.3038 69.8291L56.3038 69.8291L55.6999 69.032ZM74.1611 35.2542C73.6049 38.6473 72.2241 41.4469 70.0321 43.6937L71.4637 45.0903C73.9651 42.5264 75.5177 39.342 76.1348 35.5778L74.1611 35.2542ZM70.0319 43.6939C67.8671 45.9143 65.1969 47.5325 61.9988 48.5424L62.6011 50.4496C66.091 49.3475 69.0528 47.563 71.4639 45.0901L70.0319 43.6939ZM62.096 50.475C64.6833 51.014 66.7295 52.2938 68.281 54.3267L69.8709 53.1133C68.0196 50.6876 65.5486 49.1513 62.5039 48.517L62.096 50.475ZM68.291 54.3396C69.9011 56.379 70.7159 58.7964 70.7159 61.64H72.7159C72.7159 58.3823 71.7708 55.5197 69.8608 53.1004L68.291 54.3396ZM70.7159 61.64C70.7159 62.3915 70.6353 63.2416 70.4671 64.1942L72.4367 64.5418C72.6206 63.4997 72.7159 62.5312 72.7159 61.64H70.7159ZM70.4652 64.2055C69.6883 68.9227 67.3158 72.7119 63.2984 75.6133L64.4694 77.2347C68.9001 74.0348 71.5729 69.7866 72.4386 64.5305L70.4652 64.2055ZM63.2931 75.6172C59.3334 78.5172 54.3316 80 48.2199 80V82C54.6629 82 60.1038 80.4321 64.4748 77.2308L63.2931 75.6172ZM48.2199 80H21.7319V82H48.2199V80ZM22.7165 81.1749L33.6285 19.7509L31.6593 19.4011L20.7473 80.8251L22.7165 81.1749ZM32.6439 20.576H57.9879V18.576H32.6439V20.576ZM57.9879 20.576C63.438 20.576 67.4683 21.7256 70.2188 23.8828L71.4531 22.3091C68.2196 19.7731 63.6845 18.576 57.9879 18.576V20.576ZM70.2262 23.8886C73.0247 26.0413 74.4119 28.8841 74.4119 32.512H76.4119C76.4119 28.2786 74.7485 24.844 71.4456 22.3034L70.2262 23.8886ZM74.4119 32.512C74.4119 33.388 74.3298 34.2978 74.1631 35.2422L76.1327 35.5898C76.3181 34.5395 76.4119 33.5133 76.4119 32.512H74.4119ZM63.2863 37.4284C63.359 36.9922 63.3879 36.3969 63.3879 35.68H61.3879C61.3879 36.3711 61.3582 36.8318 61.3135 37.0996L63.2863 37.4284ZM63.3879 35.68C63.3879 33.3859 62.621 31.4955 61.0008 30.157L59.7271 31.699C60.8055 32.5899 61.3879 33.8675 61.3879 35.68H63.3879ZM61.0008 30.157C59.4043 28.8381 57.1748 28.256 54.4679 28.256V30.256C56.9237 30.256 58.6249 30.7885 59.7271 31.699L61.0008 30.157ZM54.4679 28.256H43.2919V30.256H54.4679V28.256ZM42.3074 29.081L39.4914 44.921L41.4605 45.271L44.2765 29.431L42.3074 29.081ZM40.4759 46.096H51.7399V44.096H40.4759V46.096ZM51.7399 46.096C54.7725 46.096 57.3666 45.3826 59.4516 43.884L58.2843 42.26C56.6146 43.4601 54.4567 44.096 51.7399 44.096V46.096ZM59.4679 43.872C61.5652 42.2991 62.8364 40.1281 63.2863 37.4284L61.3135 37.0996C60.9421 39.3279 59.9254 41.0289 58.2679 42.272L59.4679 43.872ZM60.2099 63.0134C60.3274 62.1909 60.3959 61.5419 60.3959 61.112H58.3959C58.3959 61.3861 58.3472 61.9104 58.23 62.7306L60.2099 63.0134ZM60.3959 61.112C60.3959 58.7243 59.5154 56.7743 57.7176 55.3914L56.4982 56.9766C57.7511 57.9404 58.3959 59.2757 58.3959 61.112H60.3959ZM57.7511 55.4183C56.0464 53.9864 53.7346 53.336 50.9479 53.336V55.336C53.4412 55.336 55.2361 55.9176 56.4647 56.9497L57.7511 55.4183ZM50.9479 53.336H38.8039V55.336H50.9479V53.336ZM37.8184 54.1666L34.9144 71.0626L36.8855 71.4014L39.7895 54.5054L37.8184 54.1666ZM35.8999 72.232H48.3079V70.232H35.8999V72.232ZM48.3079 72.232C51.4663 72.232 54.1569 71.4555 56.3038 69.8291L55.0961 68.2349C53.3709 69.5418 51.1335 70.232 48.3079 70.232V72.232ZM56.3038 69.8291C58.468 68.1896 59.7619 65.8939 60.208 63.0257L58.2318 62.7183C57.8566 65.1301 56.8039 66.9411 55.0961 68.2349L56.3038 69.8291ZM102.127 78.36L101.633 79.2298L101.641 79.2342L101.649 79.2384L102.127 78.36ZM92.9748 69.208L92.0994 69.6914L92.1025 69.697L92.9748 69.208ZM94.3828 36.736L93.5112 36.2457L93.5074 36.2527L94.3828 36.736ZM107.407 23.536L107.905 24.4031L107.908 24.4014L107.407 23.536ZM139.879 21.952L139.395 22.8274L139.401 22.8304L139.879 21.952ZM149.119 31.104L148.243 31.5874L148.247 31.593L149.119 31.104ZM147.711 63.576L146.835 63.0927L146.835 63.0927L147.711 63.576ZM134.687 76.864L135.181 77.7334L135.188 77.7294L134.687 76.864ZM129.231 66.92L128.683 66.0835L128.676 66.0879L129.231 66.92ZM137.063 57.944L136.166 57.5023L136.163 57.5081L137.063 57.944ZM135.831 34.184L135.116 34.8835L135.116 34.8835L135.831 34.184ZM112.863 33.392L112.315 32.5555L112.308 32.5599L112.863 33.392ZM105.031 42.368L104.136 41.9208L104.131 41.9321L105.031 42.368ZM106.263 66.128L105.533 66.8119L105.541 66.8198L105.548 66.8275L106.263 66.128ZM115.855 80.616C110.836 80.616 106.428 79.5621 102.605 77.4816L101.649 79.2384C105.804 81.4992 110.548 82.616 115.855 82.616V80.616ZM102.62 77.4902C98.8452 75.3491 95.9269 72.4289 93.8471 68.719L92.1025 69.697C94.3641 73.7311 97.5471 76.9122 101.633 79.2298L102.62 77.4902ZM93.8502 68.7246C91.771 64.9595 90.7188 60.6415 90.7188 55.744H88.7188C88.7188 60.9372 89.8373 65.5952 92.0994 69.6914L93.8502 68.7246ZM90.7188 55.744C90.7188 48.8567 92.2382 42.6897 95.2583 37.2193L93.5074 36.2527C90.3088 42.0463 88.7188 48.5513 88.7188 55.744H90.7188ZM95.2544 37.2263C98.3356 31.7486 102.549 27.4799 107.905 24.4031L106.909 22.6689C101.235 25.9281 96.766 30.4594 93.5112 36.2457L95.2544 37.2263ZM107.908 24.4014C113.318 21.2695 119.39 19.696 126.151 19.696V17.696C119.066 17.696 112.643 19.3492 106.906 22.6706L107.908 24.4014ZM126.151 19.696C131.231 19.696 135.635 20.7509 139.395 22.8274L140.362 21.0766C136.261 18.8118 131.514 17.696 126.151 17.696V19.696ZM139.401 22.8304C143.225 24.9111 146.166 27.8256 148.243 31.5874L149.994 30.6206C147.73 26.5211 144.511 23.3343 140.357 21.0736L139.401 22.8304ZM148.247 31.593C150.324 35.2979 151.375 39.5551 151.375 44.392H153.375C153.375 39.2556 152.255 34.6541 149.991 30.615L148.247 31.593ZM151.375 44.392C151.375 51.3997 149.854 57.6248 146.835 63.0927L148.586 64.0593C151.786 58.2632 153.375 51.699 153.375 44.392H151.375ZM146.835 63.0927C143.814 68.5655 139.602 72.8628 134.186 75.9986L135.188 77.7294C140.918 74.4119 145.389 69.8505 148.586 64.0593L146.835 63.0927ZM134.193 75.9946C128.783 79.0695 122.679 80.616 115.855 80.616V82.616C122.994 82.616 129.444 80.9945 135.181 77.7334L134.193 75.9946ZM117.615 71.264C122.193 71.264 126.262 70.1012 129.786 67.752L128.676 66.0879C125.512 68.1974 121.837 69.264 117.615 69.264V71.264ZM129.779 67.7565C133.337 65.4253 136.067 62.2931 137.963 58.3799L136.163 57.5081C134.421 61.1042 131.93 63.956 128.683 66.0835L129.779 67.7565ZM137.96 58.3857C139.908 54.4282 140.879 50.1401 140.879 45.536H138.879C138.879 49.8492 137.972 53.8331 136.166 57.5023L137.96 58.3857ZM140.879 45.536C140.879 40.5319 139.47 36.4723 136.545 33.4845L135.116 34.8835C137.589 37.4104 138.879 40.9188 138.879 45.536H140.879ZM136.545 33.4845C133.612 30.4876 129.543 29.048 124.479 29.048V31.048C129.154 31.048 132.652 32.3657 135.116 34.8835L136.545 33.4845ZM124.479 29.048C119.956 29.048 115.891 30.2122 112.315 32.5555L113.411 34.2285C116.64 32.1131 120.318 31.048 124.479 31.048V29.048ZM112.308 32.5599C108.813 34.8902 106.088 38.0177 104.136 41.9208L105.925 42.8152C107.728 39.209 110.225 36.3525 113.418 34.224L112.308 32.5599ZM104.131 41.9321C102.242 45.8319 101.303 50.0889 101.303 54.688H103.303C103.303 50.3697 104.182 46.4135 105.931 42.8039L104.131 41.9321ZM101.303 54.688C101.303 59.6872 102.679 63.7678 105.533 66.8119L106.992 65.4441C104.566 62.8562 103.303 59.3101 103.303 54.688H101.303ZM105.548 66.8275C108.481 69.8244 112.551 71.264 117.615 71.264V69.264C112.94 69.264 109.442 67.9463 106.977 65.4285L105.548 66.8275ZM180.021 78.36L179.527 79.2298L179.535 79.2342L179.543 79.2384L180.021 78.36ZM170.869 69.208L169.993 69.6914L169.996 69.697L170.869 69.208ZM172.277 36.736L171.405 36.2457L171.401 36.2527L172.277 36.736ZM185.301 23.536L185.799 24.4031L185.802 24.4014L185.301 23.536ZM217.773 21.952L217.289 22.8274L217.295 22.8304L217.773 21.952ZM227.013 31.104L226.137 31.5874L226.14 31.593L227.013 31.104ZM225.605 63.576L224.729 63.0927L224.729 63.0927L225.605 63.576ZM212.581 76.864L213.075 77.7334L213.082 77.7294L212.581 76.864ZM207.125 66.92L206.577 66.0835L206.57 66.0879L207.125 66.92ZM214.957 57.944L214.059 57.5023L214.057 57.5081L214.957 57.944ZM213.725 34.184L213.01 34.8835L213.01 34.8835L213.725 34.184ZM190.757 33.392L190.209 32.5555L190.202 32.5599L190.757 33.392ZM182.925 42.368L182.03 41.9208L182.025 41.9321L182.925 42.368ZM184.157 66.128L183.427 66.8119L183.434 66.8198L183.442 66.8275L184.157 66.128ZM193.749 80.616C188.73 80.616 184.322 79.5621 180.499 77.4816L179.543 79.2384C183.698 81.4992 188.442 82.616 193.749 82.616V80.616ZM180.514 77.4902C176.739 75.3491 173.821 72.4289 171.741 68.719L169.996 69.697C172.258 73.7311 175.441 76.9122 179.527 79.2298L180.514 77.4902ZM171.744 68.7246C169.665 64.9595 168.613 60.6415 168.613 55.744H166.613C166.613 60.9372 167.731 65.5952 169.993 69.6914L171.744 68.7246ZM168.613 55.744C168.613 48.8567 170.132 42.6897 173.152 37.2193L171.401 36.2527C168.203 42.0463 166.613 48.5513 166.613 55.744H168.613ZM173.148 37.2263C176.229 31.7486 180.443 27.4799 185.799 24.4031L184.802 22.6689C179.129 25.9281 174.66 30.4594 171.405 36.2457L173.148 37.2263ZM185.802 24.4014C191.211 21.2695 197.284 19.696 204.045 19.696V17.696C196.96 17.696 190.537 19.3492 184.8 22.6706L185.802 24.4014ZM204.045 19.696C209.125 19.696 213.529 20.7509 217.289 22.8274L218.256 21.0766C214.155 18.8118 209.407 17.696 204.045 17.696V19.696ZM217.295 22.8304C221.119 24.9111 224.06 27.8256 226.137 31.5874L227.888 30.6206C225.624 26.5211 222.405 23.3343 218.251 21.0736L217.295 22.8304ZM226.14 31.593C228.217 35.2979 229.269 39.5551 229.269 44.392H231.269C231.269 39.2556 230.149 34.6541 227.885 30.615L226.14 31.593ZM229.269 44.392C229.269 51.3997 227.748 57.6248 224.729 63.0927L226.48 64.0593C229.68 58.2632 231.269 51.699 231.269 44.392H229.269ZM224.729 63.0927C221.708 68.5655 217.496 72.8628 212.08 75.9986L213.082 77.7294C218.812 74.4119 223.283 69.8505 226.48 64.0593L224.729 63.0927ZM212.086 75.9946C206.677 79.0695 200.573 80.616 193.749 80.616V82.616C200.887 82.616 207.338 80.9945 213.075 77.7334L212.086 75.9946ZM195.509 71.264C200.086 71.264 204.155 70.1012 207.679 67.752L206.57 66.0879C203.406 68.1974 199.731 69.264 195.509 69.264V71.264ZM207.673 67.7565C211.231 65.4253 213.961 62.2931 215.857 58.3799L214.057 57.5081C212.315 61.1042 209.824 63.956 206.577 66.0835L207.673 67.7565ZM215.854 58.3857C217.802 54.4282 218.773 50.1401 218.773 45.536H216.773C216.773 49.8492 215.866 53.8331 214.059 57.5023L215.854 58.3857ZM218.773 45.536C218.773 40.5319 217.363 36.4723 214.439 33.4845L213.01 34.8835C215.483 37.4104 216.773 40.9188 216.773 45.536H218.773ZM214.439 33.4845C211.506 30.4876 207.436 29.048 202.373 29.048V31.048C207.047 31.048 210.546 32.3657 213.01 34.8835L214.439 33.4845ZM202.373 29.048C197.85 29.048 193.785 30.2122 190.209 32.5555L191.305 34.2285C194.533 32.1131 198.212 31.048 202.373 31.048V29.048ZM190.202 32.5599C186.707 34.8902 183.982 38.0177 182.03 41.9208L183.819 42.8152C185.622 39.209 188.119 36.3525 191.311 34.224L190.202 32.5599ZM182.025 41.9321C180.136 45.8319 179.197 50.0889 179.197 54.688H181.197C181.197 50.3697 182.076 46.4135 183.825 42.8039L182.025 41.9321ZM179.197 54.688C179.197 59.6872 180.573 63.7678 183.427 66.8119L184.886 65.4441C182.46 62.8562 181.197 59.3101 181.197 54.688H179.197ZM183.442 66.8275C186.375 69.8244 190.445 71.264 195.509 71.264V69.264C190.834 69.264 187.335 67.9463 184.871 65.4285L183.442 66.8275ZM295.138 38.584L294.16 38.378L294.157 38.3931L294.154 38.4082L295.138 38.584ZM291.178 47.824L291.992 48.4052L291.992 48.4052L291.178 47.824ZM282.642 54.776L282.207 53.8758L282.201 53.8786L282.642 54.776ZM259.41 57.416V56.416H258.57L258.425 57.2433L259.41 57.416ZM255.274 81V82H256.114L256.259 81.1727L255.274 81ZM242.866 81L241.882 80.8251L241.673 82H242.866V81ZM253.778 19.576V18.576H252.94L252.794 19.4011L253.778 19.576ZM290.65 23.8L289.993 24.5535L290.001 24.5602L290.65 23.8ZM278.858 45.272L279.505 46.0345L279.505 46.0345L278.858 45.272ZM282.554 38.584L281.578 38.3671L281.575 38.3833L281.571 38.3997L282.554 38.584ZM264.426 29.344V28.344H263.588L263.442 29.1697L264.426 29.344ZM261.17 47.736L260.186 47.5617L259.978 48.736H261.17V47.736ZM294.154 38.4082C293.595 41.5389 292.337 44.4817 290.365 47.2428L291.992 48.4052C294.126 45.417 295.508 42.1998 296.123 38.7598L294.154 38.4082ZM290.365 47.2428C288.422 49.9626 285.715 52.1782 282.207 53.8758L283.078 55.6762C286.844 53.8538 289.828 51.4347 291.992 48.4052L290.365 47.2428ZM282.201 53.8786C278.791 55.5556 274.638 56.416 269.706 56.416V58.416C274.865 58.416 279.336 57.5164 283.084 55.6733L282.201 53.8786ZM269.706 56.416H259.41V58.416H269.706V56.416ZM258.425 57.2433L254.289 80.8273L256.259 81.1727L260.395 57.5887L258.425 57.2433ZM255.274 80H242.866V82H255.274V80ZM243.851 81.1749L254.763 19.7509L252.794 19.4011L241.882 80.8251L243.851 81.1749ZM253.778 20.576H276.394V18.576H253.778V20.576ZM276.394 20.576C282.54 20.576 287.017 21.9563 289.993 24.5534L291.308 23.0466C287.83 20.0117 282.803 18.576 276.394 18.576V20.576ZM290.001 24.5602C292.983 27.1087 294.49 30.5154 294.49 34.888H296.49C296.49 29.9913 294.771 26.006 291.3 23.0398L290.001 24.5602ZM294.49 34.888C294.49 36.1804 294.378 37.3421 294.16 38.378L296.117 38.79C296.368 37.5965 296.49 36.2943 296.49 34.888H294.49ZM270.938 48.736C274.443 48.736 277.338 47.8734 279.505 46.0345L278.211 44.5095C276.507 45.9559 274.121 46.736 270.938 46.736V48.736ZM279.505 46.0345C281.639 44.2244 282.973 41.7792 283.537 38.7683L281.571 38.3997C281.08 41.0208 279.95 43.0343 278.211 44.5095L279.505 46.0345ZM283.53 38.8009C283.672 38.1654 283.73 37.3161 283.73 36.296H281.73C281.73 37.2705 281.672 37.9466 281.578 38.3671L283.53 38.8009ZM283.73 36.296C283.73 33.7606 282.933 31.6993 281.202 30.3035C279.512 28.9409 277.089 28.344 274.106 28.344V30.344C276.873 30.344 278.762 30.9058 279.947 31.8605C281.09 32.7821 281.73 34.1967 281.73 36.296H283.73ZM274.106 28.344H264.426V30.344H274.106V28.344ZM263.442 29.1697L260.186 47.5617L262.155 47.9103L265.411 29.5183L263.442 29.1697ZM261.17 48.736H270.938V46.736H261.17V48.736ZM349.293 44.392L350.278 44.5672L350.487 43.392H349.293V44.392ZM347.445 54.776V55.776H348.283L348.43 54.9512L347.445 54.776ZM310.045 54.776L309.061 54.6008L308.852 55.776H310.045V54.776ZM311.893 44.392V43.392H311.056L310.909 44.2168L311.893 44.392ZM348.309 44.2168L346.461 54.6008L348.43 54.9512L350.278 44.5672L348.309 44.2168ZM347.445 53.776H310.045V55.776H347.445V53.776ZM311.03 54.9512L312.878 44.5672L310.909 44.2168L309.061 54.6008L311.03 54.9512ZM311.893 45.392H349.293V43.392H311.893V45.392ZM405.086 69.296L406.073 69.1328L405.934 68.296H405.086V69.296ZM380.534 69.296V68.296H379.926L379.646 68.8355L380.534 69.296ZM374.462 81V82H375.07L375.35 81.4605L374.462 81ZM361.526 81L360.645 80.5273L359.855 82H361.526V81ZM394.526 19.488V18.488H393.928L393.645 19.0152L394.526 19.488ZM408.87 19.488L409.854 19.3092L409.705 18.488H408.87V19.488ZM420.046 81V82H421.244L421.03 80.8212L420.046 81ZM407.022 81L406.035 81.1632L406.174 82H407.022V81ZM403.502 59.704V60.704H404.685L404.488 59.5374L403.502 59.704ZM399.102 33.656L400.088 33.4894L399.591 30.5488L398.215 33.1945L399.102 33.656ZM385.55 59.704L384.663 59.2425L383.903 60.704H385.55V59.704ZM405.086 68.296H380.534V70.296H405.086V68.296ZM379.646 68.8355L373.574 80.5395L375.35 81.4605L381.422 69.7565L379.646 68.8355ZM374.462 80H361.526V82H374.462V80ZM362.407 81.4727L395.407 19.9607L393.645 19.0152L360.645 80.5273L362.407 81.4727ZM394.526 20.488H408.87V18.488H394.526V20.488ZM407.886 19.6668L419.062 81.1788L421.03 80.8212L409.854 19.3092L407.886 19.6668ZM420.046 80H407.022V82H420.046V80ZM408.009 80.8368L406.073 69.1328L404.099 69.4592L406.035 81.1632L408.009 80.8368ZM404.488 59.5374L400.088 33.4894L398.116 33.8226L402.516 59.8706L404.488 59.5374ZM398.215 33.1945L384.663 59.2425L386.437 60.1655L399.989 34.1175L398.215 33.1945ZM385.55 60.704H403.502V58.704H385.55V60.704ZM481.19 44.392L482.175 44.5672L482.384 43.392H481.19V44.392ZM479.342 54.776V55.776H480.18L480.327 54.9512L479.342 54.776ZM441.942 54.776L440.958 54.6008L440.749 55.776H441.942V54.776ZM443.79 44.392V43.392H442.952L442.806 44.2168L443.79 44.392ZM480.206 44.2168L478.358 54.6008L480.327 54.9512L482.175 44.5672L480.206 44.2168ZM479.342 53.776H441.942V55.776H479.342V53.776ZM442.927 54.9512L444.775 44.5672L442.806 44.2168L440.958 54.6008L442.927 54.9512ZM443.79 45.392H481.19V43.392H443.79V45.392ZM550.623 35.416L549.638 35.2422L549.636 35.2542L550.623 35.416ZM546.223 44.392L545.507 43.6937L545.507 43.6939L546.223 44.392ZM537.775 49.496L537.474 48.5424L533.825 49.6946L537.571 50.475L537.775 49.496ZM544.551 53.72L543.756 54.3267L543.761 54.3332L543.766 54.3396L544.551 53.72ZM546.927 64.368L545.942 64.1942L545.94 64.2055L546.927 64.368ZM539.359 76.424L538.773 75.6133L538.768 75.6172L539.359 76.424ZM497.207 81L496.222 80.8251L496.014 82H497.207V81ZM508.119 19.576V18.576H507.281L507.134 19.4011L508.119 19.576ZM546.311 23.096L545.694 23.8829L545.701 23.8886L546.311 23.096ZM537.775 37.264L536.789 37.0996L536.789 37.0996L537.775 37.264ZM518.767 29.256V28.256H517.929L517.782 29.081L518.767 29.256ZM515.951 45.096L514.966 44.921L514.757 46.096H515.951V45.096ZM534.343 43.072L534.927 43.884L534.935 43.8781L534.943 43.872L534.343 43.072ZM534.695 62.872L535.683 63.0257L535.685 63.0134L534.695 62.872ZM532.583 56.184L531.94 56.9497L531.956 56.9635L531.973 56.9766L532.583 56.184ZM514.279 54.336V53.336H513.436L513.293 54.1666L514.279 54.336ZM511.375 71.232L510.389 71.0626L510.188 72.232H511.375V71.232ZM531.175 69.032L531.779 69.8291L531.779 69.8291L531.175 69.032ZM549.636 35.2542C549.08 38.6473 547.699 41.4469 545.507 43.6937L546.939 45.0903C549.44 42.5264 550.993 39.342 551.61 35.5778L549.636 35.2542ZM545.507 43.6939C543.342 45.9143 540.672 47.5325 537.474 48.5424L538.076 50.4496C541.566 49.3475 544.528 47.563 546.939 45.0901L545.507 43.6939ZM537.571 50.475C540.158 51.014 542.205 52.2938 543.756 54.3267L545.346 53.1133C543.495 50.6876 541.024 49.1513 537.979 48.517L537.571 50.475ZM543.766 54.3396C545.376 56.379 546.191 58.7964 546.191 61.64H548.191C548.191 58.3823 547.246 55.5197 545.336 53.1004L543.766 54.3396ZM546.191 61.64C546.191 62.3915 546.11 63.2416 545.942 64.1942L547.912 64.5418C548.096 63.4997 548.191 62.5312 548.191 61.64H546.191ZM545.94 64.2055C545.163 68.9227 542.791 72.7119 538.773 75.6133L539.944 77.2347C544.375 74.0348 547.048 69.7866 547.914 64.5305L545.94 64.2055ZM538.768 75.6172C534.808 78.5172 529.807 80 523.695 80V82C530.138 82 535.579 80.4321 539.95 77.2308L538.768 75.6172ZM523.695 80H497.207V82H523.695V80ZM498.192 81.1749L509.104 19.7509L507.134 19.4011L496.222 80.8251L498.192 81.1749ZM508.119 20.576H533.463V18.576H508.119V20.576ZM533.463 20.576C538.913 20.576 542.943 21.7256 545.694 23.8828L546.928 22.3091C543.695 19.7731 539.16 18.576 533.463 18.576V20.576ZM545.701 23.8886C548.5 26.0413 549.887 28.8841 549.887 32.512H551.887C551.887 28.2786 550.223 24.844 546.921 22.3034L545.701 23.8886ZM549.887 32.512C549.887 33.388 549.805 34.2978 549.638 35.2422L551.608 35.5898C551.793 34.5395 551.887 33.5133 551.887 32.512H549.887ZM538.761 37.4284C538.834 36.9922 538.863 36.3969 538.863 35.68H536.863C536.863 36.3711 536.833 36.8318 536.789 37.0996L538.761 37.4284ZM538.863 35.68C538.863 33.3859 538.096 31.4955 536.476 30.157L535.202 31.699C536.281 32.5899 536.863 33.8675 536.863 35.68H538.863ZM536.476 30.157C534.879 28.8381 532.65 28.256 529.943 28.256V30.256C532.399 30.256 534.1 30.7885 535.202 31.699L536.476 30.157ZM529.943 28.256H518.767V30.256H529.943V28.256ZM517.782 29.081L514.966 44.921L516.936 45.271L519.752 29.431L517.782 29.081ZM515.951 46.096H527.215V44.096H515.951V46.096ZM527.215 46.096C530.247 46.096 532.842 45.3826 534.927 43.884L533.759 42.26C532.09 43.4601 529.932 44.096 527.215 44.096V46.096ZM534.943 43.872C537.04 42.2991 538.311 40.1281 538.761 37.4284L536.789 37.0996C536.417 39.3279 535.4 41.0289 533.743 42.272L534.943 43.872ZM535.685 63.0134C535.802 62.1909 535.871 61.5419 535.871 61.112H533.871C533.871 61.3861 533.822 61.9104 533.705 62.7306L535.685 63.0134ZM535.871 61.112C535.871 58.7243 534.99 56.7743 533.193 55.3914L531.973 56.9766C533.226 57.9404 533.871 59.2757 533.871 61.112H535.871ZM533.226 55.4183C531.521 53.9864 529.21 53.336 526.423 53.336V55.336C528.916 55.336 530.711 55.9176 531.94 56.9497L533.226 55.4183ZM526.423 53.336H514.279V55.336H526.423V53.336ZM513.293 54.1666L510.389 71.0626L512.36 71.4014L515.264 54.5054L513.293 54.1666ZM511.375 72.232H523.783V70.232H511.375V72.232ZM523.783 72.232C526.941 72.232 529.632 71.4555 531.779 69.8291L530.571 68.2349C528.846 69.5418 526.609 70.232 523.783 70.232V72.232ZM531.779 69.8291C533.943 68.1896 535.237 65.8939 535.683 63.0257L533.707 62.7183C533.332 65.1301 532.279 66.9411 530.571 68.2349L531.779 69.8291ZM585.61 19.576L586.595 19.7497L586.802 18.576H585.61V19.576ZM578.922 57.504L577.937 57.3303L577.934 57.3464L577.932 57.3626L578.922 57.504ZM581.298 67.976L580.628 68.7181L580.634 68.7242L580.641 68.7301L581.298 67.976ZM598.81 67.096L599.462 67.854L599.463 67.8528L598.81 67.096ZM603.826 57.504L604.81 57.6841L604.811 57.6777L603.826 57.504ZM610.514 19.576V18.576H609.675L609.529 19.4023L610.514 19.576ZM622.922 19.576L623.907 19.7497L624.114 18.576H622.922V19.576ZM616.234 57.504L617.218 57.679L617.219 57.6777L616.234 57.504ZM610.514 70.88L611.294 71.5063L611.298 71.5001L610.514 70.88ZM600.042 78.976L600.441 79.8931L600.447 79.8903L600.042 78.976ZM571.794 76.776L571.148 77.5394L571.154 77.5442L571.794 76.776ZM566.602 57.504L567.586 57.6829L567.587 57.6777L566.602 57.504ZM573.29 19.576V18.576H572.451L572.305 19.4023L573.29 19.576ZM584.625 19.4023L577.937 57.3303L579.907 57.6777L586.595 19.7497L584.625 19.4023ZM577.932 57.3626C577.698 59.0016 577.57 60.2108 577.57 60.936H579.57C579.57 60.3706 579.677 59.2917 579.912 57.6454L577.932 57.3626ZM577.57 60.936C577.57 64.1951 578.549 66.8411 580.628 68.7181L581.968 67.2339C580.409 65.8256 579.57 63.7783 579.57 60.936H577.57ZM580.641 68.7301C582.702 70.5247 585.55 71.352 589.042 71.352V69.352C585.846 69.352 583.532 68.5953 581.955 67.2219L580.641 68.7301ZM589.042 71.352C593.221 71.352 596.723 70.2105 599.462 67.854L598.158 66.338C595.851 68.3228 592.842 69.352 589.042 69.352V71.352ZM599.463 67.8528C602.256 65.4413 604.016 62.0181 604.81 57.6841L602.842 57.3239C602.11 61.3206 600.527 64.292 598.156 66.3392L599.463 67.8528ZM604.811 57.6777L611.499 19.7497L609.529 19.4023L602.841 57.3303L604.811 57.6777ZM610.514 20.576H622.922V18.576H610.514V20.576ZM621.937 19.4023L615.249 57.3303L617.219 57.6777L623.907 19.7497L621.937 19.4023ZM615.249 57.329C614.335 62.472 612.487 66.7712 609.729 70.2599L611.298 71.5001C614.29 67.7142 616.255 63.096 617.218 57.679L615.249 57.329ZM609.734 70.2537C606.957 73.7107 603.594 76.3092 599.637 78.0617L600.447 79.8903C604.703 78.0055 608.321 75.2067 611.293 71.5063L609.734 70.2537ZM599.643 78.0589C595.729 79.7608 591.495 80.616 586.93 80.616V82.616C591.752 82.616 596.259 81.7112 600.441 79.8931L599.643 78.0589ZM586.93 80.616C580.889 80.616 576.087 79.0521 572.434 76.0078L571.154 77.5442C575.244 80.9532 580.534 82.616 586.93 82.616V80.616ZM572.44 76.0126C568.898 73.0157 567.074 68.6882 567.074 62.872H565.074C565.074 69.1411 567.063 74.083 571.148 77.5394L572.44 76.0126ZM567.074 62.872C567.074 61.2997 567.242 59.571 567.586 57.6829L565.618 57.3251C565.257 59.309 565.074 61.159 565.074 62.872H567.074ZM567.587 57.6777L574.275 19.7497L572.305 19.4023L565.617 57.3303L567.587 57.6777ZM573.29 20.576H585.61V18.576H573.29V20.576ZM635.265 50.2L634.28 50.0278L634.279 50.0356L635.265 50.2ZM642.217 34.008L643.016 34.6096L643.02 34.6049L642.217 34.008ZM655.417 22.832L655.868 23.7244L655.876 23.7204L655.417 22.832ZM689.121 23.888L688.514 24.6829L688.52 24.6874L688.526 24.6917L689.121 23.888ZM697.305 38.056V39.056H698.471L698.294 37.9039L697.305 38.056ZM683.137 38.056L682.197 38.3977L682.437 39.056H683.137V38.056ZM652.161 39.64L651.339 39.0708L651.339 39.0708L652.161 39.64ZM647.937 50.2L648.916 50.404L648.919 50.3889L648.922 50.3738L647.937 50.2ZM651.721 66.392L651.022 67.1065L651.029 67.1139L651.037 67.1211L651.721 66.392ZM675.657 66.656L675.075 65.8432L675.068 65.8479L675.657 66.656ZM683.489 56.184L684.423 56.5405L684.941 55.184H683.489V56.184ZM662.369 56.184L661.383 56.0166L661.185 57.184H662.369V56.184ZM663.953 46.856V45.856H663.109L662.967 46.6886L663.953 46.856ZM697.217 46.856L698.201 47.0335L698.414 45.856H697.217V46.856ZM695.281 57.592L696.219 57.9389L696.25 57.8562L696.265 57.7695L695.281 57.592ZM687.889 69.472L688.625 70.1488L688.625 70.1488L687.889 69.472ZM675.921 78.272L676.345 79.1776L676.355 79.1732L675.921 78.272ZM647.233 78.36L646.76 79.2409L646.765 79.2438L647.233 78.36ZM637.993 69.56L637.124 70.0547L637.129 70.0627L637.133 70.0705L637.993 69.56ZM636.25 50.3721C637.28 44.4803 639.536 39.2312 643.016 34.6096L641.418 33.4064C637.741 38.2888 635.362 43.8344 634.28 50.0278L636.25 50.3721ZM643.02 34.6049C646.508 29.9154 650.789 26.2927 655.868 23.7244L654.966 21.9396C649.603 24.6513 645.084 28.4793 641.415 33.4111L643.02 34.6049ZM655.876 23.7204C660.956 21.0949 666.343 19.784 672.049 19.784V17.784C666.022 17.784 660.321 19.1718 654.958 21.9436L655.876 23.7204ZM672.049 19.784C678.805 19.784 684.268 21.4419 688.514 24.6829L689.728 23.093C685.057 19.5287 679.139 17.784 672.049 17.784V19.784ZM688.526 24.6917C692.81 27.8627 695.414 32.3392 696.317 38.2081L698.294 37.9039C697.319 31.5701 694.467 26.6013 689.716 23.0843L688.526 24.6917ZM697.305 37.056H683.137V39.056H697.305V37.056ZM684.077 37.7143C683.065 34.931 681.339 32.7786 678.903 31.3045L677.867 33.0155C679.89 34.24 681.332 36.0183 682.197 38.3977L684.077 37.7143ZM678.903 31.3045C676.482 29.8389 673.534 29.136 670.113 29.136V31.136C673.263 31.136 675.83 31.7824 677.867 33.0155L678.903 31.3045ZM670.113 29.136C666.319 29.136 662.784 29.9944 659.526 31.7158L660.46 33.4842C663.421 31.9202 666.633 31.136 670.113 31.136V29.136ZM659.526 31.7158C656.267 33.4376 653.537 35.8956 651.339 39.0708L652.983 40.2092C655.009 37.283 657.501 35.0477 660.46 33.4842L659.526 31.7158ZM651.339 39.0708C649.138 42.2505 647.679 45.9081 646.952 50.0262L648.922 50.3738C649.603 46.5132 650.961 43.1308 652.983 40.2092L651.339 39.0708ZM646.958 49.996C646.648 51.486 646.497 53.1699 646.497 55.04H648.497C648.497 53.2728 648.64 51.73 648.916 50.404L646.958 49.996ZM646.497 55.04C646.497 60.0562 647.972 64.1209 651.022 67.1065L652.421 65.6775C649.838 63.1484 648.497 59.6452 648.497 55.04H646.497ZM651.037 67.1211C654.142 70.0365 658.342 71.44 663.513 71.44V69.44C658.711 69.44 655.049 68.1448 652.406 65.6629L651.037 67.1211ZM663.513 71.44C668.341 71.44 672.599 70.1219 676.246 67.4641L675.068 65.8479C671.792 68.2354 667.955 69.44 663.513 69.44V71.44ZM676.24 67.4688C679.935 64.8203 682.66 61.163 684.423 56.5405L682.555 55.8275C680.916 60.1223 678.419 63.4464 675.075 65.8432L676.24 67.4688ZM683.489 55.184H662.369V57.184H683.489V55.184ZM663.355 56.3514L664.939 47.0234L662.967 46.6886L661.383 56.0166L663.355 56.3514ZM663.953 47.856H697.217V45.856H663.953V47.856ZM696.233 46.6785L694.297 57.4145L696.265 57.7695L698.201 47.0335L696.233 46.6785ZM694.343 57.2451C692.808 61.396 690.416 65.2457 687.153 68.7952L688.625 70.1488C692.05 66.4236 694.586 62.3533 696.219 57.9389L694.343 57.2451ZM687.153 68.7952C683.898 72.3354 680.013 75.1941 675.488 77.3708L676.355 79.1732C681.099 76.8912 685.192 73.8832 688.625 70.1488L687.153 68.7952ZM675.497 77.3664C670.999 79.4729 666.187 80.528 661.049 80.528V82.528C666.471 82.528 671.574 81.4124 676.345 79.1776L675.497 77.3664ZM661.049 80.528C655.965 80.528 651.525 79.5007 647.701 77.4762L646.765 79.2438C650.92 81.4433 655.69 82.528 661.049 82.528V80.528ZM647.706 77.4791C643.932 75.4512 640.987 72.6443 638.853 69.0495L637.133 70.0705C639.458 73.985 642.673 77.0448 646.76 79.2409L647.706 77.4791ZM638.862 69.0653C636.789 65.4223 635.737 61.1973 635.737 56.36H633.737C633.737 61.4961 634.856 66.071 637.124 70.0547L638.862 69.0653ZM635.737 56.36C635.737 54.4243 635.908 52.426 636.252 50.3644L634.279 50.0356C633.918 52.198 633.737 54.3064 633.737 56.36H635.737Z" fill="white" mask="url(#path-5-outside-1_49_2206)"/>
</g>
</g>
<defs>
<filter id="filter0_d_49_2206" x="0.731934" y="-11" width="707.573" height="119" filterUnits="userSpaceOnUse" color-interpolation-filters="sRGB">
<feFlood flood-opacity="0" result="BackgroundImageFix"/>
<feColorMatrix in="SourceAlpha" type="matrix" values="0 0 0 0 0 0 0 0 0 0 0 0 0 0 0 0 0 0 127 0" result="hardAlpha"/>
<feOffset dx="-4"/>
<feGaussianBlur stdDeviation="8"/>
<feColorMatrix type="matrix" values="0 0 0 0 0.00833333 0 0 0 0 0.167 0 0 0 0 1 0 0 0 1 0"/>
<feBlend mode="normal" in2="BackgroundImageFix" result="effect1_dropShadow_49_2206"/>
<feBlend mode="normal" in="SourceGraphic" in2="effect1_dropShadow_49_2206" result="shape"/>
</filter>
<filter id="filter1_d_49_2206" x="19.7319" y="0" width="691.573" height="103" filterUnits="userSpaceOnUse" color-interpolation-filters="sRGB">
<feFlood flood-opacity="0" result="BackgroundImageFix"/>
<feColorMatrix in="SourceAlpha" type="matrix" values="0 0 0 0 0 0 0 0 0 0 0 0 0 0 0 0 0 0 127 0" result="hardAlpha"/>
<feOffset dx="2"/>
<feGaussianBlur stdDeviation="4"/>
<feColorMatrix type="matrix" values="0 0 0 0 1 0 0 0 0 1 0 0 0 0 0.180392 0 0 0 0.6 0"/>
<feBlend mode="normal" in2="BackgroundImageFix" result="effect1_dropShadow_49_2206"/>
<feBlend mode="normal" in="SourceGraphic" in2="effect1_dropShadow_49_2206" result="shape"/>
</filter>
<filter id="filter2_d_49_2206" x="19.7319" y="9" width="683.573" height="95" filterUnits="userSpaceOnUse" color-interpolation-filters="sRGB">
<feFlood flood-opacity="0" result="BackgroundImageFix"/>
<feColorMatrix in="SourceAlpha" type="matrix" values="0 0 0 0 0 0 0 0 0 0 0 0 0 0 0 0 0 0 127 0" result="hardAlpha"/>
<feOffset dy="2"/>
<feGaussianBlur stdDeviation="2"/>
<feColorMatrix type="matrix" values="0 0 0 0 0.352941 0 0 0 0 1 0 0 0 0 0.960784 0 0 0 0.25 0"/>
<feBlend mode="normal" in2="BackgroundImageFix" result="effect1_dropShadow_49_2206"/>
<feBlend mode="normal" in="SourceGraphic" in2="effect1_dropShadow_49_2206" result="shape"/>
</filter>
</defs>
</svg>
