<svg width="742" height="119" viewBox="0 0 742 119" fill="none" xmlns="http://www.w3.org/2000/svg">
<g style="mix-blend-mode:color-dodge">
<path d="M89.9434 21.24L87.5434 34.44H65.3434L52.8634 105H35.9434L48.4234 34.44H26.1034L28.5034 21.24H89.9434ZM131.001 21.24L116.241 105H99.3213L114.201 21.24H131.001ZM250.92 21.24L236.16 105H219.24L228.84 50.76L196.92 105H184.08L171.24 50.64L161.64 105H144.72L159.6 21.24H178.68L194.4 83.4L231.84 21.24H250.92ZM294.049 34.32L290.209 56.04H318.409L316.129 69H287.929L283.969 91.68H315.769L313.369 105H264.649L279.529 21.12H328.129L325.849 34.32H294.049ZM360.557 21.24H378.197L359.957 51.48H348.317L360.557 21.24ZM417.363 105.84C408.963 105.84 402.043 103.96 396.603 100.2C391.243 96.36 388.563 91 388.563 84.12C388.563 83.4 388.643 82.32 388.803 80.88H405.963C405.643 84.24 406.523 87 408.603 89.16C410.763 91.32 413.883 92.4 417.963 92.4C422.043 92.4 425.243 91.56 427.563 89.88C429.963 88.12 431.163 85.64 431.163 82.44C431.163 79.48 429.923 77.12 427.443 75.36C425.043 73.6 421.243 71.64 416.043 69.48C411.243 67.48 407.323 65.64 404.283 63.96C401.323 62.28 398.763 59.96 396.603 57C394.523 53.96 393.483 50.16 393.483 45.6C393.483 40.4 394.803 35.88 397.443 32.04C400.163 28.2 403.843 25.24 408.483 23.16C413.203 21.08 418.563 20.04 424.563 20.04C430.483 20.04 435.603 21.04 439.923 23.04C444.323 24.96 447.603 27.72 449.763 31.32C452.003 34.92 452.963 39.12 452.643 43.92H434.763L434.883 42.6C434.883 39.96 433.883 37.8 431.883 36.12C429.963 34.44 427.243 33.6 423.723 33.6C419.963 33.6 416.923 34.48 414.603 36.24C412.283 38 411.123 40.4 411.123 43.44C411.123 45.44 411.763 47.2 413.043 48.72C414.403 50.16 416.043 51.44 417.963 52.56C419.883 53.6 422.643 54.96 426.243 56.64C430.963 58.72 434.843 60.68 437.883 62.52C440.923 64.36 443.523 66.8 445.683 69.84C447.843 72.88 448.923 76.6 448.923 81C448.923 85.8 447.603 90.08 444.963 93.84C442.403 97.6 438.723 100.56 433.923 102.72C429.203 104.8 423.683 105.84 417.363 105.84ZM546.355 21.24L537.235 72.96C536.915 75.2 536.755 76.76 536.755 77.64C536.755 81.8 537.995 85 540.475 87.24C542.955 89.4 546.475 90.48 551.035 90.48C556.475 90.48 560.915 89 564.355 86.04C567.875 83 570.155 78.64 571.195 72.96L580.315 21.24H597.235L588.115 72.96C586.835 80.16 584.235 86.24 580.315 91.2C576.395 96.08 571.635 99.76 566.035 102.24C560.515 104.64 554.555 105.84 548.155 105.84C539.675 105.84 532.795 103.64 527.515 99.24C522.315 94.84 519.715 88.52 519.715 80.28C519.715 78.04 519.955 75.6 520.435 72.96L529.555 21.24H546.355ZM681.867 47.16C681.067 51.64 679.267 55.84 676.467 59.76C673.667 63.68 669.787 66.84 664.827 69.24C659.947 71.64 654.067 72.84 647.187 72.84H633.147L627.507 105H610.587L625.467 21.24H656.307C664.867 21.24 671.347 23.16 675.747 27C680.147 30.76 682.347 35.8 682.347 42.12C682.347 43.96 682.187 45.64 681.867 47.16ZM648.867 59.64C653.427 59.64 657.027 58.52 659.667 56.28C662.307 54.04 663.987 51 664.707 47.16C664.867 46.44 664.947 45.4 664.947 44.04C664.947 37.72 661.027 34.56 653.187 34.56H639.987L635.547 59.64H648.867ZM732.435 19.8L720.315 77.76H706.035L714.315 19.8H732.435ZM708.555 105.84C705.915 105.84 703.795 105.08 702.195 103.56C700.595 102.04 699.795 100.12 699.795 97.8C699.795 94.6 700.995 91.88 703.395 89.64C705.875 87.32 708.755 86.16 712.035 86.16C714.675 86.16 716.755 86.92 718.275 88.44C719.875 89.88 720.675 91.8 720.675 94.2C720.675 97.4 719.475 100.16 717.075 102.48C714.675 104.72 711.835 105.84 708.555 105.84Z" fill="#FF5ABD"/>
</g>
<g style="mix-blend-mode:color-dodge" filter="url(#filter0_d_95_1881)">
<path d="M83.9434 18.24L81.5434 31.44H59.3434L46.8634 102H29.9434L42.4234 31.44H20.1034L22.5034 18.24H83.9434ZM125.001 18.24L110.241 102H93.3213L108.201 18.24H125.001ZM244.92 18.24L230.16 102H213.24L222.84 47.76L190.92 102H178.08L165.24 47.64L155.64 102H138.72L153.6 18.24H172.68L188.4 80.4L225.84 18.24H244.92ZM288.049 31.32L284.209 53.04H312.409L310.129 66H281.929L277.969 88.68H309.769L307.369 102H258.649L273.529 18.12H322.129L319.849 31.32H288.049ZM354.557 18.24H372.197L353.957 48.48H342.317L354.557 18.24ZM411.363 102.84C402.963 102.84 396.043 100.96 390.603 97.2C385.243 93.36 382.563 88 382.563 81.12C382.563 80.4 382.643 79.32 382.803 77.88H399.963C399.643 81.24 400.523 84 402.603 86.16C404.763 88.32 407.883 89.4 411.963 89.4C416.043 89.4 419.243 88.56 421.563 86.88C423.963 85.12 425.163 82.64 425.163 79.44C425.163 76.48 423.923 74.12 421.443 72.36C419.043 70.6 415.243 68.64 410.043 66.48C405.243 64.48 401.323 62.64 398.283 60.96C395.323 59.28 392.763 56.96 390.603 54C388.523 50.96 387.483 47.16 387.483 42.6C387.483 37.4 388.803 32.88 391.443 29.04C394.163 25.2 397.843 22.24 402.483 20.16C407.203 18.08 412.563 17.04 418.563 17.04C424.483 17.04 429.603 18.04 433.923 20.04C438.323 21.96 441.603 24.72 443.763 28.32C446.003 31.92 446.963 36.12 446.643 40.92H428.763L428.883 39.6C428.883 36.96 427.883 34.8 425.883 33.12C423.963 31.44 421.243 30.6 417.723 30.6C413.963 30.6 410.923 31.48 408.603 33.24C406.283 35 405.123 37.4 405.123 40.44C405.123 42.44 405.763 44.2 407.043 45.72C408.403 47.16 410.043 48.44 411.963 49.56C413.883 50.6 416.643 51.96 420.243 53.64C424.963 55.72 428.843 57.68 431.883 59.52C434.923 61.36 437.523 63.8 439.683 66.84C441.843 69.88 442.923 73.6 442.923 78C442.923 82.8 441.603 87.08 438.963 90.84C436.403 94.6 432.723 97.56 427.923 99.72C423.203 101.8 417.683 102.84 411.363 102.84ZM540.355 18.24L531.235 69.96C530.915 72.2 530.755 73.76 530.755 74.64C530.755 78.8 531.995 82 534.475 84.24C536.955 86.4 540.475 87.48 545.035 87.48C550.475 87.48 554.915 86 558.355 83.04C561.875 80 564.155 75.64 565.195 69.96L574.315 18.24H591.235L582.115 69.96C580.835 77.16 578.235 83.24 574.315 88.2C570.395 93.08 565.635 96.76 560.035 99.24C554.515 101.64 548.555 102.84 542.155 102.84C533.675 102.84 526.795 100.64 521.515 96.24C516.315 91.84 513.715 85.52 513.715 77.28C513.715 75.04 513.955 72.6 514.435 69.96L523.555 18.24H540.355ZM675.867 44.16C675.067 48.64 673.267 52.84 670.467 56.76C667.667 60.68 663.787 63.84 658.827 66.24C653.947 68.64 648.067 69.84 641.187 69.84H627.147L621.507 102H604.587L619.467 18.24H650.307C658.867 18.24 665.347 20.16 669.747 24C674.147 27.76 676.347 32.8 676.347 39.12C676.347 40.96 676.187 42.64 675.867 44.16ZM642.867 56.64C647.427 56.64 651.027 55.52 653.667 53.28C656.307 51.04 657.987 48 658.707 44.16C658.867 43.44 658.947 42.4 658.947 41.04C658.947 34.72 655.027 31.56 647.187 31.56H633.987L629.547 56.64H642.867ZM726.435 16.8L714.315 74.76H700.035L708.315 16.8H726.435ZM702.555 102.84C699.915 102.84 697.795 102.08 696.195 100.56C694.595 99.04 693.795 97.12 693.795 94.8C693.795 91.6 694.995 88.88 697.395 86.64C699.875 84.32 702.755 83.16 706.035 83.16C708.675 83.16 710.755 83.92 712.275 85.44C713.875 86.88 714.675 88.8 714.675 91.2C714.675 94.4 713.475 97.16 711.075 99.48C708.675 101.72 705.835 102.84 702.555 102.84Z" fill="#3965FF"/>
</g>
<g style="mix-blend-mode:color-dodge" filter="url(#filter1_d_95_1881)">
<path d="M88.9434 21.24L86.5434 34.44H64.3434L51.8634 105H34.9434L47.4234 34.44H25.1034L27.5034 21.24H88.9434ZM130.001 21.24L115.241 105H98.3213L113.201 21.24H130.001ZM249.92 21.24L235.16 105H218.24L227.84 50.76L195.92 105H183.08L170.24 50.64L160.64 105H143.72L158.6 21.24H177.68L193.4 83.4L230.84 21.24H249.92ZM293.049 34.32L289.209 56.04H317.409L315.129 69H286.929L282.969 91.68H314.769L312.369 105H263.649L278.529 21.12H327.129L324.849 34.32H293.049ZM359.557 21.24H377.197L358.957 51.48H347.317L359.557 21.24ZM416.363 105.84C407.963 105.84 401.043 103.96 395.603 100.2C390.243 96.36 387.563 91 387.563 84.12C387.563 83.4 387.643 82.32 387.803 80.88H404.963C404.643 84.24 405.523 87 407.603 89.16C409.763 91.32 412.883 92.4 416.963 92.4C421.043 92.4 424.243 91.56 426.563 89.88C428.963 88.12 430.163 85.64 430.163 82.44C430.163 79.48 428.923 77.12 426.443 75.36C424.043 73.6 420.243 71.64 415.043 69.48C410.243 67.48 406.323 65.64 403.283 63.96C400.323 62.28 397.763 59.96 395.603 57C393.523 53.96 392.483 50.16 392.483 45.6C392.483 40.4 393.803 35.88 396.443 32.04C399.163 28.2 402.843 25.24 407.483 23.16C412.203 21.08 417.563 20.04 423.563 20.04C429.483 20.04 434.603 21.04 438.923 23.04C443.323 24.96 446.603 27.72 448.763 31.32C451.003 34.92 451.963 39.12 451.643 43.92H433.763L433.883 42.6C433.883 39.96 432.883 37.8 430.883 36.12C428.963 34.44 426.243 33.6 422.723 33.6C418.963 33.6 415.923 34.48 413.603 36.24C411.283 38 410.123 40.4 410.123 43.44C410.123 45.44 410.763 47.2 412.043 48.72C413.403 50.16 415.043 51.44 416.963 52.56C418.883 53.6 421.643 54.96 425.243 56.64C429.963 58.72 433.843 60.68 436.883 62.52C439.923 64.36 442.523 66.8 444.683 69.84C446.843 72.88 447.923 76.6 447.923 81C447.923 85.8 446.603 90.08 443.963 93.84C441.403 97.6 437.723 100.56 432.923 102.72C428.203 104.8 422.683 105.84 416.363 105.84ZM545.355 21.24L536.235 72.96C535.915 75.2 535.755 76.76 535.755 77.64C535.755 81.8 536.995 85 539.475 87.24C541.955 89.4 545.475 90.48 550.035 90.48C555.475 90.48 559.915 89 563.355 86.04C566.875 83 569.155 78.64 570.195 72.96L579.315 21.24H596.235L587.115 72.96C585.835 80.16 583.235 86.24 579.315 91.2C575.395 96.08 570.635 99.76 565.035 102.24C559.515 104.64 553.555 105.84 547.155 105.84C538.675 105.84 531.795 103.64 526.515 99.24C521.315 94.84 518.715 88.52 518.715 80.28C518.715 78.04 518.955 75.6 519.435 72.96L528.555 21.24H545.355ZM680.867 47.16C680.067 51.64 678.267 55.84 675.467 59.76C672.667 63.68 668.787 66.84 663.827 69.24C658.947 71.64 653.067 72.84 646.187 72.84H632.147L626.507 105H609.587L624.467 21.24H655.307C663.867 21.24 670.347 23.16 674.747 27C679.147 30.76 681.347 35.8 681.347 42.12C681.347 43.96 681.187 45.64 680.867 47.16ZM647.867 59.64C652.427 59.64 656.027 58.52 658.667 56.28C661.307 54.04 662.987 51 663.707 47.16C663.867 46.44 663.947 45.4 663.947 44.04C663.947 37.72 660.027 34.56 652.187 34.56H638.987L634.547 59.64H647.867ZM731.435 19.8L719.315 77.76H705.035L713.315 19.8H731.435ZM707.555 105.84C704.915 105.84 702.795 105.08 701.195 103.56C699.595 102.04 698.795 100.12 698.795 97.8C698.795 94.6 699.995 91.88 702.395 89.64C704.875 87.32 707.755 86.16 711.035 86.16C713.675 86.16 715.755 86.92 717.275 88.44C718.875 89.88 719.675 91.8 719.675 94.2C719.675 97.4 718.475 100.16 716.075 102.48C713.675 104.72 710.835 105.84 707.555 105.84Z" fill="#EDFF1F"/>
</g>
<g style="mix-blend-mode:color-dodge" filter="url(#filter2_d_95_1881)">
<path d="M86.9434 24.24L84.5434 37.44H62.3434L49.8634 108H32.9434L45.4234 37.44H23.1034L25.5034 24.24H86.9434ZM128.001 24.24L113.241 108H96.3213L111.201 24.24H128.001ZM247.92 24.24L233.16 108H216.24L225.84 53.76L193.92 108H181.08L168.24 53.64L158.64 108H141.72L156.6 24.24H175.68L191.4 86.4L228.84 24.24H247.92ZM291.049 37.32L287.209 59.04H315.409L313.129 72H284.929L280.969 94.68H312.769L310.369 108H261.649L276.529 24.12H325.129L322.849 37.32H291.049ZM357.557 24.24H375.197L356.957 54.48H345.317L357.557 24.24ZM414.363 108.84C405.963 108.84 399.043 106.96 393.603 103.2C388.243 99.36 385.563 94 385.563 87.12C385.563 86.4 385.643 85.32 385.803 83.88H402.963C402.643 87.24 403.523 90 405.603 92.16C407.763 94.32 410.883 95.4 414.963 95.4C419.043 95.4 422.243 94.56 424.563 92.88C426.963 91.12 428.163 88.64 428.163 85.44C428.163 82.48 426.923 80.12 424.443 78.36C422.043 76.6 418.243 74.64 413.043 72.48C408.243 70.48 404.323 68.64 401.283 66.96C398.323 65.28 395.763 62.96 393.603 60C391.523 56.96 390.483 53.16 390.483 48.6C390.483 43.4 391.803 38.88 394.443 35.04C397.163 31.2 400.843 28.24 405.483 26.16C410.203 24.08 415.563 23.04 421.563 23.04C427.483 23.04 432.603 24.04 436.923 26.04C441.323 27.96 444.603 30.72 446.763 34.32C449.003 37.92 449.963 42.12 449.643 46.92H431.763L431.883 45.6C431.883 42.96 430.883 40.8 428.883 39.12C426.963 37.44 424.243 36.6 420.723 36.6C416.963 36.6 413.923 37.48 411.603 39.24C409.283 41 408.123 43.4 408.123 46.44C408.123 48.44 408.763 50.2 410.043 51.72C411.403 53.16 413.043 54.44 414.963 55.56C416.883 56.6 419.643 57.96 423.243 59.64C427.963 61.72 431.843 63.68 434.883 65.52C437.923 67.36 440.523 69.8 442.683 72.84C444.843 75.88 445.923 79.6 445.923 84C445.923 88.8 444.603 93.08 441.963 96.84C439.403 100.6 435.723 103.56 430.923 105.72C426.203 107.8 420.683 108.84 414.363 108.84ZM543.355 24.24L534.235 75.96C533.915 78.2 533.755 79.76 533.755 80.64C533.755 84.8 534.995 88 537.475 90.24C539.955 92.4 543.475 93.48 548.035 93.48C553.475 93.48 557.915 92 561.355 89.04C564.875 86 567.155 81.64 568.195 75.96L577.315 24.24H594.235L585.115 75.96C583.835 83.16 581.235 89.24 577.315 94.2C573.395 99.08 568.635 102.76 563.035 105.24C557.515 107.64 551.555 108.84 545.155 108.84C536.675 108.84 529.795 106.64 524.515 102.24C519.315 97.84 516.715 91.52 516.715 83.28C516.715 81.04 516.955 78.6 517.435 75.96L526.555 24.24H543.355ZM678.867 50.16C678.067 54.64 676.267 58.84 673.467 62.76C670.667 66.68 666.787 69.84 661.827 72.24C656.947 74.64 651.067 75.84 644.187 75.84H630.147L624.507 108H607.587L622.467 24.24H653.307C661.867 24.24 668.347 26.16 672.747 30C677.147 33.76 679.347 38.8 679.347 45.12C679.347 46.96 679.187 48.64 678.867 50.16ZM645.867 62.64C650.427 62.64 654.027 61.52 656.667 59.28C659.307 57.04 660.987 54 661.707 50.16C661.867 49.44 661.947 48.4 661.947 47.04C661.947 40.72 658.027 37.56 650.187 37.56H636.987L632.547 62.64H645.867ZM729.435 22.8L717.315 80.76H703.035L711.315 22.8H729.435ZM705.555 108.84C702.915 108.84 700.795 108.08 699.195 106.56C697.595 105.04 696.795 103.12 696.795 100.8C696.795 97.6 697.995 94.88 700.395 92.64C702.875 90.32 705.755 89.16 709.035 89.16C711.675 89.16 713.755 89.92 715.275 91.44C716.875 92.88 717.675 94.8 717.675 97.2C717.675 100.4 716.475 103.16 714.075 105.48C711.675 107.72 708.835 108.84 705.555 108.84Z" fill="#5AFFBA"/>
</g>
<g style="mix-blend-mode:color-dodge" opacity="0.9">
<g style="mix-blend-mode:color-dodge">
<mask id="path-5-outside-1_95_1881" maskUnits="userSpaceOnUse" x="19" y="17" width="710" height="89" fill="black">
<rect fill="white" x="19" y="17" width="710" height="89"/>
<path d="M84.9434 20.24L82.5434 33.44H60.3434L47.8634 104H30.9434L43.4234 33.44H21.1034L23.5034 20.24H84.9434ZM126.001 20.24L111.241 104H94.3213L109.201 20.24H126.001ZM245.92 20.24L231.16 104H214.24L223.84 49.76L191.92 104H179.08L166.24 49.64L156.64 104H139.72L154.6 20.24H173.68L189.4 82.4L226.84 20.24H245.92ZM289.049 33.32L285.209 55.04H313.409L311.129 68H282.929L278.969 90.68H310.769L308.369 104H259.649L274.529 20.12H323.129L320.849 33.32H289.049ZM355.557 20.24H373.197L354.957 50.48H343.317L355.557 20.24ZM412.363 104.84C403.963 104.84 397.043 102.96 391.603 99.2C386.243 95.36 383.563 90 383.563 83.12C383.563 82.4 383.643 81.32 383.803 79.88H400.963C400.643 83.24 401.523 86 403.603 88.16C405.763 90.32 408.883 91.4 412.963 91.4C417.043 91.4 420.243 90.56 422.563 88.88C424.963 87.12 426.163 84.64 426.163 81.44C426.163 78.48 424.923 76.12 422.443 74.36C420.043 72.6 416.243 70.64 411.043 68.48C406.243 66.48 402.323 64.64 399.283 62.96C396.323 61.28 393.763 58.96 391.603 56C389.523 52.96 388.483 49.16 388.483 44.6C388.483 39.4 389.803 34.88 392.443 31.04C395.163 27.2 398.843 24.24 403.483 22.16C408.203 20.08 413.563 19.04 419.563 19.04C425.483 19.04 430.603 20.04 434.923 22.04C439.323 23.96 442.603 26.72 444.763 30.32C447.003 33.92 447.963 38.12 447.643 42.92H429.763L429.883 41.6C429.883 38.96 428.883 36.8 426.883 35.12C424.963 33.44 422.243 32.6 418.723 32.6C414.963 32.6 411.923 33.48 409.603 35.24C407.283 37 406.123 39.4 406.123 42.44C406.123 44.44 406.763 46.2 408.043 47.72C409.403 49.16 411.043 50.44 412.963 51.56C414.883 52.6 417.643 53.96 421.243 55.64C425.963 57.72 429.843 59.68 432.883 61.52C435.923 63.36 438.523 65.8 440.683 68.84C442.843 71.88 443.923 75.6 443.923 80C443.923 84.8 442.603 89.08 439.963 92.84C437.403 96.6 433.723 99.56 428.923 101.72C424.203 103.8 418.683 104.84 412.363 104.84ZM541.355 20.24L532.235 71.96C531.915 74.2 531.755 75.76 531.755 76.64C531.755 80.8 532.995 84 535.475 86.24C537.955 88.4 541.475 89.48 546.035 89.48C551.475 89.48 555.915 88 559.355 85.04C562.875 82 565.155 77.64 566.195 71.96L575.315 20.24H592.235L583.115 71.96C581.835 79.16 579.235 85.24 575.315 90.2C571.395 95.08 566.635 98.76 561.035 101.24C555.515 103.64 549.555 104.84 543.155 104.84C534.675 104.84 527.795 102.64 522.515 98.24C517.315 93.84 514.715 87.52 514.715 79.28C514.715 77.04 514.955 74.6 515.435 71.96L524.555 20.24H541.355ZM676.867 46.16C676.067 50.64 674.267 54.84 671.467 58.76C668.667 62.68 664.787 65.84 659.827 68.24C654.947 70.64 649.067 71.84 642.187 71.84H628.147L622.507 104H605.587L620.467 20.24H651.307C659.867 20.24 666.347 22.16 670.747 26C675.147 29.76 677.347 34.8 677.347 41.12C677.347 42.96 677.187 44.64 676.867 46.16ZM643.867 58.64C648.427 58.64 652.027 57.52 654.667 55.28C657.307 53.04 658.987 50 659.707 46.16C659.867 45.44 659.947 44.4 659.947 43.04C659.947 36.72 656.027 33.56 648.187 33.56H634.987L630.547 58.64H643.867ZM727.435 18.8L715.315 76.76H701.035L709.315 18.8H727.435ZM703.555 104.84C700.915 104.84 698.795 104.08 697.195 102.56C695.595 101.04 694.795 99.12 694.795 96.8C694.795 93.6 695.995 90.88 698.395 88.64C700.875 86.32 703.755 85.16 707.035 85.16C709.675 85.16 711.755 85.92 713.275 87.44C714.875 88.88 715.675 90.8 715.675 93.2C715.675 96.4 714.475 99.16 712.075 101.48C709.675 103.72 706.835 104.84 703.555 104.84Z"/>
</mask>
<path d="M84.9434 20.24L85.9273 20.4189L86.1417 19.24H84.9434V20.24ZM82.5434 33.44V34.44H83.378L83.5273 33.6189L82.5434 33.44ZM60.3434 33.44V32.44H59.5048L59.3587 33.2658L60.3434 33.44ZM47.8634 104V105H48.7021L48.8482 104.174L47.8634 104ZM30.9434 104L29.9587 103.826L29.751 105H30.9434V104ZM43.4234 33.44L44.4082 33.6142L44.6158 32.44H43.4234V33.44ZM21.1034 33.44L20.1196 33.2611L19.9052 34.44H21.1034V33.44ZM23.5034 20.24V19.24H22.6689L22.5196 20.0611L23.5034 20.24ZM83.9596 20.0611L81.5596 33.2611L83.5273 33.6189L85.9273 20.4189L83.9596 20.0611ZM82.5434 32.44H60.3434V34.44H82.5434V32.44ZM59.3587 33.2658L46.8787 103.826L48.8482 104.174L61.3282 33.6142L59.3587 33.2658ZM47.8634 103H30.9434V105H47.8634V103ZM31.9282 104.174L44.4082 33.6142L42.4387 33.2658L29.9587 103.826L31.9282 104.174ZM43.4234 32.44H21.1034V34.44H43.4234V32.44ZM22.0873 33.6189L24.4873 20.4189L22.5196 20.0611L20.1196 33.2611L22.0873 33.6189ZM23.5034 21.24H84.9434V19.24H23.5034V21.24ZM126.001 20.24L126.986 20.4135L127.193 19.24H126.001V20.24ZM111.241 104V105H112.08L112.226 104.174L111.241 104ZM94.3213 104L93.3367 103.825L93.1279 105H94.3213V104ZM109.201 20.24V19.24H108.363L108.217 20.0651L109.201 20.24ZM125.016 20.0665L110.256 103.826L112.226 104.174L126.986 20.4135L125.016 20.0665ZM111.241 103H94.3213V105H111.241V103ZM95.3058 104.175L110.186 20.4149L108.217 20.0651L93.3367 103.825L95.3058 104.175ZM109.201 21.24H126.001V19.24H109.201V21.24ZM245.92 20.24L246.905 20.4135L247.111 19.24H245.92V20.24ZM231.16 104V105H231.999L232.145 104.174L231.16 104ZM214.24 104L213.255 103.826L213.047 105H214.24V104ZM223.84 49.76L224.824 49.9343L222.978 49.2528L223.84 49.76ZM191.92 104V105H192.492L192.782 104.507L191.92 104ZM179.08 104L178.106 104.23L178.288 105H179.08V104ZM166.24 49.64L167.213 49.4101L165.255 49.4661L166.24 49.64ZM156.64 104V105H157.479L157.624 104.174L156.64 104ZM139.72 104L138.735 103.825L138.526 105H139.72V104ZM154.6 20.24V19.24H153.762L153.615 20.0651L154.6 20.24ZM173.68 20.24L174.649 19.9948L174.458 19.24H173.68V20.24ZM189.4 82.4L188.43 82.6452L189.018 84.9711L190.256 82.916L189.4 82.4ZM226.84 20.24V19.24H226.275L225.983 19.724L226.84 20.24ZM244.935 20.0665L230.175 103.826L232.145 104.174L246.905 20.4135L244.935 20.0665ZM231.16 103H214.24V105H231.16V103ZM215.224 104.174L224.824 49.9343L222.855 49.5857L213.255 103.826L215.224 104.174ZM222.978 49.2528L191.058 103.493L192.782 104.507L224.702 50.2672L222.978 49.2528ZM191.92 103H179.08V105H191.92V103ZM180.053 103.77L167.213 49.4101L165.266 49.8699L178.106 104.23L180.053 103.77ZM165.255 49.4661L155.655 103.826L157.624 104.174L167.224 49.8139L165.255 49.4661ZM156.64 103H139.72V105H156.64V103ZM140.704 104.175L155.584 20.4149L153.615 20.0651L138.735 103.825L140.704 104.175ZM154.6 21.24H173.68V19.24H154.6V21.24ZM172.71 20.4852L188.43 82.6452L190.369 82.1548L174.649 19.9948L172.71 20.4852ZM190.256 82.916L227.696 20.756L225.983 19.724L188.543 81.884L190.256 82.916ZM226.84 21.24H245.92V19.24H226.84V21.24ZM289.049 33.32V32.32H288.211L288.065 33.1459L289.049 33.32ZM285.209 55.04L284.225 54.8659L284.017 56.04H285.209V55.04ZM313.409 55.04L314.394 55.2133L314.601 54.04H313.409V55.04ZM311.129 68V69H311.969L312.114 68.1733L311.129 68ZM282.929 68V67H282.089L281.944 67.828L282.929 68ZM278.969 90.68L277.984 90.508L277.78 91.68H278.969V90.68ZM310.769 90.68L311.754 90.8573L311.966 89.68H310.769V90.68ZM308.369 104V105H309.205L309.354 104.177L308.369 104ZM259.649 104L258.665 103.825L258.456 105H259.649V104ZM274.529 20.12V19.12H273.691L273.545 19.9453L274.529 20.12ZM323.129 20.12L324.115 20.2902L324.317 19.12H323.129V20.12ZM320.849 33.32V34.32H321.691L321.835 33.4902L320.849 33.32ZM288.065 33.1459L284.225 54.8659L286.194 55.2141L290.034 33.4941L288.065 33.1459ZM285.209 56.04H313.409V54.04H285.209V56.04ZM312.424 54.8667L310.145 67.8267L312.114 68.1733L314.394 55.2133L312.424 54.8667ZM311.129 67H282.929V69H311.129V67ZM281.944 67.828L277.984 90.508L279.954 90.852L283.914 68.172L281.944 67.828ZM278.969 91.68H310.769V89.68H278.969V91.68ZM309.785 90.5027L307.385 103.823L309.354 104.177L311.754 90.8573L309.785 90.5027ZM308.369 103H259.649V105H308.369V103ZM260.634 104.175L275.514 20.2947L273.545 19.9453L258.665 103.825L260.634 104.175ZM274.529 21.12H323.129V19.12H274.529V21.12ZM322.144 19.9498L319.864 33.1498L321.835 33.4902L324.115 20.2902L322.144 19.9498ZM320.849 32.32H289.049V34.32H320.849V32.32ZM355.557 20.24V19.24H354.883L354.63 19.8648L355.557 20.24ZM373.197 20.24L374.053 20.7565L374.968 19.24H373.197V20.24ZM354.957 50.48V51.48H355.521L355.813 50.9965L354.957 50.48ZM343.317 50.48L342.39 50.1048L341.833 51.48H343.317V50.48ZM355.557 21.24H373.197V19.24H355.557V21.24ZM372.34 19.7235L354.1 49.9635L355.813 50.9965L374.053 20.7565L372.34 19.7235ZM354.957 49.48H343.317V51.48H354.957V49.48ZM344.243 50.8552L356.484 20.6152L354.63 19.8648L342.39 50.1048L344.243 50.8552ZM391.603 99.2L391.021 100.013L391.028 100.018L391.035 100.023L391.603 99.2ZM383.803 79.88V78.88H382.908L382.81 79.7696L383.803 79.88ZM400.963 79.88L401.959 79.9748L402.063 78.88H400.963V79.88ZM403.603 88.16L402.883 88.8536L402.89 88.8604L402.896 88.8671L403.603 88.16ZM422.563 88.88L423.15 89.69L423.155 89.6864L422.563 88.88ZM422.443 74.36L421.852 75.1664L421.858 75.171L421.865 75.1755L422.443 74.36ZM411.043 68.48L410.659 69.4031L410.66 69.4035L411.043 68.48ZM399.283 62.96L398.79 63.8297L398.8 63.8352L399.283 62.96ZM391.603 56L390.778 56.5647L390.787 56.5772L390.796 56.5895L391.603 56ZM392.443 31.04L391.627 30.4619L391.619 30.4735L392.443 31.04ZM403.483 22.16L403.08 21.2449L403.074 21.2475L403.483 22.16ZM434.923 22.04L434.503 22.9475L434.513 22.9521L434.523 22.9565L434.923 22.04ZM444.763 30.32L443.906 30.8345L443.91 30.8414L443.914 30.8483L444.763 30.32ZM447.643 42.92V43.92H448.579L448.641 42.9865L447.643 42.92ZM429.763 42.92L428.768 42.8295L428.668 43.92H429.763V42.92ZM429.883 41.6L430.879 41.6905L430.883 41.6454V41.6H429.883ZM426.883 35.12L426.225 35.8726L426.233 35.8792L426.24 35.8857L426.883 35.12ZM409.603 35.24L408.999 34.4433L409.603 35.24ZM408.043 47.72L407.279 48.3641L407.297 48.3859L407.316 48.4066L408.043 47.72ZM412.963 51.56L412.46 52.4238L412.473 52.4318L412.487 52.4393L412.963 51.56ZM421.243 55.64L420.821 56.5462L420.83 56.5507L420.84 56.5551L421.243 55.64ZM432.883 61.52L432.366 62.3755L432.883 61.52ZM440.683 68.84L439.868 69.4192L440.683 68.84ZM439.963 92.84L439.145 92.2654L439.141 92.2713L439.137 92.2772L439.963 92.84ZM428.923 101.72L429.327 102.635L429.334 102.632L428.923 101.72ZM412.363 103.84C404.112 103.84 397.405 101.994 392.172 98.3774L391.035 100.023C396.682 103.926 403.815 105.84 412.363 105.84V103.84ZM392.186 98.3871C387.101 94.7443 384.563 89.6941 384.563 83.12H382.563C382.563 90.3059 385.386 95.9757 391.021 100.013L392.186 98.3871ZM384.563 83.12C384.563 82.4576 384.638 81.4226 384.797 79.9904L382.81 79.7696C382.649 81.2174 382.563 82.3424 382.563 83.12H384.563ZM383.803 80.88H400.963V78.88H383.803V80.88ZM399.968 79.7852C399.624 83.3948 400.574 86.4557 402.883 88.8536L404.324 87.4664C402.473 85.5443 401.663 83.0852 401.959 79.9748L399.968 79.7852ZM402.896 88.8671C405.3 91.2709 408.71 92.4 412.963 92.4V90.4C409.057 90.4 406.227 89.3691 404.311 87.4529L402.896 88.8671ZM412.963 92.4C417.168 92.4 420.601 91.536 423.15 89.6899L421.977 88.0701C419.886 89.584 416.919 90.4 412.963 90.4V92.4ZM423.155 89.6864C425.833 87.7221 427.163 84.9306 427.163 81.44H425.163C425.163 84.3494 424.093 86.5179 421.972 88.0736L423.155 89.6864ZM427.163 81.44C427.163 78.1456 425.758 75.4859 423.022 73.5445L421.865 75.1755C424.089 76.7541 425.163 78.8144 425.163 81.44H427.163ZM423.035 73.5536C420.537 71.7215 416.648 69.7251 411.427 67.5565L410.66 69.4035C415.839 71.5549 419.55 73.4784 421.852 75.1664L423.035 73.5536ZM411.428 67.5569C406.647 65.5648 402.763 63.7406 399.767 62.0848L398.8 63.8352C401.883 65.5394 405.84 67.3952 410.659 69.4031L411.428 67.5569ZM399.777 62.0903C396.95 60.4856 394.494 58.2648 392.411 55.4105L390.796 56.5895C393.033 59.6552 395.697 62.0744 398.79 63.8297L399.777 62.0903ZM392.429 55.4353C390.487 52.5975 389.483 49.0068 389.483 44.6H387.483C387.483 49.3132 388.56 53.3225 390.778 56.5647L392.429 55.4353ZM389.483 44.6C389.483 39.5779 390.755 35.2608 393.267 31.6065L391.619 30.4735C388.852 34.4992 387.483 39.2221 387.483 44.6H389.483ZM393.259 31.618C395.868 27.9356 399.402 25.0855 403.892 23.0725L403.074 21.2475C398.285 23.3945 394.459 26.4644 391.627 30.462L393.259 31.618ZM403.887 23.0751C408.461 21.0595 413.68 20.04 419.563 20.04V18.04C413.447 18.04 407.946 19.1005 403.08 21.2449L403.887 23.0751ZM419.563 20.04C425.373 20.04 430.343 21.0214 434.503 22.9475L435.344 21.1325C430.864 19.0586 425.594 18.04 419.563 18.04V20.04ZM434.523 22.9565C438.761 24.8057 441.868 27.4376 443.906 30.8345L445.621 29.8055C443.339 26.0023 439.886 23.1143 435.323 21.1235L434.523 22.9565ZM443.914 30.8483C446.029 34.2471 446.954 38.2332 446.646 42.8535L448.641 42.9865C448.973 38.0068 447.978 33.5929 445.612 29.7917L443.914 30.8483ZM447.643 41.92H429.763V43.92H447.643V41.92ZM430.759 43.0105L430.879 41.6905L428.888 41.5095L428.768 42.8295L430.759 43.0105ZM430.883 41.6C430.883 38.6683 429.756 36.2266 427.527 34.3543L426.24 35.8857C428.011 37.3734 428.883 39.2517 428.883 41.6H430.883ZM427.542 34.3674C425.381 32.4763 422.394 31.6 418.723 31.6V33.6C422.093 33.6 424.546 34.4037 426.225 35.8726L427.542 34.3674ZM418.723 31.6C414.809 31.6 411.538 32.5174 408.999 34.4433L410.208 36.0367C412.309 34.4426 415.118 33.6 418.723 33.6V31.6ZM408.999 34.4433C406.417 36.4019 405.123 39.1032 405.123 42.44H407.123C407.123 39.6968 408.15 37.5981 410.208 36.0367L408.999 34.4433ZM405.123 42.44C405.123 44.674 405.846 46.6626 407.279 48.3641L408.808 47.0759C407.681 45.7374 407.123 44.206 407.123 42.44H405.123ZM407.316 48.4066C408.749 49.9239 410.467 51.2615 412.46 52.4238L413.467 50.6962C411.62 49.6185 410.057 48.3961 408.77 47.0334L407.316 48.4066ZM412.487 52.4393C414.433 53.4935 417.215 54.8634 420.821 56.5462L421.666 54.7338C418.072 53.0566 415.333 51.7065 413.44 50.6807L412.487 52.4393ZM420.84 56.5551C425.537 58.6247 429.375 60.5653 432.366 62.3755L433.401 60.6645C430.312 58.7947 426.39 56.8153 421.647 54.7249L420.84 56.5551ZM432.366 62.3755C435.283 64.1412 437.783 66.485 439.868 69.4192L441.499 68.2608C439.263 65.115 436.564 62.5788 433.401 60.6645L432.366 62.3755ZM439.868 69.4192C441.888 72.2612 442.923 75.7692 442.923 80H444.923C444.923 75.4308 443.799 71.4988 441.499 68.2608L439.868 69.4192ZM442.923 80C442.923 84.6041 441.661 88.6815 439.145 92.2654L440.782 93.4146C443.546 89.4785 444.923 84.9959 444.923 80H442.923ZM439.137 92.2772C436.696 95.862 433.172 98.7117 428.513 100.808L429.334 102.632C434.275 100.408 438.111 97.338 440.79 93.4028L439.137 92.2772ZM428.52 100.805C423.952 102.818 418.575 103.84 412.363 103.84V105.84C418.792 105.84 424.454 104.782 429.327 102.635L428.52 100.805ZM541.355 20.24L542.34 20.4137L542.547 19.24H541.355V20.24ZM532.235 71.96L531.25 71.7863L531.247 71.8024L531.245 71.8186L532.235 71.96ZM535.475 86.24L534.805 86.9821L534.811 86.9882L534.818 86.9941L535.475 86.24ZM559.355 85.04L560.007 85.798L560.009 85.7968L559.355 85.04ZM566.195 71.96L567.179 72.1401L567.18 72.1337L566.195 71.96ZM575.315 20.24V19.24H574.476L574.33 20.0663L575.315 20.24ZM592.235 20.24L593.22 20.4137L593.427 19.24H592.235V20.24ZM583.115 71.96L584.1 72.135L584.1 72.1337L583.115 71.96ZM575.315 90.2L576.095 90.8263L576.1 90.8201L575.315 90.2ZM561.035 101.24L561.434 102.157L561.44 102.154L561.035 101.24ZM522.515 98.24L521.869 99.0034L521.875 99.0082L522.515 98.24ZM515.435 71.96L516.419 72.1389L516.42 72.1337L515.435 71.96ZM524.555 20.24V19.24H523.716L523.57 20.0663L524.555 20.24ZM540.37 20.0663L531.25 71.7863L533.22 72.1337L542.34 20.4137L540.37 20.0663ZM531.245 71.8186C530.926 74.055 530.755 75.6801 530.755 76.64H532.755C532.755 75.8399 532.904 74.345 533.225 72.1014L531.245 71.8186ZM530.755 76.64C530.755 81.0084 532.065 84.5078 534.805 86.9821L536.145 85.4979C533.925 83.4922 532.755 80.5916 532.755 76.64H530.755ZM534.818 86.9941C537.54 89.3647 541.327 90.48 546.035 90.48V88.48C541.623 88.48 538.37 87.4353 536.132 85.4859L534.818 86.9941ZM546.035 90.48C551.665 90.48 556.351 88.9438 560.007 85.798L558.703 84.282C555.479 87.0562 551.285 88.48 546.035 88.48V90.48ZM560.009 85.7968C563.74 82.5747 566.108 77.9888 567.179 72.1401L565.211 71.7799C564.202 77.2912 562.01 81.4253 558.701 84.2832L560.009 85.7968ZM567.18 72.1337L576.3 20.4137L574.33 20.0663L565.21 71.7863L567.18 72.1337ZM575.315 21.24H592.235V19.24H575.315V21.24ZM591.25 20.0663L582.13 71.7863L584.1 72.1337L593.22 20.4137L591.25 20.0663ZM582.13 71.785C580.875 78.848 578.333 84.7685 574.53 89.5799L576.1 90.8201C580.137 85.7115 582.795 79.472 584.1 72.135L582.13 71.785ZM574.535 89.5737C570.713 94.332 566.081 97.9118 560.63 100.326L561.44 102.154C567.189 99.6082 572.077 95.828 576.095 90.8263L574.535 89.5737ZM560.636 100.323C555.25 102.665 549.427 103.84 543.155 103.84V105.84C549.683 105.84 555.78 104.615 561.434 102.157L560.636 100.323ZM543.155 103.84C534.852 103.84 528.216 101.689 523.155 97.4718L521.875 99.0082C527.374 103.591 534.498 105.84 543.155 105.84V103.84ZM523.161 97.4766C518.232 93.3064 515.715 87.2935 515.715 79.28H513.715C513.715 87.7465 516.398 94.3736 521.869 99.0034L523.161 97.4766ZM515.715 79.28C515.715 77.1104 515.948 74.731 516.419 72.1389L514.451 71.7811C513.962 74.469 513.715 76.9696 513.715 79.28H515.715ZM516.42 72.1337L525.54 20.4137L523.57 20.0663L514.45 71.7863L516.42 72.1337ZM524.555 21.24H541.355V19.24H524.555V21.24ZM676.867 46.16L675.888 45.954L675.885 45.9691L675.882 45.9842L676.867 46.16ZM671.467 58.76L672.281 59.3412L671.467 58.76ZM659.827 68.24L659.391 67.3398L659.386 67.3427L659.827 68.24ZM628.147 71.84V70.84H627.307L627.162 71.6673L628.147 71.84ZM622.507 104V105H623.347L623.492 104.173L622.507 104ZM605.587 104L604.602 103.825L604.394 105H605.587V104ZM620.467 20.24V19.24H619.629L619.482 20.0651L620.467 20.24ZM670.747 26L670.089 26.7535L670.097 26.7602L670.747 26ZM654.667 55.28L655.314 56.0425V56.0425L654.667 55.28ZM659.707 46.16L658.731 45.9431L658.727 45.9593L658.724 45.9757L659.707 46.16ZM634.987 33.56V32.56H634.148L634.002 33.3857L634.987 33.56ZM630.547 58.64L629.562 58.4657L629.354 59.64H630.547V58.64ZM675.882 45.9842C675.11 50.3096 673.372 54.3723 670.653 58.1788L672.281 59.3412C675.162 55.3077 677.024 50.9704 677.851 46.3358L675.882 45.9842ZM670.653 58.1788C667.964 61.9439 664.222 65.0022 659.391 67.3398L660.262 69.1402C665.351 66.6778 669.37 63.4161 672.281 59.3412L670.653 58.1788ZM659.386 67.3427C654.674 69.6596 648.953 70.84 642.187 70.84V72.84C649.18 72.84 655.219 71.6204 660.268 69.1374L659.386 67.3427ZM642.187 70.84H628.147V72.84H642.187V70.84ZM627.162 71.6673L621.522 103.827L623.492 104.173L629.132 72.0127L627.162 71.6673ZM622.507 103H605.587V105H622.507V103ZM606.571 104.175L621.451 20.4149L619.482 20.0651L604.602 103.825L606.571 104.175ZM620.467 21.24H651.307V19.24H620.467V21.24ZM651.307 21.24C659.735 21.24 665.94 23.1323 670.089 26.7534L671.404 25.2466C666.754 21.1877 659.999 19.24 651.307 19.24V21.24ZM670.097 26.7602C674.253 30.3113 676.347 35.0621 676.347 41.12H678.347C678.347 34.5379 676.041 29.2086 671.397 25.2398L670.097 26.7602ZM676.347 41.12C676.347 42.9031 676.192 44.5128 675.888 45.954L677.845 46.366C678.182 44.7672 678.347 43.0169 678.347 41.12H676.347ZM643.867 59.64C648.588 59.64 652.443 58.4788 655.314 56.0425L654.02 54.5175C651.611 56.5612 648.266 57.64 643.867 57.64V59.64ZM655.314 56.0425C658.151 53.635 659.933 50.3792 660.69 46.3443L658.724 45.9757C658.041 49.6208 656.463 52.445 654.02 54.5175L655.314 56.0425ZM660.683 46.3769C660.867 45.5494 660.947 44.4228 660.947 43.04H658.947C658.947 44.3772 658.867 45.3306 658.731 45.9431L660.683 46.3769ZM660.947 43.04C660.947 39.6619 659.889 36.9686 657.634 35.1515C655.422 33.3675 652.215 32.56 648.187 32.56V34.56C651.999 34.56 654.672 35.3325 656.379 36.7085C658.045 38.0514 658.947 40.0981 658.947 43.04H660.947ZM648.187 32.56H634.987V34.56H648.187V32.56ZM634.002 33.3857L629.562 58.4657L631.532 58.8143L635.972 33.7343L634.002 33.3857ZM630.547 59.64H643.867V57.64H630.547V59.64ZM727.435 18.8L728.414 19.0047L728.665 17.8H727.435V18.8ZM715.315 76.76V77.76H716.127L716.294 76.9647L715.315 76.76ZM701.035 76.76L700.045 76.6186L699.882 77.76H701.035V76.76ZM709.315 18.8V17.8H708.447L708.325 18.6586L709.315 18.8ZM697.195 102.56L696.506 103.285L697.195 102.56ZM698.395 88.64L699.077 89.3711L699.078 89.3703L698.395 88.64ZM713.275 87.44L712.568 88.1471L712.586 88.1657L712.606 88.1833L713.275 87.44ZM712.075 101.48L712.757 102.211L712.763 102.205L712.77 102.199L712.075 101.48ZM726.456 18.5953L714.336 76.5553L716.294 76.9647L728.414 19.0047L726.456 18.5953ZM715.315 75.76H701.035V77.76H715.315V75.76ZM702.025 76.9014L710.305 18.9414L708.325 18.6586L700.045 76.6186L702.025 76.9014ZM709.315 19.8H727.435V17.8H709.315V19.8ZM703.555 103.84C701.118 103.84 699.262 103.145 697.883 101.835L696.506 103.285C698.327 105.015 700.712 105.84 703.555 105.84V103.84ZM697.883 101.835C696.493 100.514 695.795 98.8616 695.795 96.8H693.795C693.795 99.3784 694.696 101.566 696.506 103.285L697.883 101.835ZM695.795 96.8C695.795 93.8852 696.874 91.4275 699.077 89.3711L697.712 87.9089C695.116 90.3325 693.795 93.3148 693.795 96.8H695.795ZM699.078 89.3703C701.38 87.2168 704.018 86.16 707.035 86.16V84.16C703.491 84.16 700.37 85.4232 697.712 87.9097L699.078 89.3703ZM707.035 86.16C709.474 86.16 711.276 86.8557 712.568 88.1471L713.982 86.7329C712.233 84.9843 709.876 84.16 707.035 84.16V86.16ZM712.606 88.1833C713.969 89.4107 714.675 91.0472 714.675 93.2H716.675C716.675 90.5528 715.78 88.3493 713.944 86.6967L712.606 88.1833ZM714.675 93.2C714.675 96.1161 713.594 98.6203 711.38 100.761L712.77 102.199C715.355 99.6997 716.675 96.6839 716.675 93.2H714.675ZM711.392 100.749C709.177 102.816 706.581 103.84 703.555 103.84V105.84C707.088 105.84 710.172 104.624 712.757 102.211L711.392 100.749Z" fill="white" mask="url(#path-5-outside-1_95_1881)"/>
</g>
</g>
<defs>
<filter id="filter0_d_95_1881" x="0.103516" y="0.799805" width="738.331" height="119.2" filterUnits="userSpaceOnUse" color-interpolation-filters="sRGB">
<feFlood flood-opacity="0" result="BackgroundImageFix"/>
<feColorMatrix in="SourceAlpha" type="matrix" values="0 0 0 0 0 0 0 0 0 0 0 0 0 0 0 0 0 0 127 0" result="hardAlpha"/>
<feOffset dx="-4"/>
<feGaussianBlur stdDeviation="8"/>
<feColorMatrix type="matrix" values="0 0 0 0 0.00833333 0 0 0 0 0.167 0 0 0 0 1 0 0 0 1 0"/>
<feBlend mode="normal" in2="BackgroundImageFix" result="effect1_dropShadow_95_1881"/>
<feBlend mode="normal" in="SourceGraphic" in2="effect1_dropShadow_95_1881" result="shape"/>
</filter>
<filter id="filter1_d_95_1881" x="19.1035" y="11.7998" width="722.331" height="103.2" filterUnits="userSpaceOnUse" color-interpolation-filters="sRGB">
<feFlood flood-opacity="0" result="BackgroundImageFix"/>
<feColorMatrix in="SourceAlpha" type="matrix" values="0 0 0 0 0 0 0 0 0 0 0 0 0 0 0 0 0 0 127 0" result="hardAlpha"/>
<feOffset dx="2"/>
<feGaussianBlur stdDeviation="4"/>
<feColorMatrix type="matrix" values="0 0 0 0 1 0 0 0 0 1 0 0 0 0 0.180392 0 0 0 0.6 0"/>
<feBlend mode="normal" in2="BackgroundImageFix" result="effect1_dropShadow_95_1881"/>
<feBlend mode="normal" in="SourceGraphic" in2="effect1_dropShadow_95_1881" result="shape"/>
</filter>
<filter id="filter2_d_95_1881" x="19.1035" y="20.7998" width="714.331" height="95.2002" filterUnits="userSpaceOnUse" color-interpolation-filters="sRGB">
<feFlood flood-opacity="0" result="BackgroundImageFix"/>
<feColorMatrix in="SourceAlpha" type="matrix" values="0 0 0 0 0 0 0 0 0 0 0 0 0 0 0 0 0 0 127 0" result="hardAlpha"/>
<feOffset dy="2"/>
<feGaussianBlur stdDeviation="2"/>
<feColorMatrix type="matrix" values="0 0 0 0 0.352941 0 0 0 0 1 0 0 0 0 0.960784 0 0 0 0.25 0"/>
<feBlend mode="normal" in2="BackgroundImageFix" result="effect1_dropShadow_95_1881"/>
<feBlend mode="normal" in="SourceGraphic" in2="effect1_dropShadow_95_1881" result="shape"/>
</filter>
</defs>
</svg>
